<svg width="28" height="11" viewBox="0 0 28 11" fill="none" xmlns="http://www.w3.org/2000/svg">
<g clip-path="url(#clip0_908_30)">
<path d="M24.9606 3.92773C25.2966 3.92773 25.5886 3.97173 25.8366 4.05973C26.0926 4.13973 26.2766 4.21973 26.3886 4.29973C26.6606 4.48373 26.8286 4.36373 26.8926 3.93973H27.1446C27.1286 4.16373 27.1166 4.43973 27.1086 4.76773C27.1006 5.08773 27.0966 5.51573 27.0966 6.05173H26.8446C26.8046 5.75573 26.7286 5.46373 26.6166 5.17573C26.5046 4.88773 26.3406 4.65173 26.1246 4.46773C25.9166 4.28373 25.6446 4.19173 25.3086 4.19173C25.0766 4.19173 24.8806 4.25973 24.7206 4.39573C24.5606 4.52373 24.4806 4.71173 24.4806 4.95973C24.4806 5.19973 24.5526 5.41173 24.6966 5.59573C24.8406 5.77173 25.0246 5.94373 25.2486 6.11173C25.4806 6.27173 25.7206 6.44373 25.9686 6.62773C26.2326 6.82773 26.4726 7.02773 26.6886 7.22773C26.9046 7.41973 27.0766 7.63173 27.2046 7.86373C27.3326 8.09573 27.3966 8.37173 27.3966 8.69173C27.3966 9.05173 27.2926 9.36773 27.0846 9.63973C26.8766 9.90373 26.6006 10.1077 26.2566 10.2517C25.9206 10.3957 25.5446 10.4677 25.1286 10.4677C24.8886 10.4677 24.6726 10.4437 24.4806 10.3957C24.2966 10.3477 24.1366 10.2877 24.0006 10.2157C23.8966 10.1677 23.7966 10.1237 23.7006 10.0837C23.6126 10.0357 23.5286 9.99573 23.4486 9.96373C23.3686 9.93973 23.2966 9.96773 23.2326 10.0477C23.1766 10.1277 23.1326 10.2397 23.1006 10.3837H22.8486C22.8646 10.1277 22.8766 9.81573 22.8846 9.44773C22.8926 9.07973 22.8966 8.59173 22.8966 7.98373H23.1486C23.1966 8.41573 23.2846 8.79973 23.4126 9.13574C23.5406 9.46374 23.7126 9.72373 23.9286 9.91573C24.1526 10.0997 24.4326 10.1917 24.7686 10.1917C24.9046 10.1917 25.0366 10.1637 25.1646 10.1077C25.2926 10.0517 25.3966 9.95973 25.4766 9.83173C25.5646 9.70373 25.6086 9.53973 25.6086 9.33973C25.6086 8.98773 25.4926 8.69573 25.2606 8.46373C25.0366 8.23173 24.7486 7.97973 24.3966 7.70773C24.1406 7.49973 23.8966 7.29573 23.6646 7.09573C23.4406 6.88773 23.2566 6.66373 23.1126 6.42373C22.9686 6.17573 22.8966 5.89574 22.8966 5.58373C22.8966 5.22373 22.9926 4.91973 23.1846 4.67173C23.3766 4.42373 23.6286 4.23973 23.9406 4.11973C24.2606 3.99173 24.6006 3.92773 24.9606 3.92773Z" fill="black"/>
<path d="M19.6338 3.92773C20.3378 3.92773 20.8898 4.13573 21.2898 4.55173C21.6898 4.96773 21.8898 5.64773 21.8898 6.59173H17.9418L17.9178 6.36373H20.3778C20.3858 5.97173 20.3618 5.61173 20.3058 5.28373C20.2498 4.94773 20.1618 4.67973 20.0418 4.47973C19.9218 4.27973 19.7618 4.17973 19.5618 4.17973C19.2818 4.17973 19.0418 4.35573 18.8418 4.70773C18.6498 5.05973 18.5338 5.64373 18.4938 6.45973L18.5298 6.53173C18.5218 6.62773 18.5138 6.72773 18.5058 6.83173C18.5058 6.93573 18.5058 7.04373 18.5058 7.15573C18.5058 7.70773 18.5818 8.15573 18.7338 8.49973C18.8938 8.84373 19.0938 9.09573 19.3338 9.25573C19.5738 9.40773 19.8178 9.48373 20.0658 9.48373C20.2338 9.48373 20.4058 9.45973 20.5818 9.41173C20.7658 9.35573 20.9498 9.25973 21.1338 9.12373C21.3178 8.97973 21.4898 8.77973 21.6498 8.52373L21.8658 8.59573C21.7698 8.89973 21.6178 9.19573 21.4098 9.48373C21.2018 9.77173 20.9378 10.0077 20.6178 10.1917C20.2978 10.3757 19.9138 10.4677 19.4658 10.4677C18.9218 10.4677 18.4418 10.3517 18.0258 10.1197C17.6098 9.88773 17.2818 9.53573 17.0418 9.06373C16.8098 8.59173 16.6938 7.99173 16.6938 7.26373C16.6938 6.51973 16.8178 5.89973 17.0658 5.40373C17.3218 4.90773 17.6698 4.53973 18.1098 4.29973C18.5578 4.05173 19.0658 3.92773 19.6338 3.92773Z" fill="black"/>
<path d="M14.3127 1C14.6487 1 14.9127 1.084 15.1047 1.252C15.3047 1.412 15.4047 1.636 15.4047 1.924C15.4047 2.212 15.3047 2.44 15.1047 2.608C14.9127 2.768 14.6487 2.848 14.3127 2.848C13.9767 2.848 13.7087 2.768 13.5087 2.608C13.3167 2.44 13.2207 2.212 13.2207 1.924C13.2207 1.636 13.3167 1.412 13.5087 1.252C13.7087 1.084 13.9767 1 14.3127 1ZM15.2487 3.964V9.184C15.2487 9.52 15.3047 9.748 15.4167 9.868C15.5367 9.988 15.7367 10.048 16.0167 10.048V10.3C15.8727 10.292 15.6487 10.284 15.3447 10.276C15.0407 10.26 14.7327 10.252 14.4207 10.252C14.1087 10.252 13.7927 10.26 13.4727 10.276C13.1527 10.284 12.9127 10.292 12.7527 10.3V10.048C13.0327 10.048 13.2287 9.988 13.3407 9.868C13.4607 9.748 13.5207 9.52 13.5207 9.184V5.404C13.5207 5.044 13.4647 4.78 13.3527 4.612C13.2487 4.436 13.0487 4.348 12.7527 4.348V4.096C13.0087 4.12 13.2567 4.132 13.4967 4.132C13.8327 4.132 14.1447 4.12 14.4327 4.096C14.7287 4.064 15.0007 4.02 15.2487 3.964Z" fill="black"/>
<path d="M11.2791 3.92773C11.5351 3.92773 11.7431 3.98373 11.9031 4.09573C12.0631 4.19973 12.1791 4.33573 12.2511 4.50373C12.3311 4.67173 12.3711 4.84773 12.3711 5.03173C12.3711 5.32773 12.2831 5.57173 12.1071 5.76373C11.9391 5.94773 11.7151 6.03973 11.4351 6.03973C11.1551 6.03973 10.9351 5.97173 10.7751 5.83573C10.6231 5.69173 10.5471 5.50373 10.5471 5.27173C10.5471 5.04773 10.5951 4.86373 10.6911 4.71973C10.7951 4.56773 10.9231 4.43973 11.0751 4.33573C10.9631 4.30373 10.8511 4.30773 10.7391 4.34773C10.5871 4.37173 10.4431 4.43573 10.3071 4.53973C10.1711 4.63573 10.0551 4.75973 9.95912 4.91173C9.86312 5.05573 9.78712 5.21573 9.73112 5.39173C9.67512 5.55973 9.64712 5.72373 9.64712 5.88373V9.06373C9.64712 9.44773 9.73912 9.70773 9.92312 9.84373C10.1151 9.97973 10.3991 10.0477 10.7751 10.0477V10.2997C10.5911 10.2917 10.3231 10.2837 9.97112 10.2757C9.61912 10.2597 9.25112 10.2517 8.86712 10.2517C8.54712 10.2517 8.22312 10.2597 7.89512 10.2757C7.56712 10.2837 7.31912 10.2917 7.15112 10.2997V10.0477C7.43112 10.0477 7.62712 9.98773 7.73912 9.86773C7.85912 9.74773 7.91912 9.51973 7.91912 9.18373V5.40373C7.91912 5.04373 7.86312 4.77973 7.75112 4.61173C7.64712 4.43573 7.44712 4.34773 7.15112 4.34773V4.09573C7.40712 4.11973 7.65512 4.13173 7.89512 4.13173C8.23112 4.13173 8.54312 4.11973 8.83112 4.09573C9.12712 4.06373 9.39912 4.01973 9.64712 3.96373V5.07973C9.74312 4.86373 9.87112 4.66773 10.0311 4.49173C10.1911 4.31573 10.3751 4.17973 10.5831 4.08373C10.7911 3.97973 11.0231 3.92773 11.2791 3.92773Z" fill="black"/>
<path d="M2.596 10.3837C2.236 10.3837 1.936 10.3157 1.696 10.1797C1.456 10.0437 1.28 9.86373 1.168 9.63973C1.056 9.40773 1 9.15573 1 8.88373C1 8.53973 1.076 8.25973 1.228 8.04373C1.388 7.82773 1.592 7.65173 1.84 7.51573C2.088 7.37973 2.348 7.26773 2.62 7.17973C2.9 7.09173 3.164 7.00773 3.412 6.92773C3.668 6.83973 3.872 6.73973 4.024 6.62773C4.184 6.50773 4.264 6.35573 4.264 6.17173V5.23573C4.264 5.02773 4.228 4.84373 4.156 4.68373C4.092 4.51573 3.988 4.38773 3.844 4.29973C3.708 4.21173 3.528 4.16773 3.304 4.16773C3.144 4.16773 2.984 4.19173 2.824 4.23973C2.664 4.27973 2.532 4.35173 2.428 4.45573C2.652 4.53573 2.824 4.65973 2.944 4.82773C3.072 4.98773 3.136 5.17173 3.136 5.37973C3.136 5.65173 3.04 5.86773 2.848 6.02773C2.664 6.18773 2.444 6.26773 2.188 6.26773C1.9 6.26773 1.68 6.17973 1.528 6.00373C1.384 5.81973 1.312 5.59973 1.312 5.34373C1.312 5.11173 1.368 4.91973 1.48 4.76773C1.6 4.61573 1.764 4.47173 1.972 4.33573C2.196 4.20773 2.464 4.10773 2.776 4.03573C3.096 3.96373 3.44 3.92773 3.808 3.92773C4.176 3.92773 4.508 3.96773 4.804 4.04773C5.1 4.11973 5.348 4.25573 5.548 4.45573C5.732 4.63973 5.852 4.86773 5.908 5.13973C5.964 5.40373 5.992 5.73973 5.992 6.14773V9.41173C5.992 9.61173 6.012 9.75173 6.052 9.83173C6.092 9.90373 6.16 9.93973 6.256 9.93973C6.328 9.93973 6.396 9.91973 6.46 9.87973C6.532 9.83973 6.608 9.79173 6.688 9.73573L6.808 9.93973C6.64 10.0837 6.444 10.1957 6.22 10.2757C6.004 10.3477 5.76 10.3837 5.488 10.3837C5.192 10.3837 4.956 10.3437 4.78 10.2637C4.604 10.1757 4.476 10.0597 4.396 9.91573C4.324 9.77173 4.288 9.60373 4.288 9.41173C4.096 9.71573 3.864 9.95573 3.592 10.1317C3.32 10.2997 2.988 10.3837 2.596 10.3837ZM3.448 9.61573C3.608 9.61573 3.752 9.57973 3.88 9.50773C4.016 9.42773 4.144 9.29973 4.264 9.12373V6.66373C4.192 6.78373 4.092 6.89173 3.964 6.98773C3.836 7.08373 3.7 7.18373 3.556 7.28773C3.412 7.38373 3.272 7.49173 3.136 7.61173C3.008 7.73173 2.904 7.87973 2.824 8.05573C2.744 8.23173 2.704 8.44373 2.704 8.69173C2.704 9.00373 2.772 9.23573 2.908 9.38773C3.044 9.53973 3.224 9.61573 3.448 9.61573Z" fill="black"/>
</g>
<defs>
<clipPath id="clip0_908_30">
<rect width="28" height="11" fill="white"/>
</clipPath>
</defs>
</svg>
