<svg width="4288" height="924" viewBox="0 0 4288 924" fill="none" xmlns="http://www.w3.org/2000/svg">
<g clip-path="url(#clip0_907_4)">
<path d="M760.21 682.262H689.832L855.789 241.664H940.919L1107.19 682.262H1035.88L990.092 557.495H806.926L760.21 682.262ZM826.285 503.853H970.423L898.817 301.937H897.587L826.285 503.853ZM1129.34 566.237V363.114H1193.57V555.687C1193.57 609.128 1215.39 635.851 1259.03 635.851C1283.62 635.851 1303.8 625.602 1319.57 605.112C1335.35 584.418 1343.23 554.581 1343.23 515.606V363.114H1408.09V682.262H1343.85V624.099C1323.37 668.298 1290.89 690.399 1246.43 690.399C1225.94 690.399 1208.01 687.284 1192.65 681.055C1177.28 674.626 1164.99 665.685 1155.77 654.233C1146.75 642.581 1140.09 629.522 1135.79 615.056C1131.49 600.39 1129.34 584.117 1129.34 566.237ZM1699.76 363.114H1765.84V654.534C1765.84 678.644 1761.64 700.242 1753.24 719.329C1744.84 738.617 1733.36 754.185 1718.82 766.041C1704.48 778.094 1687.98 787.236 1669.33 793.465C1650.9 799.894 1631.23 803.108 1610.33 803.108C1568.13 803.108 1533.08 793.265 1505.22 773.576C1477.36 753.884 1461.48 727.365 1457.59 694.014H1521.82C1527.56 732.589 1557.06 751.877 1610.33 751.877C1637.38 751.877 1659 744.14 1675.18 728.673C1691.57 713.401 1699.76 689.894 1699.76 658.152V619.879H1699.16C1682.55 663.876 1647.31 685.878 1593.42 685.878C1548.14 685.878 1511.57 670.507 1483.71 639.768C1456.05 609.029 1442.23 569.047 1442.23 519.826C1442.23 471.002 1455.95 431.425 1483.41 401.086C1511.06 370.549 1547.74 355.278 1593.42 355.278C1621.3 355.278 1644.14 361.406 1661.97 373.664C1679.79 385.716 1692.18 400.282 1699.16 417.36H1699.76V363.114ZM1507.07 519.826C1507.07 540.52 1510.44 559.302 1517.21 576.181C1524.17 592.855 1535.24 606.619 1550.41 617.465C1565.56 628.115 1583.9 633.438 1605.41 633.438C1619.75 633.438 1632.67 631.13 1644.14 626.508C1655.61 621.686 1664.94 615.458 1672.11 607.822C1679.28 600.189 1685.32 591.349 1690.23 581.304C1695.15 571.057 1698.53 560.911 1700.37 550.866C1702.43 540.619 1703.45 530.271 1703.45 519.826C1703.45 507.368 1701.3 494.711 1697 481.853C1692.9 468.995 1686.96 457.041 1679.17 445.991C1671.39 434.74 1661.04 425.598 1648.13 418.567C1635.23 411.333 1620.98 407.717 1605.41 407.717C1584.51 407.717 1566.39 413.04 1551.01 423.69C1535.86 434.335 1524.69 448 1517.52 464.674C1510.55 481.351 1507.07 499.734 1507.07 519.826ZM1817.81 566.237V363.114H1882.03V555.687C1882.03 609.128 1903.86 635.851 1947.49 635.851C1972.08 635.851 1992.27 625.602 2008.04 605.112C2023.82 584.418 2031.71 554.581 2031.71 515.606V363.114H2096.55V682.262H2032.31V624.099C2011.83 668.298 1979.35 690.399 1934.9 690.399C1914.41 690.399 1896.48 687.284 1881.12 681.055C1865.75 674.626 1853.45 665.685 1844.23 654.233C1835.22 642.581 1828.56 629.522 1824.26 615.056C1819.95 600.39 1817.81 584.117 1817.81 566.237ZM2328.6 458.949C2326.97 441.068 2319.59 427.706 2306.47 418.868C2293.57 410.025 2278.41 405.608 2261 405.608C2245.63 405.608 2232.21 409.524 2220.74 417.36C2209.47 425.196 2203.83 435.141 2203.83 447.195C2203.83 467.888 2221.46 482.658 2256.7 491.496C2276.36 496.117 2290.81 499.633 2300.02 502.045C2364.35 518.318 2396.53 547.952 2396.53 590.947C2396.53 606.619 2392.63 620.984 2384.85 634.043C2377.27 646.901 2367.13 657.348 2354.42 665.384C2341.92 673.42 2327.99 679.548 2312.63 683.768C2297.26 688.186 2281.59 690.399 2265.61 690.399C2252.9 690.399 2240.61 689.292 2228.73 687.083C2216.84 684.871 2205.16 681.156 2193.69 675.932C2182.21 670.507 2172.07 663.876 2163.26 656.04C2154.46 648.004 2147.07 637.959 2141.13 625.906C2135.4 613.85 2131.92 600.29 2130.69 585.22H2194.92C2198.4 603.906 2206.09 617.566 2217.97 626.207C2229.86 634.845 2246.14 639.166 2266.84 639.166C2278.1 639.166 2288.46 637.859 2297.88 635.247C2307.3 632.636 2315.39 627.814 2322.15 620.782C2328.92 613.75 2332.29 605.012 2332.29 594.562C2332.29 589.34 2331.27 584.719 2329.22 580.702C2327.18 576.482 2324.61 573.066 2321.54 570.454C2318.46 567.641 2314.26 565.03 2308.94 562.618C2303.82 560.208 2299 558.3 2294.5 556.893C2290.2 555.486 2284.56 553.879 2277.59 552.071C2258.12 547.45 2242.76 543.531 2231.49 540.316C2204.23 533.687 2182.21 522.736 2165.42 507.469C2148.62 492.199 2140.22 472.911 2140.22 449.607C2140.22 430.519 2146.16 413.745 2158.04 399.279C2169.92 384.613 2185.09 373.663 2203.53 366.428C2222.16 358.997 2242.04 355.278 2263.15 355.278C2297.98 355.278 2327.18 364.219 2350.73 382.1C2374.3 399.981 2387.82 425.598 2391.3 458.949H2328.6ZM2509.96 582.81C2509.96 614.956 2523.79 631.029 2551.44 631.029H2573.57V682.863H2541.92C2508.93 682.863 2484.76 674.526 2469.39 657.851C2454.02 640.973 2446.34 618.07 2446.34 589.14V413.745H2396.55V363.114H2446.34V288.978L2509.96 261.252V363.114H2572.96V413.745H2509.96V582.81ZM2606.48 460.155C2608.12 450.108 2610.98 440.263 2615.09 430.62C2619.19 420.776 2625.03 411.232 2632.6 401.989C2640.18 392.749 2648.89 384.713 2658.72 377.88C2668.77 370.85 2680.76 365.223 2694.68 361.005C2708.81 356.785 2724.07 354.676 2740.47 354.676C2762.39 354.676 2781.56 357.39 2797.96 362.813C2814.55 368.037 2827.56 374.767 2836.98 383.006C2846.6 391.042 2854.28 400.987 2860.02 412.839C2865.77 424.692 2869.55 436.146 2871.41 447.195C2873.45 458.245 2874.48 470.4 2874.48 483.66V613.249C2874.48 639.768 2876.21 662.773 2879.69 682.262H2812.4C2811.57 673.22 2811.17 659.256 2811.17 640.371V626.809H2810.26C2807.57 634.043 2803.88 640.973 2799.19 647.604C2794.46 654.233 2788.12 660.963 2780.12 667.795C2772.12 674.626 2761.58 680.05 2748.47 684.069C2735.56 688.287 2720.91 690.399 2704.51 690.399C2686.28 690.399 2669.79 687.685 2655.05 682.262C2640.28 677.035 2628.3 669.905 2619.08 660.863C2610.07 651.824 2603.11 641.676 2598.19 630.425C2593.27 619.173 2590.81 607.421 2590.81 595.167C2590.81 584.317 2592.55 574.373 2596.03 565.331C2599.52 556.289 2603.81 548.756 2608.94 542.729C2614.06 536.5 2620.83 530.774 2629.23 525.55C2637.82 520.327 2645.71 516.307 2652.89 513.496C2660.27 510.483 2669.28 507.669 2679.93 505.057C2690.8 502.446 2699.5 500.638 2706.05 499.633C2712.82 498.426 2721.22 497.123 2731.26 495.716C2741.49 494.31 2748.36 493.305 2751.84 492.703C2773.56 489.087 2788.72 484.265 2797.33 478.236C2805.95 472.008 2810.26 462.465 2810.26 449.607C2810.26 436.146 2804.2 425.497 2792.11 417.661C2780.02 409.625 2763.23 405.608 2741.7 405.608C2723.26 405.608 2707.61 410.531 2694.68 420.374C2681.78 430.018 2673.38 443.277 2669.48 460.155H2606.48ZM2655.05 593.961C2655.05 607.822 2660.88 619.074 2672.55 627.714C2684.24 636.152 2699.81 640.371 2719.27 640.371C2731.36 640.371 2742.72 638.361 2753.4 634.344C2764.25 630.324 2774.09 624.299 2782.89 616.263C2791.9 608.226 2798.98 597.176 2804.09 583.111C2809.22 568.846 2811.78 552.473 2811.78 533.988V495.112C2807.68 506.363 2799.58 515.907 2787.49 523.743C2775.4 531.578 2755.13 537.907 2726.65 542.729C2702.26 547.35 2684.24 553.579 2672.55 561.414C2660.88 569.047 2655.05 579.897 2655.05 593.961ZM3050 241.664H3117.93V626.207H3332.45V682.262H3050V241.664ZM3364.42 460.155C3366.07 450.108 3368.94 440.263 3373.02 430.62C3377.14 420.776 3382.96 411.232 3390.54 401.989C3398.12 392.749 3406.83 384.713 3416.66 377.88C3426.71 370.85 3438.7 365.223 3452.65 361.005C3466.78 356.785 3482.04 354.676 3498.43 354.676C3520.35 354.676 3539.5 357.39 3555.89 362.813C3572.49 368.037 3585.49 374.767 3594.92 383.006C3604.56 391.042 3612.26 400.987 3617.97 412.839C3623.71 424.692 3627.51 436.146 3629.35 447.195C3631.4 458.245 3632.42 470.4 3632.42 483.66V613.249C3632.42 639.768 3634.15 662.773 3637.64 682.262H3570.34C3569.53 673.22 3569.11 659.256 3569.11 640.371V626.809H3568.19C3565.51 634.043 3561.85 640.973 3557.12 647.604C3552.4 654.233 3546.05 660.963 3538.06 667.795C3530.09 674.626 3519.51 680.05 3506.4 684.069C3493.5 688.287 3478.87 690.399 3462.47 690.399C3444.22 690.399 3427.73 687.685 3413 682.262C3398.22 677.035 3386.23 669.905 3377.04 660.863C3368.02 651.824 3361.03 641.676 3356.14 630.425C3351.2 619.173 3348.77 607.421 3348.77 595.167C3348.77 584.317 3350.5 574.373 3353.98 565.331C3357.47 556.289 3361.78 548.756 3366.88 542.729C3372 536.5 3378.76 530.774 3387.16 525.55C3395.79 520.327 3403.65 516.307 3410.84 513.496C3418.2 510.483 3427.23 507.669 3437.87 505.057C3448.73 502.446 3457.45 500.638 3464 499.633C3470.77 498.426 3479.16 497.123 3489.19 495.716C3499.45 494.31 3506.3 493.305 3509.79 492.703C3531.5 489.087 3546.68 484.265 3555.29 478.236C3563.89 472.008 3568.19 462.465 3568.19 449.607C3568.19 436.146 3562.14 425.497 3550.04 417.661C3537.95 409.625 3521.16 405.608 3499.66 405.608C3481.2 405.608 3465.55 410.531 3452.65 420.374C3439.72 430.018 3431.32 443.277 3427.44 460.155H3364.42ZM3413 593.961C3413 607.822 3418.83 619.074 3430.5 627.714C3442.18 636.152 3457.76 640.371 3477.22 640.371C3489.3 640.371 3500.68 638.361 3511.34 634.344C3522.2 630.324 3532.03 624.299 3540.83 616.263C3549.86 608.226 3556.91 597.176 3562.03 583.111C3567.17 568.846 3569.71 552.473 3569.71 533.988V495.112C3565.62 506.363 3557.54 515.907 3545.45 523.743C3533.36 531.578 3513.06 537.907 3484.59 542.729C3460.22 547.35 3442.18 553.579 3430.5 561.414C3418.83 569.047 3413 579.897 3413 593.961ZM3858.32 355.278C3903.61 355.278 3939.89 370.549 3967.13 401.086C3994.59 431.625 4008.3 471.908 4008.3 521.934C4008.3 572.161 3994.48 612.744 3966.82 643.687C3939.36 674.426 3902.99 689.794 3857.72 689.794C3831.29 689.794 3808.44 682.963 3789.19 669.303C3770.12 655.64 3757.12 640.171 3750.14 622.892H3749.54V682.262H3684.08V241.664H3749.54V424.291H3750.14C3756.7 406.41 3769.6 390.438 3788.88 376.374C3808.13 362.311 3831.29 355.278 3858.32 355.278ZM3745.84 521.934C3745.84 542.828 3749.23 561.815 3755.99 578.891C3762.97 595.769 3774.01 609.733 3789.19 620.782C3804.54 631.631 3823 637.057 3844.5 637.057C3876.26 637.057 3900.66 626.508 3917.64 605.413C3934.85 584.117 3943.45 556.289 3943.45 521.934C3943.45 488.181 3934.75 460.757 3917.33 439.661C3899.91 418.366 3875.64 407.717 3844.5 407.717C3823.19 407.717 3804.85 413.241 3789.48 424.291C3774.32 435.141 3763.25 449.005 3756.31 465.88C3749.33 482.757 3745.84 501.44 3745.84 521.934ZM4220.07 458.949C4218.45 441.068 4211.05 427.706 4197.94 418.868C4185.04 410.025 4169.89 405.608 4152.47 405.608C4137.09 405.608 4123.67 409.524 4112.22 417.36C4100.94 425.196 4095.3 435.141 4095.3 447.195C4095.3 467.888 4112.92 482.658 4148.16 491.496C4167.83 496.117 4182.29 499.633 4191.49 502.045C4255.82 518.318 4288 547.952 4288 590.947C4288 606.619 4284.11 620.984 4276.33 634.043C4268.75 646.901 4258.6 657.348 4245.9 665.384C4233.41 673.42 4219.47 679.548 4204.11 683.768C4188.74 688.186 4173.05 690.399 4157.09 690.399C4144.37 690.399 4132.09 689.292 4120.21 687.083C4108.3 684.871 4096.63 681.156 4085.17 675.932C4073.69 670.507 4063.54 663.876 4054.76 656.04C4045.94 648.004 4038.54 637.959 4032.61 625.906C4026.87 613.85 4023.39 600.29 4022.16 585.22H4086.41C4089.87 603.906 4097.55 617.566 4109.43 626.207C4121.34 634.845 4137.63 639.166 4158.32 639.166C4169.57 639.166 4179.92 637.859 4189.35 635.247C4198.78 632.636 4206.85 627.814 4213.62 620.782C4220.38 613.75 4223.77 605.012 4223.77 594.562C4223.77 589.34 4222.75 584.719 4220.71 580.702C4218.66 576.482 4216.09 573.066 4213.02 570.454C4209.93 567.641 4205.73 565.03 4200.4 562.618C4195.3 560.208 4190.47 558.3 4185.96 556.893C4181.65 555.486 4176.05 553.879 4169.06 552.071C4149.6 547.45 4134.24 543.531 4122.96 540.316C4095.72 533.687 4073.69 522.736 4056.9 507.469C4040.09 492.199 4031.7 472.911 4031.7 449.607C4031.7 430.519 4037.63 413.745 4049.51 399.279C4061.39 384.613 4076.57 373.663 4095.01 366.428C4113.66 358.997 4133.51 355.278 4154.61 355.278C4189.45 355.278 4218.66 364.219 4242.21 382.1C4265.77 399.981 4279.3 425.598 4282.78 458.949H4220.07Z" fill="#010101"/>
<path fill-rule="evenodd" clip-rule="evenodd" d="M247.997 9.85872C234.852 -3.28624 213.542 -3.28624 200.397 9.85872L9.99995 200.268C-3.14422 213.412 -3.14422 234.724 9.99995 247.869L81.2374 319.11C94.3815 332.255 94.3815 353.568 81.2374 366.713L9.85812 438.096C-3.28605 451.242 -3.28604 472.554 9.85813 485.699L81.2391 557.084C94.3832 570.229 94.3832 591.541 81.2391 604.685L9.85813 676.071C-3.28604 689.215 -3.28602 710.529 9.85815 723.673L200.255 914.081C213.399 927.227 234.711 927.227 247.854 914.081L438.252 723.673C451.395 710.529 451.395 689.215 438.252 676.071L366.871 604.685C353.726 591.541 353.726 570.229 366.871 557.084L438.252 485.699C451.395 472.554 451.395 451.242 438.252 438.096L367.013 366.855C353.87 353.71 353.87 332.398 367.013 319.253L438.393 247.869C451.537 234.724 451.537 213.412 438.393 200.268L247.997 9.85872ZM200.211 247.834C213.354 234.689 234.666 234.689 247.81 247.834L319.209 319.236C332.353 332.381 332.353 353.694 319.209 366.839L247.81 438.242C234.666 451.387 213.354 451.387 200.211 438.242L128.812 366.839C115.668 353.694 115.668 332.381 128.812 319.236L200.211 247.834ZM200.211 485.807C213.354 472.662 234.666 472.662 247.81 485.807L319.209 557.211C332.353 570.356 332.353 591.669 319.209 604.814L247.81 676.216C234.666 689.361 213.354 689.361 200.211 676.216L128.812 604.814C115.668 591.669 115.668 570.356 128.812 557.211L200.211 485.807Z" fill="#010101"/>
</g>
<defs>
<clipPath id="clip0_907_4">
<rect width="4288" height="924" fill="white"/>
</clipPath>
</defs>
</svg>
