<svg overflow="visible" width="100%" height="100%" viewBox="0 0 32768 7061" fill="none" xmlns="http://www.w3.org/2000/svg"> <path stroke-linejoin="miter" fill="rgb(255, 255, 255)" d="M5809.37 5213.69H5271.55L6539.76 1846.74H7190.31L8460.88 5213.69H7916.01L7566.08 4260.25H6166.36L5809.37 5213.69ZM6314.3 3850.33H7415.77L6868.57 2307.33H6859.17L6314.3 3850.33ZM8630.17 4327.05V2774.83H9121.01V4246.43C9121.01 4654.82 9287.75 4859.03 9621.25 4859.03C9809.13 4859.03 9963.35 4780.71 10083.9 4624.13C10204.5 4465.99 10264.7 4237.98 10264.7 3940.14V2774.83H10760.3V5213.69H10269.4V4769.22C10112.9 5106.98 9864.71 5275.87 9524.95 5275.87C9368.39 5275.87 9231.39 5252.07 9113.95 5204.47C8996.54 5155.34 8902.58 5087.01 8832.14 4999.5C8763.24 4910.46 8712.36 4810.66 8679.49 4700.12C8646.6 4588.04 8630.17 4463.69 8630.17 4327.05ZM12989.2 2774.83H13494.2V5001.8C13494.2 5186.04 13462.1 5351.09 13397.9 5496.95C13333.7 5644.34 13246 5763.31 13134.9 5853.91C13025.3 5946.02 12899.2 6015.88 12756.7 6063.48C12615.8 6112.61 12465.5 6137.17 12305.8 6137.17C11983.3 6137.17 11715.5 6061.95 11502.6 5911.49C11289.7 5761.01 11168.3 5558.36 11138.6 5303.5H11629.4C11673.3 5598.28 11898.7 5745.67 12305.8 5745.67C12512.5 5745.67 12677.7 5686.55 12801.4 5568.35C12926.6 5451.65 12989.2 5272.01 12989.2 5029.45V4736.97H12984.6C12857.7 5073.19 12588.4 5241.32 12176.6 5241.32C11830.6 5241.32 11551.1 5123.86 11338.2 4888.96C11126.8 4654.06 11021.2 4348.53 11021.2 3972.39C11021.2 3599.29 11126.1 3296.85 11335.9 3065.01C11547.2 2831.65 11827.5 2714.95 12176.6 2714.95C12389.6 2714.95 12564.2 2761.78 12700.4 2855.45C12836.6 2947.55 12931.3 3058.86 12984.6 3189.37H12989.2V2774.83ZM11516.7 3972.39C11516.7 4130.53 11542.5 4274.06 11594.2 4403.04C11647.4 4530.46 11732 4635.64 11847.9 4718.53C11963.7 4799.91 12103.8 4840.59 12268.2 4840.59C12377.8 4840.59 12476.5 4822.95 12564.2 4787.63C12651.8 4750.78 12723.1 4703.19 12777.9 4644.84C12832.7 4586.51 12878.9 4518.95 12916.4 4442.19C12954 4363.89 12979.8 4286.35 12993.9 4209.59C13009.6 4131.29 13017.4 4052.21 13017.4 3972.39C13017.4 3877.19 13001 3780.47 12968.1 3682.21C12936.8 3583.95 12891.4 3492.6 12831.9 3408.16C12772.4 3322.18 12693.3 3252.32 12594.7 3198.59C12496.1 3143.31 12387.2 3115.68 12268.2 3115.68C12108.5 3115.68 11970 3156.36 11852.5 3237.74C11736.7 3319.09 11651.4 3423.51 11596.6 3550.93C11543.3 3678.37 11516.7 3818.85 11516.7 3972.39ZM13891.3 4327.05V2774.83H14382.1V4246.43C14382.1 4654.82 14548.9 4859.03 14882.3 4859.03C15070.2 4859.03 15224.5 4780.71 15345 4624.13C15465.6 4465.99 15525.9 4237.98 15525.9 3940.14V2774.83H16021.4V5213.69H15530.5V4769.22C15374 5106.98 15125.8 5275.87 14786.1 5275.87C14629.5 5275.87 14492.5 5252.07 14375.1 5204.47C14257.7 5155.34 14163.7 5087.01 14093.2 4999.5C14024.4 4910.46 13973.5 4810.66 13940.6 4700.12C13907.7 4588.04 13891.3 4463.69 13891.3 4327.05ZM17794.7 3507.18C17782.2 3370.54 17725.8 3268.43 17625.6 3200.89C17527 3133.32 17411.1 3099.56 17278.1 3099.56C17160.6 3099.56 17058.1 3129.49 16970.4 3189.37C16884.3 3249.25 16841.2 3325.25 16841.2 3417.36C16841.2 3575.49 16975.9 3688.36 17245.2 3755.9C17395.5 3791.21 17505.9 3818.08 17576.3 3836.51C18067.9 3960.87 18313.8 4187.32 18313.8 4515.88C18313.8 4635.64 18284 4745.42 18224.5 4845.21C18166.6 4943.47 18089.1 5023.3 17992 5084.71C17896.5 5146.12 17790 5192.95 17672.6 5225.2C17555.2 5258.96 17435.4 5275.87 17313.3 5275.87C17216.2 5275.87 17122.3 5267.41 17031.5 5250.53C16940.6 5233.63 16851.4 5205.24 16763.7 5165.32C16676 5123.86 16598.5 5073.19 16531.2 5013.31C16463.9 4951.9 16407.5 4875.14 16362.1 4783.03C16318.3 4690.9 16291.7 4587.28 16282.3 4472.12H16773.1C16799.7 4614.91 16858.5 4719.3 16949.3 4785.33C17040.1 4851.34 17164.5 4884.36 17322.7 4884.36C17408.8 4884.36 17487.9 4874.37 17559.9 4854.41C17631.9 4834.46 17693.7 4797.61 17745.4 4743.87C17797.1 4690.14 17822.9 4623.36 17822.9 4543.51C17822.9 4503.6 17815.1 4468.29 17799.4 4437.59C17783.8 4405.34 17764.2 4379.24 17740.7 4359.28C17717.2 4337.78 17685.1 4317.83 17644.4 4299.4C17605.3 4280.98 17568.5 4266.4 17534.1 4255.65C17501.2 4244.9 17458.1 4232.62 17404.9 4218.8C17256.1 4183.49 17138.7 4153.54 17052.6 4128.97C16844.3 4078.31 16676 3994.63 16547.7 3877.96C16419.3 3761.27 16355.1 3613.88 16355.1 3435.79C16355.1 3289.93 16400.5 3161.74 16491.3 3051.2C16582.1 2939.12 16698 2855.45 16838.9 2800.16C16981.3 2743.37 17133.2 2714.95 17294.5 2714.95C17560.7 2714.95 17783.8 2783.28 17963.8 2919.92C18143.9 3056.56 18247.2 3252.32 18273.8 3507.18H17794.7ZM19180.6 4453.7C19180.6 4699.35 19286.3 4822.18 19497.6 4822.18H19666.7V5218.28H19424.8C19172.7 5218.28 18988 5154.57 18870.6 5027.15C18753.1 4898.17 18694.4 4723.15 18694.4 4502.07V3161.74H18313.9V2774.83H18694.4V2208.3L19180.6 1996.43V2774.83H19662V3161.74H19180.6V4453.7ZM19918.2 3516.4C19930.7 3439.62 19952.6 3364.39 19984 3290.7C20015.3 3215.47 20059.9 3142.54 20117.8 3071.91C20175.7 3001.3 20242.3 2939.89 20317.4 2887.67C20394.2 2833.95 20485.8 2790.95 20592.2 2758.72C20700.2 2726.47 20816.8 2710.35 20942.1 2710.35C21109.6 2710.35 21256.1 2731.09 21381.4 2772.53C21508.2 2812.45 21607.6 2863.88 21679.6 2926.84C21753.1 2988.25 21811.8 3064.25 21855.7 3154.82C21899.6 3245.4 21928.5 3332.93 21942.7 3417.36C21958.3 3501.8 21966.2 3594.69 21966.2 3696.02V4686.31C21966.2 4888.96 21979.4 5064.76 22006 5213.69H21491.8C21485.4 5144.59 21482.4 5037.88 21482.4 4893.57V4789.93H21475.4C21454.9 4845.21 21426.7 4898.17 21390.8 4948.84C21354.7 4999.5 21306.2 5050.93 21245.1 5103.14C21184 5155.34 21103.4 5196.79 21003.2 5227.5C20904.6 5259.73 20792.6 5275.87 20667.3 5275.87C20528 5275.87 20402 5255.13 20289.3 5213.69C20176.5 5173.75 20084.9 5119.26 20014.5 5050.16C19945.6 4981.09 19892.4 4903.54 19854.8 4817.56C19817.2 4731.58 19798.4 4641.77 19798.4 4548.13C19798.4 4465.22 19811.7 4389.23 19838.3 4320.13C19865 4251.03 19897.8 4193.47 19937 4147.41C19976.1 4099.81 20027.8 4056.05 20092 4016.13C20157.7 3976.22 20218 3945.5 20272.8 3924.02C20329.2 3900.99 20398.1 3879.49 20479.5 3859.53C20562.5 3839.58 20629 3825.76 20679.1 3818.08C20730.8 3808.86 20795 3798.9 20871.7 3788.15C20949.9 3777.4 21002.4 3769.72 21029 3765.12C21195 3737.49 21310.8 3700.64 21376.6 3654.57C21442.5 3606.98 21475.4 3534.05 21475.4 3435.79C21475.4 3332.93 21429.1 3251.55 21336.7 3191.67C21244.3 3130.26 21116 3099.56 20951.5 3099.56C20810.6 3099.56 20691 3137.18 20592.2 3212.4C20493.6 3286.1 20429.4 3387.42 20399.6 3516.4H19918.2ZM20289.3 4538.91C20289.3 4644.84 20333.9 4730.82 20423.1 4796.85C20512.4 4861.33 20631.4 4893.57 20780.1 4893.57C20872.5 4893.57 20959.3 4878.21 21040.9 4847.51C21123.8 4816.79 21199 4770.75 21266.3 4709.34C21335.1 4647.92 21389.2 4563.48 21428.3 4456C21467.5 4346.99 21487 4221.87 21487 4080.61V3783.53C21455.7 3869.51 21393.8 3942.44 21301.4 4002.32C21209 4062.2 21054.1 4110.56 20836.5 4147.41C20650.1 4182.72 20512.4 4230.32 20423.1 4290.2C20333.9 4348.53 20289.3 4431.44 20289.3 4538.91ZM23307.5 1846.74H23826.6V4785.33H25465.9V5213.69H23307.5V1846.74ZM25710.2 3516.4C25722.8 3439.62 25744.7 3364.39 25775.9 3290.7C25807.4 3215.47 25851.9 3142.54 25909.8 3071.91C25967.7 3001.3 26034.3 2939.89 26109.4 2887.67C26186.2 2833.95 26277.8 2790.95 26384.4 2758.72C26492.4 2726.47 26609 2710.35 26734.3 2710.35C26901.8 2710.35 27048.1 2731.09 27173.4 2772.53C27300.2 2812.45 27399.6 2863.88 27471.6 2926.84C27545.3 2988.25 27604.1 3064.25 27647.8 3154.82C27691.6 3245.4 27720.7 3332.93 27734.7 3417.36C27750.4 3501.8 27758.2 3594.69 27758.2 3696.02V4686.31C27758.2 4888.96 27771.4 5064.76 27798.1 5213.69H27283.8C27277.6 5144.59 27274.4 5037.88 27274.4 4893.57V4789.93H27267.4C27246.9 4845.21 27218.9 4898.17 27182.8 4948.84C27146.7 4999.5 27098.2 5050.93 27037.1 5103.14C26976.2 5155.34 26895.4 5196.79 26795.2 5227.5C26696.6 5259.73 26584.8 5275.87 26459.5 5275.87C26320 5275.87 26194 5255.13 26081.4 5213.69C25968.5 5173.75 25876.9 5119.26 25806.6 5050.16C25737.7 4981.09 25684.3 4903.54 25646.9 4817.56C25609.2 4731.58 25590.6 4641.77 25590.6 4548.13C25590.6 4465.22 25603.8 4389.23 25630.4 4320.13C25657.1 4251.03 25690 4193.47 25729 4147.41C25768.1 4099.81 25819.8 4056.05 25884 4016.13C25949.9 3976.22 26010 3945.5 26064.9 3924.02C26121.2 3900.99 26190.2 3879.49 26271.5 3859.53C26354.5 3839.58 26421.1 3825.76 26471.2 3818.08C26522.9 3808.86 26587 3798.9 26663.7 3788.15C26742.1 3777.4 26794.4 3769.72 26821.1 3765.12C26987 3737.49 27103 3700.64 27168.8 3654.57C27234.5 3606.98 27267.4 3534.05 27267.4 3435.79C27267.4 3332.93 27221.1 3251.55 27128.7 3191.67C27036.3 3130.26 26908 3099.56 26743.7 3099.56C26602.6 3099.56 26483 3137.18 26384.4 3212.4C26285.6 3286.1 26221.4 3387.42 26191.8 3516.4H25710.2ZM26081.4 4538.91C26081.4 4644.84 26126 4730.82 26215.2 4796.85C26304.4 4861.33 26423.5 4893.57 26572.2 4893.57C26664.5 4893.57 26751.5 4878.21 26832.9 4847.51C26915.9 4816.79 26991 4770.75 27058.3 4709.34C27127.3 4647.92 27181.2 4563.48 27220.3 4456C27259.6 4346.99 27279 4221.87 27279 4080.61V3783.53C27247.7 3869.51 27186 3942.44 27093.6 4002.32C27001.2 4062.2 26846.1 4110.56 26628.5 4147.41C26442.3 4182.72 26304.4 4230.32 26215.2 4290.2C26126 4348.53 26081.4 4431.44 26081.4 4538.91ZM29484.5 2714.95C29830.6 2714.95 30107.8 2831.65 30316 3065.01C30525.8 3298.38 30630.6 3606.21 30630.6 3988.5C30630.6 4372.32 30525 4682.45 30313.6 4918.91C30103.8 5153.81 29825.8 5271.25 29479.9 5271.25C29277.9 5271.25 29103.3 5219.05 28956.2 5114.66C28810.5 5010.25 28711.1 4892.04 28657.8 4760H28653.2V5213.69H28153V1846.74H28653.2V3242.33H28657.8C28707.9 3105.69 28806.5 2983.64 28953.8 2876.16C29100.9 2768.7 29277.9 2714.95 29484.5 2714.95ZM28624.9 3988.5C28624.9 4148.17 28650.8 4293.26 28702.5 4423.75C28755.8 4552.73 28840.2 4659.44 28956.2 4743.87C29073.5 4826.78 29214.6 4868.24 29378.9 4868.24C29621.6 4868.24 29808 4787.63 29937.8 4626.43C30069.3 4463.69 30135 4251.03 30135 3988.5C30135 3730.57 30068.5 3521 29935.4 3359.79C29802.3 3197.06 29616.8 3115.68 29378.9 3115.68C29216 3115.68 29075.9 3157.89 28958.4 3242.33C28842.6 3325.25 28758 3431.19 28704.9 3560.15C28651.6 3689.12 28624.9 3831.89 28624.9 3988.5ZM32248.9 3507.18C32236.5 3370.54 32180 3268.43 32079.8 3200.89C31981.2 3133.32 31865.4 3099.56 31732.3 3099.56C31614.8 3099.56 31512.2 3129.49 31424.7 3189.37C31338.5 3249.25 31295.4 3325.25 31295.4 3417.36C31295.4 3575.49 31430.1 3688.36 31699.4 3755.9C31849.7 3791.21 31960.2 3818.08 32030.5 3836.51C32522.1 3960.87 32768 4187.32 32768 4515.88C32768 4635.64 32738.3 4745.42 32678.8 4845.21C32620.9 4943.47 32543.3 5023.3 32446.3 5084.71C32350.8 5146.12 32244.3 5192.95 32126.9 5225.2C32009.5 5258.96 31889.6 5275.87 31767.6 5275.87C31670.4 5275.87 31576.6 5267.41 31485.8 5250.53C31394.8 5233.63 31305.6 5205.24 31218 5165.32C31130.3 5123.86 31052.7 5073.19 30985.6 5013.31C30918.2 4951.9 30861.7 4875.14 30816.4 4783.03C30772.5 4690.9 30745.9 4587.28 30736.5 4472.12H31227.5C31253.9 4614.91 31312.6 4719.3 31403.4 4785.33C31494.4 4851.34 31618.9 4884.36 31777 4884.36C31863 4884.36 31942.1 4874.37 32014.1 4854.41C32086.2 4834.46 32147.9 4797.61 32199.6 4743.87C32251.3 4690.14 32277.2 4623.36 32277.2 4543.51C32277.2 4503.6 32269.4 4468.29 32253.8 4437.59C32238.1 4405.34 32218.5 4379.24 32195 4359.28C32171.4 4337.78 32139.3 4317.83 32098.6 4299.4C32059.6 4280.98 32022.7 4266.4 31988.2 4255.65C31955.3 4244.9 31912.5 4232.62 31859.1 4218.8C31710.4 4183.49 31593 4153.54 31506.8 4128.97C31298.6 4078.31 31130.3 3994.63 31002 3877.96C30873.5 3761.27 30809.4 3613.88 30809.4 3435.79C30809.4 3289.93 30854.7 3161.74 30945.5 3051.2C31036.3 2939.12 31152.3 2855.45 31293.2 2800.16C31435.7 2743.37 31587.4 2714.95 31748.7 2714.95C32014.9 2714.95 32238.1 2783.28 32418.1 2919.92C32598.1 3056.56 32701.5 3252.32 32728.1 3507.18H32248.9Z"></path> <path stroke-linejoin="miter" fill="rgb(255, 255, 255)" fill-rule="evenodd" clip-rule="evenodd" d="M1895.14 75.3381C1794.69 -25.1127 1631.84 -25.1127 1531.39 75.3381L76.4175 1530.4C-24.0275 1630.85 -24.0275 1793.71 76.4175 1894.16L620.799 2438.57C721.244 2539.02 721.244 2701.89 620.799 2802.34L75.3337 3347.83C-25.1113 3448.29 -25.1112 3611.15 75.3338 3711.6L620.812 4257.11C721.257 4357.56 721.257 4520.42 620.812 4620.87L75.3338 5166.38C-25.1112 5266.83 -25.1111 5429.7 75.3339 5530.15L1530.31 6985.2C1630.75 7085.66 1793.61 7085.66 1894.05 6985.2L3349.03 5530.15C3449.47 5429.7 3449.47 5266.83 3349.03 5166.38L2803.55 4620.87C2703.1 4520.42 2703.1 4357.56 2803.55 4257.11L3349.03 3711.6C3449.47 3611.15 3449.47 3448.29 3349.03 3347.83L2804.64 2803.42C2704.2 2702.97 2704.2 2540.11 2804.64 2439.66L3350.11 1894.16C3450.55 1793.71 3450.55 1630.85 3350.11 1530.4L1895.14 75.3381ZM1529.97 1893.89C1630.41 1793.44 1793.27 1793.44 1893.71 1893.89L2439.33 2439.53C2539.77 2539.98 2539.77 2702.85 2439.33 2803.3L1893.71 3348.95C1793.27 3449.4 1630.41 3449.4 1529.97 3348.95L984.354 2803.3C883.909 2702.85 883.909 2539.98 984.354 2439.53L1529.97 1893.89ZM1529.97 3712.43C1630.41 3611.98 1793.27 3611.98 1893.71 3712.43L2439.33 4258.08C2539.77 4358.53 2539.77 4521.4 2439.33 4621.85L1893.71 5167.49C1793.27 5267.94 1630.41 5267.94 1529.97 5167.49L984.354 4621.85C883.909 4521.4 883.909 4358.53 984.354 4258.08L1529.97 3712.43Z"></path> </svg>