<svg class="w-[87px] h-[16px]" viewBox="0 0 87 16" fill="none" xmlns="http://www.w3.org/2000/svg"><path fill-rule="evenodd" clip-rule="evenodd" d="M15.4183 3.8657C15.9715 3.8657 16.5021 3.98435 17.0101 4.22161C17.5181 4.45887 17.9077 4.77513 18.1786 5.17054V4.00131H19.7535V12.9494C19.7535 13.5595 19.6236 14.0906 19.364 14.5426C19.1043 15.0058 18.7317 15.3616 18.2463 15.6101C17.7722 15.87 17.219 16 16.5868 16H12.5055V14.678H16.4343C16.9536 14.678 17.3714 14.5086 17.6875 14.1697C18.0149 13.8307 18.1786 13.39 18.1786 12.8477V11.4412C17.9641 11.814 17.6028 12.1134 17.0947 12.3394C16.5867 12.5653 16.0222 12.6783 15.4013 12.6783C14.5546 12.6783 13.8264 12.4919 13.2167 12.1191C12.6184 11.7349 12.1555 11.2094 11.8281 10.5428C11.512 9.87627 11.3541 9.11925 11.3541 8.27192C11.3541 7.42458 11.512 6.66758 11.8281 6.00101C12.1555 5.33442 12.6241 4.81476 13.2337 4.44192C13.8433 4.05778 14.5716 3.8657 15.4183 3.8657ZM15.6384 5.27238C15.1078 5.27238 14.6392 5.39653 14.2328 5.64509C13.8377 5.89365 13.5272 6.24394 13.3014 6.69586C13.0869 7.14777 12.9797 7.67315 12.9796 8.27192C12.9796 9.18706 13.2168 9.91584 13.6909 10.4581C14.1764 11.0005 14.8256 11.2716 15.6384 11.2716C16.169 11.2716 16.6319 11.1473 17.0271 10.8988C17.4335 10.6502 17.744 10.3001 17.9585 9.84816C18.1843 9.39623 18.2972 8.87073 18.2972 8.27192C18.2972 7.3568 18.0544 6.628 17.5689 6.0857C17.0835 5.54342 16.44 5.27238 15.6384 5.27238Z" fill="currentColor"></path><path d="M78.902 9.10956L72.3182 12.9011V11.1904L78.902 7.39894V9.10956Z" fill="currentColor"></path><path d="M87 11.1904V12.9011L80.416 9.10956V7.39894L87 11.1904Z" fill="currentColor"></path><path fill-rule="evenodd" clip-rule="evenodd" d="M49.9718 3.8657C50.8185 3.86571 51.5411 4.04644 52.1394 4.40797C52.7378 4.76951 53.195 5.26098 53.5111 5.88237C53.8385 6.49247 54.0021 7.16483 54.0021 7.89921C54.0021 8.13645 53.9909 8.35677 53.9684 8.56012H47.4288C47.4652 9.01767 47.5732 9.43573 47.7533 9.81421C47.9904 10.2887 48.3122 10.6559 48.7187 10.9157C49.1364 11.1756 49.6048 11.3056 50.1241 11.3056C50.7563 11.3056 51.2758 11.1756 51.6822 10.9157C52.0886 10.6446 52.3539 10.2604 52.4781 9.76329H54.07C53.9232 10.6446 53.4941 11.3508 52.7829 11.8818C52.0716 12.4128 51.1853 12.6783 50.1241 12.6783C49.2774 12.6783 48.5323 12.4749 47.8888 12.0682C47.2453 11.6614 46.7486 11.1191 46.3986 10.4412C46.0486 9.7633 45.8735 9.02332 45.8735 8.22118C45.8735 7.40771 46.0373 6.67327 46.3647 6.01798C46.6921 5.36268 47.1663 4.84303 47.7872 4.45889C48.4082 4.06346 49.1364 3.8657 49.9718 3.8657ZM49.9718 5.15374C49.4412 5.15374 48.9783 5.27239 48.5832 5.50966C48.1993 5.74692 47.9056 6.09703 47.7024 6.56025C47.605 6.78971 47.5325 7.04402 47.4846 7.32299H52.3933C52.3369 6.64513 52.0942 6.11409 51.6652 5.72996C51.2475 5.34583 50.683 5.15376 49.9718 5.15374Z" fill="currentColor"></path><path fill-rule="evenodd" clip-rule="evenodd" d="M66.7852 12.5427H65.2104V11.2377C64.9507 11.667 64.5668 12.0173 64.0588 12.2885C63.5508 12.5483 63.0088 12.6783 62.433 12.6783C61.5863 12.6783 60.8581 12.4919 60.2485 12.1191C59.6501 11.7349 59.1872 11.2094 58.8598 10.5428C58.5437 9.87627 58.3858 9.11925 58.3858 8.27192C58.3858 7.42458 58.5437 6.66758 58.8598 6.00101C59.1872 5.33442 59.6558 4.81476 60.2654 4.44192C60.8751 4.05778 61.6033 3.8657 62.45 3.8657C63.0145 3.8657 63.5451 3.99554 64.0418 4.25539C64.5499 4.51524 64.9394 4.85987 65.2104 5.28918V0.442354H66.7852V12.5427ZM62.6701 5.27238C62.1395 5.27238 61.6709 5.39653 61.2645 5.64509C60.8694 5.88235 60.5589 6.23264 60.3331 6.69586C60.1186 7.14777 60.0114 7.67315 60.0114 8.27192C60.0114 9.18706 60.2485 9.91584 60.7227 10.4581C61.2081 11.0005 61.8573 11.2716 62.6701 11.2716C63.2007 11.2716 63.6637 11.153 64.0588 10.9157C64.4652 10.6672 64.7757 10.3169 64.9902 9.86496C65.216 9.40175 65.3289 8.87069 65.3289 8.27192C65.3289 7.3568 65.0861 6.628 64.6007 6.0857C64.1152 5.54342 63.4717 5.27238 62.6701 5.27238Z" fill="currentColor"></path><path d="M1.71038 11.0344H7.50212V12.5427H0V0.67963H1.71038V11.0344Z" fill="currentColor"></path><path d="M9.97712 12.5427H8.40225V4.00131H9.97712V12.5427Z" fill="currentColor"></path><path d="M23.0968 5.54343C23.3226 5.00116 23.6782 4.58875 24.1636 4.30631C24.649 4.01256 25.2192 3.86571 25.874 3.8657C26.5062 3.8657 27.0595 4.01255 27.5336 4.30631C28.0191 4.58876 28.3916 4.98995 28.6513 5.50966C28.9222 6.01806 29.0576 6.61686 29.0576 7.30602V12.5427H27.4658V7.59404C27.4658 6.90488 27.2795 6.35131 26.907 5.93329C26.5344 5.50396 26.049 5.28918 25.4507 5.28918C24.9991 5.28918 24.5927 5.40219 24.2314 5.62812C23.8815 5.85407 23.6048 6.16483 23.4016 6.56025C23.1984 6.95566 23.0968 7.40762 23.0968 7.91601V12.5427H21.5218V0.442354H23.0968V5.54343Z" fill="currentColor"></path><path d="M33.058 4.00131H35.5981V5.37405H33.058V9.72952C33.058 10.1814 33.1709 10.5372 33.3967 10.7971C33.6338 11.0456 33.9611 11.17 34.3789 11.17H35.5981V12.5427H34.2603C33.4023 12.5427 32.7193 12.2997 32.2112 11.8139C31.7145 11.3168 31.4662 10.6332 31.4662 9.76329V5.37405H29.7049V4.00131H30.975C31.3024 4.00131 31.4662 3.83743 31.4662 3.50979V1.32356H33.058V4.00131Z" fill="currentColor"></path><path d="M42.0128 1.81509H40.7257C40.3306 1.81509 40.0144 1.94492 39.7774 2.20477C39.5403 2.45333 39.4217 2.78676 39.4217 3.20479V4.00131H44.5361V12.5427H42.9442V5.37405H39.4217V12.5427H37.8299V5.37405H36.0857V4.00131H37.8299V3.15387C37.8299 2.61161 37.9428 2.13711 38.1686 1.7304C38.3944 1.31237 38.7162 0.99596 39.1339 0.781294C39.5629 0.55533 40.0597 0.442354 40.6242 0.442354H42.0128V1.81509Z" fill="currentColor"></path><path d="M57.0088 12.5427H55.434V0.442354H57.0088V12.5427Z" fill="currentColor"></path><path d="M78.902 3.79151V5.50213L72.3182 1.71062V0L78.902 3.79151Z" fill="currentColor"></path><path d="M87 1.71062L80.416 5.50213V3.79151L87 0V1.71062Z" fill="currentColor"></path><path d="M10.0787 2.47599H8.30066V0.442354H10.0787V2.47599Z" fill="currentColor"></path></svg>