<svg width="559" height="356" viewBox="0 0 559 356" fill="none" xmlns="http://www.w3.org/2000/svg">
<path d="M455.48 281.388C499.061 281.388 541.333 259.44 541.333 234.873C541.333 225.046 534.779 220.132 526.587 220.132C513.152 220.132 499.061 233.562 477.106 233.562C447.615 233.562 421.401 210.959 421.401 177.874C421.401 152.979 436.146 132.669 456.791 132.669C472.191 132.669 485.954 144.133 485.954 154.616C485.954 165.426 471.536 166.082 465.966 166.082C458.1 166.082 457.446 164.771 453.186 164.771C442.7 164.771 436.801 174.271 436.801 183.77C436.801 195.236 445.649 204.08 457.118 204.08H529.863C544.282 204.08 553.129 192.287 553.129 172.632C553.129 128.737 509.875 87.463 454.496 87.463C397.152 87.463 351.931 130.048 351.931 185.081C351.931 238.476 393.22 281.388 455.48 281.388ZM50.7909 344.938C22.2825 344.938 0 332.162 0 313.818C0 298.422 16.0565 296.457 16.0565 272.544V163.46C16.0565 139.547 0 136.927 0 121.531C0 102.859 23.2655 91.0663 46.2033 91.0663C67.8305 91.0663 82.2485 101.549 85.1976 115.634C100.599 97.9454 122.226 87.463 146.475 87.463C194.972 87.463 232.982 130.048 232.982 184.098C232.982 238.804 194.316 281.388 148.44 281.388C117.638 281.388 98.6326 262.061 98.6326 241.096C98.6326 228.321 105.514 219.477 116.328 219.477C120.587 219.477 123.864 220.786 129.107 220.786C147.786 220.786 161.547 204.408 161.547 185.409C161.547 164.771 144.836 149.702 123.537 149.702C102.237 149.702 85.5253 165.099 85.5253 184.426V272.544C85.5253 296.457 101.582 298.422 101.582 313.818C101.582 332.162 79.2994 344.938 50.7909 344.938ZM289.345 79.9287C311.627 79.9287 329.322 62.2396 329.322 39.9643C329.322 17.6891 311.627 0 289.345 0C267.062 0 249.367 17.6891 249.367 39.9643C249.367 62.2396 267.062 79.9287 289.345 79.9287ZM293.277 279.423C321.785 279.423 344.067 266.647 344.067 248.303C344.067 232.907 328.011 230.941 328.011 207.028V120.221C328.011 104.169 312.609 91.0663 288.689 91.0663C265.751 91.0663 242.485 102.859 242.485 121.531C242.485 136.927 258.543 139.547 258.543 163.46V207.028C258.543 230.941 242.485 232.907 242.485 248.303C242.485 266.647 264.768 279.423 293.277 279.423Z" fill="#5C59FE"/>
</svg>
