<svg width="220" height="42" viewBox="0 0 220 42" fill="none" xmlns="http://www.w3.org/2000/svg">
<g clip-path="url(#clip0_117_20)">
<path d="M42.5339 33.432C41.0459 33.432 39.7139 33.084 38.5379 32.388C37.3619 31.668 36.4259 30.612 35.7299 29.22C35.0579 27.828 34.7219 26.112 34.7219 24.072C34.7219 22.032 35.0699 20.316 35.7659 18.924C36.4619 17.532 37.3979 16.488 38.5739 15.792C39.7739 15.072 41.1059 14.712 42.5699 14.712C43.9379 14.712 45.0659 14.976 45.9539 15.504C46.8419 16.008 47.5019 16.656 47.9339 17.448V7.08H51.7499V33H48.4739L48.1499 30.372H47.9339C47.4539 31.308 46.7699 32.052 45.8819 32.604C45.0179 33.156 43.9019 33.432 42.5339 33.432ZM43.3259 29.796C44.6939 29.796 45.8219 29.316 46.7099 28.356C47.6219 27.396 48.0779 25.968 48.0779 24.072C48.0779 22.152 47.6219 20.724 46.7099 19.788C45.8219 18.828 44.6939 18.348 43.3259 18.348C41.9579 18.348 40.8179 18.828 39.9059 19.788C39.0179 20.748 38.5739 22.188 38.5739 24.108C38.5739 26.004 39.0179 27.432 39.9059 28.392C40.8179 29.328 41.9579 29.796 43.3259 29.796ZM62.4279 33.432C60.6999 33.432 59.1759 33.048 57.8559 32.28C56.5359 31.488 55.5039 30.396 54.7599 29.004C54.0159 27.612 53.6439 25.992 53.6439 24.144C53.6439 22.272 54.0039 20.628 54.7239 19.212C55.4679 17.796 56.4999 16.692 57.8199 15.9C59.1639 15.108 60.7119 14.712 62.4639 14.712C64.1919 14.712 65.6799 15.108 66.9279 15.9C68.1759 16.668 69.1359 17.7 69.8079 18.996C70.5039 20.292 70.8519 21.72 70.8519 23.28C70.8519 23.52 70.8519 23.784 70.8519 24.072C70.8519 24.336 70.8399 24.636 70.8159 24.972H57.3879C57.5079 26.628 58.0479 27.888 59.0079 28.752C59.9679 29.592 61.0959 30.012 62.3919 30.012C63.5199 30.012 64.4079 29.784 65.0559 29.328C65.7279 28.848 66.2199 28.2 66.5319 27.384H70.3839C69.9519 29.088 69.0519 30.528 67.6839 31.704C66.3159 32.856 64.5639 33.432 62.4279 33.432ZM62.4279 18.024C61.2519 18.024 60.2079 18.384 59.2959 19.104C58.3839 19.8 57.7959 20.784 57.5319 22.056H67.0359C66.9399 20.856 66.4719 19.884 65.6319 19.14C64.7919 18.396 63.7239 18.024 62.4279 18.024ZM78.6138 33L70.8738 15.144H75.1938L80.9178 28.968L86.6778 15.144H90.9618L83.1858 33H78.6138ZM99.8397 33.432C98.1117 33.432 96.5877 33.048 95.2677 32.28C93.9477 31.488 92.9157 30.396 92.1717 29.004C91.4277 27.612 91.0557 25.992 91.0557 24.144C91.0557 22.272 91.4157 20.628 92.1357 19.212C92.8797 17.796 93.9117 16.692 95.2317 15.9C96.5757 15.108 98.1237 14.712 99.8757 14.712C101.604 14.712 103.092 15.108 104.34 15.9C105.588 16.668 106.548 17.7 107.22 18.996C107.916 20.292 108.264 21.72 108.264 23.28C108.264 23.52 108.264 23.784 108.264 24.072C108.264 24.336 108.252 24.636 108.228 24.972H94.7997C94.9197 26.628 95.4597 27.888 96.4197 28.752C97.3797 29.592 98.5077 30.012 99.8037 30.012C100.932 30.012 101.82 29.784 102.468 29.328C103.14 28.848 103.632 28.2 103.944 27.384H107.796C107.364 29.088 106.464 30.528 105.096 31.704C103.728 32.856 101.976 33.432 99.8397 33.432ZM99.8397 18.024C98.6637 18.024 97.6197 18.384 96.7077 19.104C95.7957 19.8 95.2077 20.784 94.9437 22.056H104.448C104.352 20.856 103.884 19.884 103.044 19.14C102.204 18.396 101.136 18.024 99.8397 18.024ZM109.978 33V29.688H115.954V11.58C115.954 10.788 115.57 10.392 114.802 10.392H110.482V7.08H115.486C116.878 7.08 117.934 7.452 118.654 8.196C119.398 8.916 119.77 9.972 119.77 11.364V29.688H125.782V33H109.978ZM137.036 33.432C135.332 33.432 133.808 33.048 132.464 32.28C131.12 31.512 130.064 30.432 129.296 29.04C128.528 27.624 128.144 25.968 128.144 24.072C128.144 22.176 128.528 20.532 129.296 19.14C130.064 17.724 131.12 16.632 132.464 15.864C133.808 15.096 135.344 14.712 137.072 14.712C138.8 14.712 140.324 15.096 141.644 15.864C142.988 16.632 144.032 17.724 144.776 19.14C145.544 20.532 145.928 22.176 145.928 24.072C145.928 25.968 145.544 27.624 144.776 29.04C144.008 30.432 142.952 31.512 141.608 32.28C140.288 33.048 138.764 33.432 137.036 33.432ZM137.036 29.796C137.948 29.796 138.788 29.592 139.556 29.184C140.324 28.776 140.936 28.152 141.392 27.312C141.872 26.448 142.112 25.368 142.112 24.072C142.112 22.752 141.872 21.672 141.392 20.832C140.936 19.992 140.324 19.368 139.556 18.96C138.812 18.552 137.984 18.348 137.072 18.348C136.16 18.348 135.32 18.552 134.552 18.96C133.784 19.368 133.16 19.992 132.68 20.832C132.224 21.672 131.996 22.752 131.996 24.072C131.996 26.04 132.488 27.492 133.472 28.428C134.48 29.34 135.668 29.796 137.036 29.796ZM147.426 40.92V15.144H150.738L151.026 17.88H151.242C151.722 16.992 152.442 16.248 153.402 15.648C154.386 15.024 155.55 14.712 156.894 14.712C158.286 14.712 159.558 15.072 160.71 15.792C161.862 16.488 162.774 17.532 163.446 18.924C164.142 20.292 164.49 22.008 164.49 24.072C164.49 26.112 164.13 27.828 163.41 29.22C162.714 30.612 161.766 31.668 160.566 32.388C159.366 33.084 158.022 33.432 156.534 33.432C155.214 33.432 154.11 33.168 153.222 32.64C152.334 32.112 151.674 31.512 151.242 30.84V40.92H147.426ZM155.886 29.796C157.23 29.796 158.346 29.316 159.234 28.356C160.146 27.396 160.602 25.956 160.602 24.036C160.602 22.116 160.146 20.688 159.234 19.752C158.346 18.816 157.23 18.348 155.886 18.348C154.518 18.348 153.378 18.828 152.466 19.788C151.578 20.724 151.134 22.152 151.134 24.072C151.134 25.968 151.578 27.396 152.466 28.356C153.378 29.316 154.518 29.796 155.886 29.796ZM174.663 33.432C172.935 33.432 171.411 33.048 170.091 32.28C168.771 31.488 167.739 30.396 166.995 29.004C166.251 27.612 165.879 25.992 165.879 24.144C165.879 22.272 166.239 20.628 166.959 19.212C167.703 17.796 168.735 16.692 170.055 15.9C171.399 15.108 172.947 14.712 174.699 14.712C176.427 14.712 177.915 15.108 179.163 15.9C180.411 16.668 181.371 17.7 182.043 18.996C182.739 20.292 183.087 21.72 183.087 23.28C183.087 23.52 183.087 23.784 183.087 24.072C183.087 24.336 183.075 24.636 183.051 24.972H169.623C169.743 26.628 170.283 27.888 171.243 28.752C172.203 29.592 173.331 30.012 174.627 30.012C175.755 30.012 176.643 29.784 177.291 29.328C177.963 28.848 178.455 28.2 178.767 27.384H182.619C182.187 29.088 181.287 30.528 179.919 31.704C178.551 32.856 176.799 33.432 174.663 33.432ZM174.663 18.024C173.487 18.024 172.443 18.384 171.531 19.104C170.619 19.8 170.031 20.784 169.767 22.056H179.271C179.175 20.856 178.707 19.884 177.867 19.14C177.027 18.396 175.959 18.024 174.663 18.024ZM185.125 33V29.688H189.481V19.644C189.481 18.852 189.097 18.456 188.329 18.456H185.485V15.144H189.769C190.753 15.144 191.557 15.432 192.181 16.008C192.805 16.56 193.117 17.34 193.117 18.348V18.78H193.297C193.561 17.436 194.125 16.428 194.989 15.756C195.877 15.06 197.161 14.712 198.841 14.712H201.613V18.744H197.725C196.309 18.744 195.217 19.236 194.449 20.22C193.681 21.204 193.297 22.38 193.297 23.748V29.688H198.841V33H185.125ZM212.003 33.432C209.651 33.432 207.779 32.88 206.387 31.776C204.995 30.672 204.203 29.208 204.011 27.384H207.935C208.079 28.224 208.499 28.908 209.195 29.436C209.915 29.964 210.863 30.228 212.039 30.228C213.167 30.228 214.031 30 214.631 29.544C215.255 29.064 215.567 28.512 215.567 27.888C215.567 26.976 215.195 26.352 214.451 26.016C213.731 25.68 212.663 25.428 211.247 25.26C210.023 25.116 208.907 24.84 207.899 24.432C206.915 24 206.135 23.424 205.559 22.704C204.983 21.96 204.695 21.036 204.695 19.932C204.695 18.372 205.307 17.112 206.531 16.152C207.755 15.192 209.459 14.712 211.643 14.712C213.827 14.712 215.519 15.204 216.719 16.188C217.919 17.172 218.615 18.516 218.807 20.22H215.135C215.039 19.5 214.667 18.936 214.019 18.528C213.371 18.096 212.567 17.88 211.607 17.88C210.623 17.88 209.843 18.072 209.267 18.456C208.691 18.816 208.403 19.296 208.403 19.896C208.403 21.192 209.795 21.984 212.579 22.272C213.899 22.416 215.075 22.668 216.107 23.028C217.139 23.364 217.955 23.904 218.555 24.648C219.155 25.368 219.455 26.388 219.455 27.708C219.479 28.788 219.167 29.76 218.519 30.624C217.895 31.488 217.019 32.172 215.891 32.676C214.787 33.18 213.491 33.432 212.003 33.432Z" fill="white"/>
<path fill-rule="evenodd" clip-rule="evenodd" d="M4.46911 33.4324L4.45488 33.4231C3.06089 32.5085 1.95795 31.3156 1.16132 29.868L1.1485 29.8447L1.13633 29.8211C0.378349 28.3476 0 26.7688 0 25.1095C0 24.3767 0.0648658 23.676 0.221208 23.0302C0.951175 20.0149 2.20386 17.262 3.9827 14.7879C5.80391 12.2548 8.18775 10.2497 11.0985 8.77493L11.1023 8.773C11.9721 8.33464 12.9566 7.94257 14.0436 7.59038C15.2137 7.21131 16.3685 7 17.4938 7C19.0229 7 20.4901 7.32252 21.8753 7.96053C23.2436 8.57805 24.4617 9.42234 25.5224 10.483C26.5839 11.5172 27.4209 12.7032 28.0241 14.0327C28.67 15.3937 29 16.8239 29 18.3063C29 18.7806 28.9651 19.2539 28.8958 19.7255L28.8943 19.7357L28.8927 19.7459C28.8254 20.1708 28.7277 20.6003 28.6025 21.0337C28.3906 21.9348 28.0472 22.8054 27.5831 23.6433C27.1433 24.4372 26.6491 25.1702 26.0972 25.8369C24.9226 27.3633 23.5018 28.767 21.8489 30.0522L21.8403 30.0589L21.8315 30.0656C20.1609 31.335 18.3533 32.3978 16.4121 33.2527L16.4056 33.2556L16.3991 33.2584C14.4385 34.1054 12.4151 34.6258 10.3358 34.8095L8.1803 35V34.7392C6.84818 34.5751 5.60542 34.1503 4.48351 33.4415L4.46911 33.4324ZM5.51872 16.0061C3.93272 18.2435 2.80822 20.7315 2.14522 23.4702C2.13292 23.521 2.1213 23.5727 2.11035 23.6255C2.10967 23.6287 2.109 23.632 2.10833 23.6352C2.05193 23.9096 2.01363 24.2104 1.99344 24.5376C1.98218 24.72 1.97655 24.9107 1.97655 25.1095C1.97655 25.2193 1.97855 25.3286 1.98255 25.4374C2.02827 26.6815 2.33549 27.8564 2.90422 28.9619C3.24287 29.5773 3.64708 30.1327 4.11684 30.6281C4.12049 30.632 4.12414 30.6358 4.1278 30.6397C4.55217 31.0854 5.0298 31.4825 5.56071 31.8308C6.46463 32.4018 7.48663 32.7434 8.62671 32.8554C8.89144 32.8814 9.16255 32.895 9.44002 32.8962C9.45406 32.8963 9.46812 32.8963 9.48219 32.8963H9.81952C9.93071 32.8963 10.0419 32.883 10.1531 32.8563C10.1544 32.856 10.1556 32.8557 10.1569 32.8554V32.8963C10.1603 32.896 10.1637 32.8957 10.1672 32.8954C10.3 32.8836 10.4326 32.8703 10.565 32.8554C11.0912 32.7961 11.614 32.7126 12.1334 32.6047C12.7441 32.4778 13.3501 32.3173 13.9514 32.1231C13.959 32.1207 13.9666 32.1182 13.9743 32.1157C14.5188 31.9391 15.0595 31.7348 15.5963 31.5029C16.6194 31.0524 17.6015 30.54 18.5427 29.9657C18.5486 29.9621 18.5544 29.9586 18.5603 29.955C19.2681 29.5224 19.9527 29.0547 20.6141 28.5521C21.3636 27.9694 22.0569 27.3642 22.694 26.7365C22.6983 26.7323 22.7026 26.7281 22.7068 26.7239C23.3791 26.0606 23.9887 25.3722 24.5356 24.6587C25.0053 24.0948 25.4342 23.4649 25.8225 22.769C25.827 22.761 25.8315 22.7529 25.836 22.7448C25.8382 22.7407 25.8405 22.7366 25.8428 22.7325C26.2363 22.0221 26.5174 21.2981 26.6861 20.5604C26.7986 20.1778 26.8829 19.809 26.9391 19.4538C26.9953 19.0713 27.0234 18.6888 27.0234 18.3063C27.0234 18.2378 27.0226 18.1695 27.0208 18.1014C26.9922 16.972 26.726 15.8791 26.2223 14.8227C26.0332 14.4041 25.8167 14.0027 25.5727 13.6185C25.5682 13.6115 25.5638 13.6046 25.5594 13.5976C25.1531 12.9615 24.6713 12.3726 24.114 11.8309C23.5362 11.2518 22.9062 10.7515 22.224 10.3302C22.2133 10.3236 22.2027 10.3171 22.192 10.3105C21.8219 10.0838 21.4365 9.88025 21.0358 9.69978C19.9626 9.2043 18.8381 8.94528 17.6625 8.92271C17.6064 8.92163 17.5502 8.92109 17.4938 8.92109C16.6224 8.92109 15.6807 9.08503 14.6687 9.41289C14.6517 9.41839 14.6348 9.4239 14.6178 9.42942C14.6097 9.43207 14.6016 9.43472 14.5935 9.43737C13.6422 9.74877 12.8042 10.0846 12.0792 10.4449C12.0715 10.4488 12.0637 10.4526 12.056 10.4565C12.0413 10.4638 12.0267 10.4711 12.0122 10.4785C9.36975 11.8172 7.23331 13.6205 5.60287 15.8883C5.5764 15.9251 5.55005 15.962 5.52382 15.9989C5.52212 16.0013 5.52042 16.0037 5.51872 16.0061ZM6.78353 16.8309C5.3214 18.9223 4.2789 21.2506 3.65605 23.8157C3.64423 23.8644 3.63256 23.9131 3.62105 23.962C3.56482 24.2079 3.52266 24.4538 3.49455 24.6997C3.47893 24.8363 3.46765 24.9729 3.46071 25.1095C3.45516 25.2188 3.45238 25.3281 3.45238 25.4374C3.45238 26.5208 3.65741 27.494 4.06747 28.3572C4.07254 28.3679 4.07765 28.3785 4.08279 28.3892C4.33255 28.9069 4.65652 29.3847 5.05471 29.8226C5.41547 30.2092 5.81579 30.5322 6.25569 30.7916C6.26201 30.7953 6.26834 30.799 6.27468 30.8027C7.1676 31.3241 8.22271 31.5849 9.44002 31.5849C9.45407 31.5849 9.46812 31.5848 9.48219 31.5848C9.59398 31.5843 9.70642 31.5819 9.81952 31.5776C9.82238 31.5775 9.82524 31.5774 9.8281 31.5773C9.89601 31.5746 9.96416 31.5713 10.0325 31.5673C10.7096 31.5274 11.4099 31.4199 12.1334 31.2448C12.5762 31.1376 13.0278 31.005 13.488 30.8472C13.9947 30.6637 14.4997 30.458 15.003 30.2301C15.0061 30.2287 15.0092 30.2273 15.0124 30.2259C15.9297 29.81 16.8412 29.3204 17.7468 28.757C18.4128 28.3298 19.0505 27.8749 19.6597 27.3925C19.6641 27.389 19.6685 27.3855 19.6729 27.382C20.3445 26.8493 20.9815 26.2831 21.584 25.6833C22.2084 25.0467 22.7628 24.3941 23.247 23.7255C23.2594 23.7083 23.2718 23.6911 23.2841 23.674C23.6782 23.125 24.0251 22.5653 24.3248 21.9948C24.3328 21.9801 24.3409 21.9653 24.3488 21.9506C24.6608 21.3738 24.902 20.7941 25.0722 20.2118C25.0812 20.181 25.09 20.1503 25.0986 20.1195C25.1817 19.8221 25.2463 19.524 25.2924 19.2252C25.2933 19.2194 25.2942 19.2137 25.2951 19.208C25.3407 18.9081 25.3677 18.6076 25.3761 18.3063C25.378 18.238 25.379 18.1697 25.379 18.1014C25.379 17.1884 25.2018 16.3019 24.8476 15.4418C24.8438 15.4326 24.84 15.4234 24.8362 15.4142C24.6837 15.0483 24.4992 14.6872 24.2826 14.3309C23.9516 13.7647 23.5676 13.2499 23.1305 12.7867C23.1257 12.7816 23.1209 12.7765 23.1161 12.7714C22.6287 12.2576 22.0759 11.8075 21.4575 11.4211C21.1388 11.2096 20.8116 11.0273 20.4758 10.8743C20.472 10.8726 20.4682 10.8708 20.4643 10.8691C19.5887 10.4721 18.6548 10.2735 17.6625 10.2735C17.6066 10.2735 17.5504 10.2744 17.4938 10.276C16.7641 10.2973 15.9755 10.456 15.128 10.7521C15.1154 10.7565 15.1029 10.7609 15.0903 10.7653C14.1908 11.0659 13.4037 11.3801 12.729 11.708C12.714 11.7156 12.6989 11.7233 12.6839 11.7309C12.683 11.7314 12.6821 11.7319 12.6811 11.7324C10.2662 12.9682 8.32248 14.6358 6.85003 16.7353C6.82775 16.7671 6.80559 16.7989 6.78353 16.8309ZM5.54921 24.3845C5.50882 24.5621 5.47891 24.7378 5.45901 24.9118C5.4389 25.0877 5.42893 25.2628 5.42893 25.4374C5.42893 26.7701 5.82111 27.7599 6.52726 28.541C7.20095 29.2583 8.10198 29.6638 9.44002 29.6638C10.4366 29.6638 11.5569 29.4708 12.8141 29.0411C14.0958 28.5756 15.381 27.9468 16.6697 27.1462C17.9519 26.3225 19.1149 25.3903 20.1615 24.3494C21.1946 23.2949 21.9883 22.2177 22.5645 21.1211L22.572 21.1068L22.5797 21.0926C23.1474 20.0554 23.4024 19.065 23.4024 18.1014C23.4024 17.1561 23.144 16.2343 22.581 15.3082L22.5724 15.2941L22.5641 15.2799C22.017 14.344 21.2967 13.6044 20.3886 13.0371L20.3655 13.0226L20.3428 13.0075C19.514 12.4574 18.6366 12.1946 17.6625 12.1946C17.1559 12.1946 16.5297 12.3008 15.7658 12.5708L15.7494 12.5766L15.7329 12.5821C14.9033 12.8593 14.2052 13.1395 13.6287 13.4186C11.4417 14.5327 9.71966 16.0254 8.42492 17.9012L8.42167 17.9059L8.41839 17.9106C7.0738 19.8339 6.11549 21.9863 5.54921 24.3845Z" fill="#A4FBBE"/>
</g>
<defs>
<clipPath id="clip0_117_20">
<rect width="220" height="42" fill="white"/>
</clipPath>
</defs>
</svg>
