<svg width="170" height="64" viewBox="0 0 170 64" fill="none" xmlns="http://www.w3.org/2000/svg">
<path d="M104.121 46.1395C101.384 46.1395 98.9702 45.5312 96.8794 44.3148C94.7886 43.0603 93.1539 41.3306 91.9755 39.1257C90.797 36.9209 90.2078 34.3549 90.2078 31.4277C90.2078 28.4626 90.778 25.8586 91.9185 23.6157C93.0969 21.3728 94.7316 19.6241 96.8224 18.3696C98.9512 17.1152 101.403 16.4879 104.178 16.4879C106.915 16.4879 109.272 17.1152 111.249 18.3696C113.226 19.5861 114.746 21.2208 115.811 23.2736C116.913 25.3264 117.464 27.5882 117.464 30.0592C117.464 30.4394 117.464 30.8575 117.464 31.3137C117.464 31.7319 117.445 32.207 117.407 32.7392H96.1381C96.3282 35.3623 97.1835 37.358 98.7041 38.7266C100.225 40.0571 102.011 40.7224 104.064 40.7224C105.851 40.7224 107.257 40.3612 108.284 39.6389C109.348 38.8786 110.128 37.8522 110.622 36.5597H116.723C116.039 39.2588 114.613 41.5397 112.446 43.4024C110.28 45.2271 107.505 46.1395 104.121 46.1395ZM104.121 21.734C102.258 21.734 100.605 22.3042 99.1603 23.4446C97.7157 24.5471 96.7844 26.1057 96.3662 28.1204H111.42C111.268 26.2197 110.527 24.6801 109.196 23.5016C107.866 22.3232 106.174 21.734 104.121 21.734Z" fill="white"/>
<path d="M60.9776 58.0001V17.1722H66.2237L66.6799 21.5059H67.022C67.7823 20.0993 68.9227 18.9209 70.4433 17.9705C72.0019 16.9821 73.8456 16.4879 75.9745 16.4879C78.1793 16.4879 80.1941 17.0581 82.0188 18.1986C83.8435 19.301 85.2881 20.9547 86.3525 23.1595C87.4549 25.3264 88.0062 28.0444 88.0062 31.3137C88.0062 34.545 87.4359 37.263 86.2955 39.4679C85.1931 41.6727 83.6915 43.3454 81.7907 44.4858C79.89 45.5882 77.7612 46.1395 75.4043 46.1395C73.3134 46.1395 71.5648 45.7213 70.1582 44.885C68.7517 44.0487 67.7063 43.0983 67.022 42.0339V58.0001H60.9776ZM74.3779 40.3802C76.5067 40.3802 78.2744 39.6199 79.6809 38.0993C81.1255 36.5787 81.8478 34.2979 81.8478 31.2567C81.8478 28.2155 81.1255 25.9536 79.6809 24.471C78.2744 22.9884 76.5067 22.2472 74.3779 22.2472C72.211 22.2472 70.4053 23.0075 68.9607 24.528C67.5542 26.0106 66.8509 28.2725 66.8509 31.3137C66.8509 34.3169 67.5542 36.5787 68.9607 38.0993C70.4053 39.6199 72.211 40.3802 74.3779 40.3802Z" fill="white"/>
<path d="M45.0907 12.8384C43.7602 12.8384 42.6388 12.4203 41.7264 11.584C40.8521 10.7096 40.4149 9.6452 40.4149 8.39071C40.4149 7.13622 40.8521 6.09082 41.7264 5.25449C42.6388 4.41816 43.7602 4 45.0907 4C46.4592 4 47.5807 4.41816 48.455 5.25449C49.3674 6.09082 49.8236 7.13622 49.8236 8.39071C49.8236 9.6452 49.3674 10.7096 48.455 11.584C47.5807 12.4203 46.4592 12.8384 45.0907 12.8384ZM33.7433 45.4552V40.2091H42.6388V24.2999C42.6388 23.0454 42.0305 22.4182 40.814 22.4182H34.5416V17.1721H41.8975C44.2544 17.1721 45.965 17.7233 47.0295 18.8258C48.1319 19.8902 48.6831 21.6009 48.6831 23.9578V40.2091H57.5786V45.4552H33.7433Z" fill="white"/>
<path d="M4 58.0001V17.1722H9.24604L9.70222 21.5059H10.0444C10.8047 20.0993 11.9451 18.9209 13.4657 17.9705C15.0243 16.9821 16.868 16.4879 18.9968 16.4879C21.2017 16.4879 23.2165 17.0581 25.0412 18.1986C26.8659 19.301 28.3105 20.9547 29.3749 23.1595C30.4773 25.3264 31.0285 28.0444 31.0285 31.3137C31.0285 34.545 30.4583 37.263 29.3179 39.4679C28.2154 41.6727 26.7139 43.3454 24.8131 44.4858C22.9124 45.5882 20.7835 46.1395 18.4266 46.1395C16.3358 46.1395 14.5871 45.7213 13.1806 44.885C11.774 44.0487 10.7286 43.0983 10.0444 42.0339V58.0001H4ZM17.4002 40.3802C19.5291 40.3802 21.2967 39.6199 22.7033 38.0993C24.1479 36.5787 24.8701 34.2979 24.8701 31.2567C24.8701 28.2155 24.1479 25.9536 22.7033 24.471C21.2967 22.9884 19.5291 22.2472 17.4002 22.2472C15.2334 22.2472 13.4277 23.0075 11.9831 24.528C10.5766 26.0106 9.87329 28.2725 9.87329 31.3137C9.87329 34.3169 10.5766 36.5787 11.9831 38.0993C13.4277 39.6199 15.2334 40.3802 17.4002 40.3802Z" fill="white"/>
<path fill-rule="evenodd" clip-rule="evenodd" d="M129.243 51.4247L129.22 51.4093C126.961 49.9069 125.173 47.947 123.882 45.5689L123.861 45.5306L123.842 45.4918C122.613 43.0711 122 40.4773 122 37.7513C122 36.5474 122.105 35.3963 122.359 34.3353C123.542 29.3816 125.572 24.859 128.455 20.7943C131.406 16.6328 135.27 13.3387 139.987 10.916L139.993 10.9128C141.403 10.1926 142.999 9.54851 144.76 8.96992C146.657 8.34716 148.528 8 150.352 8C152.83 8 155.208 8.52985 157.453 9.57802C159.671 10.5925 161.645 11.9796 163.364 13.722C165.084 15.4211 166.441 17.3696 167.418 19.5538C168.465 21.7897 169 24.1393 169 26.5746C169 27.3539 168.943 28.1314 168.831 28.9062L168.829 28.923L168.826 28.9397C168.717 29.6377 168.559 30.3434 168.356 31.0553C168.012 32.5358 167.456 33.9661 166.704 35.3425C165.991 36.6468 165.19 37.8511 164.296 38.9464C162.392 41.454 160.089 43.7601 157.41 45.8715L157.396 45.8825L157.382 45.8934C154.675 47.979 151.745 49.725 148.599 51.1295L148.588 51.1342L148.578 51.1388C145.4 52.5302 142.121 53.3853 138.751 53.6871L135.258 54V53.5716C133.099 53.302 131.085 52.604 129.266 51.4396L129.243 51.4247ZM130.944 22.7958C128.374 26.4714 126.551 30.5589 125.477 35.0581C125.457 35.1416 125.438 35.2266 125.42 35.3133C125.419 35.3186 125.418 35.324 125.417 35.3293C125.326 35.7801 125.263 36.2742 125.231 36.8117C125.213 37.1114 125.203 37.4246 125.203 37.7513C125.203 37.9317 125.207 38.1113 125.213 38.29C125.287 40.334 125.785 42.2641 126.707 44.0803C127.256 45.0913 127.911 46.0037 128.672 46.8177C128.678 46.824 128.684 46.8303 128.69 46.8366C129.378 47.5689 130.152 48.2212 131.012 48.7934C132.477 49.7316 134.133 50.2927 135.981 50.4767C136.41 50.5194 136.85 50.5418 137.299 50.5438C137.322 50.5439 137.345 50.544 137.368 50.544H137.914C138.095 50.544 138.275 50.522 138.455 50.4781C138.457 50.4777 138.459 50.4772 138.461 50.4767V50.544C138.467 50.5435 138.472 50.543 138.478 50.5425C138.693 50.5231 138.908 50.5011 139.123 50.4767C139.975 50.3794 140.823 50.2421 141.664 50.0648C142.654 49.8564 143.636 49.5927 144.611 49.2737C144.623 49.2697 144.636 49.2656 144.648 49.2616C145.531 48.9713 146.407 48.6357 147.277 48.2548C148.935 47.5146 150.527 46.6728 152.052 45.7294C152.061 45.7235 152.071 45.7176 152.08 45.7118C153.228 45.001 154.337 44.2328 155.409 43.407C156.624 42.4497 157.747 41.4554 158.78 40.4243C158.787 40.4174 158.794 40.4104 158.801 40.4035C159.89 39.3138 160.878 38.1828 161.765 37.0107C162.526 36.0843 163.221 35.0495 163.85 33.9063C163.857 33.893 163.865 33.8797 163.872 33.8664C163.876 33.8597 163.879 33.853 163.883 33.8462C164.521 32.6792 164.977 31.4897 165.25 30.2777C165.432 29.6493 165.569 29.0434 165.66 28.4598C165.751 27.8314 165.797 27.203 165.797 26.5746C165.797 26.4622 165.795 26.3499 165.792 26.2379C165.746 24.3826 165.315 22.5871 164.498 20.8516C164.192 20.1639 163.841 19.5045 163.445 18.8732C163.438 18.8618 163.431 18.8504 163.424 18.8389C162.765 17.7939 161.985 16.8264 161.081 15.9365C160.145 14.985 159.124 14.1632 158.018 13.4711C158.001 13.4603 157.984 13.4495 157.966 13.4388C157.367 13.0663 156.742 12.7318 156.093 12.4353C154.353 11.6213 152.531 11.1958 150.625 11.1587C150.534 11.157 150.443 11.1561 150.352 11.1561C148.94 11.1561 147.413 11.4254 145.773 11.964C145.746 11.9731 145.718 11.9821 145.691 11.9912C145.678 11.9955 145.665 11.9999 145.652 12.0043C144.11 12.5158 142.752 13.0676 141.577 13.6595C141.564 13.6658 141.552 13.6722 141.539 13.6785C141.515 13.6905 141.492 13.7026 141.468 13.7146C137.185 15.9141 133.723 18.8766 131.081 22.6021C131.038 22.6626 130.995 22.7232 130.952 22.784C130.95 22.7879 130.947 22.7919 130.944 22.7958ZM132.994 24.1507C130.624 27.5867 128.935 31.4117 127.925 35.6258C127.906 35.7057 127.887 35.7859 127.869 35.8661C127.777 36.2701 127.709 36.6741 127.664 37.078C127.638 37.3025 127.62 37.5269 127.609 37.7513C127.6 37.9309 127.595 38.1104 127.595 38.29C127.595 40.0698 127.928 41.6688 128.592 43.0868C128.6 43.1044 128.609 43.1219 128.617 43.1394C129.022 43.9898 129.547 44.7748 130.192 45.4943C130.777 46.1294 131.426 46.66 132.139 47.0861C132.149 47.0923 132.159 47.0984 132.169 47.1044C133.616 47.9611 135.326 48.3894 137.299 48.3894C137.322 48.3894 137.345 48.3894 137.368 48.3893C137.549 48.3885 137.731 48.3846 137.914 48.3775C137.919 48.3773 137.924 48.3771 137.928 48.3769C138.038 48.3726 138.149 48.3671 138.26 48.3605C139.357 48.295 140.492 48.1184 141.664 47.8307C142.382 47.6546 143.114 47.4369 143.86 47.1775C144.681 46.8761 145.5 46.5382 146.315 46.1638C146.32 46.1615 146.325 46.1591 146.33 46.1568C147.817 45.4736 149.294 44.6692 150.762 43.7437C151.841 43.0418 152.875 42.2945 153.862 41.502C153.869 41.4962 153.877 41.4904 153.884 41.4847C154.972 40.6096 156.005 39.6794 156.981 38.694C157.993 37.6482 158.891 36.576 159.676 35.4775C159.696 35.4494 159.716 35.4212 159.736 35.393C160.375 34.4911 160.937 33.5716 161.423 32.6343C161.436 32.6101 161.449 32.5859 161.462 32.5617C161.968 31.614 162.358 30.6618 162.634 29.7051C162.649 29.6545 162.663 29.604 162.677 29.5535C162.812 29.0649 162.916 28.5751 162.991 28.0842C162.993 28.0748 162.994 28.0654 162.995 28.056C163.069 27.5634 163.113 27.0696 163.127 26.5746C163.13 26.4624 163.131 26.3502 163.131 26.2379C163.131 24.738 162.844 23.2816 162.27 21.8688C162.264 21.8536 162.258 21.8384 162.252 21.8233C162.005 21.2222 161.706 20.6289 161.355 20.0436C160.818 19.1134 160.196 18.2677 159.487 17.5068C159.48 17.4984 159.472 17.49 159.464 17.4816C158.674 16.6375 157.778 15.898 156.776 15.2632C156.259 14.9157 155.729 14.6163 155.185 14.3649C155.179 14.3621 155.173 14.3592 155.166 14.3564C153.747 13.7041 152.234 13.378 150.625 13.378C150.535 13.378 150.444 13.3793 150.352 13.382C149.169 13.417 147.891 13.6778 146.518 14.1642C146.497 14.1714 146.477 14.1786 146.457 14.1859C144.999 14.6797 143.723 15.1959 142.63 15.7345C142.605 15.7471 142.581 15.7597 142.557 15.7723L142.552 15.7746C138.638 17.8049 135.488 20.5446 133.102 23.9937C133.066 24.0459 133.03 24.0982 132.994 24.1507ZM130.994 36.5603C130.928 36.8521 130.88 37.1407 130.847 37.4266C130.815 37.7155 130.799 38.0032 130.799 38.29C130.799 40.4794 131.434 42.1056 132.579 43.3888C133.67 44.5672 135.131 45.2334 137.299 45.2334C138.915 45.2334 140.73 44.9163 142.768 44.2104C144.845 43.4457 146.928 42.4126 149.016 41.0973C151.095 39.7442 152.979 38.2127 154.676 36.5025C156.35 34.7702 157.636 33.0006 158.57 31.199L158.582 31.1754L158.595 31.1521C159.515 29.4481 159.928 27.8212 159.928 26.2379C159.928 24.685 159.509 23.1706 158.597 21.6492L158.583 21.6261L158.569 21.6027C157.683 20.0652 156.515 18.8501 155.044 17.918L155.006 17.8943L154.969 17.8695C153.626 16.9658 152.204 16.534 150.625 16.534C149.804 16.534 148.79 16.7084 147.551 17.152L147.525 17.1615L147.498 17.1706C146.154 17.6259 145.022 18.0864 144.088 18.5448C140.543 20.3752 137.753 22.8275 135.654 25.9091L135.649 25.9168L135.644 25.9245C133.464 29.0842 131.911 32.6204 130.994 36.5603Z" fill="white"/>
<path fill-rule="evenodd" clip-rule="evenodd" d="M129.243 51.4247L129.22 51.4093C126.961 49.9069 125.173 47.947 123.882 45.5689L123.861 45.5306L123.842 45.4918C122.613 43.0711 122 40.4773 122 37.7513C122 36.5474 122.105 35.3963 122.359 34.3353C123.542 29.3816 125.572 24.859 128.455 20.7943C131.406 16.6328 135.27 13.3387 139.987 10.916L139.993 10.9128C141.403 10.1926 142.999 9.54851 144.76 8.96992C146.657 8.34716 148.528 8 150.352 8C152.83 8 155.208 8.52985 157.453 9.57802C159.671 10.5925 161.645 11.9796 163.364 13.722C165.084 15.4211 166.441 17.3696 167.418 19.5538C168.465 21.7897 169 24.1393 169 26.5746C169 27.3539 168.943 28.1314 168.831 28.9062L168.829 28.923L168.826 28.9397C168.717 29.6377 168.559 30.3434 168.356 31.0553C168.012 32.5358 167.456 33.9661 166.704 35.3425C165.991 36.6468 165.19 37.8511 164.296 38.9464C162.392 41.454 160.089 43.7601 157.41 45.8715L157.396 45.8825L157.382 45.8934C154.675 47.979 151.745 49.725 148.599 51.1295L148.588 51.1342L148.578 51.1388C145.4 52.5302 142.121 53.3853 138.751 53.6871L135.258 54V53.5716C133.099 53.302 131.085 52.604 129.266 51.4396L129.243 51.4247ZM130.944 22.7958C128.374 26.4714 126.551 30.5589 125.477 35.0581C125.457 35.1416 125.438 35.2266 125.42 35.3133C125.419 35.3186 125.418 35.324 125.417 35.3293C125.326 35.7801 125.263 36.2742 125.231 36.8117C125.213 37.1114 125.203 37.4246 125.203 37.7513C125.203 37.9317 125.207 38.1113 125.213 38.29C125.287 40.334 125.785 42.2641 126.707 44.0803C127.256 45.0913 127.911 46.0037 128.672 46.8177C128.678 46.824 128.684 46.8303 128.69 46.8366C129.378 47.5689 130.152 48.2212 131.012 48.7934C132.477 49.7316 134.133 50.2927 135.981 50.4767C136.41 50.5194 136.85 50.5418 137.299 50.5438C137.322 50.5439 137.345 50.544 137.368 50.544H137.914C138.095 50.544 138.275 50.522 138.455 50.4781C138.457 50.4777 138.459 50.4772 138.461 50.4767V50.544C138.467 50.5435 138.472 50.543 138.478 50.5425C138.693 50.5231 138.908 50.5011 139.123 50.4767C139.975 50.3794 140.823 50.2421 141.664 50.0648C142.654 49.8564 143.636 49.5927 144.611 49.2737C144.623 49.2697 144.636 49.2656 144.648 49.2616C145.531 48.9713 146.407 48.6357 147.277 48.2548C148.935 47.5146 150.527 46.6728 152.052 45.7294C152.061 45.7235 152.071 45.7176 152.08 45.7118C153.228 45.001 154.337 44.2328 155.409 43.407C156.624 42.4497 157.747 41.4554 158.78 40.4243C158.787 40.4174 158.794 40.4104 158.801 40.4035C159.89 39.3138 160.878 38.1828 161.765 37.0107C162.526 36.0843 163.221 35.0495 163.85 33.9063C163.857 33.893 163.865 33.8797 163.872 33.8664C163.876 33.8597 163.879 33.853 163.883 33.8462C164.521 32.6792 164.977 31.4897 165.25 30.2777C165.432 29.6493 165.569 29.0434 165.66 28.4598C165.751 27.8314 165.797 27.203 165.797 26.5746C165.797 26.4622 165.795 26.3499 165.792 26.2379C165.746 24.3826 165.315 22.5871 164.498 20.8516C164.192 20.1639 163.841 19.5045 163.445 18.8732C163.438 18.8618 163.431 18.8504 163.424 18.8389C162.765 17.7939 161.985 16.8264 161.081 15.9365C160.145 14.985 159.124 14.1632 158.018 13.4711C158.001 13.4603 157.984 13.4495 157.966 13.4388C157.367 13.0663 156.742 12.7318 156.093 12.4353C154.353 11.6213 152.531 11.1958 150.625 11.1587C150.534 11.157 150.443 11.1561 150.352 11.1561C148.94 11.1561 147.413 11.4254 145.773 11.964C145.746 11.9731 145.718 11.9821 145.691 11.9912C145.678 11.9955 145.665 11.9999 145.652 12.0043C144.11 12.5158 142.752 13.0676 141.577 13.6595C141.564 13.6658 141.552 13.6722 141.539 13.6785C141.515 13.6905 141.492 13.7026 141.468 13.7146C137.185 15.9141 133.723 18.8766 131.081 22.6021C131.038 22.6626 130.995 22.7232 130.952 22.784C130.95 22.7879 130.947 22.7919 130.944 22.7958ZM132.994 24.1507C130.624 27.5867 128.935 31.4117 127.925 35.6258C127.906 35.7057 127.887 35.7859 127.869 35.8661C127.777 36.2701 127.709 36.6741 127.664 37.078C127.638 37.3025 127.62 37.5269 127.609 37.7513C127.6 37.9309 127.595 38.1104 127.595 38.29C127.595 40.0698 127.928 41.6688 128.592 43.0868C128.6 43.1044 128.609 43.1219 128.617 43.1394C129.022 43.9898 129.547 44.7748 130.192 45.4943C130.777 46.1294 131.426 46.66 132.139 47.0861C132.149 47.0923 132.159 47.0984 132.169 47.1044C133.616 47.9611 135.326 48.3894 137.299 48.3894C137.322 48.3894 137.345 48.3894 137.368 48.3893C137.549 48.3885 137.731 48.3846 137.914 48.3775C137.919 48.3773 137.924 48.3771 137.928 48.3769C138.038 48.3726 138.149 48.3671 138.26 48.3605C139.357 48.295 140.492 48.1184 141.664 47.8307C142.382 47.6546 143.114 47.4369 143.86 47.1775C144.681 46.8761 145.5 46.5382 146.315 46.1638C146.32 46.1615 146.325 46.1591 146.33 46.1568C147.817 45.4736 149.294 44.6692 150.762 43.7437C151.841 43.0418 152.875 42.2945 153.862 41.502C153.869 41.4962 153.877 41.4904 153.884 41.4847C154.972 40.6096 156.005 39.6794 156.981 38.694C157.993 37.6482 158.891 36.576 159.676 35.4775C159.696 35.4494 159.716 35.4212 159.736 35.393C160.375 34.4911 160.937 33.5716 161.423 32.6343C161.436 32.6101 161.449 32.5859 161.462 32.5617C161.968 31.614 162.358 30.6618 162.634 29.7051C162.649 29.6545 162.663 29.604 162.677 29.5535C162.812 29.0649 162.916 28.5751 162.991 28.0842C162.993 28.0748 162.994 28.0654 162.995 28.056C163.069 27.5634 163.113 27.0696 163.127 26.5746C163.13 26.4624 163.131 26.3502 163.131 26.2379C163.131 24.738 162.844 23.2816 162.27 21.8688C162.264 21.8536 162.258 21.8384 162.252 21.8233C162.005 21.2222 161.706 20.6289 161.355 20.0436C160.818 19.1134 160.196 18.2677 159.487 17.5068C159.48 17.4984 159.472 17.49 159.464 17.4816C158.674 16.6375 157.778 15.898 156.776 15.2632C156.259 14.9157 155.729 14.6163 155.185 14.3649C155.179 14.3621 155.173 14.3592 155.166 14.3564C153.747 13.7041 152.234 13.378 150.625 13.378C150.535 13.378 150.444 13.3793 150.352 13.382C149.169 13.417 147.891 13.6778 146.518 14.1642C146.497 14.1714 146.477 14.1786 146.457 14.1859C144.999 14.6797 143.723 15.1959 142.63 15.7345C142.605 15.7471 142.581 15.7597 142.557 15.7723L142.552 15.7746C138.638 17.8049 135.488 20.5446 133.102 23.9937C133.066 24.0459 133.03 24.0982 132.994 24.1507ZM130.994 36.5603C130.928 36.8521 130.88 37.1407 130.847 37.4266C130.815 37.7155 130.799 38.0032 130.799 38.29C130.799 40.4794 131.434 42.1056 132.579 43.3888C133.67 44.5672 135.131 45.2334 137.299 45.2334C138.915 45.2334 140.73 44.9163 142.768 44.2104C144.845 43.4457 146.928 42.4126 149.016 41.0973C151.095 39.7442 152.979 38.2127 154.676 36.5025C156.35 34.7702 157.636 33.0006 158.57 31.199L158.582 31.1754L158.595 31.1521C159.515 29.4481 159.928 27.8212 159.928 26.2379C159.928 24.685 159.509 23.1706 158.597 21.6492L158.583 21.6261L158.569 21.6027C157.683 20.0652 156.515 18.8501 155.044 17.918L155.006 17.8943L154.969 17.8695C153.626 16.9658 152.204 16.534 150.625 16.534C149.804 16.534 148.79 16.7084 147.551 17.152L147.525 17.1615L147.498 17.1706C146.154 17.6259 145.022 18.0864 144.088 18.5448C140.543 20.3752 137.753 22.8275 135.654 25.9091L135.649 25.9168L135.644 25.9245C133.464 29.0842 131.911 32.6204 130.994 36.5603Z" fill="white"/>
</svg>
