<svg width="191" height="64" viewBox="0 0 191 64" fill="none" xmlns="http://www.w3.org/2000/svg">
<path d="M104.121 46.1395C101.384 46.1395 98.9702 45.5312 96.8794 44.3148C94.7886 43.0603 93.1539 41.3306 91.9755 39.1257C90.797 36.9209 90.2078 34.3549 90.2078 31.4277C90.2078 28.4626 90.778 25.8586 91.9185 23.6157C93.0969 21.3728 94.7316 19.6241 96.8224 18.3696C98.9512 17.1152 101.403 16.4879 104.178 16.4879C106.915 16.4879 109.272 17.1152 111.249 18.3696C113.226 19.5861 114.746 21.2208 115.811 23.2736C116.913 25.3264 117.464 27.5882 117.464 30.0592C117.464 30.4394 117.464 30.8575 117.464 31.3137C117.464 31.7319 117.445 32.207 117.407 32.7392H96.1381C96.3282 35.3623 97.1835 37.358 98.7041 38.7266C100.225 40.0571 102.011 40.7224 104.064 40.7224C105.851 40.7224 107.257 40.3612 108.284 39.6389C109.348 38.8786 110.128 37.8522 110.622 36.5597H116.723C116.039 39.2588 114.613 41.5397 112.446 43.4024C110.28 45.2271 107.505 46.1395 104.121 46.1395ZM104.121 21.734C102.258 21.734 100.605 22.3042 99.1603 23.4446C97.7157 24.5471 96.7844 26.1057 96.3662 28.1204H111.42C111.268 26.2197 110.527 24.6801 109.196 23.5016C107.866 22.3232 106.174 21.734 104.121 21.734Z" fill="white"/>
<path d="M60.9776 58.0001V17.1722H66.2237L66.6798 21.5059H67.022C67.7823 20.0993 68.9227 18.9209 70.4433 17.9705C72.0019 16.9821 73.8456 16.4879 75.9745 16.4879C78.1793 16.4879 80.1941 17.0581 82.0188 18.1986C83.8435 19.301 85.2881 20.9547 86.3525 23.1595C87.4549 25.3264 88.0062 28.0444 88.0062 31.3137C88.0062 34.545 87.4359 37.263 86.2955 39.4679C85.1931 41.6727 83.6915 43.3454 81.7907 44.4858C79.89 45.5882 77.7612 46.1395 75.4042 46.1395C73.3134 46.1395 71.5647 45.7213 70.1582 44.885C68.7516 44.0487 67.7062 43.0983 67.022 42.0339V58.0001H60.9776ZM74.3778 40.3802C76.5067 40.3802 78.2744 39.6199 79.6809 38.0993C81.1255 36.5787 81.8478 34.2979 81.8478 31.2567C81.8478 28.2155 81.1255 25.9536 79.6809 24.471C78.2744 22.9884 76.5067 22.2472 74.3778 22.2472C72.211 22.2472 70.4053 23.0075 68.9607 24.528C67.5542 26.0106 66.8509 28.2725 66.8509 31.3137C66.8509 34.3169 67.5542 36.5787 68.9607 38.0993C70.4053 39.6199 72.211 40.3802 74.3778 40.3802Z" fill="white"/>
<path d="M45.0907 12.8384C43.7602 12.8384 42.6388 12.4203 41.7264 11.584C40.8521 10.7096 40.4149 9.6452 40.4149 8.39071C40.4149 7.13622 40.8521 6.09082 41.7264 5.25449C42.6388 4.41816 43.7602 4 45.0907 4C46.4593 4 47.5807 4.41816 48.455 5.25449C49.3674 6.09082 49.8236 7.13622 49.8236 8.39071C49.8236 9.6452 49.3674 10.7096 48.455 11.584C47.5807 12.4203 46.4593 12.8384 45.0907 12.8384ZM33.7433 45.4552V40.2091H42.6388V24.2999C42.6388 23.0454 42.0305 22.4182 40.8141 22.4182H34.5416V17.1721H41.8975C44.2544 17.1721 45.9651 17.7233 47.0295 18.8258C48.1319 19.8902 48.6831 21.6009 48.6831 23.9578V40.2091H57.5786V45.4552H33.7433Z" fill="white"/>
<path d="M4 58.0001V17.1722H9.24604L9.70222 21.5059H10.0444C10.8047 20.0993 11.9451 18.9209 13.4657 17.9705C15.0243 16.9821 16.868 16.4879 18.9968 16.4879C21.2017 16.4879 23.2165 17.0581 25.0412 18.1986C26.8659 19.301 28.3105 20.9547 29.3749 23.1595C30.4773 25.3264 31.0285 28.0444 31.0285 31.3137C31.0285 34.545 30.4583 37.263 29.3179 39.4679C28.2154 41.6727 26.7139 43.3454 24.8131 44.4858C22.9124 45.5882 20.7835 46.1395 18.4266 46.1395C16.3358 46.1395 14.5871 45.7213 13.1806 44.885C11.774 44.0487 10.7286 43.0983 10.0444 42.0339V58.0001H4ZM17.4002 40.3802C19.5291 40.3802 21.2967 39.6199 22.7033 38.0993C24.1479 36.5787 24.8701 34.2979 24.8701 31.2567C24.8701 28.2155 24.1479 25.9536 22.7033 24.471C21.2967 22.9884 19.5291 22.2472 17.4002 22.2472C15.2334 22.2472 13.4277 23.0075 11.9831 24.528C10.5766 26.0106 9.87329 28.2725 9.87329 31.3137C9.87329 34.3169 10.5766 36.5787 11.9831 38.0993C13.4277 39.6199 15.2334 40.3802 17.4002 40.3802Z" fill="white"/>
<path d="M140.213 55.3673L140.241 55.3866L140.27 55.4054C142.234 56.6727 144.394 57.4567 146.697 57.7989V58.3773L151.057 57.9838C154.84 57.6423 158.52 56.675 162.084 55.1023L162.098 55.0965L162.111 55.0906C165.63 53.5075 168.907 51.5391 171.938 49.1872L171.955 49.1735L171.973 49.1596C174.967 46.7815 177.546 44.18 179.682 41.3462C180.691 40.1001 181.593 38.7322 182.395 37.254C183.246 35.6844 183.879 34.0492 184.27 32.3531C184.499 31.5444 184.678 30.7402 184.801 29.9424L184.805 29.921L184.808 29.8996C184.936 29.0109 185 28.1185 185 27.2239C185 24.4297 184.391 21.735 183.202 19.1759C182.094 16.6827 180.558 14.4596 178.613 12.5233C176.669 10.5387 174.437 8.95845 171.931 7.80309C169.385 6.60545 166.688 6 163.879 6C161.803 6 159.683 6.39808 157.546 7.10512C155.577 7.75682 153.787 8.4846 152.199 9.3017L152.192 9.30568C146.903 12.0428 142.562 15.7698 139.244 20.484C136.012 25.0758 133.736 30.1852 132.411 35.7784C132.119 37.0108 132 38.3371 132 39.7094C132 42.8317 132.698 45.8057 134.094 48.5787L134.119 48.628L134.145 48.6767C135.614 51.4021 137.647 53.6481 140.213 55.3673ZM147.951 26.7558C150.23 23.3833 153.263 20.6941 157.128 18.6816C158.143 18.1804 159.377 17.6737 160.853 17.1702L160.886 17.1589L160.919 17.1469C162.256 16.6643 163.331 16.4821 164.182 16.4821C165.847 16.4821 167.339 16.9387 168.755 17.8988L168.801 17.9299L168.848 17.9598C170.418 18.9619 171.659 20.2644 172.604 21.915L172.621 21.9447L172.639 21.974C173.609 23.6043 174.045 25.2095 174.045 26.8479C174.045 28.525 173.612 30.2629 172.626 32.1042L172.61 32.1338L172.594 32.1636C171.584 34.129 170.187 36.0684 168.359 37.9748C166.503 39.8596 164.44 41.5488 162.164 43.0424C159.876 44.4946 157.596 45.6334 155.327 46.4757C153.106 47.2503 151.143 47.5932 149.409 47.5932C147.107 47.5932 145.613 46.8874 144.501 45.6799C143.319 44.3428 142.652 42.6462 142.652 40.3111C142.652 40.0094 142.668 39.7066 142.702 39.4021C142.736 39.1015 142.787 38.7974 142.855 38.4892C143.859 34.1466 145.557 30.2535 147.937 26.7754L147.944 26.7656L147.951 26.7558Z" fill="#A4FBBE" stroke="#A4FBBE" stroke-width="8"/>
<path fill-rule="evenodd" clip-rule="evenodd" d="M141.63 54.9768L141.603 54.9588C138.911 53.195 136.781 50.8944 135.243 48.1026L135.218 48.0577L135.194 48.0121C133.731 45.1705 133 42.1255 133 38.9255C133 37.5122 133.125 36.1608 133.427 34.9153C134.837 29.1001 137.256 23.791 140.691 19.0194C144.208 14.1342 148.811 10.2672 154.432 7.42307L154.439 7.41935C156.119 6.57396 158.02 5.81781 160.119 5.1386C162.378 4.40753 164.608 4 166.781 4C169.734 4 172.567 4.62199 175.242 5.85245C177.884 7.04338 180.236 8.67166 182.285 10.7172C184.334 12.7117 185.951 14.9991 187.115 17.5631C188.363 20.1879 189 22.9461 189 25.805C189 26.7197 188.933 27.6325 188.799 28.542L188.796 28.5617L188.793 28.5814C188.663 29.4008 188.474 30.2292 188.232 31.065C187.823 32.8029 187.16 34.4819 186.264 36.0977C185.415 37.6288 184.46 39.0426 183.395 40.3283C181.126 43.272 178.383 45.9792 175.191 48.4579L175.174 48.4708L175.157 48.4836C171.931 50.9319 168.441 52.9815 164.692 54.6303L164.68 54.6358L164.667 54.6412C160.881 56.2746 156.974 57.2784 152.959 57.6327L148.796 58V57.4971C146.224 57.1806 143.824 56.3613 141.658 54.9943L141.63 54.9768ZM143.657 21.369C140.594 25.6839 138.423 30.4822 137.142 35.7639C137.119 35.8619 137.096 35.9617 137.075 36.0634C137.074 36.0697 137.073 36.076 137.071 36.0823C136.962 36.6114 136.888 37.1915 136.849 37.8224C136.828 38.1743 136.817 38.542 136.817 38.9255C136.817 39.1373 136.821 39.348 136.828 39.5578C136.917 41.9573 137.51 44.2231 138.608 46.3552C139.262 47.542 140.043 48.6131 140.95 49.5686C140.957 49.576 140.964 49.5834 140.971 49.5908C141.79 50.4505 142.713 51.2162 143.738 51.8879C145.483 52.9893 147.457 53.6479 149.658 53.8639C150.17 53.9141 150.693 53.9403 151.229 53.9428C151.256 53.9429 151.283 53.9429 151.31 53.9429H151.962C152.177 53.9429 152.391 53.9172 152.606 53.8657C152.608 53.8651 152.611 53.8645 152.613 53.8639V53.9429C152.62 53.9424 152.627 53.9418 152.633 53.9412C152.89 53.9184 153.146 53.8926 153.401 53.8639C154.417 53.7497 155.427 53.5886 156.43 53.3805C157.609 53.1358 158.779 52.8262 159.941 52.4518C159.955 52.447 159.97 52.4423 159.985 52.4375C161.036 52.0968 162.08 51.7028 163.117 51.2556C165.093 50.3867 166.989 49.3985 168.807 48.291C168.818 48.2841 168.829 48.2772 168.841 48.2703C170.207 47.436 171.529 46.5341 172.807 45.5648C174.254 44.4409 175.593 43.2738 176.823 42.0633C176.831 42.0551 176.839 42.047 176.848 42.0389C178.146 40.7596 179.323 39.432 180.379 38.056C181.286 36.9685 182.114 35.7537 182.864 34.4117C182.873 34.3962 182.881 34.3806 182.89 34.3649C182.895 34.357 182.899 34.3491 182.903 34.3412C183.663 32.9712 184.206 31.5748 184.532 30.1521C184.749 29.4144 184.912 28.7031 185.02 28.0181C185.129 27.2804 185.183 26.5427 185.183 25.805C185.183 25.673 185.182 25.5412 185.178 25.4098C185.123 23.2318 184.609 21.124 183.636 19.0866C183.271 18.2794 182.853 17.5052 182.382 16.7642C182.373 16.7508 182.365 16.7374 182.356 16.724C181.572 15.4972 180.641 14.3615 179.565 13.3168C178.449 12.1998 177.233 11.2351 175.915 10.4225C175.895 10.4099 175.874 10.3972 175.854 10.3846C175.139 9.9474 174.395 9.55477 173.621 9.20671C171.548 8.25115 169.377 7.75161 167.107 7.70808C166.999 7.706 166.89 7.70497 166.781 7.70497C165.098 7.70497 163.28 8.02112 161.326 8.65344C161.293 8.66405 161.26 8.67467 161.228 8.6853C161.212 8.69042 161.196 8.69553 161.181 8.70065C159.344 9.3012 157.725 9.94889 156.325 10.6437C156.31 10.6512 156.295 10.6586 156.28 10.6661C156.252 10.6802 156.224 10.6943 156.196 10.7085C151.093 13.2904 146.968 16.7681 143.819 21.1416C143.768 21.2127 143.717 21.2838 143.667 21.3551C143.663 21.3597 143.66 21.3643 143.657 21.369ZM146.099 22.9595C143.276 26.993 141.263 31.4833 140.06 36.4303C140.037 36.5241 140.015 36.6182 139.992 36.7124C139.884 37.1866 139.802 37.6609 139.748 38.1351C139.718 38.3986 139.696 38.662 139.683 38.9255C139.672 39.1363 139.667 39.347 139.667 39.5578C139.667 41.6472 140.063 43.5242 140.854 45.1889C140.864 45.2095 140.874 45.23 140.884 45.2506C141.366 46.2489 141.992 47.1704 142.761 48.015C143.457 48.7606 144.23 49.3835 145.08 49.8837C145.092 49.8909 145.104 49.8981 145.117 49.9052C146.841 50.9109 148.878 51.4137 151.229 51.4137C151.256 51.4137 151.283 51.4136 151.31 51.4135C151.526 51.4126 151.743 51.408 151.962 51.3996C151.967 51.3994 151.973 51.3992 151.978 51.399C152.11 51.3939 152.241 51.3875 152.373 51.3797C153.681 51.3028 155.033 51.0955 156.43 50.7578C157.285 50.5511 158.157 50.2955 159.046 49.991C160.024 49.6371 160.999 49.2404 161.971 48.801C161.977 48.7983 161.983 48.7955 161.989 48.7928C163.761 47.9907 165.521 47.0464 167.27 45.96C168.556 45.136 169.787 44.2588 170.963 43.3284C170.972 43.3216 170.981 43.3149 170.989 43.3081C172.286 42.2809 173.516 41.1889 174.679 40.032C175.885 38.8044 176.956 37.5458 177.891 36.2562C177.915 36.2232 177.939 36.1901 177.962 36.1569C178.723 35.0983 179.393 34.0188 179.972 32.9185C179.988 32.8901 180.003 32.8617 180.018 32.8333C180.621 31.7208 181.087 30.603 181.415 29.4799C181.433 29.4205 181.45 29.3612 181.466 29.3019C181.627 28.7284 181.751 28.1534 181.841 27.5771C181.842 27.5661 181.844 27.555 181.846 27.544C181.934 26.9657 181.986 26.386 182.002 25.805C182.006 25.6733 182.008 25.5416 182.008 25.4098C182.008 23.649 181.666 21.9393 180.982 20.2807C180.974 20.2629 180.967 20.2451 180.959 20.2273C180.665 19.5217 180.309 18.8253 179.891 18.1382C179.251 17.0461 178.51 16.0534 177.666 15.1601C177.657 15.1503 177.647 15.1404 177.638 15.1306C176.697 14.1396 175.629 13.2716 174.435 12.5264C173.82 12.1185 173.188 11.767 172.539 11.4719C172.532 11.4685 172.525 11.4652 172.517 11.4618C170.827 10.6961 169.023 10.3133 167.107 10.3133C166.999 10.3133 166.89 10.3149 166.781 10.318C165.372 10.3591 163.849 10.6652 162.213 11.2362C162.188 11.2447 162.164 11.2532 162.14 11.2617C160.403 11.8414 158.883 12.4473 157.58 13.0796C157.551 13.0944 157.522 13.1092 157.493 13.124C157.491 13.1249 157.489 13.1258 157.488 13.1267C152.824 15.51 149.071 18.7262 146.228 22.7752C146.185 22.8365 146.142 22.8979 146.099 22.9595ZM143.716 37.5273C143.638 37.8698 143.58 38.2086 143.542 38.5442C143.503 38.8834 143.483 39.2211 143.483 39.5578C143.483 42.128 144.241 44.037 145.604 45.5434C146.905 46.9267 148.645 47.7087 151.229 47.7087C153.153 47.7087 155.317 47.3365 157.744 46.5079C160.22 45.6102 162.701 44.3974 165.19 42.8534C167.666 41.2649 169.911 39.467 171.933 37.4595C173.928 35.4258 175.46 33.3485 176.573 31.2336L176.587 31.206L176.602 31.1786C177.698 29.1782 178.191 27.2683 178.191 25.4098C178.191 23.5868 177.692 21.809 176.605 20.023L176.588 19.9958L176.572 19.9684C175.516 18.1635 174.125 16.7371 172.371 15.6429L172.326 15.615L172.283 15.5859C170.682 14.5251 168.988 14.0182 167.107 14.0182C166.129 14.0182 164.919 14.2229 163.444 14.7436L163.413 14.7548L163.381 14.7655C161.779 15.3 160.431 15.8405 159.318 16.3787C155.094 18.5274 151.769 21.4062 149.269 25.0237L149.263 25.0328L149.256 25.0418C146.66 28.751 144.809 32.9022 143.716 37.5273Z" fill="black"/>
</svg>
