<svg width="64" height="64" viewBox="0 0 64 64" fill="none" xmlns="http://www.w3.org/2000/svg">
<path d="M14.2126 55.3673L14.2414 55.3866L14.2705 55.4054C16.2343 56.6727 18.3944 57.4567 20.697 57.7989V58.3773L25.0565 57.9838C28.8399 57.6423 32.5204 56.675 36.0845 55.1023L36.0977 55.0965L36.1108 55.0906C39.6297 53.5075 42.9075 51.5391 45.9375 49.1872L45.9552 49.1735L45.9726 49.1596C48.9668 46.7815 51.5461 44.18 53.6821 41.3462C54.6911 40.1001 55.5932 38.7322 56.3949 37.254C57.2462 35.6844 57.8788 34.0492 58.2704 32.3531C58.4986 31.5444 58.6777 30.7402 58.8013 29.9424L58.8046 29.921L58.8077 29.8996C58.9356 29.0109 59 28.1185 59 27.2239C59 24.4297 58.3907 21.7351 57.2025 19.176C56.0945 16.6827 54.5578 14.4595 52.6127 12.5232C50.6693 10.5386 48.4371 8.95845 45.9314 7.80311C43.3855 6.60546 40.6878 6 37.8788 6C35.8031 6 33.6827 6.39808 31.5463 7.10512C29.5771 7.75682 27.7867 8.4846 26.1995 9.3017L26.1918 9.30568C20.9029 12.0428 16.5623 15.7698 13.2441 20.484C10.0123 25.0758 7.73642 30.1852 6.41084 35.7784C6.11877 37.0108 6 38.3371 6 39.7094C6 42.8317 6.69764 45.8057 8.09414 48.5787L8.119 48.628L8.14521 48.6767C9.61355 51.4021 11.6472 53.6481 14.2126 55.3673ZM21.9506 26.7558C24.2296 23.3833 27.2626 20.6941 31.1285 18.6816C32.1426 18.1804 33.3774 17.6737 34.8526 17.1702L34.8858 17.1589L34.9189 17.1469C36.2557 16.6643 37.3312 16.4821 38.1818 16.4821C39.8469 16.4821 41.3392 16.9387 42.7552 17.8988L42.8012 17.9299L42.848 17.9598C44.418 18.9619 45.6594 20.2644 46.6041 21.915L46.621 21.9447L46.6385 21.974C47.6088 23.6043 48.0455 25.2095 48.0455 26.8479C48.0455 28.525 47.6121 30.2629 46.6257 32.1042L46.6098 32.1338L46.5944 32.1636C45.5836 34.129 44.1866 36.0684 42.3585 37.9748C40.5029 39.8596 38.4404 41.5487 36.1646 43.0423C33.8757 44.4946 31.5964 45.6334 29.3266 46.4757C27.1064 47.2504 25.1428 47.5932 23.4091 47.5932C21.1072 47.5932 19.6125 46.8874 18.5007 45.6798C17.3187 44.3427 16.6515 42.6461 16.6515 40.3111C16.6515 40.0094 16.6684 39.7066 16.7025 39.4021C16.7361 39.1016 16.7867 38.7974 16.8553 38.4892C17.8593 34.1466 19.5569 30.2535 21.9373 26.7754L21.944 26.7656L21.9506 26.7558Z" fill="#A4FBBE" stroke="#A4FBBE" stroke-width="8"/>
<path fill-rule="evenodd" clip-rule="evenodd" d="M16.63 54.9768L16.6025 54.9588C13.9107 53.195 11.7809 50.8944 10.2426 48.1026L10.2178 48.0577L10.1943 48.0121C8.7306 45.1705 8 42.1255 8 38.9255C8 37.5122 8.12526 36.1608 8.42716 34.9153C9.83675 29.1001 12.2557 23.791 15.6907 19.0194C19.2076 14.1342 23.8108 10.2672 29.4316 7.42307L29.439 7.41935C31.1186 6.57396 33.0196 5.81781 35.1187 5.1386C37.3781 4.40753 39.6081 4 41.7812 4C44.7338 4 47.5671 4.62199 50.2419 5.85245C52.8842 7.04338 55.2364 8.67166 57.2846 10.7172C59.3344 12.7117 60.9507 14.9991 62.1155 17.5631C63.3627 20.1879 64 22.9461 64 25.805C64 26.7197 63.9326 27.6325 63.7988 28.542L63.7959 28.5617L63.7928 28.5814C63.6629 29.4008 63.4741 30.2292 63.2324 31.065C62.8233 32.8029 62.1602 34.4819 61.2639 36.0977C60.4146 37.6288 59.4603 39.0426 58.3947 40.3283C56.1264 43.272 53.3828 45.9792 50.191 48.4579L50.1743 48.4708L50.1575 48.4836C46.9314 50.9319 43.4409 52.9815 39.6924 54.6303L39.6798 54.6358L39.6672 54.6412C35.8812 56.2746 31.9741 57.2784 27.9588 57.6327L23.7964 58V57.4971C21.2241 57.1806 18.8243 56.3613 16.6578 54.9943L16.63 54.9768ZM18.6568 21.369C15.5942 25.6839 13.4228 30.4822 12.1425 35.7639C12.1188 35.8619 12.0963 35.9617 12.0752 36.0634C12.0739 36.0697 12.0726 36.076 12.0713 36.0823C11.9624 36.6114 11.8884 37.1915 11.8494 37.8224C11.8277 38.1743 11.8168 38.542 11.8168 38.9255C11.8168 39.1373 11.8207 39.348 11.8284 39.5578C11.9167 41.9573 12.5099 44.2231 13.6081 46.3552C14.2621 47.542 15.0426 48.6131 15.9498 49.5686C15.9568 49.576 15.9639 49.5834 15.9709 49.5908C16.7904 50.4505 17.7127 51.2162 18.7379 51.8879C20.4834 52.9893 22.4569 53.6479 24.6585 53.8639C25.1697 53.9141 25.6932 53.9403 26.229 53.9428C26.2561 53.9429 26.2833 53.9429 26.3104 53.9429H26.9618C27.1766 53.9429 27.3913 53.9172 27.606 53.8657C27.6084 53.8651 27.6108 53.8645 27.6132 53.8639V53.9429C27.6199 53.9424 27.6265 53.9418 27.6331 53.9412C27.8896 53.9184 28.1457 53.8926 28.4013 53.8639C29.4175 53.7497 30.427 53.5886 31.43 53.3805C32.6093 53.1358 33.7795 52.8262 34.9405 52.4518C34.9553 52.447 34.97 52.4423 34.9848 52.4375C36.0363 52.0968 37.0804 51.7028 38.1171 51.2556C40.0926 50.3867 41.9891 49.3985 43.8066 48.291C43.818 48.2841 43.8293 48.2772 43.8406 48.2703C45.2073 47.436 46.5293 46.5341 47.8066 45.5648C49.2538 44.4409 50.5926 43.2738 51.823 42.0633C51.8312 42.0551 51.8395 42.047 51.8477 42.0389C53.1458 40.7596 54.323 39.432 55.3791 38.056C56.2861 36.9685 57.1144 35.7537 57.864 34.4117C57.8728 34.3962 57.8814 34.3806 57.8901 34.3649C57.8945 34.357 57.8989 34.3491 57.9033 34.3412C58.6633 32.9712 59.2061 31.5748 59.5318 30.1521C59.7489 29.4144 59.9118 28.7031 60.0204 28.0181C60.1289 27.2804 60.1832 26.5427 60.1832 25.805C60.1832 25.673 60.1815 25.5412 60.1782 25.4098C60.1228 23.2318 59.6088 21.124 58.6361 19.0866C58.271 18.2794 57.8529 17.5052 57.3817 16.7642C57.3732 16.7508 57.3646 16.7374 57.356 16.724C56.5715 15.4972 55.6411 14.3615 54.5649 13.3168C53.4491 12.1998 52.2326 11.2351 50.9152 10.4225C50.8947 10.4099 50.8741 10.3972 50.8535 10.3846C50.1388 9.9474 49.3946 9.55477 48.6209 9.20671C46.5484 8.25115 44.3771 7.75161 42.1069 7.70808C41.9985 7.706 41.89 7.70497 41.7812 7.70497C40.0984 7.70497 38.2799 8.02112 36.3257 8.65344C36.2929 8.66405 36.2602 8.67467 36.2276 8.6853C36.2119 8.69042 36.1962 8.69553 36.1805 8.70065C34.3436 9.3012 32.7253 9.94889 31.3254 10.6437C31.3104 10.6512 31.2954 10.6586 31.2805 10.6661C31.2522 10.6802 31.224 10.6943 31.1959 10.7085C26.0933 13.2904 21.9678 16.7681 18.8193 21.1416C18.7682 21.2127 18.7173 21.2838 18.6667 21.3551C18.6634 21.3597 18.6601 21.3643 18.6568 21.369ZM21.0992 22.9595C18.2758 26.993 16.2627 31.4833 15.06 36.4303C15.0371 36.5241 15.0146 36.6182 14.9924 36.7124C14.8838 37.1866 14.8024 37.6609 14.7481 38.1351C14.7179 38.3986 14.6962 38.662 14.6828 38.9255C14.672 39.1362 14.6667 39.347 14.6667 39.5578C14.6667 41.6472 15.0626 43.5242 15.8544 45.1889C15.8642 45.2095 15.8741 45.23 15.884 45.2506C16.3663 46.2489 16.9919 47.1704 17.7608 48.015C18.4575 48.7606 19.2305 49.3835 20.08 49.8837C20.0922 49.8909 20.1044 49.8981 20.1166 49.9052C21.8409 50.9109 23.8783 51.4137 26.229 51.4137C26.2561 51.4137 26.2833 51.4136 26.3104 51.4135C26.5263 51.4126 26.7434 51.408 26.9618 51.3996C26.9674 51.3994 26.9729 51.3992 26.9784 51.399C27.1095 51.3939 27.2411 51.3875 27.3732 51.3797C28.6807 51.3028 30.033 51.0955 31.43 50.7578C32.2852 50.5511 33.1571 50.2955 34.0458 49.991C35.0243 49.6371 35.9995 49.2404 36.9712 48.801C36.9773 48.7983 36.9834 48.7955 36.9894 48.7928C38.7608 47.9907 40.5209 47.0464 42.2697 45.96C43.5558 45.136 44.7871 44.2588 45.9635 43.3284C45.972 43.3216 45.9806 43.3149 45.9891 43.3081C47.2859 42.2809 48.516 41.1889 49.6794 40.032C50.8853 38.8044 51.9557 37.5458 52.8907 36.2562C52.9147 36.2232 52.9386 36.1901 52.9624 36.1569C53.7233 35.0983 54.3932 34.0188 54.972 32.9185C54.9876 32.8901 55.003 32.8617 55.0184 32.8333C55.6209 31.7208 56.0865 30.603 56.4153 29.4799C56.4327 29.4205 56.4496 29.3612 56.4662 29.3019C56.6267 28.7284 56.7514 28.1534 56.8406 27.5771C56.8423 27.5661 56.844 27.555 56.8456 27.544C56.9337 26.9657 56.9858 26.386 57.0021 25.805C57.0058 25.6733 57.0076 25.5416 57.0076 25.4098C57.0076 23.649 56.6656 21.9393 55.9816 20.2807C55.9743 20.2629 55.9669 20.2451 55.9595 20.2273C55.6652 19.5217 55.3089 18.8253 54.8906 18.1382C54.2514 17.0461 53.5098 16.0534 52.6659 15.1601C52.6566 15.1503 52.6472 15.1404 52.6379 15.1306C51.6969 14.1396 50.6293 13.2716 49.4351 12.5264C48.8198 12.1185 48.188 11.767 47.5395 11.4719C47.5321 11.4685 47.5247 11.4652 47.5174 11.4618C45.8266 10.6961 44.0231 10.3133 42.1069 10.3133C41.999 10.3133 41.8904 10.3149 41.7812 10.318C40.3721 10.3591 38.8492 10.6652 37.2126 11.2362C37.1884 11.2447 37.1642 11.2532 37.14 11.2617C35.4029 11.8414 33.883 12.4473 32.5802 13.0796C32.5511 13.0944 32.5221 13.1092 32.4931 13.124C32.4913 13.1249 32.4895 13.1258 32.4877 13.1267C27.8244 15.51 24.071 18.7262 21.2276 22.7752C21.1846 22.8365 21.1418 22.8979 21.0992 22.9595ZM18.7157 37.5273C18.6377 37.8698 18.58 38.2086 18.5415 38.5442C18.5027 38.8834 18.4835 39.2211 18.4835 39.5578C18.4835 42.128 19.2408 44.037 20.6044 45.5434C21.9053 46.9267 23.6452 47.7087 26.229 47.7087C28.1535 47.7087 30.3167 47.3365 32.7444 46.5079C35.2195 45.6102 37.7012 44.3974 40.1897 42.8534C42.6658 41.2649 44.9114 39.467 46.9326 37.4595C48.9275 35.4258 50.4602 33.3485 51.5728 31.2336L51.5873 31.206L51.6023 31.1786C52.6984 29.1782 53.1908 27.2683 53.1908 25.4098C53.1908 23.5868 52.6918 21.809 51.6046 20.023L51.5881 19.9958L51.572 19.9684C50.5156 18.1635 49.1246 16.7371 47.3712 15.6429L47.3265 15.615L47.2826 15.5859C45.6823 14.5251 43.9879 14.0182 42.1069 14.0182C41.1286 14.0182 39.9194 14.2229 38.4443 14.7436L38.4126 14.7548L38.3807 14.7655C36.7787 15.3 35.4306 15.8405 34.3175 16.3787C30.0942 18.5274 26.769 21.4062 24.2688 25.0237L24.2625 25.0328L24.2562 25.0418C21.6598 28.751 19.8092 32.9022 18.7157 37.5273Z" fill="black"/>
</svg>
