<svg width="114" height="31" viewBox="0 0 114 31" fill="none" xmlns="http://www.w3.org/2000/svg">
<g clip-path="url(#clip0_347_264)">
<path d="M30.319 10.297L17.252 3.22699L3.84201 10.297V20.45L13.567 22.336L17.251 28.248L30.319 21.008V10.296V10.297Z" fill="white"/>
<path fill-rule="evenodd" clip-rule="evenodd" d="M3.91301 9.65901C3.97301 9.61201 4.03701 9.56901 4.10401 9.52901L16.466 2.49601C16.563 2.44162 16.6652 2.39707 16.771 2.36301L16.791 2.35601C16.9445 2.30865 17.1044 2.28505 17.265 2.28601C17.5451 2.28518 17.8205 2.35758 18.064 2.49601L30.392 9.59001C30.7258 9.78371 30.9791 10.0906 31.106 10.455C31.161 10.616 31.191 10.787 31.191 10.962L31.171 20.384C31.1716 20.6092 31.1237 20.8319 31.0305 21.0369C30.9373 21.2419 30.801 21.4244 30.631 21.572C30.5559 21.6374 30.4749 21.6956 30.389 21.746L30.372 21.756L18.51 28.506C18.2029 28.681 17.8635 28.7918 17.5123 28.8317C17.1611 28.8715 16.8055 28.8397 16.467 28.738C16.2758 28.6803 16.0922 28.6001 15.92 28.499L12.303 26.419L14.191 23.562L9.19101 20.062L8.21401 24.059L8.35101 24.139C8.29627 24.1153 8.24286 24.0886 8.19101 24.059L4.08401 21.697C3.84199 21.5586 3.64076 21.3587 3.50065 21.1177C3.36054 20.8766 3.28651 20.6028 3.28601 20.324L3.30601 10.903C3.30556 10.5483 3.42542 10.2038 3.64601 9.92601L3.65601 9.91301C3.73187 9.81926 3.81808 9.73339 3.91301 9.65901ZM9.06701 24.267C9.18958 24.2617 9.31109 24.2419 9.42901 24.208ZM5.02301 10.974L9.13901 13.332L16.826 17.763C17.072 17.909 17.225 18.166 17.225 18.45L17.205 27.27C17.365 27.27 17.525 27.231 17.665 27.152L29.107 20.64C29.2467 20.5621 29.363 20.4482 29.4439 20.3102C29.5248 20.1721 29.5673 20.015 29.567 19.855L29.587 11.482C29.5873 11.3229 29.5455 11.1665 29.466 11.0286C29.3865 10.8908 29.2719 10.7764 29.134 10.697L17.718 4.13301C17.5783 4.05177 17.4196 4.00897 17.258 4.00897C17.0964 4.00897 16.9377 4.05177 16.798 4.13301L5.35701 10.645C5.21827 10.723 5.10321 10.837 5.02401 10.975L5.02301 10.974ZM20.886 15.388L13.136 10.918L16.792 8.83701C16.9326 8.75909 17.0907 8.7182 17.2515 8.7182C17.4123 8.7182 17.5704 8.75909 17.711 8.83701L25.013 13.04C25.3 13.204 25.473 13.501 25.466 13.825L25.459 17.612C25.4583 17.7341 25.4254 17.8539 25.3636 17.9593C25.3018 18.0646 25.2133 18.1518 25.107 18.212L22.044 19.954C21.9718 19.9949 21.8902 20.0162 21.8073 20.0159C21.7243 20.0156 21.6428 19.9937 21.571 19.9523C21.4991 19.9109 21.4392 19.8515 21.3973 19.7799C21.3554 19.7083 21.3329 19.627 21.332 19.544L21.339 16.174C21.3395 16.0147 21.2978 15.8581 21.2182 15.7201C21.1387 15.582 21.0241 15.4675 20.886 15.388Z" fill="#0B0B0F"/>
<path fill-rule="evenodd" clip-rule="evenodd" d="M17.707 2.34799L17.725 2.35299C17.719 2.35136 17.713 2.34969 17.707 2.34799Z" fill="white" fill-opacity="0.3"/>
<path d="M9.53 24.176C9.533 24.175 9.528 24.176 9.53 24.176Z" fill="#040404"/>
<path d="M2.02 10.902L2 20.322C2 21.358 2.559 22.301 3.443 22.81L7.556 25.175C7.622 25.213 7.696 25.25 7.765 25.283L11.652 27.527L11.664 27.534L15.274 29.61C15.8643 29.9534 16.5351 30.1339 17.218 30.133C17.895 30.133 18.56 29.956 19.146 29.621L31.01 22.871C31.448 22.62 31.8122 22.2581 32.0661 21.8217C32.3199 21.3853 32.4544 20.8898 32.456 20.385L32.476 10.963C32.4753 10.4581 32.3416 9.96222 32.0883 9.52543C31.8349 9.08863 31.4709 8.72632 31.033 8.475L18.7 1.38C18.2634 1.13259 17.7702 1.0023 17.2684 1.00177C16.7666 1.00125 16.2731 1.13051 15.836 1.377L3.466 8.414C3.02797 8.66549 2.66378 9.02776 2.40998 9.46445C2.15618 9.90115 2.02169 10.3969 2.02 10.902ZM12.302 26.418L8.352 24.138C8.29728 24.1142 8.24387 24.0875 8.192 24.058L4.084 21.696C3.84194 21.5578 3.64061 21.3581 3.50033 21.1173C3.36004 20.8764 3.28577 20.6028 3.285 20.324L3.305 10.902C3.30455 10.5472 3.42441 10.2028 3.645 9.925L3.656 9.912C3.78045 9.75808 3.93235 9.62856 4.104 9.53L16.466 2.497C16.5629 2.44228 16.6651 2.39739 16.771 2.363L16.791 2.356C16.9445 2.30864 17.1044 2.28504 17.265 2.286C17.5451 2.28517 17.8205 2.35757 18.064 2.496L30.392 9.59C30.726 9.78343 30.9794 10.0904 31.106 10.455C31.161 10.616 31.191 10.787 31.191 10.962L31.171 20.384C31.1716 20.6092 31.1237 20.8319 31.0306 21.0369C30.9374 21.2419 30.8011 21.4244 30.631 21.572C30.5559 21.6374 30.4749 21.6956 30.389 21.746L30.372 21.756L18.509 28.506C18.2021 28.681 17.8628 28.7917 17.5118 28.8316C17.1608 28.8715 16.8053 28.8396 16.467 28.738C16.2759 28.6802 16.0923 28.6 15.92 28.499L12.302 26.419V26.418Z" fill="white" fill-opacity="0.8"/>
<path d="M8.21399 24.058L8.35099 24.138L12.302 26.418L14.191 23.561L9.19099 20.061L8.21399 24.058Z" fill="#040404"/>
</g>
<path d="M103.408 23.288C101.984 23.288 100.736 22.904 99.6642 22.136C98.5922 21.368 97.7522 20.288 97.1442 18.896C96.5522 17.504 96.2562 15.888 96.2562 14.048C96.2562 12.192 96.5522 10.576 97.1442 9.2C97.7362 7.824 98.5682 6.752 99.6402 5.984C100.712 5.216 101.96 4.832 103.384 4.832C104.84 4.832 106.096 5.216 107.152 5.984C108.224 6.752 109.064 7.832 109.672 9.224C110.28 10.6 110.584 12.208 110.584 14.048C110.584 15.888 110.28 17.504 109.672 18.896C109.08 20.272 108.248 21.352 107.176 22.136C106.104 22.904 104.848 23.288 103.408 23.288ZM103.432 20.312C104.248 20.312 104.944 20.064 105.52 19.568C106.096 19.056 106.536 18.336 106.84 17.408C107.16 16.464 107.32 15.344 107.32 14.048C107.32 12.752 107.16 11.64 106.84 10.712C106.536 9.768 106.088 9.048 105.496 8.552C104.92 8.056 104.216 7.808 103.384 7.808C102.584 7.808 101.896 8.056 101.32 8.552C100.744 9.048 100.296 9.768 99.9762 10.712C99.6722 11.64 99.5202 12.752 99.5202 14.048C99.5202 15.328 99.6722 16.44 99.9762 17.384C100.296 18.312 100.744 19.032 101.32 19.544C101.912 20.056 102.616 20.312 103.432 20.312Z" fill="white"/>
<path d="M87.3929 23.288C86.0489 23.288 84.8729 22.984 83.8649 22.376C82.8569 21.768 82.0729 20.944 81.5129 19.904C80.9529 18.864 80.6729 17.712 80.6729 16.448C80.6729 15.136 80.9529 13.976 81.5129 12.968C82.0889 11.944 82.8649 11.136 83.8409 10.544C84.8329 9.95201 85.9369 9.65601 87.1529 9.65601C88.1769 9.65601 89.0729 9.82401 89.8409 10.16C90.6249 10.496 91.2889 10.96 91.8329 11.552C92.3769 12.144 92.7929 12.824 93.0809 13.592C93.3689 14.344 93.5129 15.16 93.5129 16.04C93.5129 16.264 93.4969 16.496 93.4649 16.736C93.4489 16.976 93.4089 17.184 93.3449 17.36H83.2649V14.96H91.5689L90.0809 16.088C90.2249 15.352 90.1849 14.696 89.9609 14.12C89.7529 13.544 89.4009 13.088 88.9049 12.752C88.4249 12.416 87.8409 12.248 87.1529 12.248C86.4969 12.248 85.9129 12.416 85.4009 12.752C84.8889 13.072 84.4969 13.552 84.2249 14.192C83.9689 14.816 83.8729 15.576 83.9369 16.472C83.8729 17.272 83.9769 17.984 84.2489 18.608C84.5369 19.216 84.9529 19.688 85.4969 20.024C86.0569 20.36 86.6969 20.528 87.4169 20.528C88.1369 20.528 88.7449 20.376 89.2409 20.072C89.7529 19.768 90.1529 19.36 90.4409 18.848L92.9849 20.096C92.7289 20.72 92.3289 21.272 91.7849 21.752C91.2409 22.232 90.5929 22.608 89.8409 22.88C89.1049 23.152 88.2889 23.288 87.3929 23.288Z" fill="white"/>
<path d="M64.5959 27.8V9.94401H67.5479V12.536L67.2599 11.888C67.7079 11.184 68.3159 10.64 69.0839 10.256C69.8519 9.85601 70.7399 9.65601 71.7479 9.65601C72.9799 9.65601 74.0919 9.96001 75.0839 10.568C76.0759 11.176 76.8599 11.992 77.4359 13.016C78.0279 14.04 78.3239 15.192 78.3239 16.472C78.3239 17.736 78.0359 18.888 77.4599 19.928C76.8839 20.968 76.0999 21.792 75.1079 22.4C74.1159 22.992 72.9879 23.288 71.7239 23.288C70.7799 23.288 69.9079 23.104 69.1079 22.736C68.3239 22.352 67.6999 21.808 67.2359 21.104L67.7399 20.48V27.8H64.5959ZM71.3639 20.408C72.0839 20.408 72.7239 20.24 73.2839 19.904C73.8439 19.568 74.2759 19.104 74.5799 18.512C74.8999 17.92 75.0599 17.24 75.0599 16.472C75.0599 15.704 74.8999 15.032 74.5799 14.456C74.2759 13.864 73.8439 13.4 73.2839 13.064C72.7239 12.712 72.0839 12.536 71.3639 12.536C70.6759 12.536 70.0519 12.704 69.4919 13.04C68.9479 13.376 68.5159 13.848 68.1959 14.456C67.8919 15.048 67.7399 15.72 67.7399 16.472C67.7399 17.24 67.8919 17.92 68.1959 18.512C68.5159 19.104 68.9479 19.568 69.4919 19.904C70.0519 20.24 70.6759 20.408 71.3639 20.408Z" fill="white"/>
<path d="M58.069 23V9.944H61.213V23H58.069ZM58.069 8.48V5.12H61.213V8.48H58.069Z" fill="white"/>
<path d="M41.464 27.8V9.94401H44.416V12.536L44.128 11.888C44.576 11.184 45.184 10.64 45.952 10.256C46.72 9.85601 47.608 9.65601 48.616 9.65601C49.848 9.65601 50.96 9.96001 51.952 10.568C52.944 11.176 53.728 11.992 54.304 13.016C54.896 14.04 55.192 15.192 55.192 16.472C55.192 17.736 54.904 18.888 54.328 19.928C53.752 20.968 52.968 21.792 51.976 22.4C50.984 22.992 49.856 23.288 48.592 23.288C47.648 23.288 46.776 23.104 45.976 22.736C45.192 22.352 44.568 21.808 44.104 21.104L44.608 20.48V27.8H41.464ZM48.232 20.408C48.952 20.408 49.592 20.24 50.152 19.904C50.712 19.568 51.144 19.104 51.448 18.512C51.768 17.92 51.928 17.24 51.928 16.472C51.928 15.704 51.768 15.032 51.448 14.456C51.144 13.864 50.712 13.4 50.152 13.064C49.592 12.712 48.952 12.536 48.232 12.536C47.544 12.536 46.92 12.704 46.36 13.04C45.816 13.376 45.384 13.848 45.064 14.456C44.76 15.048 44.608 15.72 44.608 16.472C44.608 17.24 44.76 17.92 45.064 18.512C45.384 19.104 45.816 19.568 46.36 19.904C46.92 20.24 47.544 20.408 48.232 20.408Z" fill="white"/>
<defs>
<clipPath id="clip0_347_264">
<rect width="31" height="30" fill="white" transform="translate(2 1)"/>
</clipPath>
</defs>
</svg>
