<svg width="52" height="53" viewBox="0 0 52 53" fill="none" xmlns="http://www.w3.org/2000/svg">
<mask id="path-1-outside-1_170_3" maskUnits="userSpaceOnUse" x="0" y="0" width="52" height="53" fill="black">
<rect fill="white" width="52" height="53"/>
<path fill-rule="evenodd" clip-rule="evenodd" d="M8.70536 48.2007L8.68082 48.1841C6.2774 46.5509 4.37578 44.4207 3.00228 41.8358L2.98016 41.7941L2.95919 41.7519C1.65233 39.1208 1 36.3014 1 33.3384C1 32.0298 1.11184 30.7785 1.38139 29.6253C2.63996 24.2408 4.79977 19.325 7.86672 14.9069C11.0067 10.3835 15.1168 6.80298 20.1354 4.16951L20.142 4.16607C21.6416 3.38329 23.3389 2.68316 25.2131 2.05426C27.2305 1.37735 29.2215 1 31.1618 1C33.798 1 36.3278 1.57592 38.716 2.71524C41.0752 3.81794 43.1753 5.32561 45.0041 7.21959C46.8343 9.06641 48.2774 11.1844 49.3174 13.5585C50.431 15.9888 51 18.5427 51 21.1898C51 22.0368 50.9399 22.882 50.8203 23.7241L50.8178 23.7423L50.815 23.7606C50.699 24.5192 50.5305 25.2863 50.3146 26.0602C49.9494 27.6694 49.3573 29.224 48.557 30.7201C47.7987 32.1378 46.9467 33.4468 45.9952 34.6373C43.97 37.363 41.5204 39.8696 38.6705 42.1647L38.6556 42.1767L38.6406 42.1885C35.7602 44.4554 32.6437 46.3532 29.2967 47.8799L29.2855 47.885L29.2743 47.89C25.8939 49.4024 22.4054 50.3318 18.8203 50.6599L15.104 51V50.5344C12.8072 50.2413 10.6645 49.4826 8.73018 48.217L8.70536 48.2007ZM10.515 17.0824C7.78055 21.0777 5.84175 25.5205 4.69865 30.411C4.67746 30.5017 4.65741 30.5942 4.63853 30.6884C4.63737 30.6942 4.63621 30.7 4.63506 30.7058C4.53781 31.1958 4.47178 31.7329 4.43697 32.3171C4.41756 32.6429 4.40785 32.9833 4.40785 33.3384C4.40785 33.5345 4.4113 33.7297 4.41819 33.9239C4.49701 36.1456 5.02671 38.2436 6.00727 40.2177C6.59115 41.3166 7.28806 42.3084 8.098 43.1931C8.10429 43.2 8.11059 43.2069 8.1169 43.2137C8.84857 44.0097 9.67208 44.7187 10.5874 45.3407C12.1459 46.3604 13.908 46.9703 15.8736 47.1703C16.3301 47.2167 16.7975 47.2411 17.2759 47.2433C17.3001 47.2434 17.3243 47.2435 17.3486 47.2435H17.9302C18.1219 47.2435 18.3136 47.2196 18.5053 47.1719C18.5075 47.1714 18.5097 47.1708 18.5118 47.1703V47.2435C18.5177 47.2429 18.5237 47.2424 18.5296 47.2418C18.7586 47.2207 18.9872 47.1969 19.2154 47.1703C20.1227 47.0645 21.0241 46.9153 21.9197 46.7227C22.9726 46.4961 24.0174 46.2095 25.0541 45.8628C25.0672 45.8584 25.0804 45.854 25.0935 45.8495C26.0324 45.5341 26.9647 45.1693 27.8902 44.7552C29.6541 43.9506 31.3474 43.0356 32.9702 42.0102C32.9803 42.0038 32.9904 41.9974 33.0005 41.991C34.2208 41.2185 35.4012 40.3835 36.5416 39.4859C37.8338 38.4453 39.0291 37.3646 40.1276 36.2438C40.135 36.2362 40.1424 36.2287 40.1497 36.2212C41.3088 35.0367 42.3598 33.8074 43.3028 32.5334C44.1126 31.5264 44.8521 30.4016 45.5215 29.159C45.5292 29.1446 45.537 29.1301 45.5448 29.1157C45.5487 29.1084 45.5526 29.101 45.5565 29.0937C46.2351 27.8252 46.7197 26.5322 47.0105 25.2149C47.2044 24.5319 47.3498 23.8732 47.4467 23.2389C47.5437 22.5559 47.5921 21.8728 47.5921 21.1898C47.5921 21.0676 47.5907 20.9456 47.5877 20.8239C47.5382 18.8072 47.0793 16.8556 46.2108 14.9691C45.8849 14.2216 45.5115 13.5049 45.0908 12.8187C45.0832 12.8063 45.0755 12.7939 45.0679 12.7815C44.3674 11.6456 43.5367 10.594 42.5758 9.62663C41.5796 8.59244 40.4934 7.69916 39.3172 6.9468C39.2988 6.93506 39.2805 6.92335 39.2621 6.91168C38.6239 6.50685 37.9595 6.1433 37.2686 5.82103C35.4182 4.93625 33.4796 4.47371 31.4526 4.43341C31.3558 4.43149 31.2589 4.43052 31.1618 4.43052C29.6593 4.43052 28.0356 4.72326 26.2908 5.30874C26.2615 5.31856 26.2323 5.3284 26.2032 5.33824C26.1892 5.34298 26.1752 5.34772 26.1612 5.35245C24.5211 5.90852 23.0761 6.50824 21.8263 7.1516C21.8129 7.1585 21.7995 7.16541 21.7861 7.17232C21.7609 7.18538 21.7357 7.19845 21.7107 7.21154C17.1547 9.60223 13.4712 12.8223 10.6601 16.8719C10.6145 16.9376 10.569 17.0035 10.5238 17.0695C10.5209 17.0738 10.518 17.0781 10.515 17.0824ZM12.6957 18.5551C10.1748 22.2899 8.37742 26.4475 7.30354 31.028C7.28316 31.1149 7.26304 31.202 7.24318 31.2892C7.14625 31.7283 7.07355 32.1675 7.02508 32.6066C6.99815 32.8505 6.97871 33.0945 6.96674 33.3384C6.95717 33.5336 6.95238 33.7287 6.95238 33.9239C6.95238 35.8585 7.30588 37.5965 8.01288 39.1378C8.02162 39.1569 8.03043 39.176 8.03929 39.195C8.46991 40.1194 9.02848 40.9726 9.71501 41.7546C10.337 42.445 11.0272 43.0217 11.7857 43.4849C11.7966 43.4916 11.8075 43.4982 11.8184 43.5048C13.3579 44.436 15.1771 44.9016 17.2759 44.9016C17.3001 44.9016 17.3243 44.9015 17.3486 44.9014C17.5413 44.9005 17.7352 44.8963 17.9302 44.8886C17.9351 44.8884 17.9401 44.8882 17.945 44.888C18.0621 44.8832 18.1796 44.8773 18.2975 44.8701C19.4649 44.7989 20.6723 44.607 21.9197 44.2942C22.6832 44.1028 23.4617 43.8662 24.2552 43.5842C25.1289 43.2566 25.9995 42.8893 26.8672 42.4824C26.8726 42.4799 26.878 42.4773 26.8834 42.4748C28.465 41.7321 30.0365 40.8578 31.598 39.8518C32.7463 39.0889 33.8456 38.2767 34.896 37.4152C34.9036 37.4089 34.9112 37.4027 34.9188 37.3964C36.0767 36.4453 37.175 35.4341 38.2137 34.363C39.2904 33.2263 40.2462 32.0609 41.081 30.8669C41.1024 30.8363 41.1237 30.8056 41.145 30.7749C41.8244 29.7947 42.4225 28.7952 42.9393 27.7764C42.9532 27.7501 42.967 27.7238 42.9807 27.6975C43.5187 26.6674 43.9344 25.6324 44.2279 24.5925C44.2434 24.5375 44.2586 24.4826 44.2734 24.4277C44.4167 23.8966 44.5281 23.3643 44.6076 22.8307C44.6092 22.8204 44.6107 22.8102 44.6122 22.8C44.6908 22.2645 44.7374 21.7278 44.7519 21.1898C44.7552 21.0679 44.7568 20.9459 44.7568 20.8239C44.7568 19.1935 44.4515 17.6105 43.8407 16.0747C43.8342 16.0582 43.8276 16.0418 43.821 16.0253C43.5582 15.3719 43.2401 14.7271 42.8666 14.0909C42.2959 13.0797 41.6338 12.1606 40.8802 11.3335C40.8719 11.3243 40.8636 11.3152 40.8553 11.3061C40.0151 10.3886 39.0619 9.58478 37.9956 8.89478C37.4463 8.51711 36.8821 8.19165 36.3031 7.91839C36.2965 7.91528 36.2899 7.91218 36.2834 7.90909C34.7737 7.20011 33.1634 6.84562 31.4526 6.84562C31.3562 6.84562 31.2593 6.84709 31.1618 6.85004C29.9036 6.88809 28.5439 7.17147 27.0827 7.70021C27.0611 7.70803 27.0395 7.7159 27.0178 7.72383C25.4669 8.26052 24.1098 8.8216 22.9466 9.40707C22.9206 9.42072 22.8947 9.43441 22.8688 9.44812L22.864 9.45067C18.7003 11.6575 15.3491 14.6354 12.8104 18.3845C12.772 18.4412 12.7338 18.4981 12.6957 18.5551ZM10.5676 32.0438C10.498 32.3609 10.4464 32.6746 10.4121 32.9854C10.3774 33.2995 10.3602 33.6121 10.3602 33.9239C10.3602 36.3037 11.0364 38.0713 12.2539 39.4661C13.4154 40.747 14.9689 41.471 17.2759 41.471C18.9942 41.471 20.9256 41.1264 23.0932 40.3591C25.3031 39.5279 27.519 38.405 29.7408 36.9754C31.9516 35.5045 33.9566 33.8398 35.7612 31.981C37.5424 30.098 38.9109 28.1745 39.9042 26.2163L39.9172 26.1907L39.9306 26.1654C40.9093 24.3132 41.349 22.5447 41.349 20.8239C41.349 19.1359 40.9034 17.4898 39.9327 15.8361L39.9179 15.811L39.9036 15.7856C38.9603 14.1144 37.7184 12.7936 36.1528 11.7805L36.1129 11.7546L36.0737 11.7277C34.6449 10.7454 33.1321 10.2761 31.4526 10.2761C30.5791 10.2761 29.4995 10.4657 28.1824 10.9478L28.1541 10.9582L28.1256 10.968C26.6953 11.463 25.4916 11.9634 24.4978 12.4618C20.727 14.4513 17.758 17.1168 15.5257 20.4664L15.5201 20.4748L15.5145 20.4832C13.1962 23.9176 11.5439 27.7613 10.5676 32.0438Z"/>
</mask>
<path fill-rule="evenodd" clip-rule="evenodd" d="M8.70536 48.2007L8.68082 48.1841C6.2774 46.5509 4.37578 44.4207 3.00228 41.8358L2.98016 41.7941L2.95919 41.7519C1.65233 39.1208 1 36.3014 1 33.3384C1 32.0298 1.11184 30.7785 1.38139 29.6253C2.63996 24.2408 4.79977 19.325 7.86672 14.9069C11.0067 10.3835 15.1168 6.80298 20.1354 4.16951L20.142 4.16607C21.6416 3.38329 23.3389 2.68316 25.2131 2.05426C27.2305 1.37735 29.2215 1 31.1618 1C33.798 1 36.3278 1.57592 38.716 2.71524C41.0752 3.81794 43.1753 5.32561 45.0041 7.21959C46.8343 9.06641 48.2774 11.1844 49.3174 13.5585C50.431 15.9888 51 18.5427 51 21.1898C51 22.0368 50.9399 22.882 50.8203 23.7241L50.8178 23.7423L50.815 23.7606C50.699 24.5192 50.5305 25.2863 50.3146 26.0602C49.9494 27.6694 49.3573 29.224 48.557 30.7201C47.7987 32.1378 46.9467 33.4468 45.9952 34.6373C43.97 37.363 41.5204 39.8696 38.6705 42.1647L38.6556 42.1767L38.6406 42.1885C35.7602 44.4554 32.6437 46.3532 29.2967 47.8799L29.2855 47.885L29.2743 47.89C25.8939 49.4024 22.4054 50.3318 18.8203 50.6599L15.104 51V50.5344C12.8072 50.2413 10.6645 49.4826 8.73018 48.217L8.70536 48.2007ZM10.515 17.0824C7.78055 21.0777 5.84175 25.5205 4.69865 30.411C4.67746 30.5017 4.65741 30.5942 4.63853 30.6884C4.63737 30.6942 4.63621 30.7 4.63506 30.7058C4.53781 31.1958 4.47178 31.7329 4.43697 32.3171C4.41756 32.6429 4.40785 32.9833 4.40785 33.3384C4.40785 33.5345 4.4113 33.7297 4.41819 33.9239C4.49701 36.1456 5.02671 38.2436 6.00727 40.2177C6.59115 41.3166 7.28806 42.3084 8.098 43.1931C8.10429 43.2 8.11059 43.2069 8.1169 43.2137C8.84857 44.0097 9.67208 44.7187 10.5874 45.3407C12.1459 46.3604 13.908 46.9703 15.8736 47.1703C16.3301 47.2167 16.7975 47.2411 17.2759 47.2433C17.3001 47.2434 17.3243 47.2435 17.3486 47.2435H17.9302C18.1219 47.2435 18.3136 47.2196 18.5053 47.1719C18.5075 47.1714 18.5097 47.1708 18.5118 47.1703V47.2435C18.5177 47.2429 18.5237 47.2424 18.5296 47.2418C18.7586 47.2207 18.9872 47.1969 19.2154 47.1703C20.1227 47.0645 21.0241 46.9153 21.9197 46.7227C22.9726 46.4961 24.0174 46.2095 25.0541 45.8628C25.0672 45.8584 25.0804 45.854 25.0935 45.8495C26.0324 45.5341 26.9647 45.1693 27.8902 44.7552C29.6541 43.9506 31.3474 43.0356 32.9702 42.0102C32.9803 42.0038 32.9904 41.9974 33.0005 41.991C34.2208 41.2185 35.4012 40.3835 36.5416 39.4859C37.8338 38.4453 39.0291 37.3646 40.1276 36.2438C40.135 36.2362 40.1424 36.2287 40.1497 36.2212C41.3088 35.0367 42.3598 33.8074 43.3028 32.5334C44.1126 31.5264 44.8521 30.4016 45.5215 29.159C45.5292 29.1446 45.537 29.1301 45.5448 29.1157C45.5487 29.1084 45.5526 29.101 45.5565 29.0937C46.2351 27.8252 46.7197 26.5322 47.0105 25.2149C47.2044 24.5319 47.3498 23.8732 47.4467 23.2389C47.5437 22.5559 47.5921 21.8728 47.5921 21.1898C47.5921 21.0676 47.5907 20.9456 47.5877 20.8239C47.5382 18.8072 47.0793 16.8556 46.2108 14.9691C45.8849 14.2216 45.5115 13.5049 45.0908 12.8187C45.0832 12.8063 45.0755 12.7939 45.0679 12.7815C44.3674 11.6456 43.5367 10.594 42.5758 9.62663C41.5796 8.59244 40.4934 7.69916 39.3172 6.9468C39.2988 6.93506 39.2805 6.92335 39.2621 6.91168C38.6239 6.50685 37.9595 6.1433 37.2686 5.82103C35.4182 4.93625 33.4796 4.47371 31.4526 4.43341C31.3558 4.43149 31.2589 4.43052 31.1618 4.43052C29.6593 4.43052 28.0356 4.72326 26.2908 5.30874C26.2615 5.31856 26.2323 5.3284 26.2032 5.33824C26.1892 5.34298 26.1752 5.34772 26.1612 5.35245C24.5211 5.90852 23.0761 6.50824 21.8263 7.1516C21.8129 7.1585 21.7995 7.16541 21.7861 7.17232C21.7609 7.18538 21.7357 7.19845 21.7107 7.21154C17.1547 9.60223 13.4712 12.8223 10.6601 16.8719C10.6145 16.9376 10.569 17.0035 10.5238 17.0695C10.5209 17.0738 10.518 17.0781 10.515 17.0824ZM12.6957 18.5551C10.1748 22.2899 8.37742 26.4475 7.30354 31.028C7.28316 31.1149 7.26304 31.202 7.24318 31.2892C7.14625 31.7283 7.07355 32.1675 7.02508 32.6066C6.99815 32.8505 6.97871 33.0945 6.96674 33.3384C6.95717 33.5336 6.95238 33.7287 6.95238 33.9239C6.95238 35.8585 7.30588 37.5965 8.01288 39.1378C8.02162 39.1569 8.03043 39.176 8.03929 39.195C8.46991 40.1194 9.02848 40.9726 9.71501 41.7546C10.337 42.445 11.0272 43.0217 11.7857 43.4849C11.7966 43.4916 11.8075 43.4982 11.8184 43.5048C13.3579 44.436 15.1771 44.9016 17.2759 44.9016C17.3001 44.9016 17.3243 44.9015 17.3486 44.9014C17.5413 44.9005 17.7352 44.8963 17.9302 44.8886C17.9351 44.8884 17.9401 44.8882 17.945 44.888C18.0621 44.8832 18.1796 44.8773 18.2975 44.8701C19.4649 44.7989 20.6723 44.607 21.9197 44.2942C22.6832 44.1028 23.4617 43.8662 24.2552 43.5842C25.1289 43.2566 25.9995 42.8893 26.8672 42.4824C26.8726 42.4799 26.878 42.4773 26.8834 42.4748C28.465 41.7321 30.0365 40.8578 31.598 39.8518C32.7463 39.0889 33.8456 38.2767 34.896 37.4152C34.9036 37.4089 34.9112 37.4027 34.9188 37.3964C36.0767 36.4453 37.175 35.4341 38.2137 34.363C39.2904 33.2263 40.2462 32.0609 41.081 30.8669C41.1024 30.8363 41.1237 30.8056 41.145 30.7749C41.8244 29.7947 42.4225 28.7952 42.9393 27.7764C42.9532 27.7501 42.967 27.7238 42.9807 27.6975C43.5187 26.6674 43.9344 25.6324 44.2279 24.5925C44.2434 24.5375 44.2586 24.4826 44.2734 24.4277C44.4167 23.8966 44.5281 23.3643 44.6076 22.8307C44.6092 22.8204 44.6107 22.8102 44.6122 22.8C44.6908 22.2645 44.7374 21.7278 44.7519 21.1898C44.7552 21.0679 44.7568 20.9459 44.7568 20.8239C44.7568 19.1935 44.4515 17.6105 43.8407 16.0747C43.8342 16.0582 43.8276 16.0418 43.821 16.0253C43.5582 15.3719 43.2401 14.7271 42.8666 14.0909C42.2959 13.0797 41.6338 12.1606 40.8802 11.3335C40.8719 11.3243 40.8636 11.3152 40.8553 11.3061C40.0151 10.3886 39.0619 9.58478 37.9956 8.89478C37.4463 8.51711 36.8821 8.19165 36.3031 7.91839C36.2965 7.91528 36.2899 7.91218 36.2834 7.90909C34.7737 7.20011 33.1634 6.84562 31.4526 6.84562C31.3562 6.84562 31.2593 6.84709 31.1618 6.85004C29.9036 6.88809 28.5439 7.17147 27.0827 7.70021C27.0611 7.70803 27.0395 7.7159 27.0178 7.72383C25.4669 8.26052 24.1098 8.8216 22.9466 9.40707C22.9206 9.42072 22.8947 9.43441 22.8688 9.44812L22.864 9.45067C18.7003 11.6575 15.3491 14.6354 12.8104 18.3845C12.772 18.4412 12.7338 18.4981 12.6957 18.5551ZM10.5676 32.0438C10.498 32.3609 10.4464 32.6746 10.4121 32.9854C10.3774 33.2995 10.3602 33.6121 10.3602 33.9239C10.3602 36.3037 11.0364 38.0713 12.2539 39.4661C13.4154 40.747 14.9689 41.471 17.2759 41.471C18.9942 41.471 20.9256 41.1264 23.0932 40.3591C25.3031 39.5279 27.519 38.405 29.7408 36.9754C31.9516 35.5045 33.9566 33.8398 35.7612 31.981C37.5424 30.098 38.9109 28.1745 39.9042 26.2163L39.9172 26.1907L39.9306 26.1654C40.9093 24.3132 41.349 22.5447 41.349 20.8239C41.349 19.1359 40.9034 17.4898 39.9327 15.8361L39.9179 15.811L39.9036 15.7856C38.9603 14.1144 37.7184 12.7936 36.1528 11.7805L36.1129 11.7546L36.0737 11.7277C34.6449 10.7454 33.1321 10.2761 31.4526 10.2761C30.5791 10.2761 29.4995 10.4657 28.1824 10.9478L28.1541 10.9582L28.1256 10.968C26.6953 11.463 25.4916 11.9634 24.4978 12.4618C20.727 14.4513 17.758 17.1168 15.5257 20.4664L15.5201 20.4748L15.5145 20.4832C13.1962 23.9176 11.5439 27.7613 10.5676 32.0438Z" fill="#1F2016"/>
<path fill-rule="evenodd" clip-rule="evenodd" d="M8.70536 48.2007L8.68082 48.1841C6.2774 46.5509 4.37578 44.4207 3.00228 41.8358L2.98016 41.7941L2.95919 41.7519C1.65233 39.1208 1 36.3014 1 33.3384C1 32.0298 1.11184 30.7785 1.38139 29.6253C2.63996 24.2408 4.79977 19.325 7.86672 14.9069C11.0067 10.3835 15.1168 6.80298 20.1354 4.16951L20.142 4.16607C21.6416 3.38329 23.3389 2.68316 25.2131 2.05426C27.2305 1.37735 29.2215 1 31.1618 1C33.798 1 36.3278 1.57592 38.716 2.71524C41.0752 3.81794 43.1753 5.32561 45.0041 7.21959C46.8343 9.06641 48.2774 11.1844 49.3174 13.5585C50.431 15.9888 51 18.5427 51 21.1898C51 22.0368 50.9399 22.882 50.8203 23.7241L50.8178 23.7423L50.815 23.7606C50.699 24.5192 50.5305 25.2863 50.3146 26.0602C49.9494 27.6694 49.3573 29.224 48.557 30.7201C47.7987 32.1378 46.9467 33.4468 45.9952 34.6373C43.97 37.363 41.5204 39.8696 38.6705 42.1647L38.6556 42.1767L38.6406 42.1885C35.7602 44.4554 32.6437 46.3532 29.2967 47.8799L29.2855 47.885L29.2743 47.89C25.8939 49.4024 22.4054 50.3318 18.8203 50.6599L15.104 51V50.5344C12.8072 50.2413 10.6645 49.4826 8.73018 48.217L8.70536 48.2007ZM10.515 17.0824C7.78055 21.0777 5.84175 25.5205 4.69865 30.411C4.67746 30.5017 4.65741 30.5942 4.63853 30.6884C4.63737 30.6942 4.63621 30.7 4.63506 30.7058C4.53781 31.1958 4.47178 31.7329 4.43697 32.3171C4.41756 32.6429 4.40785 32.9833 4.40785 33.3384C4.40785 33.5345 4.4113 33.7297 4.41819 33.9239C4.49701 36.1456 5.02671 38.2436 6.00727 40.2177C6.59115 41.3166 7.28806 42.3084 8.098 43.1931C8.10429 43.2 8.11059 43.2069 8.1169 43.2137C8.84857 44.0097 9.67208 44.7187 10.5874 45.3407C12.1459 46.3604 13.908 46.9703 15.8736 47.1703C16.3301 47.2167 16.7975 47.2411 17.2759 47.2433C17.3001 47.2434 17.3243 47.2435 17.3486 47.2435H17.9302C18.1219 47.2435 18.3136 47.2196 18.5053 47.1719C18.5075 47.1714 18.5097 47.1708 18.5118 47.1703V47.2435C18.5177 47.2429 18.5237 47.2424 18.5296 47.2418C18.7586 47.2207 18.9872 47.1969 19.2154 47.1703C20.1227 47.0645 21.0241 46.9153 21.9197 46.7227C22.9726 46.4961 24.0174 46.2095 25.0541 45.8628C25.0672 45.8584 25.0804 45.854 25.0935 45.8495C26.0324 45.5341 26.9647 45.1693 27.8902 44.7552C29.6541 43.9506 31.3474 43.0356 32.9702 42.0102C32.9803 42.0038 32.9904 41.9974 33.0005 41.991C34.2208 41.2185 35.4012 40.3835 36.5416 39.4859C37.8338 38.4453 39.0291 37.3646 40.1276 36.2438C40.135 36.2362 40.1424 36.2287 40.1497 36.2212C41.3088 35.0367 42.3598 33.8074 43.3028 32.5334C44.1126 31.5264 44.8521 30.4016 45.5215 29.159C45.5292 29.1446 45.537 29.1301 45.5448 29.1157C45.5487 29.1084 45.5526 29.101 45.5565 29.0937C46.2351 27.8252 46.7197 26.5322 47.0105 25.2149C47.2044 24.5319 47.3498 23.8732 47.4467 23.2389C47.5437 22.5559 47.5921 21.8728 47.5921 21.1898C47.5921 21.0676 47.5907 20.9456 47.5877 20.8239C47.5382 18.8072 47.0793 16.8556 46.2108 14.9691C45.8849 14.2216 45.5115 13.5049 45.0908 12.8187C45.0832 12.8063 45.0755 12.7939 45.0679 12.7815C44.3674 11.6456 43.5367 10.594 42.5758 9.62663C41.5796 8.59244 40.4934 7.69916 39.3172 6.9468C39.2988 6.93506 39.2805 6.92335 39.2621 6.91168C38.6239 6.50685 37.9595 6.1433 37.2686 5.82103C35.4182 4.93625 33.4796 4.47371 31.4526 4.43341C31.3558 4.43149 31.2589 4.43052 31.1618 4.43052C29.6593 4.43052 28.0356 4.72326 26.2908 5.30874C26.2615 5.31856 26.2323 5.3284 26.2032 5.33824C26.1892 5.34298 26.1752 5.34772 26.1612 5.35245C24.5211 5.90852 23.0761 6.50824 21.8263 7.1516C21.8129 7.1585 21.7995 7.16541 21.7861 7.17232C21.7609 7.18538 21.7357 7.19845 21.7107 7.21154C17.1547 9.60223 13.4712 12.8223 10.6601 16.8719C10.6145 16.9376 10.569 17.0035 10.5238 17.0695C10.5209 17.0738 10.518 17.0781 10.515 17.0824ZM12.6957 18.5551C10.1748 22.2899 8.37742 26.4475 7.30354 31.028C7.28316 31.1149 7.26304 31.202 7.24318 31.2892C7.14625 31.7283 7.07355 32.1675 7.02508 32.6066C6.99815 32.8505 6.97871 33.0945 6.96674 33.3384C6.95717 33.5336 6.95238 33.7287 6.95238 33.9239C6.95238 35.8585 7.30588 37.5965 8.01288 39.1378C8.02162 39.1569 8.03043 39.176 8.03929 39.195C8.46991 40.1194 9.02848 40.9726 9.71501 41.7546C10.337 42.445 11.0272 43.0217 11.7857 43.4849C11.7966 43.4916 11.8075 43.4982 11.8184 43.5048C13.3579 44.436 15.1771 44.9016 17.2759 44.9016C17.3001 44.9016 17.3243 44.9015 17.3486 44.9014C17.5413 44.9005 17.7352 44.8963 17.9302 44.8886C17.9351 44.8884 17.9401 44.8882 17.945 44.888C18.0621 44.8832 18.1796 44.8773 18.2975 44.8701C19.4649 44.7989 20.6723 44.607 21.9197 44.2942C22.6832 44.1028 23.4617 43.8662 24.2552 43.5842C25.1289 43.2566 25.9995 42.8893 26.8672 42.4824C26.8726 42.4799 26.878 42.4773 26.8834 42.4748C28.465 41.7321 30.0365 40.8578 31.598 39.8518C32.7463 39.0889 33.8456 38.2767 34.896 37.4152C34.9036 37.4089 34.9112 37.4027 34.9188 37.3964C36.0767 36.4453 37.175 35.4341 38.2137 34.363C39.2904 33.2263 40.2462 32.0609 41.081 30.8669C41.1024 30.8363 41.1237 30.8056 41.145 30.7749C41.8244 29.7947 42.4225 28.7952 42.9393 27.7764C42.9532 27.7501 42.967 27.7238 42.9807 27.6975C43.5187 26.6674 43.9344 25.6324 44.2279 24.5925C44.2434 24.5375 44.2586 24.4826 44.2734 24.4277C44.4167 23.8966 44.5281 23.3643 44.6076 22.8307C44.6092 22.8204 44.6107 22.8102 44.6122 22.8C44.6908 22.2645 44.7374 21.7278 44.7519 21.1898C44.7552 21.0679 44.7568 20.9459 44.7568 20.8239C44.7568 19.1935 44.4515 17.6105 43.8407 16.0747C43.8342 16.0582 43.8276 16.0418 43.821 16.0253C43.5582 15.3719 43.2401 14.7271 42.8666 14.0909C42.2959 13.0797 41.6338 12.1606 40.8802 11.3335C40.8719 11.3243 40.8636 11.3152 40.8553 11.3061C40.0151 10.3886 39.0619 9.58478 37.9956 8.89478C37.4463 8.51711 36.8821 8.19165 36.3031 7.91839C36.2965 7.91528 36.2899 7.91218 36.2834 7.90909C34.7737 7.20011 33.1634 6.84562 31.4526 6.84562C31.3562 6.84562 31.2593 6.84709 31.1618 6.85004C29.9036 6.88809 28.5439 7.17147 27.0827 7.70021C27.0611 7.70803 27.0395 7.7159 27.0178 7.72383C25.4669 8.26052 24.1098 8.8216 22.9466 9.40707C22.9206 9.42072 22.8947 9.43441 22.8688 9.44812L22.864 9.45067C18.7003 11.6575 15.3491 14.6354 12.8104 18.3845C12.772 18.4412 12.7338 18.4981 12.6957 18.5551ZM10.5676 32.0438C10.498 32.3609 10.4464 32.6746 10.4121 32.9854C10.3774 33.2995 10.3602 33.6121 10.3602 33.9239C10.3602 36.3037 11.0364 38.0713 12.2539 39.4661C13.4154 40.747 14.9689 41.471 17.2759 41.471C18.9942 41.471 20.9256 41.1264 23.0932 40.3591C25.3031 39.5279 27.519 38.405 29.7408 36.9754C31.9516 35.5045 33.9566 33.8398 35.7612 31.981C37.5424 30.098 38.9109 28.1745 39.9042 26.2163L39.9172 26.1907L39.9306 26.1654C40.9093 24.3132 41.349 22.5447 41.349 20.8239C41.349 19.1359 40.9034 17.4898 39.9327 15.8361L39.9179 15.811L39.9036 15.7856C38.9603 14.1144 37.7184 12.7936 36.1528 11.7805L36.1129 11.7546L36.0737 11.7277C34.6449 10.7454 33.1321 10.2761 31.4526 10.2761C30.5791 10.2761 29.4995 10.4657 28.1824 10.9478L28.1541 10.9582L28.1256 10.968C26.6953 11.463 25.4916 11.9634 24.4978 12.4618C20.727 14.4513 17.758 17.1168 15.5257 20.4664L15.5201 20.4748L15.5145 20.4832C13.1962 23.9176 11.5439 27.7613 10.5676 32.0438Z" stroke="black" stroke-width="2" mask="url(#path-1-outside-1_170_3)"/>
</svg>
