<svg width="50" height="50" viewBox="0 0 50 50" fill="none" xmlns="http://www.w3.org/2000/svg">
<path fill-rule="evenodd" clip-rule="evenodd" d="M7.70536 47.2007L7.68082 47.1841C5.2774 45.5509 3.37578 43.4207 2.00228 40.8358L1.98016 40.7941L1.95919 40.7519C0.652325 38.1208 0 35.3014 0 32.3384C0 31.0298 0.111838 29.7785 0.381394 28.6253C1.63996 23.2408 3.79977 18.325 6.86672 13.9069C10.0067 9.38351 14.1168 5.80298 19.1354 3.16951L19.142 3.16607C20.6416 2.38329 22.3389 1.68316 24.2131 1.05426C26.2305 0.377347 28.2215 0 30.1618 0C32.798 0 35.3278 0.57592 37.716 1.71524C40.0752 2.81794 42.1753 4.32561 44.0041 6.21959C45.8343 8.06641 47.2774 10.1844 48.3174 12.5585C49.431 14.9888 50 17.5427 50 20.1898C50 21.0368 49.9399 21.882 49.8203 22.7241L49.8178 22.7423L49.815 22.7606C49.699 23.5192 49.5305 24.2863 49.3146 25.0602C48.9494 26.6694 48.3573 28.224 47.557 29.7201C46.7987 31.1378 45.9467 32.4468 44.9952 33.6373C42.97 36.363 40.5204 38.8696 37.6705 41.1647L37.6556 41.1767L37.6406 41.1885C34.7602 43.4554 31.6437 45.3532 28.2967 46.8799L28.2855 46.885L28.2743 46.89C24.8939 48.4024 21.4054 49.3318 17.8203 49.6599L14.104 50V49.5344C11.8072 49.2413 9.66451 48.4826 7.73018 47.217L7.70536 47.2007ZM9.51503 16.0824C6.78055 20.0777 4.84175 24.5205 3.69865 29.411C3.67746 29.5017 3.65741 29.5942 3.63853 29.6884C3.63737 29.6942 3.63621 29.7 3.63506 29.7058C3.53781 30.1958 3.47178 30.7329 3.43697 31.3171C3.41756 31.6429 3.40785 31.9833 3.40785 32.3384C3.40785 32.5345 3.4113 32.7297 3.41819 32.9239C3.49701 35.1456 4.02671 37.2436 5.00727 39.2177C5.59115 40.3166 6.28806 41.3084 7.098 42.1931C7.10429 42.2 7.11059 42.2069 7.1169 42.2137C7.84857 43.0097 8.67208 43.7187 9.58742 44.3407C11.1459 45.3604 12.908 45.9703 14.8736 46.1703C15.3301 46.2167 15.7975 46.2411 16.2759 46.2433C16.3001 46.2434 16.3243 46.2435 16.3486 46.2435H16.9302C17.1219 46.2435 17.3136 46.2196 17.5053 46.1719C17.5075 46.1714 17.5097 46.1708 17.5118 46.1703V46.2435C17.5177 46.2429 17.5237 46.2424 17.5296 46.2418C17.7586 46.2207 17.9872 46.1969 18.2154 46.1703C19.1227 46.0645 20.0241 45.9153 20.9197 45.7227C21.9726 45.4961 23.0174 45.2095 24.0541 44.8628C24.0672 44.8584 24.0804 44.854 24.0935 44.8495C25.0324 44.5341 25.9647 44.1693 26.8902 43.7552C28.6541 42.9506 30.3474 42.0356 31.9702 41.0102C31.9803 41.0038 31.9904 40.9974 32.0005 40.991C33.2208 40.2185 34.4012 39.3835 35.5416 38.4859C36.8338 37.4453 38.0291 36.3646 39.1276 35.2438C39.135 35.2362 39.1424 35.2287 39.1497 35.2212C40.3088 34.0367 41.3598 32.8074 42.3028 31.5334C43.1126 30.5264 43.8521 29.4016 44.5215 28.159C44.5292 28.1446 44.537 28.1301 44.5448 28.1157C44.5487 28.1084 44.5526 28.101 44.5565 28.0937C45.2351 26.8252 45.7197 25.5322 46.0105 24.2149C46.2044 23.5319 46.3498 22.8732 46.4467 22.2389C46.5437 21.5559 46.5921 20.8728 46.5921 20.1898C46.5921 20.0676 46.5907 19.9456 46.5877 19.8239C46.5382 17.8072 46.0793 15.8556 45.2108 13.9691C44.8849 13.2216 44.5115 12.5049 44.0908 11.8187C44.0832 11.8063 44.0755 11.7939 44.0679 11.7815C43.3674 10.6456 42.5367 9.59396 41.5758 8.62663C40.5796 7.59244 39.4934 6.69916 38.3172 5.9468C38.2988 5.93506 38.2805 5.92335 38.2621 5.91168C37.6239 5.50685 36.9595 5.1433 36.2686 4.82103C34.4182 3.93625 32.4796 3.47371 30.4526 3.43341C30.3558 3.43149 30.2589 3.43052 30.1618 3.43052C28.6593 3.43052 27.0356 3.72326 25.2908 4.30874C25.2615 4.31856 25.2323 4.3284 25.2032 4.33824C25.1892 4.34298 25.1752 4.34772 25.1612 4.35245C23.5211 4.90852 22.0761 5.50824 20.8263 6.1516C20.8129 6.1585 20.7995 6.16541 20.7861 6.17232C20.7609 6.18538 20.7357 6.19845 20.7107 6.21154C16.1547 8.60223 12.4712 11.8223 9.66012 15.8719C9.61448 15.9376 9.56905 16.0035 9.52383 16.0695C9.5209 16.0738 9.51796 16.0781 9.51503 16.0824ZM11.6957 17.5551C9.17482 21.2899 7.37742 25.4475 6.30354 30.028C6.28316 30.1149 6.26304 30.202 6.24318 30.2892C6.14625 30.7283 6.07355 31.1675 6.02508 31.6066C5.99815 31.8505 5.97871 32.0945 5.96674 32.3384C5.95717 32.5336 5.95238 32.7287 5.95238 32.9239C5.95238 34.8585 6.30588 36.5965 7.01288 38.1378C7.02162 38.1569 7.03043 38.176 7.03929 38.195C7.46991 39.1194 8.02848 39.9726 8.71501 40.7546C9.33701 41.445 10.0272 42.0217 10.7857 42.4849C10.7966 42.4916 10.8075 42.4982 10.8184 42.5048C12.3579 43.436 14.1771 43.9016 16.2759 43.9016C16.3001 43.9016 16.3243 43.9015 16.3486 43.9014C16.5413 43.9005 16.7352 43.8963 16.9302 43.8886C16.9351 43.8884 16.9401 43.8882 16.945 43.888C17.0621 43.8832 17.1796 43.8773 17.2975 43.8701C18.4649 43.7989 19.6723 43.607 20.9197 43.2942C21.6832 43.1028 22.4617 42.8662 23.2552 42.5842C24.1289 42.2566 24.9995 41.8893 25.8672 41.4824C25.8726 41.4799 25.878 41.4773 25.8834 41.4748C27.465 40.7321 29.0365 39.8578 30.598 38.8518C31.7463 38.0889 32.8456 37.2767 33.896 36.4152C33.9036 36.4089 33.9112 36.4027 33.9188 36.3964C35.0767 35.4453 36.175 34.4341 37.2137 33.363C38.2904 32.2263 39.2462 31.0609 40.081 29.8669C40.1024 29.8363 40.1237 29.8056 40.145 29.7749C40.8244 28.7947 41.4225 27.7952 41.9393 26.7764C41.9532 26.7501 41.967 26.7238 41.9807 26.6975C42.5187 25.6674 42.9344 24.6324 43.2279 23.5925C43.2434 23.5375 43.2586 23.4826 43.2734 23.4277C43.4167 22.8966 43.5281 22.3643 43.6076 21.8307C43.6092 21.8204 43.6107 21.8102 43.6122 21.8C43.6908 21.2645 43.7374 20.7278 43.7519 20.1898C43.7552 20.0679 43.7568 19.9459 43.7568 19.8239C43.7568 18.1935 43.4515 16.6105 42.8407 15.0747C42.8342 15.0582 42.8276 15.0418 42.821 15.0253C42.5582 14.3719 42.2401 13.7271 41.8666 13.0909C41.2959 12.0797 40.6338 11.1606 39.8802 10.3335C39.8719 10.3243 39.8636 10.3152 39.8553 10.3061C39.0151 9.38856 38.0619 8.58478 36.9956 7.89478C36.4463 7.51711 35.8821 7.19165 35.3031 6.91839C35.2965 6.91528 35.2899 6.91218 35.2834 6.90909C33.7737 6.20011 32.1634 5.84562 30.4526 5.84562C30.3562 5.84562 30.2593 5.84709 30.1618 5.85004C28.9036 5.88809 27.5439 6.17147 26.0827 6.70021C26.0611 6.70803 26.0395 6.7159 26.0178 6.72383C24.4669 7.26052 23.1098 7.8216 21.9466 8.40707C21.9206 8.42072 21.8947 8.43441 21.8688 8.44812L21.864 8.45067C17.7003 10.6575 14.3491 13.6354 11.8104 17.3845C11.772 17.4412 11.7338 17.4981 11.6957 17.5551ZM9.56761 31.0438C9.49797 31.3609 9.44639 31.6746 9.41209 31.9854C9.37742 32.2995 9.36023 32.6121 9.36023 32.9239C9.36023 35.3037 10.0364 37.0713 11.2539 38.4661C12.4154 39.747 13.9689 40.471 16.2759 40.471C17.9942 40.471 19.9256 40.1264 22.0932 39.3591C24.3031 38.5279 26.519 37.405 28.7408 35.9754C30.9516 34.5045 32.9566 32.8398 34.7612 30.981C36.5424 29.098 37.9109 27.1745 38.9042 25.2163L38.9172 25.1907L38.9306 25.1654C39.9093 23.3132 40.349 21.5447 40.349 19.8239C40.349 18.1359 39.9034 16.4898 38.9327 14.8361L38.9179 14.811L38.9036 14.7856C37.9603 13.1144 36.7184 11.7936 35.1528 10.7805L35.1129 10.7546L35.0737 10.7277C33.6449 9.74542 32.1321 9.27614 30.4526 9.27614C29.5791 9.27614 28.4995 9.46569 27.1824 9.94781L27.1541 9.95817L27.1256 9.96803C25.6953 10.463 24.4916 10.9634 23.4978 11.4618C19.727 13.4513 16.758 16.1168 14.5257 19.4664L14.5201 19.4748L14.5145 19.4832C12.1962 22.9176 10.5439 26.7613 9.56761 31.0438Z" fill="white"/>
</svg>
