<svg xmlns="http://www.w3.org/2000/svg" width="1920" height="1080" fill="none" viewBox="0 0 1920 1080"><g clip-path="url(#a)"><mask id="b" fill="#fff"><path d="M369.375 259.688c0-10.874 8.814-19.688 19.687-19.688H1550.63c10.87 0 19.68 8.814 19.68 19.688V450H369.375z"/></mask><path fill="#fff" d="M369.375 259.688c0-10.874 8.814-19.688 19.687-19.688H1550.63c10.87 0 19.68 8.814 19.68 19.688V450H369.375z"/><path fill="#b4b4b4" d="M368.062 259.688c0-11.598 9.403-21 21-21H1550.62c11.6 0 21 9.402 21 21H1569c0-10.149-8.23-18.376-18.38-18.376H389.062c-10.148 0-18.374 8.227-18.374 18.376zM1570.31 450H369.375zm-1202.248 0V259.688c0-11.598 9.403-21 21-21v2.624c-10.148 0-18.374 8.227-18.374 18.376V450zM1550.62 238.688c11.6 0 21 9.402 21 21V450H1569V259.688c0-10.149-8.23-18.376-18.38-18.376z" mask="url(#b)"/><mask id="c" fill="#fff"><path d="M369.375 450H1338v210H369.375z"/></mask><path fill="#f8f8f8" d="M369.375 450H1338v210H369.375z"/><path fill="#b4b4b4" d="M369.375 450v-1.312h-1.313V450zM1338 450h1.31v-1.312H1338zm0 210v1.312h1.31V660zm-968.625 0h-1.313v1.312h1.313zm0-210v1.312H1338v-2.624H369.375zM1338 450h-1.31v210h2.62V450zm0 210v-1.312H369.375v2.624H1338zm-968.625 0h1.313V450h-2.626v210z" mask="url(#c)"/><path fill="#f8f8f8" stroke="#b4b4b4" stroke-width="1.313" d="M1338.66 450.656h967.312v208.688H1338.66zM370.031 660.656h967.312v208.688H370.031zM1338.66 660.656h967.312v208.688H1338.66zM370.031 870.656h967.312v208.688H370.031zM1338.66 870.656h967.312v208.688H1338.66z"/><path fill="#000" d="M1338.48 385.938h-24.66v-3.384c.79-.069 1.62-.137 2.51-.205.89-.103 1.63-.24 2.21-.411.95-.307 1.67-.837 2.15-1.589q.72-1.179.72-3.025v-58.55c0-1.23-.28-2.375-.82-3.435-.52-1.093-1.2-1.948-2.05-2.563q-.93-.615-3.39-1.128c-1.64-.342-2.95-.547-3.95-.615v-3.282l19.03-1.179.71.769v69.368c0 1.196.23 2.187.67 2.974.44.752 1.16 1.333 2.15 1.743.76.342 1.49.598 2.21.769.75.171 1.59.29 2.51.359zM1310.69 385.937h-24.46v-3.384l2.41-.205c.86-.068 1.59-.205 2.21-.41q1.44-.462 2.1-1.589.72-1.18.72-3.025v-31.223c0-1.094-.26-2.085-.77-2.974a6.3 6.3 0 0 0-2.05-2.307q-.975-.615-2.82-1.026-1.845-.46-3.39-.564v-3.332l17.85-1.128.71.718v41.22c0 1.197.23 2.188.67 2.974.48.786 1.21 1.367 2.21 1.743.75.308 1.48.564 2.2.769.72.171 1.52.291 2.41.359zm-6.46-71.111q0 2.922-1.95 5.127c-1.26 1.436-2.84 2.153-4.72 2.153q-2.61 0-4.56-2.05c-1.26-1.402-1.9-2.991-1.9-4.768 0-1.88.64-3.521 1.9-4.922q1.95-2.102 4.56-2.102 2.925 0 4.77 1.999c1.27 1.299 1.9 2.82 1.9 4.563M1283.21 385.014a61 61 0 0 1-4.26 1.384c-1.19.376-2.56.564-4.1.564-2.67 0-4.8-.615-6.41-1.846-1.57-1.264-2.58-3.093-3.02-5.486h-.31c-2.22 2.461-4.62 4.341-7.18 5.64q-3.795 1.948-9.18 1.948c-3.79 0-6.92-1.162-9.38-3.486-2.42-2.324-3.64-5.366-3.64-9.126 0-1.948.28-3.691.82-5.23a12.6 12.6 0 0 1 2.46-4.152q1.29-1.539 3.39-2.718c1.4-.82 2.71-1.469 3.94-1.948 1.54-.581 4.65-1.658 9.34-3.23 4.71-1.572 7.89-2.803 9.53-3.691v-5.076c0-.444-.1-1.299-.31-2.563a10.2 10.2 0 0 0-1.18-3.589c-.68-1.265-1.65-2.359-2.92-3.282q-1.845-1.435-5.28-1.435-2.355 0-4.41.82-1.995.77-2.82 1.641c0 .683.16 1.692.46 3.025.35 1.333.52 2.563.52 3.691 0 1.196-.55 2.29-1.64 3.281-1.06.992-2.55 1.487-4.46 1.487-1.71 0-2.98-.598-3.8-1.794a7.5 7.5 0 0 1-1.18-4.102c0-1.572.55-3.076 1.64-4.512 1.13-1.435 2.58-2.717 4.36-3.845 1.54-.957 3.4-1.76 5.59-2.409 2.19-.684 4.32-1.026 6.41-1.026 2.87 0 5.36.205 7.48.615q3.24.564 5.85 2.513c1.74 1.264 3.06 2.99 3.95 5.178q1.38 3.23 1.38 8.357 0 7.331-.15 13.022c-.11 3.76-.16 7.879-.16 12.356 0 1.333.22 2.393.67 3.179.48.786 1.2 1.453 2.15 1.999.52.308 1.32.479 2.41.513 1.13.034 2.28.051 3.44.051zm-17.9-27.071c-2.9.855-5.45 1.692-7.63 2.513-2.19.82-4.23 1.845-6.11 3.076q-2.565 1.743-4.05 4.153c-.99 1.572-1.48 3.452-1.48 5.639 0 2.837.73 4.922 2.2 6.255 1.51 1.333 3.4 2 5.69 2 2.43 0 4.57-.581 6.41-1.744 1.85-1.196 3.4-2.597 4.67-4.204zM1231.53 385.938h-24.67v-3.384l2.36-.205q1.23-.102 2.16-.41 1.425-.462 2.1-1.589.72-1.18.72-3.025v-26.096q0-5.333-2.46-8.204c-1.61-1.948-3.63-2.922-6.05-2.922-1.68 0-3.25.256-4.72.769a14.9 14.9 0 0 0-4.05 2.153c-.99.752-1.83 1.573-2.51 2.461-.65.855-1.15 1.573-1.49 2.154v29.172c0 1.196.2 2.188.61 2.974.41.752 1.12 1.333 2.11 1.743q1.17.461 2.1.718c.65.136 1.49.239 2.51.307v3.384h-24.15v-3.384c.79-.068 1.54-.137 2.26-.205a9 9 0 0 0 2.05-.41q1.44-.462 2.1-1.589.72-1.18.72-3.025v-26.096q0-5.333-2.46-8.204c-1.61-1.948-3.62-2.922-6.05-2.922-1.68 0-3.25.273-4.72.82a14.9 14.9 0 0 0-4.05 2.154c-.99.752-1.83 1.606-2.51 2.563-.68.923-1.2 1.624-1.54 2.102v28.967q0 1.744.72 2.923c.48.786 1.2 1.384 2.15 1.794.72.342 1.46.598 2.21.769s1.59.291 2.51.359v3.384h-24.56v-3.384c.79-.068 1.59-.137 2.41-.205.86-.068 1.59-.205 2.21-.41q1.425-.462 2.1-1.589.72-1.18.72-3.025v-31.429c0-1.093-.26-2.067-.77-2.922-.48-.889-1.17-1.641-2.05-2.256-.65-.41-1.46-.735-2.41-.974-.96-.273-1.95-.444-2.98-.513v-3.332l16.92-1.128.72.718v7.229h.36c.85-.855 1.89-1.863 3.13-3.025 1.23-1.162 2.37-2.102 3.43-2.82 1.2-.82 2.68-1.504 4.46-2.051q2.715-.82 5.85-.82c3.28 0 6.1.889 8.45 2.666 2.36 1.743 4.06 3.862 5.08 6.357 1.23-1.196 2.31-2.238 3.23-3.127.96-.923 2.21-1.897 3.74-2.922 1.3-.889 2.82-1.607 4.57-2.154 1.77-.547 3.74-.82 5.89-.82 4.27 0 7.66 1.401 10.15 4.204q3.75 4.204 3.75 12.92v25.686c0 1.196.2 2.188.61 2.974q.615 1.128 2.1 1.743 1.185.461 2.31.718c.79.136 1.66.239 2.62.307zM1141.19 374.042c-2.12 4.033-4.96 7.246-8.51 9.639-3.56 2.392-7.64 3.589-12.26 3.589q-6.105 0-10.71-2.154c-3.04-1.435-5.56-3.384-7.54-5.845s-3.47-5.332-4.46-8.613q-1.44-4.921-1.44-10.408c0-3.281.52-6.494 1.54-9.638q1.59-4.768 4.62-8.562c1.95-2.427 4.35-4.375 7.23-5.845 2.9-1.504 6.15-2.256 9.74-2.256q5.535 0 9.48 1.743c2.63 1.162 4.77 2.752 6.41 4.768 1.57 1.915 2.73 4.17 3.49 6.768.78 2.598 1.18 5.418 1.18 8.46v3.383h-33.48c0 3.316.3 6.324.92 9.024.65 2.7 1.66 5.075 3.02 7.126 1.34 1.983 3.08 3.555 5.23 4.717 2.16 1.128 4.72 1.692 7.69 1.692 3.05 0 5.66-.701 7.85-2.102 2.22-1.436 4.36-3.999 6.41-7.691zm-11.33-19.277c0-1.914-.17-3.965-.52-6.153-.3-2.187-.82-4.016-1.53-5.486-.79-1.572-1.87-2.854-3.23-3.845-1.37-.991-3.13-1.487-5.29-1.487-3.58 0-6.58 1.504-8.97 4.512q-3.54 4.461-3.84 12.459zM1072.43 385.938h-15.28c-2.66-3.863-5.52-7.999-8.56-12.408s-6.2-8.698-9.49-12.868l-4.2 3.947v11.997c0 1.231.22 2.256.67 3.077.44.786 1.16 1.367 2.15 1.743.82.342 1.61.598 2.36.769q1.125.256 2.61.359v3.384h-24.81v-3.384q1.185-.103 2.46-.205c.85-.103 1.57-.24 2.15-.411q1.44-.46 2.16-1.589c.48-.786.71-1.794.71-3.025v-58.755c0-1.264-.27-2.444-.82-3.537-.51-1.128-1.19-1.983-2.05-2.564-.71-.547-1.84-.906-3.38-1.076-1.5-.171-2.72-.291-3.64-.359v-3.282l18.71-1.179.72.769v53.474q4.005-3.999 8.61-8.562c3.11-3.076 5.73-5.81 7.85-8.203q.405-.46.87-1.179.51-.77.51-1.23 0-1.385-2.25-2.051a26 26 0 0 0-4.26-.923v-3.281h22.25v3.178c-2.87.855-5.42 1.932-7.64 3.23-2.18 1.265-3.86 2.41-5.02 3.435-.82.684-1.98 1.795-3.49 3.333q-2.25 2.307-6.3 6.05c2.8 3.452 5.94 7.588 9.43 12.407 3.52 4.819 6.08 8.306 7.69 10.459q2.25 3.026 4.05 3.948c1.2.615 2.94.991 5.23 1.128z"/><path fill="#000" d="M1016.6 341.898q0 2.615-1.29 4.665c-.85 1.333-2.17 2-3.94 2q-2.88 0-4.41-1.487c-.99-.991-1.49-2.085-1.49-3.281q0-1.128.15-2.051.21-.922.36-1.846-2.4 0-5.64 1.949-3.226 1.948-5.483 5.537v29.428q0 1.795.667 2.923.717 1.128 2.204 1.692 1.282.513 3.282.769 2.055.256 3.54.359v3.383h-26.663v-3.383q1.179-.103 2.41-.205 1.281-.103 2.204-.411 1.436-.46 2.102-1.589.718-1.179.718-3.025v-31.223q0-1.59-.769-3.127-.718-1.539-2.051-2.461-.974-.615-2.307-.872a18 18 0 0 0-2.871-.41v-3.333l16.816-1.128.718.718v7.127h.257q3.178-4.154 7.076-6.306c2.6-1.436 4.97-2.154 7.13-2.154q3.225 0 5.22 2.102c1.37 1.402 2.06 3.282 2.06 5.64M972.655 360.148q0 5.332-1.692 10.51-1.692 5.127-4.819 8.716-3.537 4.101-8.203 6.101t-10.459 2q-4.82 0-9.177-1.795-4.358-1.846-7.742-5.332-3.333-3.435-5.332-8.357-1.948-4.973-1.948-11.125 0-11.844 6.87-19.38 6.921-7.537 18.098-7.537 10.613 0 17.483 7.178 6.921 7.126 6.921 19.021m-10.613.102q0-3.844-.769-8.1-.768-4.307-2.307-7.28-1.64-3.18-4.306-5.076-2.667-1.948-6.512-1.948-3.947 0-6.767 1.948-2.769 1.948-4.512 5.332-1.641 3.127-2.307 7.126a47 47 0 0 0-.666 7.742q0 4.921.769 9.126.82 4.154 2.563 7.434 1.743 3.282 4.358 5.178 2.666 1.846 6.562 1.846 6.41 0 10.152-6.203t3.742-17.125M923.383 338.668q-2.153.206-4.665 1.794-2.461 1.59-3.589 4.768-2.564 7.537-4.871 14.305-2.256 6.716-5.075 15.124a226 226 0 0 0-1.897 5.742 237 237 0 0 0-1.692 5.896h-4.409l-13.587-37.221-13.689 37.221h-4.204a3536 3536 0 0 1-7.537-22.558 1500 1500 0 0 0-6.46-19.534q-.82-2.41-3.127-3.794-2.307-1.385-4.46-1.64v-3.384h22.558v3.589q-1.692.051-3.691.564-1.948.512-1.948 1.691 0 .206.153.872.206.666.462 1.436 1.64 5.383 3.691 12.048a2333 2333 0 0 1 5.383 17.226l12.92-36.401h4.922l13.177 35.889q2.204-6.87 4.357-13.279a279 279 0 0 0 3.846-12.1q.358-1.333.666-2.409a7.3 7.3 0 0 0 .359-2.205q0-.922-.82-1.641-.82-.717-2-1.179a11 11 0 0 0-2.256-.615q-1.179-.205-1.743-.205v-3.281h19.226zM822.019 385.015l-17.636 1.128-.769-.718v-4.717l-.411-.103q-2.666 2.974-6.613 4.871-3.897 1.897-8.05 1.897-4.306 0-8.357-1.897-3.999-1.948-6.972-5.434-3.025-3.538-4.82-8.511-1.743-4.974-1.743-10.972 0-5.485 1.897-10.408 1.897-4.921 5.23-8.613 3.127-3.435 7.639-5.486 4.563-2.05 9.28-2.051 3.537 0 6.921.923 3.435.872 5.896 2.256v-17.585q0-2.154-.718-3.897-.717-1.794-1.999-2.717-1.435-.974-3.897-1.384a45 45 0 0 0-5.229-.667v-3.179l20.661-1.179.769.769v68.189q0 1.794.667 3.076.717 1.23 2.051 2.102.974.615 2.819.769 1.846.154 3.384.205zm-18.508-8.87v-29.583q-.41-1.332-1.333-2.871a12.8 12.8 0 0 0-2.307-2.819q-1.487-1.283-3.486-2.102-2-.872-4.666-.872-3.077 0-5.691 1.589-2.563 1.59-4.563 4.563-1.897 2.871-3.025 7.332-1.077 4.409-1.076 9.792 0 4.306.82 7.845a20.7 20.7 0 0 0 2.768 6.511q1.795 2.871 4.563 4.614 2.82 1.743 6.665 1.743 4.103 0 6.768-1.794 2.718-1.795 4.563-3.948M762.545 385.938h-24.764v-3.384a203 203 0 0 1 2.564-.205q1.436-.102 2.358-.41 1.436-.462 2.102-1.589.718-1.18.718-3.025v-25.994q0-5.383-2.563-8.306-2.512-2.922-6.153-2.922-2.717 0-4.973.872-2.256.82-3.999 2.05-1.692 1.18-2.717 2.564-.974 1.333-1.436 2.153v29.07q0 1.743.718 2.871t2.153 1.743q1.077.513 2.308.769 1.282.257 2.614.359v3.384h-24.763v-3.384q1.18-.102 2.41-.205 1.281-.102 2.204-.41 1.436-.462 2.102-1.589.718-1.18.718-3.025v-31.223q0-1.744-.769-3.179a6.1 6.1 0 0 0-2.051-2.41q-.974-.616-2.307-.871a18 18 0 0 0-2.871-.411v-3.332l16.817-1.128.717.718v7.126h.257q1.23-1.23 3.076-2.922 1.845-1.743 3.486-2.82 1.898-1.23 4.512-2.051 2.614-.82 5.896-.82 7.28 0 10.767 4.563 3.537 4.512 3.537 12.048v26.302q0 1.794.615 2.922.616 1.077 2.102 1.692 1.231.513 2.102.718.923.204 2.513.307zM702.608 385.937h-24.455v-3.384q1.179-.102 2.409-.205 1.283-.102 2.205-.41 1.436-.462 2.102-1.589.718-1.18.718-3.025v-31.223q0-1.64-.769-2.974a6.3 6.3 0 0 0-2.051-2.307q-.974-.615-2.82-1.026-1.845-.46-3.384-.564v-3.332l17.842-1.128.718.718v41.22q0 1.795.667 2.974.717 1.179 2.204 1.743a21 21 0 0 0 2.205.769q1.077.257 2.409.359zm-6.46-71.111q0 2.922-1.948 5.127-1.897 2.154-4.717 2.153-2.615 0-4.563-2.05-1.897-2.103-1.897-4.768 0-2.82 1.897-4.922 1.949-2.102 4.563-2.102 2.923 0 4.768 1.999 1.897 1.949 1.897 4.563M674.972 331.386h-3.845q-1.077-4.05-4.512-8.664-3.384-4.614-6.511-5.076a48 48 0 0 0-3.794-.308 105 105 0 0 0-4.922-.102h-12.202v29.223h8.357q3.794 0 5.896-.769a9.36 9.36 0 0 0 3.589-2.461q1.025-1.127 1.846-3.486a20.7 20.7 0 0 0 1.127-5.127h3.897v28.557h-3.897q-.153-2.256-1.076-5.127-.872-2.871-1.897-4.152a7.54 7.54 0 0 0-3.897-2.564q-2.307-.718-5.588-.718h-8.357v25.071q0 1.692.667 3.025.666 1.333 2.358 2.153.769.36 3.332.872 2.563.513 3.897.564v3.64h-31.531v-3.64q1.539-.102 4.102-.308 2.564-.257 3.332-.615 1.539-.667 2.205-1.948.717-1.333.718-3.179v-52.5q0-1.692-.564-2.974-.564-1.332-2.359-2.153-1.384-.666-3.742-1.179-2.308-.513-3.692-.615v-3.64h57.063z"/><path stroke="#fff" stroke-linecap="round" stroke-linejoin="round" stroke-width="25.679" d="m531.511 369.352-10.212-.693 5.572 8.298c1.523 2.265 1.639 5.158.301 7.475l-10.115 17.52c-1.338 2.317-3.901 3.663-6.624 3.477l-57.576-3.907a7.41 7.41 0 0 1-5.639-3.255l-32.172-47.909c-1.522-2.265-1.637-5.158-.299-7.475l10.115-17.52c1.338-2.317 3.9-3.663 6.622-3.478l10.212.693-5.572-8.298c-1.521-2.264-1.637-5.157-.299-7.474l10.115-17.52c1.338-2.317 3.9-3.663 6.623-3.478l57.577 3.907a7.41 7.41 0 0 1 5.638 3.256l32.172 47.908c1.522 2.266 1.638 5.159.3 7.476l-10.115 17.52c-1.338 2.317-3.9 3.663-6.624 3.477"/><path fill="#e8e8e8" stroke="#5c5e63" stroke-linecap="round" stroke-linejoin="round" stroke-width="5.172" d="m431.228 321.729 57.577 3.908a7.41 7.41 0 0 1 5.639 3.255l32.171 47.909c1.523 2.266 1.639 5.158.301 7.475l-10.115 17.521c-1.338 2.316-3.901 3.662-6.624 3.477l-57.576-3.908a7.4 7.4 0 0 1-5.639-3.255l-32.172-47.909c-1.522-2.265-1.637-5.157-.299-7.474l10.115-17.521c1.338-2.317 3.9-3.662 6.622-3.478"/><g opacity=".6"><path stroke="#5c5e63" stroke-linecap="round" stroke-linejoin="round" stroke-width="4.292" d="m428.552 323.098 34.765 53.198 63.452 3.507"/><path fill="#fff" d="m449.725 399.837 13.587-23.532Z"/><path stroke="#5c5e63" stroke-linecap="round" stroke-linejoin="round" stroke-width="4.292" d="m449.725 399.837 13.587-23.532"/></g><path fill="#fff" stroke="#5c5e63" stroke-linecap="round" stroke-linejoin="round" stroke-width="5.172" d="m452.307 285.651 57.576 3.908a7.41 7.41 0 0 1 5.639 3.255l32.171 47.909c1.523 2.265 1.639 5.158.301 7.475l-10.115 17.52c-1.338 2.317-3.901 3.663-6.624 3.478l-57.576-3.908a7.41 7.41 0 0 1-5.639-3.255l-32.172-47.909c-1.521-2.265-1.637-5.157-.299-7.474l10.115-17.521c1.338-2.317 3.9-3.662 6.623-3.478"/><g stroke="#5c5e63" stroke-linecap="round" stroke-linejoin="round" stroke-width="4.292" opacity=".6"><path d="m449.625 287.027 34.764 53.199 63.453 3.507M470.798 363.765l13.587-23.533"/></g><path stroke="#3440e5" stroke-width="6.563" d="M369.375 450H2250.19"/><path fill="#000" d="M463.976 505.882v18.779a4.7 4.7 0 0 1-4.695 4.695 4.694 4.694 0 0 1-4.694-4.695v-18.779a4.7 4.7 0 0 1 1.375-3.319 4.69 4.69 0 0 1 6.639 0 4.7 4.7 0 0 1 1.375 3.319m21.86 34.477a4.68 4.68 0 0 0 3.321-1.379l13.28-13.274a4.698 4.698 0 0 0-6.643-6.643l-13.274 13.28a4.694 4.694 0 0 0 3.316 8.016m29.782 17.165h-18.779a4.7 4.7 0 0 0-4.695 4.695 4.694 4.694 0 0 0 4.695 4.694h18.779a4.7 4.7 0 0 0 3.319-1.375 4.69 4.69 0 0 0 0-6.639 4.7 4.7 0 0 0-3.319-1.375m-26.461 27.934a4.694 4.694 0 0 0-6.637 6.637l13.274 13.28a4.698 4.698 0 0 0 6.643-6.643zm-29.876 9.624a4.7 4.7 0 0 0-3.319 1.375 4.7 4.7 0 0 0-1.375 3.319v18.779a4.693 4.693 0 0 0 4.694 4.695 4.7 4.7 0 0 0 4.695-4.695v-18.779a4.694 4.694 0 0 0-4.695-4.694m-29.876-9.624-13.28 13.274a4.698 4.698 0 1 0 6.643 6.643l13.274-13.28a4.69 4.69 0 0 0-.083-6.554 4.696 4.696 0 0 0-6.554-.083m-2.987-23.239a4.694 4.694 0 0 0-4.694-4.695h-18.779a4.697 4.697 0 0 0-4.695 4.695 4.694 4.694 0 0 0 4.695 4.694h18.779a4.7 4.7 0 0 0 3.319-1.375 4.7 4.7 0 0 0 1.375-3.319m-3.65-43.156a4.698 4.698 0 1 0-6.643 6.643l13.28 13.274a4.697 4.697 0 0 0 7.928-3.344 4.7 4.7 0 0 0-1.291-3.293zM1458.85 505.882v18.779c0 1.245-.49 2.439-1.37 3.32a4.7 4.7 0 0 1-3.32 1.375 4.703 4.703 0 0 1-4.7-4.695v-18.779a4.7 4.7 0 0 1 1.38-3.319 4.68 4.68 0 0 1 3.32-1.375 4.69 4.69 0 0 1 4.69 4.694m21.86 34.477a4.68 4.68 0 0 0 3.32-1.379l13.28-13.274a4.7 4.7 0 0 0 1.38-3.322 4.704 4.704 0 0 0-4.7-4.697c-1.24 0-2.44.495-3.32 1.376l-13.27 13.28a4.66 4.66 0 0 0-1.29 2.403c-.18.911-.09 1.855.26 2.713a4.692 4.692 0 0 0 4.34 2.9m29.78 17.165h-18.78c-1.24 0-2.44.495-3.32 1.375a4.7 4.7 0 0 0-1.37 3.32 4.69 4.69 0 0 0 4.69 4.694h18.78c1.25 0 2.44-.494 3.32-1.375a4.7 4.7 0 0 0 1.38-3.319 4.703 4.703 0 0 0-4.7-4.695m-26.46 27.934a4.693 4.693 0 0 0-6.55.083 4.7 4.7 0 0 0-1.38 3.26 4.7 4.7 0 0 0 1.3 3.294l13.27 13.28a4.7 4.7 0 0 0 3.32 1.376 4.706 4.706 0 0 0 4.7-4.698c0-1.245-.5-2.44-1.38-3.321zm-29.87 9.624c-1.25 0-2.44.494-3.32 1.375a4.7 4.7 0 0 0-1.38 3.319v18.779a4.702 4.702 0 0 0 8.02 3.32 4.7 4.7 0 0 0 1.37-3.32v-18.779a4.69 4.69 0 0 0-4.69-4.694m-29.88-9.624L1411 598.732a4.7 4.7 0 0 0-1.38 3.321 4.706 4.706 0 0 0 4.7 4.698c1.25 0 2.44-.495 3.32-1.376l13.28-13.28c.84-.888 1.3-2.07 1.29-3.294a4.7 4.7 0 0 0-4.64-4.634 4.7 4.7 0 0 0-3.29 1.291m-2.99-23.239c0-1.245-.49-2.439-1.37-3.32a4.7 4.7 0 0 0-3.32-1.375h-18.78a4.703 4.703 0 0 0-4.7 4.695 4.7 4.7 0 0 0 1.38 3.319 4.68 4.68 0 0 0 3.32 1.375h18.78a4.69 4.69 0 0 0 4.69-4.694m-3.65-43.156a4.68 4.68 0 0 0-3.32-1.376 4.7 4.7 0 0 0-4.7 4.697c0 1.246.5 2.441 1.38 3.322l13.28 13.274a4.7 4.7 0 0 0 3.29 1.291 4.68 4.68 0 0 0 3.26-1.375 4.7 4.7 0 0 0 1.38-3.26 4.73 4.73 0 0 0-1.29-3.293zM463.976 715.882v18.779a4.7 4.7 0 0 1-4.695 4.695 4.694 4.694 0 0 1-4.694-4.695v-18.779a4.7 4.7 0 0 1 1.375-3.319 4.69 4.69 0 0 1 6.639 0 4.7 4.7 0 0 1 1.375 3.319m21.86 34.477a4.68 4.68 0 0 0 3.321-1.379l13.28-13.274a4.698 4.698 0 0 0-6.643-6.643l-13.274 13.28a4.694 4.694 0 0 0 3.316 8.016m29.782 17.165h-18.779a4.7 4.7 0 0 0-4.695 4.695 4.694 4.694 0 0 0 4.695 4.694h18.779a4.7 4.7 0 0 0 3.319-1.375 4.69 4.69 0 0 0 0-6.639 4.7 4.7 0 0 0-3.319-1.375m-26.461 27.934a4.694 4.694 0 0 0-6.637 6.637l13.274 13.28a4.698 4.698 0 0 0 6.643-6.643zm-29.876 9.624a4.7 4.7 0 0 0-3.319 1.375 4.7 4.7 0 0 0-1.375 3.319v18.779a4.693 4.693 0 0 0 4.694 4.695 4.7 4.7 0 0 0 4.695-4.695v-18.779a4.694 4.694 0 0 0-4.695-4.694m-29.876-9.624-13.28 13.274a4.698 4.698 0 1 0 6.643 6.643l13.274-13.28a4.69 4.69 0 0 0-.083-6.554 4.696 4.696 0 0 0-6.554-.083m-2.987-23.239a4.694 4.694 0 0 0-4.694-4.695h-18.779a4.697 4.697 0 0 0-4.695 4.695 4.694 4.694 0 0 0 4.695 4.694h18.779a4.7 4.7 0 0 0 3.319-1.375 4.7 4.7 0 0 0 1.375-3.319m-3.65-43.156a4.698 4.698 0 1 0-6.643 6.643l13.28 13.274a4.697 4.697 0 0 0 7.928-3.344 4.7 4.7 0 0 0-1.291-3.293zM1458.85 715.882v18.779c0 1.245-.49 2.439-1.37 3.32a4.7 4.7 0 0 1-3.32 1.375 4.703 4.703 0 0 1-4.7-4.695v-18.779a4.7 4.7 0 0 1 1.38-3.319 4.68 4.68 0 0 1 3.32-1.375 4.69 4.69 0 0 1 4.69 4.694m21.86 34.477a4.68 4.68 0 0 0 3.32-1.379l13.28-13.274a4.7 4.7 0 0 0 1.38-3.322 4.704 4.704 0 0 0-4.7-4.697c-1.24 0-2.44.495-3.32 1.376l-13.27 13.28a4.66 4.66 0 0 0-1.29 2.403c-.18.911-.09 1.855.26 2.713a4.692 4.692 0 0 0 4.34 2.9m29.78 17.165h-18.78c-1.24 0-2.44.495-3.32 1.375a4.7 4.7 0 0 0-1.37 3.32 4.69 4.69 0 0 0 4.69 4.694h18.78c1.25 0 2.44-.494 3.32-1.375a4.7 4.7 0 0 0 1.38-3.319 4.703 4.703 0 0 0-4.7-4.695m-26.46 27.934a4.693 4.693 0 0 0-6.55.083 4.7 4.7 0 0 0-1.38 3.26 4.7 4.7 0 0 0 1.3 3.294l13.27 13.28a4.7 4.7 0 0 0 3.32 1.376 4.706 4.706 0 0 0 4.7-4.698c0-1.245-.5-2.44-1.38-3.321zm-29.87 9.624c-1.25 0-2.44.494-3.32 1.375a4.7 4.7 0 0 0-1.38 3.319v18.779a4.702 4.702 0 0 0 8.02 3.32 4.7 4.7 0 0 0 1.37-3.32v-18.779a4.69 4.69 0 0 0-4.69-4.694m-29.88-9.624L1411 808.732a4.7 4.7 0 0 0-1.38 3.321 4.706 4.706 0 0 0 4.7 4.698c1.25 0 2.44-.495 3.32-1.376l13.28-13.28c.84-.888 1.3-2.07 1.29-3.294a4.7 4.7 0 0 0-4.64-4.634 4.7 4.7 0 0 0-3.29 1.291m-2.99-23.239c0-1.245-.49-2.439-1.37-3.32a4.7 4.7 0 0 0-3.32-1.375h-18.78a4.703 4.703 0 0 0-4.7 4.695 4.7 4.7 0 0 0 1.38 3.319 4.68 4.68 0 0 0 3.32 1.375h18.78a4.69 4.69 0 0 0 4.69-4.694m-3.65-43.156a4.68 4.68 0 0 0-3.32-1.376 4.7 4.7 0 0 0-4.7 4.697c0 1.246.5 2.441 1.38 3.322l13.28 13.274a4.7 4.7 0 0 0 3.29 1.291 4.68 4.68 0 0 0 3.26-1.375 4.7 4.7 0 0 0 1.38-3.26 4.73 4.73 0 0 0-1.29-3.293zM463.976 925.882v18.779a4.7 4.7 0 0 1-4.695 4.695 4.694 4.694 0 0 1-4.694-4.695v-18.779a4.7 4.7 0 0 1 1.375-3.319 4.69 4.69 0 0 1 6.639 0 4.7 4.7 0 0 1 1.375 3.319m21.86 34.477a4.68 4.68 0 0 0 3.321-1.379l13.28-13.274a4.698 4.698 0 0 0-6.643-6.643l-13.274 13.28a4.694 4.694 0 0 0 3.316 8.016m29.782 17.165h-18.779a4.7 4.7 0 0 0-4.695 4.695 4.694 4.694 0 0 0 4.695 4.694h18.779a4.7 4.7 0 0 0 3.319-1.375 4.69 4.69 0 0 0 0-6.639 4.7 4.7 0 0 0-3.319-1.375m-26.461 27.936a4.64 4.64 0 0 0-3.293-1.29 4.7 4.7 0 0 0-3.26 1.37 4.7 4.7 0 0 0-1.375 3.26 4.67 4.67 0 0 0 1.291 3.29l13.274 13.28a4.66 4.66 0 0 0 3.322 1.38c1.246 0 2.44-.49 3.321-1.38a4.68 4.68 0 0 0 1.376-3.32c0-1.24-.495-2.44-1.376-3.32zm-29.876 9.62a4.7 4.7 0 0 0-3.319 1.38 4.68 4.68 0 0 0-1.375 3.32v18.78c0 1.24.494 2.43 1.375 3.31.88.89 2.074 1.38 3.319 1.38s2.439-.49 3.32-1.38a4.68 4.68 0 0 0 1.375-3.31v-18.78a4.703 4.703 0 0 0-4.695-4.7m-29.876-9.62-13.28 13.27a4.7 4.7 0 0 0-1.376 3.32c0 1.25.495 2.44 1.376 3.32a4.66 4.66 0 0 0 3.322 1.38c1.245 0 2.44-.49 3.321-1.38l13.274-13.28a4.66 4.66 0 0 0 1.291-3.29 4.7 4.7 0 0 0-1.374-3.26 4.7 4.7 0 0 0-3.26-1.37 4.65 4.65 0 0 0-3.294 1.29m-2.987-23.241a4.694 4.694 0 0 0-4.694-4.695h-18.779a4.697 4.697 0 0 0-4.695 4.695 4.694 4.694 0 0 0 4.695 4.694h18.779a4.7 4.7 0 0 0 3.319-1.375 4.7 4.7 0 0 0 1.375-3.319m-3.65-43.156a4.698 4.698 0 1 0-6.643 6.643l13.28 13.274a4.697 4.697 0 0 0 7.928-3.344 4.7 4.7 0 0 0-1.291-3.293zM1458.85 925.882v18.779c0 1.245-.49 2.439-1.37 3.32a4.7 4.7 0 0 1-3.32 1.375 4.703 4.703 0 0 1-4.7-4.695v-18.779a4.7 4.7 0 0 1 1.38-3.319 4.68 4.68 0 0 1 3.32-1.375 4.69 4.69 0 0 1 4.69 4.694m21.86 34.477a4.68 4.68 0 0 0 3.32-1.379l13.28-13.274a4.7 4.7 0 0 0 1.38-3.322 4.704 4.704 0 0 0-4.7-4.697c-1.24 0-2.44.495-3.32 1.376l-13.27 13.28a4.66 4.66 0 0 0-1.29 2.403c-.18.911-.09 1.855.26 2.713a4.692 4.692 0 0 0 4.34 2.9m29.78 17.165h-18.78c-1.24 0-2.44.495-3.32 1.375a4.7 4.7 0 0 0-1.37 3.32 4.69 4.69 0 0 0 4.69 4.694h18.78c1.25 0 2.44-.494 3.32-1.375a4.7 4.7 0 0 0 1.38-3.319 4.703 4.703 0 0 0-4.7-4.695m-26.46 27.936a4.65 4.65 0 0 0-3.29-1.29c-1.23.01-2.4.51-3.26 1.37-.87.87-1.36 2.04-1.38 3.26-.01 1.23.45 2.41 1.3 3.29l13.27 13.28c.88.89 2.08 1.38 3.32 1.38 1.25 0 2.44-.49 3.32-1.38.88-.88 1.38-2.07 1.38-3.32 0-1.24-.5-2.44-1.38-3.32zm-29.87 9.62c-1.25 0-2.44.5-3.32 1.38s-1.38 2.07-1.38 3.32v18.78c0 1.24.5 2.43 1.38 3.31.88.89 2.07 1.38 3.32 1.38 1.24 0 2.44-.49 3.32-1.38.88-.88 1.37-2.07 1.37-3.31v-18.78c0-1.25-.49-2.44-1.37-3.32a4.7 4.7 0 0 0-3.32-1.38m-29.88-9.62-13.28 13.27a4.7 4.7 0 0 0-1.38 3.32c0 1.25.5 2.44 1.38 3.32.88.89 2.08 1.38 3.32 1.38 1.25 0 2.44-.49 3.32-1.38l13.28-13.28c.84-.88 1.3-2.06 1.29-3.29a4.72 4.72 0 0 0-1.38-3.26 4.67 4.67 0 0 0-3.26-1.37c-1.22-.02-2.4.44-3.29 1.29m-2.99-23.241c0-1.245-.49-2.439-1.37-3.32a4.7 4.7 0 0 0-3.32-1.375h-18.78a4.703 4.703 0 0 0-4.7 4.695 4.7 4.7 0 0 0 1.38 3.319 4.68 4.68 0 0 0 3.32 1.375h18.78a4.69 4.69 0 0 0 4.69-4.694m-3.65-43.156a4.68 4.68 0 0 0-3.32-1.376 4.7 4.7 0 0 0-4.7 4.697c0 1.246.5 2.441 1.38 3.322l13.28 13.274a4.7 4.7 0 0 0 3.29 1.291 4.68 4.68 0 0 0 3.26-1.375 4.7 4.7 0 0 0 1.38-3.26 4.73 4.73 0 0 0-1.29-3.293z"/><path fill="#a0a0a0" d="M1018.96 590.58q0-3.885 1.89-5.46c1.26-1.05 2.77-1.575 4.52-1.575q2.73 0 4.62 1.575c1.33 1.05 1.99 2.87 1.99 5.46 0 2.52-.66 4.34-1.99 5.46q-1.89 1.68-4.62 1.68c-1.75 0-3.26-.56-4.52-1.68q-1.89-1.68-1.89-5.46M992.965 590.58q0-3.885 1.89-5.46t4.515-1.575q2.73 0 4.62 1.575c1.33 1.05 2 2.87 2 5.46 0 2.52-.67 4.34-2 5.46q-1.89 1.68-4.62 1.68-2.625 0-4.515-1.68t-1.89-5.46M966.969 590.58q0-3.885 1.89-5.46t4.515-1.575q2.73 0 4.62 1.575 1.995 1.575 1.995 5.46 0 3.78-1.995 5.46-1.89 1.68-4.62 1.68-2.625 0-4.515-1.68t-1.89-5.46M925.785 538.92q5.565 0 9.975 2.1 4.515 2.1 7.665 6.405h.525l1.26-7.455h7.35v57.225q0 7.98-2.73 13.335-2.73 5.46-8.295 8.19t-14.175 2.73q-6.09 0-11.235-.945-5.04-.84-9.03-2.625v-8.505q2.73 1.365 5.985 2.31 3.255 1.05 7.035 1.575t7.77.525q7.245 0 11.34-4.305 4.2-4.2 4.2-11.55v-2.205q0-1.26.105-3.57.105-2.415.21-3.36h-.42q-2.94 4.305-7.35 6.405-4.305 2.1-10.08 2.1-10.92 0-17.115-7.665-6.09-7.665-6.09-21.42 0-9.03 2.73-15.54 2.835-6.615 7.98-10.185t12.39-3.57m1.26 7.77q-4.725 0-8.085 2.52-3.255 2.52-5.04 7.35-1.68 4.83-1.68 11.76 0 10.395 3.78 15.96 3.885 5.46 11.235 5.46 4.305 0 7.35-1.05 3.045-1.155 5.04-3.465 1.995-2.415 2.94-6.09t.945-8.715v-2.205q0-7.665-1.785-12.39-1.68-4.725-5.355-6.93t-9.345-2.205M870.118 538.92q10.08 0 15.225 4.935 5.145 4.83 5.145 15.75v36.645h-9.135v-36.015q0-6.825-3.045-10.185t-9.555-3.36q-9.345 0-12.915 5.25t-3.57 15.12v29.19h-9.24v-56.28h7.455l1.365 7.665h.525q1.89-2.94 4.62-4.83a20.2 20.2 0 0 1 6.195-2.94q3.36-.945 6.93-.945M827.297 539.97v56.28h-9.24v-56.28zm-4.515-21.105q2.1 0 3.675 1.47 1.68 1.365 1.68 4.41 0 2.94-1.68 4.41-1.575 1.47-3.675 1.47-2.31 0-3.885-1.47t-1.575-4.41q0-3.045 1.575-4.41 1.575-1.47 3.885-1.47M775.508 597.299q-10.5 0-16.8-7.245-6.3-7.35-6.3-21.84t6.3-21.84q6.405-7.455 16.905-7.455 4.41 0 7.665 1.155 3.255 1.05 5.67 2.94t4.095 4.2h.63q-.105-1.365-.42-3.99-.21-2.73-.21-4.305v-22.47h9.24v79.8h-7.455l-1.365-7.56h-.42q-1.68 2.415-4.095 4.41-2.415 1.89-5.775 3.045-3.255 1.155-7.665 1.155m1.47-7.665q8.925 0 12.495-4.83 3.675-4.935 3.675-14.805v-1.68q0-10.5-3.465-16.065-3.465-5.67-12.81-5.67-7.455 0-11.235 5.985-3.675 5.88-3.675 15.855 0 10.08 3.675 15.645 3.78 5.565 11.34 5.565M720.115 539.025q10.29 0 15.225 4.515t4.935 14.385v38.325h-6.72l-1.785-7.98h-.42q-2.415 3.045-5.04 5.145-2.52 1.995-5.88 2.94-3.255.945-7.98.945-5.04 0-9.135-1.785-3.99-1.785-6.3-5.46-2.31-3.78-2.31-9.45 0-8.4 6.615-12.915 6.615-4.62 20.37-5.04l9.555-.315v-3.36q0-7.035-3.045-9.765t-8.61-2.73q-4.41 0-8.4 1.365-3.99 1.26-7.455 2.94l-2.835-6.93q3.675-1.995 8.715-3.36 5.04-1.47 10.5-1.47m2.73 30.03q-10.5.42-14.595 3.36-3.99 2.94-3.99 8.295 0 4.725 2.835 6.93 2.94 2.205 7.455 2.205 7.14 0 11.865-3.885 4.725-3.99 4.725-12.18v-5.04zM686.256 568.005q0 7.035-1.89 12.495-1.785 5.355-5.25 9.135-3.36 3.78-8.295 5.775-4.83 1.89-10.815 1.89-5.565 0-10.29-1.89a23.26 23.26 0 0 1-8.19-5.775q-3.465-3.78-5.46-9.135-1.89-5.46-1.89-12.495 0-9.345 3.15-15.75 3.15-6.51 9.03-9.87 5.88-3.465 13.965-3.465 7.665 0 13.44 3.465 5.88 3.36 9.135 9.87 3.36 6.405 3.36 15.75m-42.525 0q0 6.615 1.68 11.55 1.785 4.83 5.46 7.455t9.345 2.625 9.345-2.625 5.355-7.455q1.785-4.935 1.785-11.55 0-6.72-1.785-11.445t-5.46-7.245q-3.57-2.625-9.345-2.625-8.61 0-12.495 5.67t-3.885 15.645M585.623 596.249v-74.97h9.45v66.57h32.76v8.4zM1920.66 538.92c3.71 0 7.03.7 9.97 2.1 3.01 1.4 5.57 3.535 7.67 6.405h.52l1.26-7.455h7.35v57.225q0 7.98-2.73 13.335c-1.82 3.64-4.58 6.37-8.29 8.19s-8.44 2.73-14.18 2.73c-4.06 0-7.8-.315-11.23-.945q-5.04-.84-9.03-2.625v-8.505c1.82.91 3.81 1.68 5.98 2.31 2.17.7 4.52 1.225 7.04 1.575q3.78.525 7.77.525 7.245 0 11.34-4.305 4.2-4.2 4.2-11.55v-2.205c0-.84.03-2.03.1-3.57q.105-2.415.21-3.36h-.42q-2.94 4.305-7.35 6.405-4.305 2.1-10.08 2.1c-7.28 0-12.98-2.555-17.11-7.665q-6.09-7.665-6.09-21.42 0-9.03 2.73-15.54 2.835-6.615 7.98-10.185t12.39-3.57m1.26 7.77c-3.15 0-5.85.84-8.09 2.52q-3.255 2.52-5.04 7.35-1.68 4.83-1.68 11.76 0 10.395 3.78 15.96c2.59 3.64 6.34 5.46 11.24 5.46q4.305 0 7.35-1.05 3.045-1.155 5.04-3.465 1.995-2.415 2.94-6.09c.63-2.45.94-5.355.94-8.715v-2.205c0-5.11-.59-9.24-1.78-12.39-1.12-3.15-2.91-5.46-5.36-6.93s-5.56-2.205-9.34-2.205M1864.99 538.92c6.72 0 11.8 1.645 15.23 4.935 3.43 3.22 5.14 8.47 5.14 15.75v36.645h-9.13v-36.015c0-4.55-1.02-7.945-3.05-10.185s-5.21-3.36-9.55-3.36c-6.23 0-10.54 1.75-12.92 5.25q-3.57 5.25-3.57 15.12v29.19h-9.24v-56.28h7.46l1.36 7.665h.53q1.89-2.94 4.62-4.83c1.89-1.33 3.95-2.31 6.19-2.94q3.36-.945 6.93-.945M1822.17 539.97v56.28h-9.24v-56.28zm-4.51-21.105c1.4 0 2.62.49 3.67 1.47q1.68 1.365 1.68 4.41 0 2.94-1.68 4.41c-1.05.98-2.27 1.47-3.67 1.47-1.54 0-2.84-.49-3.89-1.47s-1.57-2.45-1.57-4.41c0-2.03.52-3.5 1.57-4.41 1.05-.98 2.35-1.47 3.89-1.47M1770.38 597.299q-10.5 0-16.8-7.245-6.3-7.35-6.3-21.84t6.3-21.84c4.27-4.97 9.91-7.455 16.91-7.455 2.94 0 5.49.385 7.66 1.155q3.255 1.05 5.67 2.94c1.61 1.26 2.98 2.66 4.1 4.2h.63q-.105-1.365-.42-3.99-.21-2.73-.21-4.305v-22.47h9.24v79.8h-7.46l-1.36-7.56h-.42c-1.12 1.61-2.49 3.08-4.1 4.41-1.61 1.26-3.53 2.275-5.77 3.045-2.17.77-4.73 1.155-7.67 1.155m1.47-7.665c5.95 0 10.12-1.61 12.5-4.83 2.45-3.29 3.67-8.225 3.67-14.805v-1.68c0-7-1.15-12.355-3.46-16.065q-3.465-5.67-12.81-5.67c-4.97 0-8.72 1.995-11.24 5.985-2.45 3.92-3.67 9.205-3.67 15.855 0 6.72 1.22 11.935 3.67 15.645q3.78 5.565 11.34 5.565M1714.99 539.025c6.86 0 11.94 1.505 15.23 4.515s4.93 7.805 4.93 14.385v38.325h-6.72l-1.78-7.98h-.42q-2.415 3.045-5.04 5.145-2.52 1.995-5.88 2.94-3.255.945-7.98.945c-3.36 0-6.41-.595-9.14-1.785q-3.99-1.785-6.3-5.46-2.31-3.78-2.31-9.45c0-5.6 2.21-9.905 6.62-12.915q6.615-4.62 20.37-5.04l9.55-.315v-3.36c0-4.69-1.01-7.945-3.04-9.765q-3.045-2.73-8.61-2.73-4.41 0-8.4 1.365c-2.66.84-5.15 1.82-7.46 2.94l-2.83-6.93c2.45-1.33 5.35-2.45 8.71-3.36q5.04-1.47 10.5-1.47m2.73 30.03c-7 .28-11.86 1.4-14.59 3.36q-3.99 2.94-3.99 8.295c0 3.15.94 5.46 2.83 6.93 1.96 1.47 4.45 2.205 7.46 2.205 4.76 0 8.71-1.295 11.86-3.885 3.15-2.66 4.73-6.72 4.73-12.18v-5.04zM1681.13 568.005q0 7.035-1.89 12.495-1.785 5.355-5.25 9.135c-2.24 2.52-5 4.445-8.29 5.775-3.22 1.26-6.83 1.89-10.82 1.89q-5.565 0-10.29-1.89a23.26 23.26 0 0 1-8.19-5.775q-3.465-3.78-5.46-9.135-1.89-5.46-1.89-12.495 0-9.345 3.15-15.75 3.15-6.51 9.03-9.87c3.92-2.31 8.58-3.465 13.97-3.465q7.665 0 13.44 3.465c3.92 2.24 6.96 5.53 9.13 9.87q3.36 6.405 3.36 15.75m-42.52 0q0 6.615 1.68 11.55 1.785 4.83 5.46 7.455c2.45 1.75 5.56 2.625 9.34 2.625s6.9-.875 9.35-2.625 4.23-4.235 5.35-7.455c1.19-3.29 1.79-7.14 1.79-11.55 0-4.48-.6-8.295-1.79-11.445q-1.785-4.725-5.46-7.245c-2.38-1.75-5.49-2.625-9.34-2.625-5.74 0-9.91 1.89-12.5 5.67s-3.88 8.995-3.88 15.645M1580.5 596.249v-74.97h9.45v66.57h32.76v8.4zM1018.96 803.205q0-3.885 1.89-5.46c1.26-1.05 2.77-1.575 4.52-1.575q2.73 0 4.62 1.575c1.33 1.05 1.99 2.87 1.99 5.46 0 2.52-.66 4.34-1.99 5.46q-1.89 1.68-4.62 1.68c-1.75 0-3.26-.56-4.52-1.68q-1.89-1.68-1.89-5.46M992.965 803.205q0-3.885 1.89-5.46t4.515-1.575q2.73 0 4.62 1.575c1.33 1.05 2 2.87 2 5.46 0 2.52-.67 4.34-2 5.46q-1.89 1.68-4.62 1.68-2.625 0-4.515-1.68t-1.89-5.46M966.969 803.205q0-3.885 1.89-5.46t4.515-1.575q2.73 0 4.62 1.575 1.995 1.575 1.995 5.46 0 3.78-1.995 5.46-1.89 1.68-4.62 1.68-2.625 0-4.515-1.68t-1.89-5.46M925.785 751.545q5.565 0 9.975 2.1 4.515 2.1 7.665 6.405h.525l1.26-7.455h7.35v57.225q0 7.98-2.73 13.335-2.73 5.46-8.295 8.19t-14.175 2.73q-6.09 0-11.235-.945-5.04-.84-9.03-2.625V822q2.73 1.365 5.985 2.31 3.255 1.05 7.035 1.575t7.77.525q7.245 0 11.34-4.305 4.2-4.2 4.2-11.55v-2.205q0-1.26.105-3.57.105-2.415.21-3.36h-.42q-2.94 4.305-7.35 6.405-4.305 2.1-10.08 2.1-10.92 0-17.115-7.665-6.09-7.665-6.09-21.42 0-9.03 2.73-15.54 2.835-6.615 7.98-10.185t12.39-3.57m1.26 7.77q-4.725 0-8.085 2.52-3.255 2.52-5.04 7.35-1.68 4.83-1.68 11.76 0 10.395 3.78 15.96 3.885 5.46 11.235 5.46 4.305 0 7.35-1.05 3.045-1.155 5.04-3.465 1.995-2.415 2.94-6.09t.945-8.715v-2.205q0-7.665-1.785-12.39-1.68-4.725-5.355-6.93t-9.345-2.205M870.118 751.545q10.08 0 15.225 4.935 5.145 4.83 5.145 15.75v36.645h-9.135V772.86q0-6.825-3.045-10.185t-9.555-3.36q-9.345 0-12.915 5.25t-3.57 15.12v29.19h-9.24v-56.28h7.455l1.365 7.665h.525q1.89-2.94 4.62-4.83a20.2 20.2 0 0 1 6.195-2.94q3.36-.945 6.93-.945M827.297 752.595v56.28h-9.24v-56.28zm-4.515-21.105q2.1 0 3.675 1.47 1.68 1.365 1.68 4.41 0 2.94-1.68 4.41-1.575 1.47-3.675 1.47-2.31 0-3.885-1.47t-1.575-4.41q0-3.045 1.575-4.41 1.575-1.47 3.885-1.47M775.508 809.924q-10.5 0-16.8-7.245-6.3-7.35-6.3-21.84t6.3-21.84q6.405-7.455 16.905-7.455 4.41 0 7.665 1.155 3.255 1.05 5.67 2.94t4.095 4.2h.63q-.105-1.365-.42-3.99-.21-2.73-.21-4.305v-22.47h9.24v79.8h-7.455l-1.365-7.56h-.42q-1.68 2.415-4.095 4.41-2.415 1.89-5.775 3.045-3.255 1.155-7.665 1.155m1.47-7.665q8.925 0 12.495-4.83 3.675-4.935 3.675-14.805v-1.68q0-10.5-3.465-16.065-3.465-5.67-12.81-5.67-7.455 0-11.235 5.985-3.675 5.88-3.675 15.855 0 10.08 3.675 15.645 3.78 5.565 11.34 5.565M720.115 751.65q10.29 0 15.225 4.515t4.935 14.385v38.325h-6.72l-1.785-7.98h-.42q-2.415 3.045-5.04 5.145-2.52 1.995-5.88 2.94-3.255.945-7.98.945-5.04 0-9.135-1.785-3.99-1.785-6.3-5.46-2.31-3.78-2.31-9.45 0-8.4 6.615-12.915 6.615-4.62 20.37-5.04l9.555-.315v-3.36q0-7.035-3.045-9.765t-8.61-2.73q-4.41 0-8.4 1.365-3.99 1.26-7.455 2.94l-2.835-6.93q3.675-1.995 8.715-3.36 5.04-1.47 10.5-1.47m2.73 30.03q-10.5.42-14.595 3.36-3.99 2.94-3.99 8.295 0 4.725 2.835 6.93 2.94 2.205 7.455 2.205 7.14 0 11.865-3.885 4.725-3.99 4.725-12.18v-5.04zM686.256 780.63q0 7.035-1.89 12.495-1.785 5.355-5.25 9.135-3.36 3.78-8.295 5.775-4.83 1.89-10.815 1.89-5.565 0-10.29-1.89a23.26 23.26 0 0 1-8.19-5.775q-3.465-3.78-5.46-9.135-1.89-5.46-1.89-12.495 0-9.345 3.15-15.75 3.15-6.51 9.03-9.87 5.88-3.465 13.965-3.465 7.665 0 13.44 3.465 5.88 3.36 9.135 9.87 3.36 6.405 3.36 15.75m-42.525 0q0 6.615 1.68 11.55 1.785 4.83 5.46 7.455t9.345 2.625 9.345-2.625 5.355-7.455q1.785-4.935 1.785-11.55 0-6.72-1.785-11.445t-5.46-7.245q-3.57-2.625-9.345-2.625-8.61 0-12.495 5.67t-3.885 15.645M585.623 808.874v-74.97h9.45v66.57h32.76v8.4zM1920.66 751.545c3.71 0 7.03.7 9.97 2.1 3.01 1.4 5.57 3.535 7.67 6.405h.52l1.26-7.455h7.35v57.225q0 7.98-2.73 13.335c-1.82 3.64-4.58 6.37-8.29 8.19s-8.44 2.73-14.18 2.73c-4.06 0-7.8-.315-11.23-.945q-5.04-.84-9.03-2.625V822c1.82.91 3.81 1.68 5.98 2.31 2.17.7 4.52 1.225 7.04 1.575q3.78.525 7.77.525 7.245 0 11.34-4.305 4.2-4.2 4.2-11.55v-2.205c0-.84.03-2.03.1-3.57q.105-2.415.21-3.36h-.42q-2.94 4.305-7.35 6.405-4.305 2.1-10.08 2.1c-7.28 0-12.98-2.555-17.11-7.665q-6.09-7.665-6.09-21.42 0-9.03 2.73-15.54 2.835-6.615 7.98-10.185t12.39-3.57m1.26 7.77c-3.15 0-5.85.84-8.09 2.52q-3.255 2.52-5.04 7.35-1.68 4.83-1.68 11.76 0 10.395 3.78 15.96c2.59 3.64 6.34 5.46 11.24 5.46q4.305 0 7.35-1.05 3.045-1.155 5.04-3.465 1.995-2.415 2.94-6.09c.63-2.45.94-5.355.94-8.715v-2.205c0-5.11-.59-9.24-1.78-12.39-1.12-3.15-2.91-5.46-5.36-6.93s-5.56-2.205-9.34-2.205M1864.99 751.545c6.72 0 11.8 1.645 15.23 4.935 3.43 3.22 5.14 8.47 5.14 15.75v36.645h-9.13V772.86c0-4.55-1.02-7.945-3.05-10.185s-5.21-3.36-9.55-3.36c-6.23 0-10.54 1.75-12.92 5.25q-3.57 5.25-3.57 15.12v29.19h-9.24v-56.28h7.46l1.36 7.665h.53q1.89-2.94 4.62-4.83c1.89-1.33 3.95-2.31 6.19-2.94q3.36-.945 6.93-.945M1822.17 752.595v56.28h-9.24v-56.28zm-4.51-21.105c1.4 0 2.62.49 3.67 1.47q1.68 1.365 1.68 4.41 0 2.94-1.68 4.41c-1.05.98-2.27 1.47-3.67 1.47-1.54 0-2.84-.49-3.89-1.47s-1.57-2.45-1.57-4.41c0-2.03.52-3.5 1.57-4.41 1.05-.98 2.35-1.47 3.89-1.47M1770.38 809.924q-10.5 0-16.8-7.245-6.3-7.35-6.3-21.84t6.3-21.84c4.27-4.97 9.91-7.455 16.91-7.455 2.94 0 5.49.385 7.66 1.155q3.255 1.05 5.67 2.94c1.61 1.26 2.98 2.66 4.1 4.2h.63q-.105-1.365-.42-3.99-.21-2.73-.21-4.305v-22.47h9.24v79.8h-7.46l-1.36-7.56h-.42c-1.12 1.61-2.49 3.08-4.1 4.41-1.61 1.26-3.53 2.275-5.77 3.045-2.17.77-4.73 1.155-7.67 1.155m1.47-7.665c5.95 0 10.12-1.61 12.5-4.83 2.45-3.29 3.67-8.225 3.67-14.805v-1.68c0-7-1.15-12.355-3.46-16.065q-3.465-5.67-12.81-5.67c-4.97 0-8.72 1.995-11.24 5.985-2.45 3.92-3.67 9.205-3.67 15.855 0 6.72 1.22 11.935 3.67 15.645q3.78 5.565 11.34 5.565M1714.99 751.65c6.86 0 11.94 1.505 15.23 4.515s4.93 7.805 4.93 14.385v38.325h-6.72l-1.78-7.98h-.42q-2.415 3.045-5.04 5.145-2.52 1.995-5.88 2.94-3.255.945-7.98.945c-3.36 0-6.41-.595-9.14-1.785q-3.99-1.785-6.3-5.46-2.31-3.78-2.31-9.45c0-5.6 2.21-9.905 6.62-12.915q6.615-4.62 20.37-5.04l9.55-.315v-3.36c0-4.69-1.01-7.945-3.04-9.765q-3.045-2.73-8.61-2.73-4.41 0-8.4 1.365c-2.66.84-5.15 1.82-7.46 2.94l-2.83-6.93c2.45-1.33 5.35-2.45 8.71-3.36q5.04-1.47 10.5-1.47m2.73 30.03c-7 .28-11.86 1.4-14.59 3.36q-3.99 2.94-3.99 8.295c0 3.15.94 5.46 2.83 6.93 1.96 1.47 4.45 2.205 7.46 2.205 4.76 0 8.71-1.295 11.86-3.885 3.15-2.66 4.73-6.72 4.73-12.18v-5.04zM1681.13 780.63q0 7.035-1.89 12.495-1.785 5.355-5.25 9.135c-2.24 2.52-5 4.445-8.29 5.775-3.22 1.26-6.83 1.89-10.82 1.89q-5.565 0-10.29-1.89a23.26 23.26 0 0 1-8.19-5.775q-3.465-3.78-5.46-9.135-1.89-5.46-1.89-12.495 0-9.345 3.15-15.75 3.15-6.51 9.03-9.87c3.92-2.31 8.58-3.465 13.97-3.465q7.665 0 13.44 3.465c3.92 2.24 6.96 5.53 9.13 9.87q3.36 6.405 3.36 15.75m-42.52 0q0 6.615 1.68 11.55 1.785 4.83 5.46 7.455c2.45 1.75 5.56 2.625 9.34 2.625s6.9-.875 9.35-2.625 4.23-4.235 5.35-7.455c1.19-3.29 1.79-7.14 1.79-11.55 0-4.48-.6-8.295-1.79-11.445q-1.785-4.725-5.46-7.245c-2.38-1.75-5.49-2.625-9.34-2.625-5.74 0-9.91 1.89-12.5 5.67s-3.88 8.995-3.88 15.645M1580.5 808.874v-74.97h9.45v66.57h32.76v8.4zM1018.96 1005.33q0-3.885 1.89-5.46c1.26-1.05 2.77-1.575 4.52-1.575q2.73 0 4.62 1.575c1.33 1.05 1.99 2.87 1.99 5.46 0 2.52-.66 4.34-1.99 5.46q-1.89 1.68-4.62 1.68c-1.75 0-3.26-.56-4.52-1.68q-1.89-1.68-1.89-5.46M992.965 1005.33q0-3.885 1.89-5.46t4.515-1.575q2.73 0 4.62 1.575c1.33 1.05 2 2.87 2 5.46 0 2.52-.67 4.34-2 5.46q-1.89 1.68-4.62 1.68-2.625 0-4.515-1.68t-1.89-5.46M966.969 1005.33q0-3.885 1.89-5.46t4.515-1.575q2.73 0 4.62 1.575 1.995 1.575 1.995 5.46 0 3.78-1.995 5.46-1.89 1.68-4.62 1.68-2.625 0-4.515-1.68t-1.89-5.46M925.785 953.67q5.565 0 9.975 2.1 4.515 2.1 7.665 6.405h.525l1.26-7.455h7.35v57.22c0 5.32-.91 9.77-2.73 13.34q-2.73 5.46-8.295 8.19t-14.175 2.73c-4.06 0-7.805-.32-11.235-.95-3.36-.56-6.37-1.43-9.03-2.62v-8.51q2.73 1.365 5.985 2.31c2.17.7 4.515 1.23 7.035 1.58s5.11.52 7.77.52c4.83 0 8.61-1.43 11.34-4.3q4.2-4.2 4.2-11.55v-2.21q0-1.26.105-3.57.105-2.415.21-3.36h-.42c-1.96 2.87-4.41 5.01-7.35 6.41q-4.305 2.1-10.08 2.1c-7.28 0-12.985-2.56-17.115-7.67q-6.09-7.659-6.09-21.415 0-9.03 2.73-15.54 2.835-6.615 7.98-10.185t12.39-3.57m1.26 7.77q-4.725 0-8.085 2.52-3.255 2.52-5.04 7.35-1.68 4.83-1.68 11.76 0 10.395 3.78 15.96 3.885 5.46 11.235 5.46 4.305 0 7.35-1.05c2.03-.77 3.71-1.93 5.04-3.465q1.995-2.415 2.94-6.09t.945-8.715v-2.205q0-7.665-1.785-12.39-1.68-4.725-5.355-6.93t-9.345-2.205M870.118 953.67q10.08 0 15.225 4.935 5.145 4.83 5.145 15.75V1011h-9.135v-36.015q0-6.825-3.045-10.185t-9.555-3.36q-9.345 0-12.915 5.25t-3.57 15.12V1011h-9.24v-56.28h7.455l1.365 7.665h.525q1.89-2.94 4.62-4.83a20.2 20.2 0 0 1 6.195-2.94q3.36-.945 6.93-.945M827.297 954.72V1011h-9.24v-56.28zm-4.515-21.105q2.1 0 3.675 1.47 1.68 1.365 1.68 4.41 0 2.94-1.68 4.41-1.575 1.47-3.675 1.47-2.31 0-3.885-1.47t-1.575-4.41q0-3.045 1.575-4.41 1.575-1.47 3.885-1.47M775.508 1012.05c-7 0-12.6-2.42-16.8-7.25q-6.3-7.345-6.3-21.836t6.3-21.84q6.405-7.455 16.905-7.455 4.41 0 7.665 1.155 3.255 1.05 5.67 2.94t4.095 4.2h.63q-.105-1.365-.42-3.99-.21-2.73-.21-4.305v-22.47h9.24V1011h-7.455l-1.365-7.56h-.42q-1.68 2.415-4.095 4.41c-1.61 1.26-3.535 2.27-5.775 3.04-2.17.77-4.725 1.16-7.665 1.16m1.47-7.67q8.925-.001 12.495-4.826 3.675-4.935 3.675-14.805v-1.68q0-10.5-3.465-16.065-3.465-5.67-12.81-5.67-7.455 0-11.235 5.985-3.675 5.88-3.675 15.855 0 10.08 3.675 15.645c2.52 3.711 6.3 5.561 11.34 5.561M720.115 953.775q10.29 0 15.225 4.515t4.935 14.385V1011h-6.72l-1.785-7.98h-.42c-1.61 2.03-3.29 3.75-5.04 5.15q-2.52 1.995-5.88 2.94c-2.17.63-4.83.94-7.98.94-3.36 0-6.405-.59-9.135-1.78q-3.99-1.785-6.3-5.46c-1.54-2.52-2.31-5.675-2.31-9.455q0-8.4 6.615-12.915 6.615-4.62 20.37-5.04l9.555-.315v-3.36q0-7.035-3.045-9.765t-8.61-2.73q-4.41 0-8.4 1.365-3.99 1.26-7.455 2.94l-2.835-6.93q3.675-1.995 8.715-3.36 5.04-1.47 10.5-1.47m2.73 30.03q-10.5.42-14.595 3.36-3.99 2.94-3.99 8.295 0 4.725 2.835 6.93c1.96 1.47 4.445 2.21 7.455 2.21 4.76 0 8.715-1.3 11.865-3.89q4.725-3.99 4.725-12.18v-5.04zM686.256 982.755q0 7.035-1.89 12.495c-1.19 3.57-2.94 6.61-5.25 9.13-2.24 2.52-5.005 4.45-8.295 5.78q-4.83 1.89-10.815 1.89-5.565 0-10.29-1.89a23.3 23.3 0 0 1-8.19-5.78c-2.31-2.52-4.13-5.56-5.46-9.13q-1.89-5.46-1.89-12.495 0-9.345 3.15-15.75 3.15-6.51 9.03-9.87 5.88-3.465 13.965-3.465 7.665 0 13.44 3.465 5.88 3.36 9.135 9.87 3.36 6.405 3.36 15.75m-42.525 0q0 6.615 1.68 11.55 1.785 4.83 5.46 7.455c2.45 1.75 5.565 2.62 9.345 2.62s6.895-.87 9.345-2.62q3.675-2.625 5.355-7.455 1.785-4.935 1.785-11.55 0-6.72-1.785-11.445t-5.46-7.245q-3.57-2.625-9.345-2.625-8.61 0-12.495 5.67t-3.885 15.645M585.623 1011v-74.971h9.45v66.571h32.76v8.4zM1920.66 953.67c3.71 0 7.03.7 9.97 2.1 3.01 1.4 5.57 3.535 7.67 6.405h.52l1.26-7.455h7.35v57.22c0 5.32-.91 9.77-2.73 13.34-1.82 3.64-4.58 6.37-8.29 8.19s-8.44 2.73-14.18 2.73c-4.06 0-7.8-.32-11.23-.95-3.36-.56-6.37-1.43-9.03-2.62v-8.51c1.82.91 3.81 1.68 5.98 2.31 2.17.7 4.52 1.23 7.04 1.58s5.11.52 7.77.52c4.83 0 8.61-1.43 11.34-4.3q4.2-4.2 4.2-11.55v-2.21c0-.84.03-2.03.1-3.57q.105-2.415.21-3.36h-.42c-1.96 2.87-4.41 5.01-7.35 6.41q-4.305 2.1-10.08 2.1c-7.28 0-12.98-2.56-17.11-7.67q-6.09-7.659-6.09-21.415 0-9.03 2.73-15.54 2.835-6.615 7.98-10.185t12.39-3.57m1.26 7.77c-3.15 0-5.85.84-8.09 2.52q-3.255 2.52-5.04 7.35-1.68 4.83-1.68 11.76 0 10.395 3.78 15.96c2.59 3.64 6.34 5.46 11.24 5.46q4.305 0 7.35-1.05c2.03-.77 3.71-1.93 5.04-3.465q1.995-2.415 2.94-6.09c.63-2.45.94-5.355.94-8.715v-2.205c0-5.11-.59-9.24-1.78-12.39-1.12-3.15-2.91-5.46-5.36-6.93s-5.56-2.205-9.34-2.205M1864.99 953.67c6.72 0 11.8 1.645 15.23 4.935 3.43 3.22 5.14 8.47 5.14 15.75V1011h-9.13v-36.015c0-4.55-1.02-7.945-3.05-10.185s-5.21-3.36-9.55-3.36c-6.23 0-10.54 1.75-12.92 5.25q-3.57 5.25-3.57 15.12V1011h-9.24v-56.28h7.46l1.36 7.665h.53q1.89-2.94 4.62-4.83c1.89-1.33 3.95-2.31 6.19-2.94q3.36-.945 6.93-.945M1822.17 954.72V1011h-9.24v-56.28zm-4.51-21.105c1.4 0 2.62.49 3.67 1.47q1.68 1.365 1.68 4.41 0 2.94-1.68 4.41c-1.05.98-2.27 1.47-3.67 1.47-1.54 0-2.84-.49-3.89-1.47s-1.57-2.45-1.57-4.41c0-2.03.52-3.5 1.57-4.41 1.05-.98 2.35-1.47 3.89-1.47M1770.38 1012.05c-7 0-12.6-2.42-16.8-7.25q-6.3-7.345-6.3-21.836t6.3-21.84c4.27-4.97 9.91-7.455 16.91-7.455 2.94 0 5.49.385 7.66 1.155q3.255 1.05 5.67 2.94c1.61 1.26 2.98 2.66 4.1 4.2h.63q-.105-1.365-.42-3.99-.21-2.73-.21-4.305v-22.47h9.24V1011h-7.46l-1.36-7.56h-.42c-1.12 1.61-2.49 3.08-4.1 4.41-1.61 1.26-3.53 2.27-5.77 3.04-2.17.77-4.73 1.16-7.67 1.16m1.47-7.67c5.95 0 10.12-1.61 12.5-4.826 2.45-3.29 3.67-8.225 3.67-14.805v-1.68c0-7-1.15-12.355-3.46-16.065q-3.465-5.67-12.81-5.67c-4.97 0-8.72 1.995-11.24 5.985-2.45 3.92-3.67 9.205-3.67 15.855 0 6.72 1.22 11.935 3.67 15.645 2.52 3.711 6.3 5.561 11.34 5.561M1714.99 953.775c6.86 0 11.94 1.505 15.23 4.515s4.93 7.805 4.93 14.385V1011h-6.72l-1.78-7.98h-.42c-1.61 2.03-3.29 3.75-5.04 5.15q-2.52 1.995-5.88 2.94c-2.17.63-4.83.94-7.98.94-3.36 0-6.41-.59-9.14-1.78q-3.99-1.785-6.3-5.46c-1.54-2.52-2.31-5.675-2.31-9.455 0-5.6 2.21-9.905 6.62-12.915q6.615-4.62 20.37-5.04l9.55-.315v-3.36c0-4.69-1.01-7.945-3.04-9.765q-3.045-2.73-8.61-2.73-4.41 0-8.4 1.365c-2.66.84-5.15 1.82-7.46 2.94l-2.83-6.93c2.45-1.33 5.35-2.45 8.71-3.36q5.04-1.47 10.5-1.47m2.73 30.03c-7 .28-11.86 1.4-14.59 3.36q-3.99 2.94-3.99 8.295c0 3.15.94 5.46 2.83 6.93 1.96 1.47 4.45 2.21 7.46 2.21 4.76 0 8.71-1.3 11.86-3.89 3.15-2.66 4.73-6.72 4.73-12.18v-5.04zM1681.13 982.755q0 7.035-1.89 12.495c-1.19 3.57-2.94 6.61-5.25 9.13-2.24 2.52-5 4.45-8.29 5.78-3.22 1.26-6.83 1.89-10.82 1.89q-5.565 0-10.29-1.89a23.3 23.3 0 0 1-8.19-5.78c-2.31-2.52-4.13-5.56-5.46-9.13q-1.89-5.46-1.89-12.495 0-9.345 3.15-15.75 3.15-6.51 9.03-9.87c3.92-2.31 8.58-3.465 13.97-3.465q7.665 0 13.44 3.465c3.92 2.24 6.96 5.53 9.13 9.87q3.36 6.405 3.36 15.75m-42.52 0q0 6.615 1.68 11.55 1.785 4.83 5.46 7.455c2.45 1.75 5.56 2.62 9.34 2.62s6.9-.87 9.35-2.62 4.23-4.235 5.35-7.455c1.19-3.29 1.79-7.14 1.79-11.55 0-4.48-.6-8.295-1.79-11.445q-1.785-4.725-5.46-7.245c-2.38-1.75-5.49-2.625-9.34-2.625-5.74 0-9.91 1.89-12.5 5.67s-3.88 8.995-3.88 15.645M1580.5 1011v-74.971h9.45v66.571h32.76v8.4z"/><path fill="#fff" stroke="#b4b4b4" stroke-width="1.313" d="M-593.344 870.656h967.312v208.688h-967.312zM-593.344 660.656h967.312v208.688h-967.312zM-593.344 450.656h967.312v208.688h-967.312z"/><path fill="#a0a0a0" d="M79.21 590.58q0-3.885 1.891-5.46 1.89-1.575 4.515-1.575 2.73 0 4.62 1.575 1.995 1.575 1.995 5.46 0 3.78-1.995 5.46-1.89 1.68-4.62 1.68-2.625 0-4.515-1.68t-1.89-5.46M53.215 590.58q0-3.885 1.89-5.46t4.515-1.575q2.73 0 4.62 1.575 1.995 1.575 1.995 5.46 0 3.78-1.995 5.46-1.89 1.68-4.62 1.68-2.625 0-4.515-1.68t-1.89-5.46M27.22 590.58q0-3.885 1.89-5.46t4.514-1.575q2.73 0 4.62 1.575 1.995 1.575 1.995 5.46 0 3.78-1.995 5.46-1.89 1.68-4.62 1.68-2.625 0-4.515-1.68t-1.89-5.46M-13.965 538.92q5.565 0 9.975 2.1 4.515 2.1 7.665 6.405H4.2l1.26-7.455h7.35v57.225q0 7.98-2.73 13.335-2.73 5.46-8.295 8.19t-14.175 2.73q-6.09 0-11.235-.945-5.04-.84-9.03-2.625v-8.505q2.73 1.365 5.985 2.31 3.255 1.05 7.035 1.575t7.77.525q7.245 0 11.34-4.305 4.2-4.2 4.2-11.55v-2.205q0-1.26.105-3.57.105-2.415.21-3.36h-.42Q.63 593.1-3.78 595.2q-4.305 2.1-10.08 2.1-10.92 0-17.115-7.665-6.09-7.665-6.09-21.42 0-9.03 2.73-15.54 2.835-6.615 7.98-10.185t12.39-3.57m1.26 7.77q-4.725 0-8.085 2.52-3.255 2.52-5.04 7.35-1.68 4.83-1.68 11.76 0 10.395 3.78 15.96 3.885 5.46 11.235 5.46 4.305 0 7.35-1.05 3.045-1.155 5.04-3.465 1.995-2.415 2.94-6.09t.945-8.715v-2.205q0-7.665-1.785-12.39-1.68-4.725-5.355-6.93t-9.345-2.205M79.21 803.205q0-3.885 1.891-5.46 1.89-1.575 4.515-1.575 2.73 0 4.62 1.575 1.995 1.575 1.995 5.46 0 3.78-1.995 5.46-1.89 1.68-4.62 1.68-2.625 0-4.515-1.68t-1.89-5.46M53.215 803.205q0-3.885 1.89-5.46t4.515-1.575q2.73 0 4.62 1.575 1.995 1.575 1.995 5.46 0 3.78-1.995 5.46-1.89 1.68-4.62 1.68-2.625 0-4.515-1.68t-1.89-5.46M27.22 803.205q0-3.885 1.89-5.46t4.514-1.575q2.73 0 4.62 1.575 1.995 1.575 1.995 5.46 0 3.78-1.995 5.46-1.89 1.68-4.62 1.68-2.625 0-4.515-1.68t-1.89-5.46M-13.965 751.545q5.565 0 9.975 2.1 4.515 2.1 7.665 6.405H4.2l1.26-7.455h7.35v57.225q0 7.98-2.73 13.335-2.73 5.46-8.295 8.19t-14.175 2.73q-6.09 0-11.235-.945-5.04-.84-9.03-2.625V822q2.73 1.365 5.985 2.31 3.255 1.05 7.035 1.575t7.77.525q7.245 0 11.34-4.305 4.2-4.2 4.2-11.55v-2.205q0-1.26.105-3.57.105-2.415.21-3.36h-.42q-2.94 4.305-7.35 6.405-4.305 2.1-10.08 2.1-10.92 0-17.115-7.665-6.09-7.665-6.09-21.42 0-9.03 2.73-15.54 2.835-6.615 7.98-10.185t12.39-3.57m1.26 7.77q-4.725 0-8.085 2.52-3.255 2.52-5.04 7.35-1.68 4.83-1.68 11.76 0 10.395 3.78 15.96 3.885 5.46 11.235 5.46 4.305 0 7.35-1.05 3.045-1.155 5.04-3.465 1.995-2.415 2.94-6.09t.945-8.715v-2.205q0-7.665-1.785-12.39-1.68-4.725-5.355-6.93t-9.345-2.205M79.21 1005.33q0-3.885 1.891-5.46 1.89-1.575 4.515-1.575 2.73 0 4.62 1.575 1.995 1.575 1.995 5.46 0 3.78-1.995 5.46-1.89 1.68-4.62 1.68-2.625 0-4.515-1.68t-1.89-5.46M53.215 1005.33q0-3.885 1.89-5.46t4.515-1.575q2.73 0 4.62 1.575 1.995 1.575 1.995 5.46 0 3.78-1.995 5.46-1.89 1.68-4.62 1.68-2.625 0-4.515-1.68t-1.89-5.46M27.22 1005.33q0-3.885 1.89-5.46t4.514-1.575q2.73 0 4.62 1.575 1.995 1.575 1.995 5.46 0 3.78-1.995 5.46-1.89 1.68-4.62 1.68-2.625 0-4.515-1.68t-1.89-5.46M-13.965 953.67q5.565 0 9.975 2.1 4.515 2.1 7.665 6.405H4.2l1.26-7.455h7.35v57.22c0 5.32-.91 9.77-2.73 13.34q-2.73 5.46-8.295 8.19t-14.175 2.73c-4.06 0-7.805-.32-11.235-.95-3.36-.56-6.37-1.43-9.03-2.62v-8.51q2.73 1.365 5.985 2.31c2.17.7 4.515 1.23 7.035 1.58s5.11.52 7.77.52c4.83 0 8.61-1.43 11.34-4.3q4.2-4.2 4.2-11.55v-2.21q0-1.26.105-3.57.105-2.415.21-3.36h-.42c-1.96 2.87-4.41 5.01-7.35 6.41q-4.305 2.1-10.08 2.1c-7.28 0-12.985-2.56-17.115-7.67q-6.09-7.659-6.09-21.415 0-9.03 2.73-15.54 2.835-6.615 7.98-10.185t12.39-3.57m1.26 7.77q-4.725 0-8.085 2.52-3.255 2.52-5.04 7.35-1.68 4.83-1.68 11.76 0 10.395 3.78 15.96 3.885 5.46 11.235 5.46 4.305 0 7.35-1.05c2.03-.77 3.71-1.93 5.04-3.465q1.995-2.415 2.94-6.09t.945-8.715v-2.205q0-7.665-1.785-12.39-1.68-4.725-5.355-6.93t-9.345-2.205"/></g><defs><clipPath id="a"><path fill="#fff" d="M0 0h1920v1080H0z"/></clipPath></defs></svg>