<svg width="1920" height="1080" viewBox="0 0 1920 1080" fill="none" xmlns="http://www.w3.org/2000/svg">
<g clip-path="url(#clip0_2100_316)">
<mask id="path-1-inside-1_2100_316" fill="white">
<path d="M369.375 259.688C369.375 248.814 378.189 240 389.062 240H1550.63C1561.5 240 1570.31 248.814 1570.31 259.688V450H369.375V259.688Z"/>
</mask>
<path d="M369.375 259.688C369.375 248.814 378.189 240 389.062 240H1550.63C1561.5 240 1570.31 248.814 1570.31 259.688V450H369.375V259.688Z" fill="black"/>
<path d="M368.062 259.688C368.062 248.09 377.465 238.688 389.062 238.688H1550.62C1562.22 238.688 1571.62 248.09 1571.62 259.688H1569C1569 249.539 1560.77 241.312 1550.62 241.312H389.062C378.914 241.312 370.688 249.539 370.688 259.688H368.062ZM1570.31 450H369.375H1570.31ZM368.062 450V259.688C368.062 248.09 377.465 238.688 389.062 238.688V241.312C378.914 241.312 370.688 249.539 370.688 259.688V450H368.062ZM1550.62 238.688C1562.22 238.688 1571.62 248.09 1571.62 259.688V450H1569V259.688C1569 249.539 1560.77 241.312 1550.62 241.312V238.688Z" fill="#B4B4B4" mask="url(#path-1-inside-1_2100_316)"/>
<mask id="path-3-inside-2_2100_316" fill="white">
<path d="M369.375 450H1338V660H369.375V450Z"/>
</mask>
<path d="M369.375 450H1338V660H369.375V450Z" fill="black"/>
<path d="M369.375 450V448.688H368.062V450H369.375ZM1338 450H1339.31V448.688H1338V450ZM1338 660V661.312H1339.31V660H1338ZM369.375 660H368.062V661.312H369.375V660ZM369.375 450V451.312H1338V450V448.688H369.375V450ZM1338 450H1336.69V660H1338H1339.31V450H1338ZM1338 660V658.688H369.375V660V661.312H1338V660ZM369.375 660H370.688V450H369.375H368.062V660H369.375Z" fill="#B4B4B4" mask="url(#path-3-inside-2_2100_316)"/>
<rect x="1338.66" y="450.656" width="967.312" height="208.688" fill="black" stroke="#B4B4B4" stroke-width="1.3125"/>
<rect x="370.031" y="660.656" width="967.312" height="208.688" fill="black" stroke="#B4B4B4" stroke-width="1.3125"/>
<rect x="1338.66" y="660.656" width="967.312" height="208.688" fill="black" stroke="#B4B4B4" stroke-width="1.3125"/>
<rect x="370.031" y="870.656" width="967.312" height="208.688" fill="black" stroke="#B4B4B4" stroke-width="1.3125"/>
<rect x="1338.66" y="870.656" width="967.312" height="208.688" fill="black" stroke="#B4B4B4" stroke-width="1.3125"/>
<path d="M1338.48 385.938H1313.82V382.554C1314.61 382.485 1315.44 382.417 1316.33 382.349C1317.22 382.246 1317.96 382.109 1318.54 381.938C1319.49 381.631 1320.21 381.101 1320.69 380.349C1321.17 379.563 1321.41 378.555 1321.41 377.324V318.774C1321.41 317.544 1321.13 316.399 1320.59 315.339C1320.07 314.246 1319.39 313.391 1318.54 312.776C1317.92 312.366 1316.79 311.99 1315.15 311.648C1313.51 311.306 1312.2 311.101 1311.2 311.033V307.751L1330.23 306.572L1330.94 307.341V376.709C1330.94 377.905 1331.17 378.896 1331.61 379.683C1332.05 380.435 1332.77 381.016 1333.76 381.426C1334.52 381.768 1335.25 382.024 1335.97 382.195C1336.72 382.366 1337.56 382.485 1338.48 382.554V385.938Z" fill="white"/>
<path d="M1310.69 385.937H1286.23V382.553C1287.02 382.485 1287.82 382.417 1288.64 382.348C1289.5 382.28 1290.23 382.143 1290.85 381.938C1291.81 381.63 1292.51 381.101 1292.95 380.349C1293.43 379.562 1293.67 378.554 1293.67 377.324V346.101C1293.67 345.007 1293.41 344.016 1292.9 343.127C1292.42 342.204 1291.74 341.435 1290.85 340.82C1290.2 340.41 1289.26 340.068 1288.03 339.794C1286.8 339.487 1285.67 339.299 1284.64 339.23V335.898L1302.49 334.77L1303.2 335.488V376.708C1303.2 377.905 1303.43 378.896 1303.87 379.682C1304.35 380.468 1305.08 381.049 1306.08 381.425C1306.83 381.733 1307.56 381.989 1308.28 382.194C1309 382.365 1309.8 382.485 1310.69 382.553V385.937ZM1304.23 314.826C1304.23 316.774 1303.58 318.483 1302.28 319.953C1301.02 321.389 1299.44 322.106 1297.56 322.106C1295.82 322.106 1294.3 321.423 1293 320.056C1291.74 318.654 1291.1 317.065 1291.1 315.288C1291.1 313.408 1291.74 311.767 1293 310.366C1294.3 308.964 1295.82 308.264 1297.56 308.264C1299.51 308.264 1301.1 308.93 1302.33 310.263C1303.6 311.562 1304.23 313.083 1304.23 314.826Z" fill="white"/>
<path d="M1283.21 385.014C1281.6 385.595 1280.18 386.056 1278.95 386.398C1277.76 386.774 1276.39 386.962 1274.85 386.962C1272.18 386.962 1270.05 386.347 1268.44 385.116C1266.87 383.852 1265.86 382.023 1265.42 379.63H1265.11C1262.89 382.091 1260.49 383.971 1257.93 385.27C1255.4 386.569 1252.34 387.218 1248.75 387.218C1244.96 387.218 1241.83 386.056 1239.37 383.732C1236.95 381.408 1235.73 378.366 1235.73 374.606C1235.73 372.658 1236.01 370.915 1236.55 369.376C1237.1 367.838 1237.92 366.454 1239.01 365.224C1239.87 364.198 1241 363.292 1242.4 362.506C1243.8 361.686 1245.11 361.037 1246.34 360.558C1247.88 359.977 1250.99 358.9 1255.68 357.328C1260.39 355.756 1263.57 354.525 1265.21 353.637V348.561C1265.21 348.117 1265.11 347.262 1264.9 345.998C1264.73 344.733 1264.34 343.537 1263.72 342.409C1263.04 341.144 1262.07 340.05 1260.8 339.127C1259.57 338.17 1257.81 337.692 1255.52 337.692C1253.95 337.692 1252.48 337.965 1251.11 338.512C1249.78 339.025 1248.84 339.572 1248.29 340.153C1248.29 340.836 1248.45 341.845 1248.75 343.178C1249.1 344.511 1249.27 345.741 1249.27 346.869C1249.27 348.065 1248.72 349.159 1247.63 350.15C1246.57 351.142 1245.08 351.637 1243.17 351.637C1241.46 351.637 1240.19 351.039 1239.37 349.843C1238.59 348.612 1238.19 347.245 1238.19 345.741C1238.19 344.169 1238.74 342.665 1239.83 341.229C1240.96 339.794 1242.41 338.512 1244.19 337.384C1245.73 336.427 1247.59 335.624 1249.78 334.975C1251.97 334.291 1254.1 333.949 1256.19 333.949C1259.06 333.949 1261.55 334.154 1263.67 334.564C1265.83 334.94 1267.78 335.778 1269.52 337.077C1271.26 338.341 1272.58 340.067 1273.47 342.255C1274.39 344.408 1274.85 347.194 1274.85 350.612C1274.85 355.5 1274.8 359.84 1274.7 363.634C1274.59 367.394 1274.54 371.513 1274.54 375.99C1274.54 377.323 1274.76 378.383 1275.21 379.169C1275.69 379.955 1276.41 380.622 1277.36 381.168C1277.88 381.476 1278.68 381.647 1279.77 381.681C1280.9 381.715 1282.05 381.732 1283.21 381.732V385.014ZM1265.31 357.943C1262.41 358.798 1259.86 359.635 1257.68 360.456C1255.49 361.276 1253.45 362.301 1251.57 363.532C1249.86 364.694 1248.51 366.078 1247.52 367.685C1246.53 369.257 1246.04 371.137 1246.04 373.324C1246.04 376.161 1246.77 378.246 1248.24 379.579C1249.75 380.912 1251.64 381.579 1253.93 381.579C1256.36 381.579 1258.5 380.998 1260.34 379.835C1262.19 378.639 1263.74 377.238 1265.01 375.631L1265.31 357.943Z" fill="white"/>
<path d="M1231.53 385.938H1206.86V382.554C1207.65 382.486 1208.44 382.417 1209.22 382.349C1210.04 382.281 1210.76 382.144 1211.38 381.939C1212.33 381.631 1213.03 381.102 1213.48 380.35C1213.96 379.563 1214.2 378.555 1214.2 377.325V351.229C1214.2 347.674 1213.38 344.939 1211.74 343.025C1210.13 341.077 1208.11 340.103 1205.69 340.103C1204.01 340.103 1202.44 340.359 1200.97 340.872C1199.5 341.385 1198.15 342.103 1196.92 343.025C1195.93 343.777 1195.09 344.598 1194.41 345.486C1193.76 346.341 1193.26 347.059 1192.92 347.64V376.812C1192.92 378.008 1193.12 379 1193.53 379.786C1193.94 380.538 1194.65 381.119 1195.64 381.529C1196.42 381.836 1197.12 382.076 1197.74 382.247C1198.39 382.383 1199.23 382.486 1200.25 382.554V385.938H1176.1V382.554C1176.89 382.486 1177.64 382.417 1178.36 382.349C1179.11 382.281 1179.79 382.144 1180.41 381.939C1181.37 381.631 1182.07 381.102 1182.51 380.35C1182.99 379.563 1183.23 378.555 1183.23 377.325V351.229C1183.23 347.674 1182.41 344.939 1180.77 343.025C1179.16 341.077 1177.15 340.103 1174.72 340.103C1173.04 340.103 1171.47 340.376 1170 340.923C1168.53 341.436 1167.18 342.154 1165.95 343.077C1164.96 343.829 1164.12 344.683 1163.44 345.64C1162.76 346.563 1162.24 347.264 1161.9 347.742V376.709C1161.9 377.872 1162.14 378.846 1162.62 379.632C1163.1 380.418 1163.82 381.016 1164.77 381.426C1165.49 381.768 1166.23 382.024 1166.98 382.195C1167.73 382.366 1168.57 382.486 1169.49 382.554V385.938H1144.93V382.554C1145.72 382.486 1146.52 382.417 1147.34 382.349C1148.2 382.281 1148.93 382.144 1149.55 381.939C1150.5 381.631 1151.2 381.102 1151.65 380.35C1152.13 379.563 1152.37 378.555 1152.37 377.325V345.896C1152.37 344.803 1152.11 343.829 1151.6 342.974C1151.12 342.085 1150.43 341.333 1149.55 340.718C1148.9 340.308 1148.09 339.983 1147.14 339.744C1146.18 339.471 1145.19 339.3 1144.16 339.231V335.899L1161.08 334.771L1161.8 335.489V342.718H1162.16C1163.01 341.863 1164.05 340.855 1165.29 339.693C1166.52 338.531 1167.66 337.591 1168.72 336.873C1169.92 336.053 1171.4 335.369 1173.18 334.822C1174.99 334.275 1176.94 334.002 1179.03 334.002C1182.31 334.002 1185.13 334.891 1187.48 336.668C1189.84 338.411 1191.54 340.53 1192.56 343.025C1193.79 341.829 1194.87 340.787 1195.79 339.898C1196.75 338.975 1198 338.001 1199.53 336.976C1200.83 336.087 1202.35 335.369 1204.1 334.822C1205.87 334.275 1207.84 334.002 1209.99 334.002C1214.26 334.002 1217.65 335.403 1220.14 338.206C1222.64 341.009 1223.89 345.315 1223.89 351.126V376.812C1223.89 378.008 1224.09 379 1224.5 379.786C1224.91 380.538 1225.61 381.119 1226.6 381.529C1227.39 381.836 1228.16 382.076 1228.91 382.247C1229.7 382.383 1230.57 382.486 1231.53 382.554V385.938Z" fill="white"/>
<path d="M1141.19 374.042C1139.07 378.075 1136.23 381.288 1132.68 383.681C1129.12 386.073 1125.04 387.27 1120.42 387.27C1116.35 387.27 1112.78 386.552 1109.71 385.116C1106.67 383.681 1104.15 381.732 1102.17 379.271C1100.19 376.811 1098.7 373.939 1097.71 370.658C1096.75 367.377 1096.27 363.908 1096.27 360.25C1096.27 356.969 1096.79 353.756 1097.81 350.612C1098.87 347.433 1100.41 344.579 1102.43 342.05C1104.38 339.623 1106.78 337.675 1109.66 336.205C1112.56 334.701 1115.81 333.949 1119.4 333.949C1123.09 333.949 1126.25 334.53 1128.88 335.692C1131.51 336.854 1133.65 338.444 1135.29 340.46C1136.86 342.375 1138.02 344.63 1138.78 347.228C1139.56 349.826 1139.96 352.646 1139.96 355.688V359.071H1106.48C1106.48 362.387 1106.78 365.395 1107.4 368.095C1108.05 370.795 1109.06 373.17 1110.42 375.221C1111.76 377.204 1113.5 378.776 1115.65 379.938C1117.81 381.066 1120.37 381.63 1123.34 381.63C1126.39 381.63 1129 380.929 1131.19 379.528C1133.41 378.092 1135.55 375.529 1137.6 371.837L1141.19 374.042ZM1129.86 354.765C1129.86 352.851 1129.69 350.8 1129.34 348.612C1129.04 346.425 1128.52 344.596 1127.81 343.126C1127.02 341.554 1125.94 340.272 1124.58 339.281C1123.21 338.29 1121.45 337.794 1119.29 337.794C1115.71 337.794 1112.71 339.298 1110.32 342.306C1107.96 345.28 1106.68 349.433 1106.48 354.765H1129.86Z" fill="white"/>
<path d="M1072.43 385.938H1057.15C1054.49 382.075 1051.63 377.939 1048.59 373.53C1045.55 369.121 1042.39 364.832 1039.1 360.662L1034.9 364.609V376.606C1034.9 377.837 1035.12 378.862 1035.57 379.683C1036.01 380.469 1036.73 381.05 1037.72 381.426C1038.54 381.768 1039.33 382.024 1040.08 382.195C1040.83 382.366 1041.7 382.485 1042.69 382.554V385.938H1017.88V382.554C1018.67 382.485 1019.49 382.417 1020.34 382.349C1021.19 382.246 1021.91 382.109 1022.49 381.938C1023.45 381.631 1024.17 381.101 1024.65 380.349C1025.13 379.563 1025.36 378.555 1025.36 377.324V318.569C1025.36 317.305 1025.09 316.125 1024.54 315.032C1024.03 313.904 1023.35 313.049 1022.49 312.468C1021.78 311.921 1020.65 311.562 1019.11 311.392C1017.61 311.221 1016.39 311.101 1015.47 311.033V307.751L1034.18 306.572L1034.9 307.341V360.815C1037.57 358.149 1040.44 355.295 1043.51 352.253C1046.62 349.177 1049.24 346.443 1051.36 344.05C1051.63 343.743 1051.92 343.35 1052.23 342.871C1052.57 342.358 1052.74 341.948 1052.74 341.641C1052.74 340.718 1051.99 340.034 1050.49 339.59C1049.02 339.146 1047.6 338.838 1046.23 338.667V335.386H1068.48V338.564C1065.61 339.419 1063.06 340.496 1060.84 341.794C1058.66 343.059 1056.98 344.204 1055.82 345.229C1055 345.913 1053.84 347.024 1052.33 348.562C1050.83 350.1 1048.73 352.117 1046.03 354.612C1048.83 358.064 1051.97 362.2 1055.46 367.019C1058.98 371.838 1061.54 375.325 1063.15 377.478C1064.65 379.495 1066 380.811 1067.2 381.426C1068.4 382.041 1070.14 382.417 1072.43 382.554V385.938Z" fill="white"/>
<path d="M1016.6 341.898C1016.6 343.641 1016.17 345.196 1015.31 346.563C1014.46 347.896 1013.14 348.563 1011.37 348.563C1009.45 348.563 1007.98 348.067 1006.96 347.076C1005.97 346.085 1005.47 344.991 1005.47 343.795C1005.47 343.043 1005.52 342.359 1005.62 341.744C1005.76 341.129 1005.88 340.514 1005.98 339.898C1004.38 339.898 1002.5 340.548 1000.34 341.847C998.19 343.146 996.361 344.991 994.857 347.384V376.812C994.857 378.009 995.079 378.983 995.524 379.735C996.002 380.487 996.737 381.051 997.728 381.427C998.583 381.769 999.677 382.025 1001.01 382.196C1002.38 382.367 1003.56 382.486 1004.55 382.555V385.938H977.887V382.555C978.673 382.486 979.476 382.418 980.297 382.35C981.151 382.281 981.886 382.145 982.501 381.939C983.458 381.632 984.159 381.102 984.603 380.35C985.082 379.564 985.321 378.556 985.321 377.325V346.102C985.321 345.042 985.065 344 984.552 342.975C984.073 341.949 983.39 341.129 982.501 340.514C981.852 340.104 981.083 339.813 980.194 339.642C979.305 339.437 978.348 339.3 977.323 339.232V335.899L994.139 334.771L994.857 335.489V342.616H995.114C997.233 339.847 999.591 337.745 1002.19 336.31C1004.79 334.874 1007.16 334.156 1009.32 334.156C1011.47 334.156 1013.21 334.857 1014.54 336.258C1015.91 337.66 1016.6 339.54 1016.6 341.898Z" fill="white"/>
<path d="M972.655 360.148C972.655 363.703 972.091 367.206 970.963 370.658C969.835 374.076 968.229 376.981 966.144 379.374C963.786 382.108 961.051 384.142 957.941 385.475C954.831 386.808 951.344 387.475 947.482 387.475C944.269 387.475 941.21 386.876 938.305 385.68C935.399 384.45 932.819 382.672 930.563 380.348C928.341 378.058 926.564 375.272 925.231 371.991C923.932 368.676 923.283 364.967 923.283 360.866C923.283 352.97 925.573 346.51 930.153 341.486C934.767 336.461 940.8 333.949 948.251 333.949C955.326 333.949 961.154 336.342 965.734 341.127C970.348 345.878 972.655 352.218 972.655 360.148ZM962.042 360.25C962.042 357.687 961.786 354.987 961.273 352.15C960.761 349.279 959.992 346.852 958.966 344.87C957.873 342.75 956.437 341.059 954.66 339.794C952.882 338.495 950.712 337.846 948.148 337.846C945.517 337.846 943.261 338.495 941.381 339.794C939.535 341.093 938.031 342.87 936.869 345.126C935.775 347.211 935.006 349.586 934.562 352.252C934.118 354.918 933.896 357.499 933.896 359.994C933.896 363.275 934.152 366.317 934.665 369.12C935.211 371.889 936.066 374.367 937.228 376.554C938.39 378.742 939.843 380.468 941.586 381.732C943.363 382.963 945.551 383.578 948.148 383.578C952.421 383.578 955.805 381.51 958.3 377.375C960.795 373.239 962.042 367.531 962.042 360.25Z" fill="white"/>
<path d="M923.383 338.668C921.948 338.805 920.393 339.403 918.718 340.462C917.077 341.522 915.881 343.111 915.129 345.23C913.42 350.255 911.796 355.023 910.258 359.535C908.754 364.012 907.062 369.054 905.183 374.659C904.567 376.437 903.935 378.351 903.286 380.401C902.67 382.452 902.106 384.417 901.594 386.297H897.185L883.598 349.076L869.909 386.297H865.705C863.142 378.709 860.629 371.19 858.168 363.739C855.742 356.253 853.588 349.742 851.708 344.205C851.162 342.599 850.119 341.334 848.581 340.411C847.043 339.488 845.556 338.941 844.121 338.771V335.387H866.679V338.976C865.551 339.01 864.321 339.198 862.988 339.54C861.689 339.881 861.04 340.445 861.04 341.231C861.04 341.368 861.091 341.659 861.193 342.103C861.33 342.547 861.484 343.026 861.655 343.539C862.749 347.127 863.979 351.144 865.346 355.587C866.748 359.996 868.542 365.738 870.729 372.813L883.649 336.412H888.571L901.748 372.301C903.217 367.721 904.67 363.294 906.105 359.022C907.575 354.715 908.857 350.682 909.951 346.922C910.19 346.034 910.412 345.23 910.617 344.513C910.856 343.761 910.976 343.026 910.976 342.308C910.976 341.693 910.703 341.146 910.156 340.667C909.609 340.189 908.942 339.796 908.156 339.488C907.473 339.215 906.721 339.01 905.9 338.873C905.114 338.736 904.533 338.668 904.157 338.668V335.387H923.383V338.668Z" fill="white"/>
<path d="M822.019 385.015L804.383 386.143L803.614 385.425V380.708L803.203 380.605C801.426 382.588 799.221 384.211 796.59 385.476C793.992 386.741 791.309 387.373 788.54 387.373C785.669 387.373 782.884 386.741 780.183 385.476C777.517 384.177 775.193 382.366 773.211 380.042C771.194 377.683 769.588 374.846 768.391 371.531C767.229 368.215 766.648 364.558 766.648 360.559C766.648 356.902 767.281 353.433 768.545 350.151C769.81 346.87 771.553 343.999 773.775 341.538C775.86 339.248 778.406 337.419 781.414 336.052C784.456 334.685 787.549 334.001 790.694 334.001C793.052 334.001 795.359 334.309 797.615 334.924C799.905 335.505 801.87 336.257 803.511 337.18V319.595C803.511 318.159 803.272 316.86 802.793 315.698C802.315 314.502 801.648 313.596 800.794 312.981C799.837 312.332 798.538 311.87 796.897 311.597C795.291 311.289 793.548 311.067 791.668 310.93V307.751L812.329 306.572L813.098 307.341V375.53C813.098 376.726 813.321 377.751 813.765 378.606C814.243 379.426 814.927 380.127 815.816 380.708C816.465 381.118 817.405 381.375 818.635 381.477C819.866 381.58 820.994 381.648 822.019 381.682V385.015ZM803.511 376.145V346.562C803.238 345.674 802.793 344.717 802.178 343.691C801.563 342.666 800.794 341.726 799.871 340.872C798.88 340.017 797.718 339.316 796.385 338.77C795.052 338.188 793.496 337.898 791.719 337.898C789.668 337.898 787.771 338.428 786.028 339.487C784.319 340.547 782.798 342.068 781.465 344.05C780.2 345.964 779.192 348.408 778.44 351.382C777.722 354.321 777.364 357.585 777.364 361.174C777.364 364.045 777.637 366.66 778.184 369.019C778.731 371.343 779.654 373.513 780.952 375.53C782.149 377.444 783.67 378.982 785.515 380.144C787.395 381.306 789.617 381.887 792.18 381.887C794.915 381.887 797.171 381.289 798.948 380.093C800.76 378.896 802.281 377.581 803.511 376.145Z" fill="white"/>
<path d="M762.545 385.938H737.781V382.554C738.568 382.486 739.422 382.417 740.345 382.349C741.302 382.281 742.088 382.144 742.703 381.939C743.66 381.631 744.361 381.102 744.805 380.35C745.284 379.563 745.523 378.555 745.523 377.325V351.331C745.523 347.742 744.669 344.974 742.96 343.025C741.285 341.077 739.234 340.103 736.807 340.103C734.996 340.103 733.338 340.394 731.834 340.975C730.33 341.521 728.997 342.205 727.835 343.025C726.707 343.812 725.802 344.666 725.118 345.589C724.469 346.478 723.99 347.195 723.682 347.742V376.812C723.682 377.974 723.922 378.931 724.4 379.683C724.879 380.435 725.596 381.016 726.553 381.426C727.271 381.768 728.04 382.024 728.861 382.195C729.715 382.366 730.587 382.486 731.475 382.554V385.938H706.712V382.554C707.498 382.486 708.302 382.417 709.122 382.349C709.976 382.281 710.711 382.144 711.326 381.939C712.283 381.631 712.984 381.102 713.428 380.35C713.907 379.563 714.146 378.555 714.146 377.325V346.102C714.146 344.939 713.89 343.88 713.377 342.923C712.899 341.932 712.215 341.128 711.326 340.513C710.677 340.103 709.908 339.812 709.019 339.642C708.131 339.437 707.174 339.3 706.148 339.231V335.899L722.965 334.771L723.682 335.489V342.615H723.939C724.759 341.795 725.784 340.821 727.015 339.693C728.245 338.531 729.407 337.591 730.501 336.873C731.766 336.053 733.27 335.369 735.013 334.822C736.756 334.275 738.721 334.002 740.909 334.002C745.762 334.002 749.351 335.523 751.676 338.565C754.034 341.573 755.213 345.589 755.213 350.613V376.915C755.213 378.111 755.418 379.085 755.828 379.837C756.239 380.555 756.939 381.119 757.93 381.529C758.751 381.871 759.451 382.11 760.032 382.247C760.648 382.383 761.485 382.486 762.545 382.554V385.938Z" fill="white"/>
<path d="M702.608 385.937H678.153V382.553C678.939 382.485 679.742 382.417 680.562 382.348C681.417 382.28 682.152 382.143 682.767 381.938C683.724 381.63 684.425 381.101 684.869 380.349C685.348 379.562 685.587 378.554 685.587 377.324V346.101C685.587 345.007 685.331 344.016 684.818 343.127C684.339 342.204 683.656 341.435 682.767 340.82C682.118 340.41 681.178 340.068 679.947 339.794C678.717 339.487 677.589 339.299 676.563 339.23V335.898L694.405 334.77L695.123 335.488V376.708C695.123 377.905 695.345 378.896 695.79 379.682C696.268 380.468 697.003 381.049 697.994 381.425C698.746 381.733 699.481 381.989 700.199 382.194C700.917 382.365 701.72 382.485 702.608 382.553V385.937ZM696.148 314.826C696.148 316.774 695.499 318.483 694.2 319.953C692.936 321.389 691.363 322.106 689.483 322.106C687.74 322.106 686.219 321.423 684.92 320.056C683.656 318.654 683.023 317.065 683.023 315.288C683.023 313.408 683.656 311.767 684.92 310.366C686.219 308.964 687.74 308.264 689.483 308.264C691.432 308.264 693.021 308.93 694.251 310.263C695.516 311.562 696.148 313.083 696.148 314.826Z" fill="white"/>
<path d="M674.972 331.386H671.127C670.409 328.686 668.905 325.798 666.615 322.722C664.359 319.646 662.189 317.954 660.104 317.646C659.044 317.509 657.78 317.407 656.31 317.338C654.875 317.27 653.234 317.236 651.388 317.236H639.186V346.459H647.543C650.072 346.459 652.038 346.203 653.439 345.69C654.84 345.144 656.037 344.323 657.028 343.229C657.711 342.478 658.327 341.315 658.874 339.743C659.455 338.137 659.831 336.428 660.001 334.616H663.898V363.173H660.001C659.899 361.669 659.54 359.96 658.925 358.046C658.344 356.132 657.711 354.748 657.028 353.894C656.002 352.629 654.704 351.774 653.131 351.33C651.593 350.852 649.73 350.612 647.543 350.612H639.186V375.683C639.186 376.811 639.408 377.819 639.853 378.708C640.297 379.597 641.083 380.314 642.211 380.861C642.724 381.101 643.834 381.391 645.543 381.733C647.252 382.075 648.551 382.263 649.44 382.297V385.937H617.909V382.297C618.935 382.229 620.302 382.126 622.011 381.989C623.72 381.818 624.831 381.613 625.343 381.374C626.369 380.93 627.104 380.28 627.548 379.426C628.026 378.537 628.266 377.478 628.266 376.247V323.747C628.266 322.619 628.078 321.628 627.702 320.773C627.326 319.885 626.54 319.167 625.343 318.62C624.42 318.176 623.173 317.783 621.601 317.441C620.062 317.099 618.832 316.894 617.909 316.826V313.186H674.972V331.386Z" fill="white"/>
<path d="M531.511 369.352L521.299 368.659L526.871 376.957C528.394 379.222 528.51 382.115 527.172 384.432L517.057 401.952C515.719 404.269 513.156 405.615 510.433 405.429L452.857 401.522C450.58 401.368 448.49 400.161 447.218 398.267L415.046 350.358C413.524 348.093 413.409 345.2 414.747 342.883L424.862 325.363C426.2 323.046 428.762 321.7 431.484 321.885L441.696 322.578L436.124 314.28C434.603 312.016 434.487 309.123 435.825 306.806L445.94 289.286C447.278 286.969 449.84 285.623 452.563 285.808L510.14 289.715C512.416 289.87 514.506 291.077 515.778 292.971L547.95 340.879C549.472 343.145 549.588 346.038 548.25 348.355L538.135 365.875C536.797 368.192 534.235 369.538 531.511 369.352Z" stroke="white" stroke-width="25.6788" stroke-linecap="round" stroke-linejoin="round"/>
<path d="M431.228 321.729L488.805 325.637C491.082 325.792 493.172 326.998 494.444 328.892L526.615 376.801C528.138 379.067 528.254 381.959 526.916 384.276L516.801 401.797C515.463 404.113 512.9 405.459 510.177 405.274L452.601 401.366C450.324 401.212 448.234 400.006 446.962 398.111L414.79 350.202C413.268 347.937 413.153 345.045 414.491 342.728L424.606 325.207C425.944 322.89 428.506 321.545 431.228 321.729Z" fill="#E8E8E8" stroke="#5C5E63" stroke-width="5.17245" stroke-linecap="round" stroke-linejoin="round"/>
<g opacity="0.6">
<path d="M428.552 323.098L463.317 376.296L526.769 379.803" stroke="#5C5E63" stroke-width="4.29203" stroke-linecap="round" stroke-linejoin="round"/>
<path d="M449.725 399.837L463.312 376.305Z" fill="white"/>
<path d="M449.725 399.837L463.312 376.305" stroke="#5C5E63" stroke-width="4.29203" stroke-linecap="round" stroke-linejoin="round"/>
</g>
<path d="M452.307 285.651L509.883 289.559C512.16 289.713 514.25 290.92 515.522 292.814L547.693 340.723C549.216 342.988 549.332 345.881 547.994 348.198L537.879 365.718C536.541 368.035 533.978 369.381 531.255 369.196L473.679 365.288C471.402 365.134 469.312 363.927 468.04 362.033L435.868 314.124C434.347 311.859 434.231 308.967 435.569 306.65L445.684 289.129C447.022 286.812 449.584 285.467 452.307 285.651Z" fill="white" stroke="#5C5E63" stroke-width="5.17245" stroke-linecap="round" stroke-linejoin="round"/>
<g opacity="0.6">
<path d="M449.625 287.027L484.389 340.226L547.842 343.733" stroke="#5C5E63" stroke-width="4.29203" stroke-linecap="round" stroke-linejoin="round"/>
<path d="M470.798 363.765L484.385 340.232" stroke="#5C5E63" stroke-width="4.29203" stroke-linecap="round" stroke-linejoin="round"/>
</g>
<path d="M369.375 450H2250.19" stroke="#848484" stroke-width="6.5625"/>
<path d="M463.976 505.882V524.661C463.976 525.906 463.481 527.1 462.601 527.981C461.72 528.861 460.526 529.356 459.281 529.356C458.036 529.356 456.842 528.861 455.962 527.981C455.081 527.1 454.587 525.906 454.587 524.661V505.882C454.587 504.637 455.081 503.443 455.962 502.563C456.842 501.682 458.036 501.188 459.281 501.188C460.526 501.188 461.72 501.682 462.601 502.563C463.481 503.443 463.976 504.637 463.976 505.882ZM485.836 540.359C486.453 540.359 487.064 540.237 487.634 540C488.204 539.763 488.721 539.417 489.157 538.98L502.437 525.706C503.318 524.825 503.813 523.63 503.813 522.384C503.813 521.138 503.318 519.944 502.437 519.063C501.556 518.182 500.362 517.687 499.116 517.687C497.87 517.687 496.675 518.182 495.794 519.063L482.52 532.343C481.863 532.999 481.416 533.835 481.234 534.746C481.052 535.657 481.145 536.601 481.5 537.459C481.855 538.317 482.456 539.05 483.228 539.567C484 540.083 484.907 540.359 485.836 540.359ZM515.618 557.524H496.839C495.594 557.524 494.4 558.019 493.519 558.899C492.639 559.78 492.144 560.974 492.144 562.219C492.144 563.464 492.639 564.658 493.519 565.538C494.4 566.419 495.594 566.913 496.839 566.913H515.618C516.863 566.913 518.057 566.419 518.937 565.538C519.818 564.658 520.313 563.464 520.313 562.219C520.313 560.974 519.818 559.78 518.937 558.899C518.057 558.019 516.863 557.524 515.618 557.524ZM489.157 585.458C488.27 584.614 487.088 584.151 485.864 584.167C484.639 584.182 483.47 584.676 482.604 585.541C481.738 586.407 481.245 587.577 481.229 588.801C481.214 590.025 481.677 591.207 482.52 592.095L495.794 605.375C496.675 606.256 497.87 606.751 499.116 606.751C500.362 606.751 501.556 606.256 502.437 605.375C503.318 604.494 503.813 603.299 503.813 602.053C503.813 600.808 503.318 599.613 502.437 598.732L489.157 585.458ZM459.281 595.082C458.036 595.082 456.842 595.576 455.962 596.457C455.081 597.337 454.587 598.531 454.587 599.776V618.555C454.587 619.8 455.081 620.995 455.962 621.875C456.842 622.755 458.036 623.25 459.281 623.25C460.526 623.25 461.72 622.755 462.601 621.875C463.481 620.995 463.976 619.8 463.976 618.555V599.776C463.976 598.531 463.481 597.337 462.601 596.457C461.72 595.576 460.526 595.082 459.281 595.082ZM429.405 585.458L416.125 598.732C415.244 599.613 414.749 600.808 414.749 602.053C414.749 603.299 415.244 604.494 416.125 605.375C417.006 606.256 418.201 606.751 419.447 606.751C420.692 606.751 421.887 606.256 422.768 605.375L436.042 592.095C436.886 591.207 437.349 590.025 437.333 588.801C437.318 587.577 436.824 586.407 435.959 585.541C435.093 584.676 433.923 584.182 432.699 584.167C431.475 584.151 430.293 584.614 429.405 585.458ZM426.418 562.219C426.418 560.974 425.924 559.78 425.043 558.899C424.163 558.019 422.969 557.524 421.724 557.524H402.945C401.7 557.524 400.505 558.019 399.625 558.899C398.745 559.78 398.25 560.974 398.25 562.219C398.25 563.464 398.745 564.658 399.625 565.538C400.505 566.419 401.7 566.913 402.945 566.913H421.724C422.969 566.913 424.163 566.419 425.043 565.538C425.924 564.658 426.418 563.464 426.418 562.219ZM422.768 519.063C421.887 518.182 420.692 517.687 419.447 517.687C418.201 517.687 417.006 518.182 416.125 519.063C415.244 519.944 414.749 521.138 414.749 522.384C414.749 523.63 415.244 524.825 416.125 525.706L429.405 538.98C430.293 539.823 431.475 540.286 432.699 540.271C433.923 540.255 435.093 539.762 435.959 538.896C436.824 538.03 437.318 536.861 437.333 535.636C437.349 534.412 436.886 533.23 436.042 532.343L422.768 519.063Z" fill="#3440E5"/>
<path d="M1458.85 505.882V524.661C1458.85 525.906 1458.36 527.1 1457.48 527.981C1456.6 528.861 1455.4 529.356 1454.16 529.356C1452.91 529.356 1451.72 528.861 1450.84 527.981C1449.96 527.1 1449.46 525.906 1449.46 524.661V505.882C1449.46 504.637 1449.96 503.443 1450.84 502.563C1451.72 501.682 1452.91 501.188 1454.16 501.188C1455.4 501.188 1456.6 501.682 1457.48 502.563C1458.36 503.443 1458.85 504.637 1458.85 505.882ZM1480.71 540.359C1481.33 540.359 1481.94 540.237 1482.51 540C1483.08 539.763 1483.6 539.417 1484.03 538.98L1497.31 525.706C1498.19 524.825 1498.69 523.63 1498.69 522.384C1498.69 521.138 1498.19 519.944 1497.31 519.063C1496.43 518.182 1495.24 517.687 1493.99 517.687C1492.75 517.687 1491.55 518.182 1490.67 519.063L1477.4 532.343C1476.74 532.999 1476.29 533.835 1476.11 534.746C1475.93 535.657 1476.02 536.601 1476.37 537.459C1476.73 538.317 1477.33 539.05 1478.1 539.567C1478.87 540.083 1479.78 540.359 1480.71 540.359ZM1510.49 557.524H1491.71C1490.47 557.524 1489.27 558.019 1488.39 558.899C1487.51 559.78 1487.02 560.974 1487.02 562.219C1487.02 563.464 1487.51 564.658 1488.39 565.538C1489.27 566.419 1490.47 566.913 1491.71 566.913H1510.49C1511.74 566.913 1512.93 566.419 1513.81 565.538C1514.69 564.658 1515.19 563.464 1515.19 562.219C1515.19 560.974 1514.69 559.78 1513.81 558.899C1512.93 558.019 1511.74 557.524 1510.49 557.524ZM1484.03 585.458C1483.14 584.614 1481.96 584.151 1480.74 584.167C1479.51 584.182 1478.34 584.676 1477.48 585.541C1476.61 586.407 1476.12 587.577 1476.1 588.801C1476.09 590.025 1476.55 591.207 1477.4 592.095L1490.67 605.375C1491.55 606.256 1492.75 606.751 1493.99 606.751C1495.24 606.751 1496.43 606.256 1497.31 605.375C1498.19 604.494 1498.69 603.299 1498.69 602.053C1498.69 600.808 1498.19 599.613 1497.31 598.732L1484.03 585.458ZM1454.16 595.082C1452.91 595.082 1451.72 595.576 1450.84 596.457C1449.96 597.337 1449.46 598.531 1449.46 599.776V618.555C1449.46 619.8 1449.96 620.995 1450.84 621.875C1451.72 622.755 1452.91 623.25 1454.16 623.25C1455.4 623.25 1456.6 622.755 1457.48 621.875C1458.36 620.995 1458.85 619.8 1458.85 618.555V599.776C1458.85 598.531 1458.36 597.337 1457.48 596.457C1456.6 595.576 1455.4 595.082 1454.16 595.082ZM1424.28 585.458L1411 598.732C1410.12 599.613 1409.62 600.808 1409.62 602.053C1409.62 603.299 1410.12 604.494 1411 605.375C1411.88 606.256 1413.08 606.751 1414.32 606.751C1415.57 606.751 1416.76 606.256 1417.64 605.375L1430.92 592.095C1431.76 591.207 1432.22 590.025 1432.21 588.801C1432.19 587.577 1431.7 586.407 1430.83 585.541C1429.97 584.676 1428.8 584.182 1427.57 584.167C1426.35 584.151 1425.17 584.614 1424.28 585.458ZM1421.29 562.219C1421.29 560.974 1420.8 559.78 1419.92 558.899C1419.04 558.019 1417.84 557.524 1416.6 557.524H1397.82C1396.57 557.524 1395.38 558.019 1394.5 558.899C1393.62 559.78 1393.12 560.974 1393.12 562.219C1393.12 563.464 1393.62 564.658 1394.5 565.538C1395.38 566.419 1396.57 566.913 1397.82 566.913H1416.6C1417.84 566.913 1419.04 566.419 1419.92 565.538C1420.8 564.658 1421.29 563.464 1421.29 562.219ZM1417.64 519.063C1416.76 518.182 1415.57 517.687 1414.32 517.687C1413.08 517.687 1411.88 518.182 1411 519.063C1410.12 519.944 1409.62 521.138 1409.62 522.384C1409.62 523.63 1410.12 524.825 1411 525.706L1424.28 538.98C1425.17 539.823 1426.35 540.286 1427.57 540.271C1428.8 540.255 1429.97 539.762 1430.83 538.896C1431.7 538.03 1432.19 536.861 1432.21 535.636C1432.22 534.412 1431.76 533.23 1430.92 532.343L1417.64 519.063Z" fill="#3440E5"/>
<path d="M463.976 715.882V734.661C463.976 735.906 463.481 737.1 462.601 737.981C461.72 738.861 460.526 739.356 459.281 739.356C458.036 739.356 456.842 738.861 455.962 737.981C455.081 737.1 454.587 735.906 454.587 734.661V715.882C454.587 714.637 455.081 713.443 455.962 712.563C456.842 711.682 458.036 711.188 459.281 711.188C460.526 711.188 461.72 711.682 462.601 712.563C463.481 713.443 463.976 714.637 463.976 715.882ZM485.836 750.359C486.453 750.359 487.064 750.237 487.634 750C488.204 749.763 488.721 749.417 489.157 748.98L502.437 735.706C503.318 734.825 503.813 733.63 503.813 732.384C503.813 731.138 503.318 729.944 502.437 729.063C501.556 728.182 500.362 727.687 499.116 727.687C497.87 727.687 496.675 728.182 495.794 729.063L482.52 742.343C481.863 742.999 481.416 743.835 481.234 744.746C481.052 745.657 481.145 746.601 481.5 747.459C481.855 748.317 482.456 749.05 483.228 749.567C484 750.083 484.907 750.359 485.836 750.359ZM515.618 767.524H496.839C495.594 767.524 494.4 768.019 493.519 768.899C492.639 769.78 492.144 770.974 492.144 772.219C492.144 773.464 492.639 774.658 493.519 775.538C494.4 776.419 495.594 776.913 496.839 776.913H515.618C516.863 776.913 518.057 776.419 518.937 775.538C519.818 774.658 520.313 773.464 520.313 772.219C520.313 770.974 519.818 769.78 518.937 768.899C518.057 768.019 516.863 767.524 515.618 767.524ZM489.157 795.458C488.27 794.614 487.088 794.151 485.864 794.167C484.639 794.182 483.47 794.676 482.604 795.541C481.738 796.407 481.245 797.577 481.229 798.801C481.214 800.025 481.677 801.207 482.52 802.095L495.794 815.375C496.675 816.256 497.87 816.751 499.116 816.751C500.362 816.751 501.556 816.256 502.437 815.375C503.318 814.494 503.813 813.299 503.813 812.053C503.813 810.808 503.318 809.613 502.437 808.732L489.157 795.458ZM459.281 805.082C458.036 805.082 456.842 805.576 455.962 806.457C455.081 807.337 454.587 808.531 454.587 809.776V828.555C454.587 829.8 455.081 830.995 455.962 831.875C456.842 832.755 458.036 833.25 459.281 833.25C460.526 833.25 461.72 832.755 462.601 831.875C463.481 830.995 463.976 829.8 463.976 828.555V809.776C463.976 808.531 463.481 807.337 462.601 806.457C461.72 805.576 460.526 805.082 459.281 805.082ZM429.405 795.458L416.125 808.732C415.244 809.613 414.749 810.808 414.749 812.053C414.749 813.299 415.244 814.494 416.125 815.375C417.006 816.256 418.201 816.751 419.447 816.751C420.692 816.751 421.887 816.256 422.768 815.375L436.042 802.095C436.886 801.207 437.349 800.025 437.333 798.801C437.318 797.577 436.824 796.407 435.959 795.541C435.093 794.676 433.923 794.182 432.699 794.167C431.475 794.151 430.293 794.614 429.405 795.458ZM426.418 772.219C426.418 770.974 425.924 769.78 425.043 768.899C424.163 768.019 422.969 767.524 421.724 767.524H402.945C401.7 767.524 400.505 768.019 399.625 768.899C398.745 769.78 398.25 770.974 398.25 772.219C398.25 773.464 398.745 774.658 399.625 775.538C400.505 776.419 401.7 776.913 402.945 776.913H421.724C422.969 776.913 424.163 776.419 425.043 775.538C425.924 774.658 426.418 773.464 426.418 772.219ZM422.768 729.063C421.887 728.182 420.692 727.687 419.447 727.687C418.201 727.687 417.006 728.182 416.125 729.063C415.244 729.944 414.749 731.138 414.749 732.384C414.749 733.63 415.244 734.825 416.125 735.706L429.405 748.98C430.293 749.823 431.475 750.286 432.699 750.271C433.923 750.255 435.093 749.762 435.959 748.896C436.824 748.03 437.318 746.861 437.333 745.636C437.349 744.412 436.886 743.23 436.042 742.343L422.768 729.063Z" fill="#3440E5"/>
<path d="M1458.85 715.882V734.661C1458.85 735.906 1458.36 737.1 1457.48 737.981C1456.6 738.861 1455.4 739.356 1454.16 739.356C1452.91 739.356 1451.72 738.861 1450.84 737.981C1449.96 737.1 1449.46 735.906 1449.46 734.661V715.882C1449.46 714.637 1449.96 713.443 1450.84 712.563C1451.72 711.682 1452.91 711.188 1454.16 711.188C1455.4 711.188 1456.6 711.682 1457.48 712.563C1458.36 713.443 1458.85 714.637 1458.85 715.882ZM1480.71 750.359C1481.33 750.359 1481.94 750.237 1482.51 750C1483.08 749.763 1483.6 749.417 1484.03 748.98L1497.31 735.706C1498.19 734.825 1498.69 733.63 1498.69 732.384C1498.69 731.138 1498.19 729.944 1497.31 729.063C1496.43 728.182 1495.24 727.687 1493.99 727.687C1492.75 727.687 1491.55 728.182 1490.67 729.063L1477.4 742.343C1476.74 742.999 1476.29 743.835 1476.11 744.746C1475.93 745.657 1476.02 746.601 1476.37 747.459C1476.73 748.317 1477.33 749.05 1478.1 749.567C1478.87 750.083 1479.78 750.359 1480.71 750.359ZM1510.49 767.524H1491.71C1490.47 767.524 1489.27 768.019 1488.39 768.899C1487.51 769.78 1487.02 770.974 1487.02 772.219C1487.02 773.464 1487.51 774.658 1488.39 775.538C1489.27 776.419 1490.47 776.913 1491.71 776.913H1510.49C1511.74 776.913 1512.93 776.419 1513.81 775.538C1514.69 774.658 1515.19 773.464 1515.19 772.219C1515.19 770.974 1514.69 769.78 1513.81 768.899C1512.93 768.019 1511.74 767.524 1510.49 767.524ZM1484.03 795.458C1483.14 794.614 1481.96 794.151 1480.74 794.167C1479.51 794.182 1478.34 794.676 1477.48 795.541C1476.61 796.407 1476.12 797.577 1476.1 798.801C1476.09 800.025 1476.55 801.207 1477.4 802.095L1490.67 815.375C1491.55 816.256 1492.75 816.751 1493.99 816.751C1495.24 816.751 1496.43 816.256 1497.31 815.375C1498.19 814.494 1498.69 813.299 1498.69 812.053C1498.69 810.808 1498.19 809.613 1497.31 808.732L1484.03 795.458ZM1454.16 805.082C1452.91 805.082 1451.72 805.576 1450.84 806.457C1449.96 807.337 1449.46 808.531 1449.46 809.776V828.555C1449.46 829.8 1449.96 830.995 1450.84 831.875C1451.72 832.755 1452.91 833.25 1454.16 833.25C1455.4 833.25 1456.6 832.755 1457.48 831.875C1458.36 830.995 1458.85 829.8 1458.85 828.555V809.776C1458.85 808.531 1458.36 807.337 1457.48 806.457C1456.6 805.576 1455.4 805.082 1454.16 805.082ZM1424.28 795.458L1411 808.732C1410.12 809.613 1409.62 810.808 1409.62 812.053C1409.62 813.299 1410.12 814.494 1411 815.375C1411.88 816.256 1413.08 816.751 1414.32 816.751C1415.57 816.751 1416.76 816.256 1417.64 815.375L1430.92 802.095C1431.76 801.207 1432.22 800.025 1432.21 798.801C1432.19 797.577 1431.7 796.407 1430.83 795.541C1429.97 794.676 1428.8 794.182 1427.57 794.167C1426.35 794.151 1425.17 794.614 1424.28 795.458ZM1421.29 772.219C1421.29 770.974 1420.8 769.78 1419.92 768.899C1419.04 768.019 1417.84 767.524 1416.6 767.524H1397.82C1396.57 767.524 1395.38 768.019 1394.5 768.899C1393.62 769.78 1393.12 770.974 1393.12 772.219C1393.12 773.464 1393.62 774.658 1394.5 775.538C1395.38 776.419 1396.57 776.913 1397.82 776.913H1416.6C1417.84 776.913 1419.04 776.419 1419.92 775.538C1420.8 774.658 1421.29 773.464 1421.29 772.219ZM1417.64 729.063C1416.76 728.182 1415.57 727.687 1414.32 727.687C1413.08 727.687 1411.88 728.182 1411 729.063C1410.12 729.944 1409.62 731.138 1409.62 732.384C1409.62 733.63 1410.12 734.825 1411 735.706L1424.28 748.98C1425.17 749.823 1426.35 750.286 1427.57 750.271C1428.8 750.255 1429.97 749.762 1430.83 748.896C1431.7 748.03 1432.19 746.861 1432.21 745.636C1432.22 744.412 1431.76 743.23 1430.92 742.343L1417.64 729.063Z" fill="#3440E5"/>
<path d="M463.976 925.882V944.661C463.976 945.906 463.481 947.1 462.601 947.981C461.72 948.861 460.526 949.356 459.281 949.356C458.036 949.356 456.842 948.861 455.962 947.981C455.081 947.1 454.587 945.906 454.587 944.661V925.882C454.587 924.637 455.081 923.443 455.962 922.563C456.842 921.682 458.036 921.188 459.281 921.188C460.526 921.188 461.72 921.682 462.601 922.563C463.481 923.443 463.976 924.637 463.976 925.882ZM485.836 960.359C486.453 960.359 487.064 960.237 487.634 960C488.204 959.763 488.721 959.417 489.157 958.98L502.437 945.706C503.318 944.825 503.813 943.63 503.813 942.384C503.813 941.138 503.318 939.944 502.437 939.063C501.556 938.182 500.362 937.687 499.116 937.687C497.87 937.687 496.675 938.182 495.794 939.063L482.52 952.343C481.863 952.999 481.416 953.835 481.234 954.746C481.052 955.657 481.145 956.601 481.5 957.459C481.855 958.317 482.456 959.05 483.228 959.567C484 960.083 484.907 960.359 485.836 960.359ZM515.618 977.524H496.839C495.594 977.524 494.4 978.019 493.519 978.899C492.639 979.78 492.144 980.974 492.144 982.219C492.144 983.464 492.639 984.658 493.519 985.538C494.4 986.419 495.594 986.913 496.839 986.913H515.618C516.863 986.913 518.057 986.419 518.937 985.538C519.818 984.658 520.313 983.464 520.313 982.219C520.313 980.974 519.818 979.78 518.937 978.899C518.057 978.019 516.863 977.524 515.618 977.524ZM489.157 1005.46C488.27 1004.61 487.088 1004.15 485.864 1004.17C484.639 1004.18 483.47 1004.68 482.604 1005.54C481.738 1006.41 481.245 1007.58 481.229 1008.8C481.214 1010.03 481.677 1011.21 482.52 1012.09L495.794 1025.37C496.675 1026.26 497.87 1026.75 499.116 1026.75C500.362 1026.75 501.556 1026.26 502.437 1025.37C503.318 1024.49 503.813 1023.3 503.813 1022.05C503.813 1020.81 503.318 1019.61 502.437 1018.73L489.157 1005.46ZM459.281 1015.08C458.036 1015.08 456.842 1015.58 455.962 1016.46C455.081 1017.34 454.587 1018.53 454.587 1019.78V1038.56C454.587 1039.8 455.081 1040.99 455.962 1041.87C456.842 1042.76 458.036 1043.25 459.281 1043.25C460.526 1043.25 461.72 1042.76 462.601 1041.87C463.481 1040.99 463.976 1039.8 463.976 1038.56V1019.78C463.976 1018.53 463.481 1017.34 462.601 1016.46C461.72 1015.58 460.526 1015.08 459.281 1015.08ZM429.405 1005.46L416.125 1018.73C415.244 1019.61 414.749 1020.81 414.749 1022.05C414.749 1023.3 415.244 1024.49 416.125 1025.37C417.006 1026.26 418.201 1026.75 419.447 1026.75C420.692 1026.75 421.887 1026.26 422.768 1025.37L436.042 1012.09C436.886 1011.21 437.349 1010.03 437.333 1008.8C437.318 1007.58 436.824 1006.41 435.959 1005.54C435.093 1004.68 433.923 1004.18 432.699 1004.17C431.475 1004.15 430.293 1004.61 429.405 1005.46ZM426.418 982.219C426.418 980.974 425.924 979.78 425.043 978.899C424.163 978.019 422.969 977.524 421.724 977.524H402.945C401.7 977.524 400.505 978.019 399.625 978.899C398.745 979.78 398.25 980.974 398.25 982.219C398.25 983.464 398.745 984.658 399.625 985.538C400.505 986.419 401.7 986.913 402.945 986.913H421.724C422.969 986.913 424.163 986.419 425.043 985.538C425.924 984.658 426.418 983.464 426.418 982.219ZM422.768 939.063C421.887 938.182 420.692 937.687 419.447 937.687C418.201 937.687 417.006 938.182 416.125 939.063C415.244 939.944 414.749 941.138 414.749 942.384C414.749 943.63 415.244 944.825 416.125 945.706L429.405 958.98C430.293 959.823 431.475 960.286 432.699 960.271C433.923 960.255 435.093 959.762 435.959 958.896C436.824 958.03 437.318 956.861 437.333 955.636C437.349 954.412 436.886 953.23 436.042 952.343L422.768 939.063Z" fill="#3440E5"/>
<path d="M1458.85 925.882V944.661C1458.85 945.906 1458.36 947.1 1457.48 947.981C1456.6 948.861 1455.4 949.356 1454.16 949.356C1452.91 949.356 1451.72 948.861 1450.84 947.981C1449.96 947.1 1449.46 945.906 1449.46 944.661V925.882C1449.46 924.637 1449.96 923.443 1450.84 922.563C1451.72 921.682 1452.91 921.188 1454.16 921.188C1455.4 921.188 1456.6 921.682 1457.48 922.563C1458.36 923.443 1458.85 924.637 1458.85 925.882ZM1480.71 960.359C1481.33 960.359 1481.94 960.237 1482.51 960C1483.08 959.763 1483.6 959.417 1484.03 958.98L1497.31 945.706C1498.19 944.825 1498.69 943.63 1498.69 942.384C1498.69 941.138 1498.19 939.944 1497.31 939.063C1496.43 938.182 1495.24 937.687 1493.99 937.687C1492.75 937.687 1491.55 938.182 1490.67 939.063L1477.4 952.343C1476.74 952.999 1476.29 953.835 1476.11 954.746C1475.93 955.657 1476.02 956.601 1476.37 957.459C1476.73 958.317 1477.33 959.05 1478.1 959.567C1478.87 960.083 1479.78 960.359 1480.71 960.359ZM1510.49 977.524H1491.71C1490.47 977.524 1489.27 978.019 1488.39 978.899C1487.51 979.78 1487.02 980.974 1487.02 982.219C1487.02 983.464 1487.51 984.658 1488.39 985.538C1489.27 986.419 1490.47 986.913 1491.71 986.913H1510.49C1511.74 986.913 1512.93 986.419 1513.81 985.538C1514.69 984.658 1515.19 983.464 1515.19 982.219C1515.19 980.974 1514.69 979.78 1513.81 978.899C1512.93 978.019 1511.74 977.524 1510.49 977.524ZM1484.03 1005.46C1483.14 1004.61 1481.96 1004.15 1480.74 1004.17C1479.51 1004.18 1478.34 1004.68 1477.48 1005.54C1476.61 1006.41 1476.12 1007.58 1476.1 1008.8C1476.09 1010.03 1476.55 1011.21 1477.4 1012.09L1490.67 1025.37C1491.55 1026.26 1492.75 1026.75 1493.99 1026.75C1495.24 1026.75 1496.43 1026.26 1497.31 1025.37C1498.19 1024.49 1498.69 1023.3 1498.69 1022.05C1498.69 1020.81 1498.19 1019.61 1497.31 1018.73L1484.03 1005.46ZM1454.16 1015.08C1452.91 1015.08 1451.72 1015.58 1450.84 1016.46C1449.96 1017.34 1449.46 1018.53 1449.46 1019.78V1038.56C1449.46 1039.8 1449.96 1040.99 1450.84 1041.87C1451.72 1042.76 1452.91 1043.25 1454.16 1043.25C1455.4 1043.25 1456.6 1042.76 1457.48 1041.87C1458.36 1040.99 1458.85 1039.8 1458.85 1038.56V1019.78C1458.85 1018.53 1458.36 1017.34 1457.48 1016.46C1456.6 1015.58 1455.4 1015.08 1454.16 1015.08ZM1424.28 1005.46L1411 1018.73C1410.12 1019.61 1409.62 1020.81 1409.62 1022.05C1409.62 1023.3 1410.12 1024.49 1411 1025.37C1411.88 1026.26 1413.08 1026.75 1414.32 1026.75C1415.57 1026.75 1416.76 1026.26 1417.64 1025.37L1430.92 1012.09C1431.76 1011.21 1432.22 1010.03 1432.21 1008.8C1432.19 1007.58 1431.7 1006.41 1430.83 1005.54C1429.97 1004.68 1428.8 1004.18 1427.57 1004.17C1426.35 1004.15 1425.17 1004.61 1424.28 1005.46ZM1421.29 982.219C1421.29 980.974 1420.8 979.78 1419.92 978.899C1419.04 978.019 1417.84 977.524 1416.6 977.524H1397.82C1396.57 977.524 1395.38 978.019 1394.5 978.899C1393.62 979.78 1393.12 980.974 1393.12 982.219C1393.12 983.464 1393.62 984.658 1394.5 985.538C1395.38 986.419 1396.57 986.913 1397.82 986.913H1416.6C1417.84 986.913 1419.04 986.419 1419.92 985.538C1420.8 984.658 1421.29 983.464 1421.29 982.219ZM1417.64 939.063C1416.76 938.182 1415.57 937.687 1414.32 937.687C1413.08 937.687 1411.88 938.182 1411 939.063C1410.12 939.944 1409.62 941.138 1409.62 942.384C1409.62 943.63 1410.12 944.825 1411 945.706L1424.28 958.98C1425.17 959.823 1426.35 960.286 1427.57 960.271C1428.8 960.255 1429.97 959.762 1430.83 958.896C1431.7 958.03 1432.19 956.861 1432.21 955.636C1432.22 954.412 1431.76 953.23 1430.92 952.343L1417.64 939.063Z" fill="#3440E5"/>
<path d="M1018.96 590.58C1018.96 587.99 1019.59 586.17 1020.85 585.12C1022.11 584.07 1023.62 583.545 1025.37 583.545C1027.19 583.545 1028.73 584.07 1029.99 585.12C1031.32 586.17 1031.98 587.99 1031.98 590.58C1031.98 593.1 1031.32 594.92 1029.99 596.04C1028.73 597.16 1027.19 597.72 1025.37 597.72C1023.62 597.72 1022.11 597.16 1020.85 596.04C1019.59 594.92 1018.96 593.1 1018.96 590.58Z" fill="#E7E7E7"/>
<path d="M992.965 590.58C992.965 587.99 993.595 586.17 994.855 585.12C996.115 584.07 997.62 583.545 999.37 583.545C1001.19 583.545 1002.73 584.07 1003.99 585.12C1005.32 586.17 1005.99 587.99 1005.99 590.58C1005.99 593.1 1005.32 594.92 1003.99 596.04C1002.73 597.16 1001.19 597.72 999.37 597.72C997.62 597.72 996.115 597.16 994.855 596.04C993.595 594.92 992.965 593.1 992.965 590.58Z" fill="#E7E7E7"/>
<path d="M966.969 590.58C966.969 587.99 967.599 586.17 968.859 585.12C970.119 584.07 971.624 583.545 973.374 583.545C975.194 583.545 976.734 584.07 977.994 585.12C979.324 586.17 979.989 587.99 979.989 590.58C979.989 593.1 979.324 594.92 977.994 596.04C976.734 597.16 975.194 597.72 973.374 597.72C971.624 597.72 970.119 597.16 968.859 596.04C967.599 594.92 966.969 593.1 966.969 590.58Z" fill="#E7E7E7"/>
<path d="M925.785 538.92C929.495 538.92 932.82 539.62 935.76 541.02C938.77 542.42 941.325 544.555 943.425 547.425H943.95L945.21 539.97H952.56V597.195C952.56 602.515 951.65 606.96 949.83 610.53C948.01 614.17 945.245 616.9 941.535 618.72C937.825 620.54 933.1 621.45 927.36 621.45C923.3 621.45 919.555 621.135 916.125 620.505C912.765 619.945 909.755 619.07 907.095 617.88V609.375C908.915 610.285 910.91 611.055 913.08 611.685C915.25 612.385 917.595 612.91 920.115 613.26C922.635 613.61 925.225 613.785 927.885 613.785C932.715 613.785 936.495 612.35 939.225 609.48C942.025 606.68 943.425 602.83 943.425 597.93V595.725C943.425 594.885 943.46 593.695 943.53 592.155C943.6 590.545 943.67 589.425 943.74 588.795H943.32C941.36 591.665 938.91 593.8 935.97 595.2C933.1 596.6 929.74 597.3 925.89 597.3C918.61 597.3 912.905 594.745 908.775 589.635C904.715 584.525 902.685 577.385 902.685 568.215C902.685 562.195 903.595 557.015 905.415 552.675C907.305 548.265 909.965 544.87 913.395 542.49C916.825 540.11 920.955 538.92 925.785 538.92ZM927.045 546.69C923.895 546.69 921.2 547.53 918.96 549.21C916.79 550.89 915.11 553.34 913.92 556.56C912.8 559.78 912.24 563.7 912.24 568.32C912.24 575.25 913.5 580.57 916.02 584.28C918.61 587.92 922.355 589.74 927.255 589.74C930.125 589.74 932.575 589.39 934.605 588.69C936.635 587.92 938.315 586.765 939.645 585.225C940.975 583.615 941.955 581.585 942.585 579.135C943.215 576.685 943.53 573.78 943.53 570.42V568.215C943.53 563.105 942.935 558.975 941.745 555.825C940.625 552.675 938.84 550.365 936.39 548.895C933.94 547.425 930.825 546.69 927.045 546.69Z" fill="#E7E7E7"/>
<path d="M870.118 538.92C876.838 538.92 881.913 540.565 885.343 543.855C888.773 547.075 890.488 552.325 890.488 559.605V596.25H881.353V560.235C881.353 555.685 880.338 552.29 878.308 550.05C876.278 547.81 873.093 546.69 868.753 546.69C862.523 546.69 858.218 548.44 855.838 551.94C853.458 555.44 852.268 560.48 852.268 567.06V596.25H843.028V539.97H850.483L851.848 547.635H852.373C853.633 545.675 855.173 544.065 856.993 542.805C858.883 541.475 860.948 540.495 863.188 539.865C865.428 539.235 867.738 538.92 870.118 538.92Z" fill="#E7E7E7"/>
<path d="M827.297 539.97V596.25H818.057V539.97H827.297ZM822.782 518.865C824.182 518.865 825.407 519.355 826.457 520.335C827.577 521.245 828.137 522.715 828.137 524.745C828.137 526.705 827.577 528.175 826.457 529.155C825.407 530.135 824.182 530.625 822.782 530.625C821.242 530.625 819.947 530.135 818.897 529.155C817.847 528.175 817.322 526.705 817.322 524.745C817.322 522.715 817.847 521.245 818.897 520.335C819.947 519.355 821.242 518.865 822.782 518.865Z" fill="#E7E7E7"/>
<path d="M775.508 597.299C768.508 597.299 762.908 594.884 758.708 590.054C754.508 585.154 752.408 577.874 752.408 568.214C752.408 558.554 754.508 551.274 758.708 546.374C762.978 541.404 768.613 538.919 775.613 538.919C778.553 538.919 781.108 539.304 783.278 540.074C785.448 540.774 787.338 541.754 788.948 543.014C790.558 544.274 791.923 545.674 793.043 547.214H793.673C793.603 546.304 793.463 544.974 793.253 543.224C793.113 541.404 793.043 539.969 793.043 538.919V516.449H802.283V596.249H794.828L793.463 588.689H793.043C791.923 590.299 790.558 591.769 788.948 593.099C787.338 594.359 785.413 595.374 783.173 596.144C781.003 596.914 778.448 597.299 775.508 597.299ZM776.978 589.634C782.928 589.634 787.093 588.024 789.473 584.804C791.923 581.514 793.148 576.579 793.148 569.999V568.319C793.148 561.319 791.993 555.964 789.683 552.254C787.373 548.474 783.103 546.584 776.873 546.584C771.903 546.584 768.158 548.579 765.638 552.569C763.188 556.489 761.963 561.774 761.963 568.424C761.963 575.144 763.188 580.359 765.638 584.069C768.158 587.779 771.938 589.634 776.978 589.634Z" fill="#E7E7E7"/>
<path d="M720.115 539.025C726.975 539.025 732.05 540.53 735.34 543.54C738.63 546.55 740.275 551.345 740.275 557.925V596.25H733.555L731.77 588.27H731.35C729.74 590.3 728.06 592.015 726.31 593.415C724.63 594.745 722.67 595.725 720.43 596.355C718.26 596.985 715.6 597.3 712.45 597.3C709.09 597.3 706.045 596.705 703.315 595.515C700.655 594.325 698.555 592.505 697.015 590.055C695.475 587.535 694.705 584.385 694.705 580.605C694.705 575.005 696.91 570.7 701.32 567.69C705.73 564.61 712.52 562.93 721.69 562.65L731.245 562.335V558.975C731.245 554.285 730.23 551.03 728.2 549.21C726.17 547.39 723.3 546.48 719.59 546.48C716.65 546.48 713.85 546.935 711.19 547.845C708.53 548.685 706.045 549.665 703.735 550.785L700.9 543.855C703.35 542.525 706.255 541.405 709.615 540.495C712.975 539.515 716.475 539.025 720.115 539.025ZM722.845 569.055C715.845 569.335 710.98 570.455 708.25 572.415C705.59 574.375 704.26 577.14 704.26 580.71C704.26 583.86 705.205 586.17 707.095 587.64C709.055 589.11 711.54 589.845 714.55 589.845C719.31 589.845 723.265 588.55 726.415 585.96C729.565 583.3 731.14 579.24 731.14 573.78V568.74L722.845 569.055Z" fill="#E7E7E7"/>
<path d="M686.256 568.005C686.256 572.695 685.626 576.86 684.366 580.5C683.176 584.07 681.426 587.115 679.116 589.635C676.876 592.155 674.111 594.08 670.821 595.41C667.601 596.67 663.996 597.3 660.006 597.3C656.296 597.3 652.866 596.67 649.716 595.41C646.566 594.08 643.836 592.155 641.526 589.635C639.216 587.115 637.396 584.07 636.066 580.5C634.806 576.86 634.176 572.695 634.176 568.005C634.176 561.775 635.226 556.525 637.326 552.255C639.426 547.915 642.436 544.625 646.356 542.385C650.276 540.075 654.931 538.92 660.321 538.92C665.431 538.92 669.911 540.075 673.761 542.385C677.681 544.625 680.726 547.915 682.896 552.255C685.136 556.525 686.256 561.775 686.256 568.005ZM643.731 568.005C643.731 572.415 644.291 576.265 645.411 579.555C646.601 582.775 648.421 585.26 650.871 587.01C653.321 588.76 656.436 589.635 660.216 589.635C663.996 589.635 667.111 588.76 669.561 587.01C672.011 585.26 673.796 582.775 674.916 579.555C676.106 576.265 676.701 572.415 676.701 568.005C676.701 563.525 676.106 559.71 674.916 556.56C673.726 553.41 671.906 550.995 669.456 549.315C667.076 547.565 663.961 546.69 660.111 546.69C654.371 546.69 650.206 548.58 647.616 552.36C645.026 556.14 643.731 561.355 643.731 568.005Z" fill="#E7E7E7"/>
<path d="M585.623 596.249V521.279H595.073V587.849H627.833V596.249H585.623Z" fill="#E7E7E7"/>
<path d="M1920.66 538.92C1924.37 538.92 1927.69 539.62 1930.63 541.02C1933.64 542.42 1936.2 544.555 1938.3 547.425H1938.82L1940.08 539.97H1947.43V597.195C1947.43 602.515 1946.52 606.96 1944.7 610.53C1942.88 614.17 1940.12 616.9 1936.41 618.72C1932.7 620.54 1927.97 621.45 1922.23 621.45C1918.17 621.45 1914.43 621.135 1911 620.505C1907.64 619.945 1904.63 619.07 1901.97 617.88V609.375C1903.79 610.285 1905.78 611.055 1907.95 611.685C1910.12 612.385 1912.47 612.91 1914.99 613.26C1917.51 613.61 1920.1 613.785 1922.76 613.785C1927.59 613.785 1931.37 612.35 1934.1 609.48C1936.9 606.68 1938.3 602.83 1938.3 597.93V595.725C1938.3 594.885 1938.33 593.695 1938.4 592.155C1938.47 590.545 1938.54 589.425 1938.61 588.795H1938.19C1936.23 591.665 1933.78 593.8 1930.84 595.2C1927.97 596.6 1924.61 597.3 1920.76 597.3C1913.48 597.3 1907.78 594.745 1903.65 589.635C1899.59 584.525 1897.56 577.385 1897.56 568.215C1897.56 562.195 1898.47 557.015 1900.29 552.675C1902.18 548.265 1904.84 544.87 1908.27 542.49C1911.7 540.11 1915.83 538.92 1920.66 538.92ZM1921.92 546.69C1918.77 546.69 1916.07 547.53 1913.83 549.21C1911.66 550.89 1909.98 553.34 1908.79 556.56C1907.67 559.78 1907.11 563.7 1907.11 568.32C1907.11 575.25 1908.37 580.57 1910.89 584.28C1913.48 587.92 1917.23 589.74 1922.13 589.74C1925 589.74 1927.45 589.39 1929.48 588.69C1931.51 587.92 1933.19 586.765 1934.52 585.225C1935.85 583.615 1936.83 581.585 1937.46 579.135C1938.09 576.685 1938.4 573.78 1938.4 570.42V568.215C1938.4 563.105 1937.81 558.975 1936.62 555.825C1935.5 552.675 1933.71 550.365 1931.26 548.895C1928.81 547.425 1925.7 546.69 1921.92 546.69Z" fill="#E7E7E7"/>
<path d="M1864.99 538.92C1871.71 538.92 1876.79 540.565 1880.22 543.855C1883.65 547.075 1885.36 552.325 1885.36 559.605V596.25H1876.23V560.235C1876.23 555.685 1875.21 552.29 1873.18 550.05C1871.15 547.81 1867.97 546.69 1863.63 546.69C1857.4 546.69 1853.09 548.44 1850.71 551.94C1848.33 555.44 1847.14 560.48 1847.14 567.06V596.25H1837.9V539.97H1845.36L1846.72 547.635H1847.25C1848.51 545.675 1850.05 544.065 1851.87 542.805C1853.76 541.475 1855.82 540.495 1858.06 539.865C1860.3 539.235 1862.61 538.92 1864.99 538.92Z" fill="#E7E7E7"/>
<path d="M1822.17 539.97V596.25H1812.93V539.97H1822.17ZM1817.66 518.865C1819.06 518.865 1820.28 519.355 1821.33 520.335C1822.45 521.245 1823.01 522.715 1823.01 524.745C1823.01 526.705 1822.45 528.175 1821.33 529.155C1820.28 530.135 1819.06 530.625 1817.66 530.625C1816.12 530.625 1814.82 530.135 1813.77 529.155C1812.72 528.175 1812.2 526.705 1812.2 524.745C1812.2 522.715 1812.72 521.245 1813.77 520.335C1814.82 519.355 1816.12 518.865 1817.66 518.865Z" fill="#E7E7E7"/>
<path d="M1770.38 597.299C1763.38 597.299 1757.78 594.884 1753.58 590.054C1749.38 585.154 1747.28 577.874 1747.28 568.214C1747.28 558.554 1749.38 551.274 1753.58 546.374C1757.85 541.404 1763.49 538.919 1770.49 538.919C1773.43 538.919 1775.98 539.304 1778.15 540.074C1780.32 540.774 1782.21 541.754 1783.82 543.014C1785.43 544.274 1786.8 545.674 1787.92 547.214H1788.55C1788.48 546.304 1788.34 544.974 1788.13 543.224C1787.99 541.404 1787.92 539.969 1787.92 538.919V516.449H1797.16V596.249H1789.7L1788.34 588.689H1787.92C1786.8 590.299 1785.43 591.769 1783.82 593.099C1782.21 594.359 1780.29 595.374 1778.05 596.144C1775.88 596.914 1773.32 597.299 1770.38 597.299ZM1771.85 589.634C1777.8 589.634 1781.97 588.024 1784.35 584.804C1786.8 581.514 1788.02 576.579 1788.02 569.999V568.319C1788.02 561.319 1786.87 555.964 1784.56 552.254C1782.25 548.474 1777.98 546.584 1771.75 546.584C1766.78 546.584 1763.03 548.579 1760.51 552.569C1758.06 556.489 1756.84 561.774 1756.84 568.424C1756.84 575.144 1758.06 580.359 1760.51 584.069C1763.03 587.779 1766.81 589.634 1771.85 589.634Z" fill="#E7E7E7"/>
<path d="M1714.99 539.025C1721.85 539.025 1726.93 540.53 1730.22 543.54C1733.51 546.55 1735.15 551.345 1735.15 557.925V596.25H1728.43L1726.65 588.27H1726.23C1724.62 590.3 1722.94 592.015 1721.19 593.415C1719.51 594.745 1717.55 595.725 1715.31 596.355C1713.14 596.985 1710.48 597.3 1707.33 597.3C1703.97 597.3 1700.92 596.705 1698.19 595.515C1695.53 594.325 1693.43 592.505 1691.89 590.055C1690.35 587.535 1689.58 584.385 1689.58 580.605C1689.58 575.005 1691.79 570.7 1696.2 567.69C1700.61 564.61 1707.4 562.93 1716.57 562.65L1726.12 562.335V558.975C1726.12 554.285 1725.11 551.03 1723.08 549.21C1721.05 547.39 1718.18 546.48 1714.47 546.48C1711.53 546.48 1708.73 546.935 1706.07 547.845C1703.41 548.685 1700.92 549.665 1698.61 550.785L1695.78 543.855C1698.23 542.525 1701.13 541.405 1704.49 540.495C1707.85 539.515 1711.35 539.025 1714.99 539.025ZM1717.72 569.055C1710.72 569.335 1705.86 570.455 1703.13 572.415C1700.47 574.375 1699.14 577.14 1699.14 580.71C1699.14 583.86 1700.08 586.17 1701.97 587.64C1703.93 589.11 1706.42 589.845 1709.43 589.845C1714.19 589.845 1718.14 588.55 1721.29 585.96C1724.44 583.3 1726.02 579.24 1726.02 573.78V568.74L1717.72 569.055Z" fill="#E7E7E7"/>
<path d="M1681.13 568.005C1681.13 572.695 1680.5 576.86 1679.24 580.5C1678.05 584.07 1676.3 587.115 1673.99 589.635C1671.75 592.155 1668.99 594.08 1665.7 595.41C1662.48 596.67 1658.87 597.3 1654.88 597.3C1651.17 597.3 1647.74 596.67 1644.59 595.41C1641.44 594.08 1638.71 592.155 1636.4 589.635C1634.09 587.115 1632.27 584.07 1630.94 580.5C1629.68 576.86 1629.05 572.695 1629.05 568.005C1629.05 561.775 1630.1 556.525 1632.2 552.255C1634.3 547.915 1637.31 544.625 1641.23 542.385C1645.15 540.075 1649.81 538.92 1655.2 538.92C1660.31 538.92 1664.79 540.075 1668.64 542.385C1672.56 544.625 1675.6 547.915 1677.77 552.255C1680.01 556.525 1681.13 561.775 1681.13 568.005ZM1638.61 568.005C1638.61 572.415 1639.17 576.265 1640.29 579.555C1641.48 582.775 1643.3 585.26 1645.75 587.01C1648.2 588.76 1651.31 589.635 1655.09 589.635C1658.87 589.635 1661.99 588.76 1664.44 587.01C1666.89 585.26 1668.67 582.775 1669.79 579.555C1670.98 576.265 1671.58 572.415 1671.58 568.005C1671.58 563.525 1670.98 559.71 1669.79 556.56C1668.6 553.41 1666.78 550.995 1664.33 549.315C1661.95 547.565 1658.84 546.69 1654.99 546.69C1649.25 546.69 1645.08 548.58 1642.49 552.36C1639.9 556.14 1638.61 561.355 1638.61 568.005Z" fill="#E7E7E7"/>
<path d="M1580.5 596.249V521.279H1589.95V587.849H1622.71V596.249H1580.5Z" fill="#E7E7E7"/>
<path d="M1018.96 803.205C1018.96 800.615 1019.59 798.795 1020.85 797.745C1022.11 796.695 1023.62 796.17 1025.37 796.17C1027.19 796.17 1028.73 796.695 1029.99 797.745C1031.32 798.795 1031.98 800.615 1031.98 803.205C1031.98 805.725 1031.32 807.545 1029.99 808.665C1028.73 809.785 1027.19 810.345 1025.37 810.345C1023.62 810.345 1022.11 809.785 1020.85 808.665C1019.59 807.545 1018.96 805.725 1018.96 803.205Z" fill="#E7E7E7"/>
<path d="M992.965 803.205C992.965 800.615 993.595 798.795 994.855 797.745C996.115 796.695 997.62 796.17 999.37 796.17C1001.19 796.17 1002.73 796.695 1003.99 797.745C1005.32 798.795 1005.99 800.615 1005.99 803.205C1005.99 805.725 1005.32 807.545 1003.99 808.665C1002.73 809.785 1001.19 810.345 999.37 810.345C997.62 810.345 996.115 809.785 994.855 808.665C993.595 807.545 992.965 805.725 992.965 803.205Z" fill="#E7E7E7"/>
<path d="M966.969 803.205C966.969 800.615 967.599 798.795 968.859 797.745C970.119 796.695 971.624 796.17 973.374 796.17C975.194 796.17 976.734 796.695 977.994 797.745C979.324 798.795 979.989 800.615 979.989 803.205C979.989 805.725 979.324 807.545 977.994 808.665C976.734 809.785 975.194 810.345 973.374 810.345C971.624 810.345 970.119 809.785 968.859 808.665C967.599 807.545 966.969 805.725 966.969 803.205Z" fill="#E7E7E7"/>
<path d="M925.785 751.545C929.495 751.545 932.82 752.245 935.76 753.645C938.77 755.045 941.325 757.18 943.425 760.05H943.95L945.21 752.595H952.56V809.82C952.56 815.14 951.65 819.585 949.83 823.155C948.01 826.795 945.245 829.525 941.535 831.345C937.825 833.165 933.1 834.075 927.36 834.075C923.3 834.075 919.555 833.76 916.125 833.13C912.765 832.57 909.755 831.695 907.095 830.505V822C908.915 822.91 910.91 823.68 913.08 824.31C915.25 825.01 917.595 825.535 920.115 825.885C922.635 826.235 925.225 826.41 927.885 826.41C932.715 826.41 936.495 824.975 939.225 822.105C942.025 819.305 943.425 815.455 943.425 810.555V808.35C943.425 807.51 943.46 806.32 943.53 804.78C943.6 803.17 943.67 802.05 943.74 801.42H943.32C941.36 804.29 938.91 806.425 935.97 807.825C933.1 809.225 929.74 809.925 925.89 809.925C918.61 809.925 912.905 807.37 908.775 802.26C904.715 797.15 902.685 790.01 902.685 780.84C902.685 774.82 903.595 769.64 905.415 765.3C907.305 760.89 909.965 757.495 913.395 755.115C916.825 752.735 920.955 751.545 925.785 751.545ZM927.045 759.315C923.895 759.315 921.2 760.155 918.96 761.835C916.79 763.515 915.11 765.965 913.92 769.185C912.8 772.405 912.24 776.325 912.24 780.945C912.24 787.875 913.5 793.195 916.02 796.905C918.61 800.545 922.355 802.365 927.255 802.365C930.125 802.365 932.575 802.015 934.605 801.315C936.635 800.545 938.315 799.39 939.645 797.85C940.975 796.24 941.955 794.21 942.585 791.76C943.215 789.31 943.53 786.405 943.53 783.045V780.84C943.53 775.73 942.935 771.6 941.745 768.45C940.625 765.3 938.84 762.99 936.39 761.52C933.94 760.05 930.825 759.315 927.045 759.315Z" fill="#E7E7E7"/>
<path d="M870.118 751.545C876.838 751.545 881.913 753.19 885.343 756.48C888.773 759.7 890.488 764.95 890.488 772.23V808.875H881.353V772.86C881.353 768.31 880.338 764.915 878.308 762.675C876.278 760.435 873.093 759.315 868.753 759.315C862.523 759.315 858.218 761.065 855.838 764.565C853.458 768.065 852.268 773.105 852.268 779.685V808.875H843.028V752.595H850.483L851.848 760.26H852.373C853.633 758.3 855.173 756.69 856.993 755.43C858.883 754.1 860.948 753.12 863.188 752.49C865.428 751.86 867.738 751.545 870.118 751.545Z" fill="#E7E7E7"/>
<path d="M827.297 752.595V808.875H818.057V752.595H827.297ZM822.782 731.49C824.182 731.49 825.407 731.98 826.457 732.96C827.577 733.87 828.137 735.34 828.137 737.37C828.137 739.33 827.577 740.8 826.457 741.78C825.407 742.76 824.182 743.25 822.782 743.25C821.242 743.25 819.947 742.76 818.897 741.78C817.847 740.8 817.322 739.33 817.322 737.37C817.322 735.34 817.847 733.87 818.897 732.96C819.947 731.98 821.242 731.49 822.782 731.49Z" fill="#E7E7E7"/>
<path d="M775.508 809.924C768.508 809.924 762.908 807.509 758.708 802.679C754.508 797.779 752.408 790.499 752.408 780.839C752.408 771.179 754.508 763.899 758.708 758.999C762.978 754.029 768.613 751.544 775.613 751.544C778.553 751.544 781.108 751.929 783.278 752.699C785.448 753.399 787.338 754.379 788.948 755.639C790.558 756.899 791.923 758.299 793.043 759.839H793.673C793.603 758.929 793.463 757.599 793.253 755.849C793.113 754.029 793.043 752.594 793.043 751.544V729.074H802.283V808.874H794.828L793.463 801.314H793.043C791.923 802.924 790.558 804.394 788.948 805.724C787.338 806.984 785.413 807.999 783.173 808.769C781.003 809.539 778.448 809.924 775.508 809.924ZM776.978 802.259C782.928 802.259 787.093 800.649 789.473 797.429C791.923 794.139 793.148 789.204 793.148 782.624V780.944C793.148 773.944 791.993 768.589 789.683 764.879C787.373 761.099 783.103 759.209 776.873 759.209C771.903 759.209 768.158 761.204 765.638 765.194C763.188 769.114 761.963 774.399 761.963 781.049C761.963 787.769 763.188 792.984 765.638 796.694C768.158 800.404 771.938 802.259 776.978 802.259Z" fill="#E7E7E7"/>
<path d="M720.115 751.65C726.975 751.65 732.05 753.155 735.34 756.165C738.63 759.175 740.275 763.97 740.275 770.55V808.875H733.555L731.77 800.895H731.35C729.74 802.925 728.06 804.64 726.31 806.04C724.63 807.37 722.67 808.35 720.43 808.98C718.26 809.61 715.6 809.925 712.45 809.925C709.09 809.925 706.045 809.33 703.315 808.14C700.655 806.95 698.555 805.13 697.015 802.68C695.475 800.16 694.705 797.01 694.705 793.23C694.705 787.63 696.91 783.325 701.32 780.315C705.73 777.235 712.52 775.555 721.69 775.275L731.245 774.96V771.6C731.245 766.91 730.23 763.655 728.2 761.835C726.17 760.015 723.3 759.105 719.59 759.105C716.65 759.105 713.85 759.56 711.19 760.47C708.53 761.31 706.045 762.29 703.735 763.41L700.9 756.48C703.35 755.15 706.255 754.03 709.615 753.12C712.975 752.14 716.475 751.65 720.115 751.65ZM722.845 781.68C715.845 781.96 710.98 783.08 708.25 785.04C705.59 787 704.26 789.765 704.26 793.335C704.26 796.485 705.205 798.795 707.095 800.265C709.055 801.735 711.54 802.47 714.55 802.47C719.31 802.47 723.265 801.175 726.415 798.585C729.565 795.925 731.14 791.865 731.14 786.405V781.365L722.845 781.68Z" fill="#E7E7E7"/>
<path d="M686.256 780.63C686.256 785.32 685.626 789.485 684.366 793.125C683.176 796.695 681.426 799.74 679.116 802.26C676.876 804.78 674.111 806.705 670.821 808.035C667.601 809.295 663.996 809.925 660.006 809.925C656.296 809.925 652.866 809.295 649.716 808.035C646.566 806.705 643.836 804.78 641.526 802.26C639.216 799.74 637.396 796.695 636.066 793.125C634.806 789.485 634.176 785.32 634.176 780.63C634.176 774.4 635.226 769.15 637.326 764.88C639.426 760.54 642.436 757.25 646.356 755.01C650.276 752.7 654.931 751.545 660.321 751.545C665.431 751.545 669.911 752.7 673.761 755.01C677.681 757.25 680.726 760.54 682.896 764.88C685.136 769.15 686.256 774.4 686.256 780.63ZM643.731 780.63C643.731 785.04 644.291 788.89 645.411 792.18C646.601 795.4 648.421 797.885 650.871 799.635C653.321 801.385 656.436 802.26 660.216 802.26C663.996 802.26 667.111 801.385 669.561 799.635C672.011 797.885 673.796 795.4 674.916 792.18C676.106 788.89 676.701 785.04 676.701 780.63C676.701 776.15 676.106 772.335 674.916 769.185C673.726 766.035 671.906 763.62 669.456 761.94C667.076 760.19 663.961 759.315 660.111 759.315C654.371 759.315 650.206 761.205 647.616 764.985C645.026 768.765 643.731 773.98 643.731 780.63Z" fill="#E7E7E7"/>
<path d="M585.623 808.874V733.904H595.073V800.474H627.833V808.874H585.623Z" fill="#E7E7E7"/>
<path d="M1920.66 751.545C1924.37 751.545 1927.69 752.245 1930.63 753.645C1933.64 755.045 1936.2 757.18 1938.3 760.05H1938.82L1940.08 752.595H1947.43V809.82C1947.43 815.14 1946.52 819.585 1944.7 823.155C1942.88 826.795 1940.12 829.525 1936.41 831.345C1932.7 833.165 1927.97 834.075 1922.23 834.075C1918.17 834.075 1914.43 833.76 1911 833.13C1907.64 832.57 1904.63 831.695 1901.97 830.505V822C1903.79 822.91 1905.78 823.68 1907.95 824.31C1910.12 825.01 1912.47 825.535 1914.99 825.885C1917.51 826.235 1920.1 826.41 1922.76 826.41C1927.59 826.41 1931.37 824.975 1934.1 822.105C1936.9 819.305 1938.3 815.455 1938.3 810.555V808.35C1938.3 807.51 1938.33 806.32 1938.4 804.78C1938.47 803.17 1938.54 802.05 1938.61 801.42H1938.19C1936.23 804.29 1933.78 806.425 1930.84 807.825C1927.97 809.225 1924.61 809.925 1920.76 809.925C1913.48 809.925 1907.78 807.37 1903.65 802.26C1899.59 797.15 1897.56 790.01 1897.56 780.84C1897.56 774.82 1898.47 769.64 1900.29 765.3C1902.18 760.89 1904.84 757.495 1908.27 755.115C1911.7 752.735 1915.83 751.545 1920.66 751.545ZM1921.92 759.315C1918.77 759.315 1916.07 760.155 1913.83 761.835C1911.66 763.515 1909.98 765.965 1908.79 769.185C1907.67 772.405 1907.11 776.325 1907.11 780.945C1907.11 787.875 1908.37 793.195 1910.89 796.905C1913.48 800.545 1917.23 802.365 1922.13 802.365C1925 802.365 1927.45 802.015 1929.48 801.315C1931.51 800.545 1933.19 799.39 1934.52 797.85C1935.85 796.24 1936.83 794.21 1937.46 791.76C1938.09 789.31 1938.4 786.405 1938.4 783.045V780.84C1938.4 775.73 1937.81 771.6 1936.62 768.45C1935.5 765.3 1933.71 762.99 1931.26 761.52C1928.81 760.05 1925.7 759.315 1921.92 759.315Z" fill="#E7E7E7"/>
<path d="M1864.99 751.545C1871.71 751.545 1876.79 753.19 1880.22 756.48C1883.65 759.7 1885.36 764.95 1885.36 772.23V808.875H1876.23V772.86C1876.23 768.31 1875.21 764.915 1873.18 762.675C1871.15 760.435 1867.97 759.315 1863.63 759.315C1857.4 759.315 1853.09 761.065 1850.71 764.565C1848.33 768.065 1847.14 773.105 1847.14 779.685V808.875H1837.9V752.595H1845.36L1846.72 760.26H1847.25C1848.51 758.3 1850.05 756.69 1851.87 755.43C1853.76 754.1 1855.82 753.12 1858.06 752.49C1860.3 751.86 1862.61 751.545 1864.99 751.545Z" fill="#E7E7E7"/>
<path d="M1822.17 752.595V808.875H1812.93V752.595H1822.17ZM1817.66 731.49C1819.06 731.49 1820.28 731.98 1821.33 732.96C1822.45 733.87 1823.01 735.34 1823.01 737.37C1823.01 739.33 1822.45 740.8 1821.33 741.78C1820.28 742.76 1819.06 743.25 1817.66 743.25C1816.12 743.25 1814.82 742.76 1813.77 741.78C1812.72 740.8 1812.2 739.33 1812.2 737.37C1812.2 735.34 1812.72 733.87 1813.77 732.96C1814.82 731.98 1816.12 731.49 1817.66 731.49Z" fill="#E7E7E7"/>
<path d="M1770.38 809.924C1763.38 809.924 1757.78 807.509 1753.58 802.679C1749.38 797.779 1747.28 790.499 1747.28 780.839C1747.28 771.179 1749.38 763.899 1753.58 758.999C1757.85 754.029 1763.49 751.544 1770.49 751.544C1773.43 751.544 1775.98 751.929 1778.15 752.699C1780.32 753.399 1782.21 754.379 1783.82 755.639C1785.43 756.899 1786.8 758.299 1787.92 759.839H1788.55C1788.48 758.929 1788.34 757.599 1788.13 755.849C1787.99 754.029 1787.92 752.594 1787.92 751.544V729.074H1797.16V808.874H1789.7L1788.34 801.314H1787.92C1786.8 802.924 1785.43 804.394 1783.82 805.724C1782.21 806.984 1780.29 807.999 1778.05 808.769C1775.88 809.539 1773.32 809.924 1770.38 809.924ZM1771.85 802.259C1777.8 802.259 1781.97 800.649 1784.35 797.429C1786.8 794.139 1788.02 789.204 1788.02 782.624V780.944C1788.02 773.944 1786.87 768.589 1784.56 764.879C1782.25 761.099 1777.98 759.209 1771.75 759.209C1766.78 759.209 1763.03 761.204 1760.51 765.194C1758.06 769.114 1756.84 774.399 1756.84 781.049C1756.84 787.769 1758.06 792.984 1760.51 796.694C1763.03 800.404 1766.81 802.259 1771.85 802.259Z" fill="#E7E7E7"/>
<path d="M1714.99 751.65C1721.85 751.65 1726.93 753.155 1730.22 756.165C1733.51 759.175 1735.15 763.97 1735.15 770.55V808.875H1728.43L1726.65 800.895H1726.23C1724.62 802.925 1722.94 804.64 1721.19 806.04C1719.51 807.37 1717.55 808.35 1715.31 808.98C1713.14 809.61 1710.48 809.925 1707.33 809.925C1703.97 809.925 1700.92 809.33 1698.19 808.14C1695.53 806.95 1693.43 805.13 1691.89 802.68C1690.35 800.16 1689.58 797.01 1689.58 793.23C1689.58 787.63 1691.79 783.325 1696.2 780.315C1700.61 777.235 1707.4 775.555 1716.57 775.275L1726.12 774.96V771.6C1726.12 766.91 1725.11 763.655 1723.08 761.835C1721.05 760.015 1718.18 759.105 1714.47 759.105C1711.53 759.105 1708.73 759.56 1706.07 760.47C1703.41 761.31 1700.92 762.29 1698.61 763.41L1695.78 756.48C1698.23 755.15 1701.13 754.03 1704.49 753.12C1707.85 752.14 1711.35 751.65 1714.99 751.65ZM1717.72 781.68C1710.72 781.96 1705.86 783.08 1703.13 785.04C1700.47 787 1699.14 789.765 1699.14 793.335C1699.14 796.485 1700.08 798.795 1701.97 800.265C1703.93 801.735 1706.42 802.47 1709.43 802.47C1714.19 802.47 1718.14 801.175 1721.29 798.585C1724.44 795.925 1726.02 791.865 1726.02 786.405V781.365L1717.72 781.68Z" fill="#E7E7E7"/>
<path d="M1681.13 780.63C1681.13 785.32 1680.5 789.485 1679.24 793.125C1678.05 796.695 1676.3 799.74 1673.99 802.26C1671.75 804.78 1668.99 806.705 1665.7 808.035C1662.48 809.295 1658.87 809.925 1654.88 809.925C1651.17 809.925 1647.74 809.295 1644.59 808.035C1641.44 806.705 1638.71 804.78 1636.4 802.26C1634.09 799.74 1632.27 796.695 1630.94 793.125C1629.68 789.485 1629.05 785.32 1629.05 780.63C1629.05 774.4 1630.1 769.15 1632.2 764.88C1634.3 760.54 1637.31 757.25 1641.23 755.01C1645.15 752.7 1649.81 751.545 1655.2 751.545C1660.31 751.545 1664.79 752.7 1668.64 755.01C1672.56 757.25 1675.6 760.54 1677.77 764.88C1680.01 769.15 1681.13 774.4 1681.13 780.63ZM1638.61 780.63C1638.61 785.04 1639.17 788.89 1640.29 792.18C1641.48 795.4 1643.3 797.885 1645.75 799.635C1648.2 801.385 1651.31 802.26 1655.09 802.26C1658.87 802.26 1661.99 801.385 1664.44 799.635C1666.89 797.885 1668.67 795.4 1669.79 792.18C1670.98 788.89 1671.58 785.04 1671.58 780.63C1671.58 776.15 1670.98 772.335 1669.79 769.185C1668.6 766.035 1666.78 763.62 1664.33 761.94C1661.95 760.19 1658.84 759.315 1654.99 759.315C1649.25 759.315 1645.08 761.205 1642.49 764.985C1639.9 768.765 1638.61 773.98 1638.61 780.63Z" fill="#E7E7E7"/>
<path d="M1580.5 808.874V733.904H1589.95V800.474H1622.71V808.874H1580.5Z" fill="#E7E7E7"/>
<path d="M1018.96 1005.33C1018.96 1002.74 1019.59 1000.92 1020.85 999.87C1022.11 998.82 1023.62 998.295 1025.37 998.295C1027.19 998.295 1028.73 998.82 1029.99 999.87C1031.32 1000.92 1031.98 1002.74 1031.98 1005.33C1031.98 1007.85 1031.32 1009.67 1029.99 1010.79C1028.73 1011.91 1027.19 1012.47 1025.37 1012.47C1023.62 1012.47 1022.11 1011.91 1020.85 1010.79C1019.59 1009.67 1018.96 1007.85 1018.96 1005.33Z" fill="#E7E7E7"/>
<path d="M992.965 1005.33C992.965 1002.74 993.595 1000.92 994.855 999.87C996.115 998.82 997.62 998.295 999.37 998.295C1001.19 998.295 1002.73 998.82 1003.99 999.87C1005.32 1000.92 1005.99 1002.74 1005.99 1005.33C1005.99 1007.85 1005.32 1009.67 1003.99 1010.79C1002.73 1011.91 1001.19 1012.47 999.37 1012.47C997.62 1012.47 996.115 1011.91 994.855 1010.79C993.595 1009.67 992.965 1007.85 992.965 1005.33Z" fill="#E7E7E7"/>
<path d="M966.969 1005.33C966.969 1002.74 967.599 1000.92 968.859 999.87C970.119 998.82 971.624 998.295 973.374 998.295C975.194 998.295 976.734 998.82 977.994 999.87C979.324 1000.92 979.989 1002.74 979.989 1005.33C979.989 1007.85 979.324 1009.67 977.994 1010.79C976.734 1011.91 975.194 1012.47 973.374 1012.47C971.624 1012.47 970.119 1011.91 968.859 1010.79C967.599 1009.67 966.969 1007.85 966.969 1005.33Z" fill="#E7E7E7"/>
<path d="M925.785 953.67C929.495 953.67 932.82 954.37 935.76 955.77C938.77 957.17 941.325 959.305 943.425 962.175H943.95L945.21 954.72H952.56V1011.94C952.56 1017.26 951.65 1021.71 949.83 1025.28C948.01 1028.92 945.245 1031.65 941.535 1033.47C937.825 1035.29 933.1 1036.2 927.36 1036.2C923.3 1036.2 919.555 1035.88 916.125 1035.25C912.765 1034.69 909.755 1033.82 907.095 1032.63V1024.12C908.915 1025.03 910.91 1025.8 913.08 1026.43C915.25 1027.13 917.595 1027.66 920.115 1028.01C922.635 1028.36 925.225 1028.53 927.885 1028.53C932.715 1028.53 936.495 1027.1 939.225 1024.23C942.025 1021.43 943.425 1017.58 943.425 1012.68V1010.47C943.425 1009.63 943.46 1008.44 943.53 1006.9C943.6 1005.29 943.67 1004.17 943.74 1003.54H943.32C941.36 1006.41 938.91 1008.55 935.97 1009.95C933.1 1011.35 929.74 1012.05 925.89 1012.05C918.61 1012.05 912.905 1009.49 908.775 1004.38C904.715 999.275 902.685 992.135 902.685 982.965C902.685 976.945 903.595 971.765 905.415 967.425C907.305 963.015 909.965 959.62 913.395 957.24C916.825 954.86 920.955 953.67 925.785 953.67ZM927.045 961.44C923.895 961.44 921.2 962.28 918.96 963.96C916.79 965.64 915.11 968.09 913.92 971.31C912.8 974.53 912.24 978.45 912.24 983.07C912.24 990 913.5 995.32 916.02 999.03C918.61 1002.67 922.355 1004.49 927.255 1004.49C930.125 1004.49 932.575 1004.14 934.605 1003.44C936.635 1002.67 938.315 1001.51 939.645 999.975C940.975 998.365 941.955 996.335 942.585 993.885C943.215 991.435 943.53 988.53 943.53 985.17V982.965C943.53 977.855 942.935 973.725 941.745 970.575C940.625 967.425 938.84 965.115 936.39 963.645C933.94 962.175 930.825 961.44 927.045 961.44Z" fill="#E7E7E7"/>
<path d="M870.118 953.67C876.838 953.67 881.913 955.315 885.343 958.605C888.773 961.825 890.488 967.075 890.488 974.355V1011H881.353V974.985C881.353 970.435 880.338 967.04 878.308 964.8C876.278 962.56 873.093 961.44 868.753 961.44C862.523 961.44 858.218 963.19 855.838 966.69C853.458 970.19 852.268 975.23 852.268 981.81V1011H843.028V954.72H850.483L851.848 962.385H852.373C853.633 960.425 855.173 958.815 856.993 957.555C858.883 956.225 860.948 955.245 863.188 954.615C865.428 953.985 867.738 953.67 870.118 953.67Z" fill="#E7E7E7"/>
<path d="M827.297 954.72V1011H818.057V954.72H827.297ZM822.782 933.615C824.182 933.615 825.407 934.105 826.457 935.085C827.577 935.995 828.137 937.465 828.137 939.495C828.137 941.455 827.577 942.925 826.457 943.905C825.407 944.885 824.182 945.375 822.782 945.375C821.242 945.375 819.947 944.885 818.897 943.905C817.847 942.925 817.322 941.455 817.322 939.495C817.322 937.465 817.847 935.995 818.897 935.085C819.947 934.105 821.242 933.615 822.782 933.615Z" fill="#E7E7E7"/>
<path d="M775.508 1012.05C768.508 1012.05 762.908 1009.63 758.708 1004.8C754.508 999.904 752.408 992.624 752.408 982.964C752.408 973.304 754.508 966.024 758.708 961.124C762.978 956.154 768.613 953.669 775.613 953.669C778.553 953.669 781.108 954.054 783.278 954.824C785.448 955.524 787.338 956.504 788.948 957.764C790.558 959.024 791.923 960.424 793.043 961.964H793.673C793.603 961.054 793.463 959.724 793.253 957.974C793.113 956.154 793.043 954.719 793.043 953.669V931.199H802.283V1011H794.828L793.463 1003.44H793.043C791.923 1005.05 790.558 1006.52 788.948 1007.85C787.338 1009.11 785.413 1010.12 783.173 1010.89C781.003 1011.66 778.448 1012.05 775.508 1012.05ZM776.978 1004.38C782.928 1004.38 787.093 1002.77 789.473 999.554C791.923 996.264 793.148 991.329 793.148 984.749V983.069C793.148 976.069 791.993 970.714 789.683 967.004C787.373 963.224 783.103 961.334 776.873 961.334C771.903 961.334 768.158 963.329 765.638 967.319C763.188 971.239 761.963 976.524 761.963 983.174C761.963 989.894 763.188 995.109 765.638 998.819C768.158 1002.53 771.938 1004.38 776.978 1004.38Z" fill="#E7E7E7"/>
<path d="M720.115 953.775C726.975 953.775 732.05 955.28 735.34 958.29C738.63 961.3 740.275 966.095 740.275 972.675V1011H733.555L731.77 1003.02H731.35C729.74 1005.05 728.06 1006.77 726.31 1008.17C724.63 1009.5 722.67 1010.48 720.43 1011.11C718.26 1011.74 715.6 1012.05 712.45 1012.05C709.09 1012.05 706.045 1011.46 703.315 1010.27C700.655 1009.08 698.555 1007.26 697.015 1004.81C695.475 1002.29 694.705 999.135 694.705 995.355C694.705 989.755 696.91 985.45 701.32 982.44C705.73 979.36 712.52 977.68 721.69 977.4L731.245 977.085V973.725C731.245 969.035 730.23 965.78 728.2 963.96C726.17 962.14 723.3 961.23 719.59 961.23C716.65 961.23 713.85 961.685 711.19 962.595C708.53 963.435 706.045 964.415 703.735 965.535L700.9 958.605C703.35 957.275 706.255 956.155 709.615 955.245C712.975 954.265 716.475 953.775 720.115 953.775ZM722.845 983.805C715.845 984.085 710.98 985.205 708.25 987.165C705.59 989.125 704.26 991.89 704.26 995.46C704.26 998.61 705.205 1000.92 707.095 1002.39C709.055 1003.86 711.54 1004.6 714.55 1004.6C719.31 1004.6 723.265 1003.3 726.415 1000.71C729.565 998.05 731.14 993.99 731.14 988.53V983.49L722.845 983.805Z" fill="#E7E7E7"/>
<path d="M686.256 982.755C686.256 987.445 685.626 991.61 684.366 995.25C683.176 998.82 681.426 1001.86 679.116 1004.38C676.876 1006.9 674.111 1008.83 670.821 1010.16C667.601 1011.42 663.996 1012.05 660.006 1012.05C656.296 1012.05 652.866 1011.42 649.716 1010.16C646.566 1008.83 643.836 1006.9 641.526 1004.38C639.216 1001.86 637.396 998.82 636.066 995.25C634.806 991.61 634.176 987.445 634.176 982.755C634.176 976.525 635.226 971.275 637.326 967.005C639.426 962.665 642.436 959.375 646.356 957.135C650.276 954.825 654.931 953.67 660.321 953.67C665.431 953.67 669.911 954.825 673.761 957.135C677.681 959.375 680.726 962.665 682.896 967.005C685.136 971.275 686.256 976.525 686.256 982.755ZM643.731 982.755C643.731 987.165 644.291 991.015 645.411 994.305C646.601 997.525 648.421 1000.01 650.871 1001.76C653.321 1003.51 656.436 1004.38 660.216 1004.38C663.996 1004.38 667.111 1003.51 669.561 1001.76C672.011 1000.01 673.796 997.525 674.916 994.305C676.106 991.015 676.701 987.165 676.701 982.755C676.701 978.275 676.106 974.46 674.916 971.31C673.726 968.16 671.906 965.745 669.456 964.065C667.076 962.315 663.961 961.44 660.111 961.44C654.371 961.44 650.206 963.33 647.616 967.11C645.026 970.89 643.731 976.105 643.731 982.755Z" fill="#E7E7E7"/>
<path d="M585.623 1011V936.029H595.073V1002.6H627.833V1011H585.623Z" fill="#E7E7E7"/>
<path d="M1920.66 953.67C1924.37 953.67 1927.69 954.37 1930.63 955.77C1933.64 957.17 1936.2 959.305 1938.3 962.175H1938.82L1940.08 954.72H1947.43V1011.94C1947.43 1017.26 1946.52 1021.71 1944.7 1025.28C1942.88 1028.92 1940.12 1031.65 1936.41 1033.47C1932.7 1035.29 1927.97 1036.2 1922.23 1036.2C1918.17 1036.2 1914.43 1035.88 1911 1035.25C1907.64 1034.69 1904.63 1033.82 1901.97 1032.63V1024.12C1903.79 1025.03 1905.78 1025.8 1907.95 1026.43C1910.12 1027.13 1912.47 1027.66 1914.99 1028.01C1917.51 1028.36 1920.1 1028.53 1922.76 1028.53C1927.59 1028.53 1931.37 1027.1 1934.1 1024.23C1936.9 1021.43 1938.3 1017.58 1938.3 1012.68V1010.47C1938.3 1009.63 1938.33 1008.44 1938.4 1006.9C1938.47 1005.29 1938.54 1004.17 1938.61 1003.54H1938.19C1936.23 1006.41 1933.78 1008.55 1930.84 1009.95C1927.97 1011.35 1924.61 1012.05 1920.76 1012.05C1913.48 1012.05 1907.78 1009.49 1903.65 1004.38C1899.59 999.275 1897.56 992.135 1897.56 982.965C1897.56 976.945 1898.47 971.765 1900.29 967.425C1902.18 963.015 1904.84 959.62 1908.27 957.24C1911.7 954.86 1915.83 953.67 1920.66 953.67ZM1921.92 961.44C1918.77 961.44 1916.07 962.28 1913.83 963.96C1911.66 965.64 1909.98 968.09 1908.79 971.31C1907.67 974.53 1907.11 978.45 1907.11 983.07C1907.11 990 1908.37 995.32 1910.89 999.03C1913.48 1002.67 1917.23 1004.49 1922.13 1004.49C1925 1004.49 1927.45 1004.14 1929.48 1003.44C1931.51 1002.67 1933.19 1001.51 1934.52 999.975C1935.85 998.365 1936.83 996.335 1937.46 993.885C1938.09 991.435 1938.4 988.53 1938.4 985.17V982.965C1938.4 977.855 1937.81 973.725 1936.62 970.575C1935.5 967.425 1933.71 965.115 1931.26 963.645C1928.81 962.175 1925.7 961.44 1921.92 961.44Z" fill="#E7E7E7"/>
<path d="M1864.99 953.67C1871.71 953.67 1876.79 955.315 1880.22 958.605C1883.65 961.825 1885.36 967.075 1885.36 974.355V1011H1876.23V974.985C1876.23 970.435 1875.21 967.04 1873.18 964.8C1871.15 962.56 1867.97 961.44 1863.63 961.44C1857.4 961.44 1853.09 963.19 1850.71 966.69C1848.33 970.19 1847.14 975.23 1847.14 981.81V1011H1837.9V954.72H1845.36L1846.72 962.385H1847.25C1848.51 960.425 1850.05 958.815 1851.87 957.555C1853.76 956.225 1855.82 955.245 1858.06 954.615C1860.3 953.985 1862.61 953.67 1864.99 953.67Z" fill="#E7E7E7"/>
<path d="M1822.17 954.72V1011H1812.93V954.72H1822.17ZM1817.66 933.615C1819.06 933.615 1820.28 934.105 1821.33 935.085C1822.45 935.995 1823.01 937.465 1823.01 939.495C1823.01 941.455 1822.45 942.925 1821.33 943.905C1820.28 944.885 1819.06 945.375 1817.66 945.375C1816.12 945.375 1814.82 944.885 1813.77 943.905C1812.72 942.925 1812.2 941.455 1812.2 939.495C1812.2 937.465 1812.72 935.995 1813.77 935.085C1814.82 934.105 1816.12 933.615 1817.66 933.615Z" fill="#E7E7E7"/>
<path d="M1770.38 1012.05C1763.38 1012.05 1757.78 1009.63 1753.58 1004.8C1749.38 999.904 1747.28 992.624 1747.28 982.964C1747.28 973.304 1749.38 966.024 1753.58 961.124C1757.85 956.154 1763.49 953.669 1770.49 953.669C1773.43 953.669 1775.98 954.054 1778.15 954.824C1780.32 955.524 1782.21 956.504 1783.82 957.764C1785.43 959.024 1786.8 960.424 1787.92 961.964H1788.55C1788.48 961.054 1788.34 959.724 1788.13 957.974C1787.99 956.154 1787.92 954.719 1787.92 953.669V931.199H1797.16V1011H1789.7L1788.34 1003.44H1787.92C1786.8 1005.05 1785.43 1006.52 1783.82 1007.85C1782.21 1009.11 1780.29 1010.12 1778.05 1010.89C1775.88 1011.66 1773.32 1012.05 1770.38 1012.05ZM1771.85 1004.38C1777.8 1004.38 1781.97 1002.77 1784.35 999.554C1786.8 996.264 1788.02 991.329 1788.02 984.749V983.069C1788.02 976.069 1786.87 970.714 1784.56 967.004C1782.25 963.224 1777.98 961.334 1771.75 961.334C1766.78 961.334 1763.03 963.329 1760.51 967.319C1758.06 971.239 1756.84 976.524 1756.84 983.174C1756.84 989.894 1758.06 995.109 1760.51 998.819C1763.03 1002.53 1766.81 1004.38 1771.85 1004.38Z" fill="#E7E7E7"/>
<path d="M1714.99 953.775C1721.85 953.775 1726.93 955.28 1730.22 958.29C1733.51 961.3 1735.15 966.095 1735.15 972.675V1011H1728.43L1726.65 1003.02H1726.23C1724.62 1005.05 1722.94 1006.77 1721.19 1008.17C1719.51 1009.5 1717.55 1010.48 1715.31 1011.11C1713.14 1011.74 1710.48 1012.05 1707.33 1012.05C1703.97 1012.05 1700.92 1011.46 1698.19 1010.27C1695.53 1009.08 1693.43 1007.26 1691.89 1004.81C1690.35 1002.29 1689.58 999.135 1689.58 995.355C1689.58 989.755 1691.79 985.45 1696.2 982.44C1700.61 979.36 1707.4 977.68 1716.57 977.4L1726.12 977.085V973.725C1726.12 969.035 1725.11 965.78 1723.08 963.96C1721.05 962.14 1718.18 961.23 1714.47 961.23C1711.53 961.23 1708.73 961.685 1706.07 962.595C1703.41 963.435 1700.92 964.415 1698.61 965.535L1695.78 958.605C1698.23 957.275 1701.13 956.155 1704.49 955.245C1707.85 954.265 1711.35 953.775 1714.99 953.775ZM1717.72 983.805C1710.72 984.085 1705.86 985.205 1703.13 987.165C1700.47 989.125 1699.14 991.89 1699.14 995.46C1699.14 998.61 1700.08 1000.92 1701.97 1002.39C1703.93 1003.86 1706.42 1004.6 1709.43 1004.6C1714.19 1004.6 1718.14 1003.3 1721.29 1000.71C1724.44 998.05 1726.02 993.99 1726.02 988.53V983.49L1717.72 983.805Z" fill="#E7E7E7"/>
<path d="M1681.13 982.755C1681.13 987.445 1680.5 991.61 1679.24 995.25C1678.05 998.82 1676.3 1001.86 1673.99 1004.38C1671.75 1006.9 1668.99 1008.83 1665.7 1010.16C1662.48 1011.42 1658.87 1012.05 1654.88 1012.05C1651.17 1012.05 1647.74 1011.42 1644.59 1010.16C1641.44 1008.83 1638.71 1006.9 1636.4 1004.38C1634.09 1001.86 1632.27 998.82 1630.94 995.25C1629.68 991.61 1629.05 987.445 1629.05 982.755C1629.05 976.525 1630.1 971.275 1632.2 967.005C1634.3 962.665 1637.31 959.375 1641.23 957.135C1645.15 954.825 1649.81 953.67 1655.2 953.67C1660.31 953.67 1664.79 954.825 1668.64 957.135C1672.56 959.375 1675.6 962.665 1677.77 967.005C1680.01 971.275 1681.13 976.525 1681.13 982.755ZM1638.61 982.755C1638.61 987.165 1639.17 991.015 1640.29 994.305C1641.48 997.525 1643.3 1000.01 1645.75 1001.76C1648.2 1003.51 1651.31 1004.38 1655.09 1004.38C1658.87 1004.38 1661.99 1003.51 1664.44 1001.76C1666.89 1000.01 1668.67 997.525 1669.79 994.305C1670.98 991.015 1671.58 987.165 1671.58 982.755C1671.58 978.275 1670.98 974.46 1669.79 971.31C1668.6 968.16 1666.78 965.745 1664.33 964.065C1661.95 962.315 1658.84 961.44 1654.99 961.44C1649.25 961.44 1645.08 963.33 1642.49 967.11C1639.9 970.89 1638.61 976.105 1638.61 982.755Z" fill="#E7E7E7"/>
<path d="M1580.5 1011V936.029H1589.95V1002.6H1622.71V1011H1580.5Z" fill="#E7E7E7"/>
<rect x="-593.344" y="870.656" width="967.312" height="208.688" fill="#2F2F2F" stroke="#B4B4B4" stroke-width="1.3125"/>
<rect x="-593.344" y="660.656" width="967.312" height="208.688" fill="#2F2F2F" stroke="#B4B4B4" stroke-width="1.3125"/>
<rect x="-593.344" y="450.656" width="967.312" height="208.688" fill="#2F2F2F" stroke="#B4B4B4" stroke-width="1.3125"/>
<path d="M79.2109 590.58C79.2109 587.99 79.841 586.17 81.101 585.12C82.361 584.07 83.8659 583.545 85.6159 583.545C87.4359 583.545 88.9759 584.07 90.2359 585.12C91.5659 586.17 92.2309 587.99 92.2309 590.58C92.2309 593.1 91.5659 594.92 90.2359 596.04C88.9759 597.16 87.4359 597.72 85.6159 597.72C83.8659 597.72 82.361 597.16 81.101 596.04C79.841 594.92 79.2109 593.1 79.2109 590.58Z" fill="#A0A0A0"/>
<path d="M53.2151 590.58C53.2151 587.99 53.8451 586.17 55.1051 585.12C56.3651 584.07 57.8701 583.545 59.6201 583.545C61.4401 583.545 62.9801 584.07 64.2401 585.12C65.5701 586.17 66.2351 587.99 66.2351 590.58C66.2351 593.1 65.5701 594.92 64.2401 596.04C62.9801 597.16 61.4401 597.72 59.6201 597.72C57.8701 597.72 56.3651 597.16 55.1051 596.04C53.8451 594.92 53.2151 593.1 53.2151 590.58Z" fill="#A0A0A0"/>
<path d="M27.2192 590.58C27.2192 587.99 27.8493 586.17 29.1093 585.12C30.3693 584.07 31.8742 583.545 33.6242 583.545C35.4442 583.545 36.9842 584.07 38.2442 585.12C39.5742 586.17 40.2392 587.99 40.2392 590.58C40.2392 593.1 39.5742 594.92 38.2442 596.04C36.9842 597.16 35.4442 597.72 33.6242 597.72C31.8742 597.72 30.3693 597.16 29.1093 596.04C27.8493 594.92 27.2192 593.1 27.2192 590.58Z" fill="#A0A0A0"/>
<path d="M-13.9652 538.92C-10.2552 538.92 -6.93017 539.62 -3.99017 541.02C-0.980172 542.42 1.57484 544.555 3.67484 547.425H4.19983L5.45981 539.97H12.8098V597.195C12.8098 602.515 11.8998 606.96 10.0798 610.53C8.25983 614.17 5.49482 616.9 1.78482 618.72C-1.92518 620.54 -6.65017 621.45 -12.3902 621.45C-16.4502 621.45 -20.1952 621.135 -23.6252 620.505C-26.9852 619.945 -29.9952 619.07 -32.6552 617.88V609.375C-30.8352 610.285 -28.8402 611.055 -26.6702 611.685C-24.5002 612.385 -22.1552 612.91 -19.6352 613.26C-17.1152 613.61 -14.5252 613.785 -11.8652 613.785C-7.03517 613.785 -3.25518 612.35 -0.525177 609.48C2.27482 606.68 3.67484 602.83 3.67484 597.93V595.725C3.67484 594.885 3.70981 593.695 3.77982 592.155C3.84981 590.545 3.91981 589.425 3.98981 588.795H3.56982C1.60982 591.665 -0.84018 593.8 -3.78018 595.2C-6.65018 596.6 -10.0102 597.3 -13.8602 597.3C-21.1402 597.3 -26.8452 594.745 -30.9752 589.635C-35.0352 584.525 -37.0652 577.385 -37.0652 568.215C-37.0652 562.195 -36.1552 557.015 -34.3352 552.675C-32.4452 548.265 -29.7852 544.87 -26.3552 542.49C-22.9252 540.11 -18.7952 538.92 -13.9652 538.92ZM-12.7052 546.69C-15.8552 546.69 -18.5502 547.53 -20.7902 549.21C-22.9602 550.89 -24.6402 553.34 -25.8302 556.56C-26.9502 559.78 -27.5102 563.7 -27.5102 568.32C-27.5102 575.25 -26.2502 580.57 -23.7302 584.28C-21.1402 587.92 -17.3952 589.74 -12.4952 589.74C-9.62518 589.74 -7.17517 589.39 -5.14517 588.69C-3.11517 587.92 -1.43519 586.765 -0.105194 585.225C1.22481 583.615 2.20484 581.585 2.83484 579.135C3.46484 576.685 3.77982 573.78 3.77982 570.42V568.215C3.77982 563.105 3.18481 558.975 1.99481 555.825C0.874812 552.675 -0.910169 550.365 -3.36017 548.895C-5.81017 547.425 -8.92517 546.69 -12.7052 546.69Z" fill="#A0A0A0"/>
<path d="M79.2109 803.205C79.2109 800.615 79.841 798.795 81.101 797.745C82.361 796.695 83.8659 796.17 85.6159 796.17C87.4359 796.17 88.9759 796.695 90.2359 797.745C91.5659 798.795 92.2309 800.615 92.2309 803.205C92.2309 805.725 91.5659 807.545 90.2359 808.665C88.9759 809.785 87.4359 810.345 85.6159 810.345C83.8659 810.345 82.361 809.785 81.101 808.665C79.841 807.545 79.2109 805.725 79.2109 803.205Z" fill="#A0A0A0"/>
<path d="M53.2151 803.205C53.2151 800.615 53.8451 798.795 55.1051 797.745C56.3651 796.695 57.8701 796.17 59.6201 796.17C61.4401 796.17 62.9801 796.695 64.2401 797.745C65.5701 798.795 66.2351 800.615 66.2351 803.205C66.2351 805.725 65.5701 807.545 64.2401 808.665C62.9801 809.785 61.4401 810.345 59.6201 810.345C57.8701 810.345 56.3651 809.785 55.1051 808.665C53.8451 807.545 53.2151 805.725 53.2151 803.205Z" fill="#A0A0A0"/>
<path d="M27.2192 803.205C27.2192 800.615 27.8493 798.795 29.1093 797.745C30.3693 796.695 31.8742 796.17 33.6242 796.17C35.4442 796.17 36.9842 796.695 38.2442 797.745C39.5742 798.795 40.2392 800.615 40.2392 803.205C40.2392 805.725 39.5742 807.545 38.2442 808.665C36.9842 809.785 35.4442 810.345 33.6242 810.345C31.8742 810.345 30.3693 809.785 29.1093 808.665C27.8493 807.545 27.2192 805.725 27.2192 803.205Z" fill="#A0A0A0"/>
<path d="M-13.9652 751.545C-10.2552 751.545 -6.93017 752.245 -3.99017 753.645C-0.980172 755.045 1.57484 757.18 3.67484 760.05H4.19983L5.45981 752.595H12.8098V809.82C12.8098 815.14 11.8998 819.585 10.0798 823.155C8.25983 826.795 5.49482 829.525 1.78482 831.345C-1.92518 833.165 -6.65017 834.075 -12.3902 834.075C-16.4502 834.075 -20.1952 833.76 -23.6252 833.13C-26.9852 832.57 -29.9952 831.695 -32.6552 830.505V822C-30.8352 822.91 -28.8402 823.68 -26.6702 824.31C-24.5002 825.01 -22.1552 825.535 -19.6352 825.885C-17.1152 826.235 -14.5252 826.41 -11.8652 826.41C-7.03517 826.41 -3.25518 824.975 -0.525177 822.105C2.27482 819.305 3.67484 815.455 3.67484 810.555V808.35C3.67484 807.51 3.70981 806.32 3.77982 804.78C3.84981 803.17 3.91981 802.05 3.98981 801.42H3.56982C1.60982 804.29 -0.84018 806.425 -3.78018 807.825C-6.65018 809.225 -10.0102 809.925 -13.8602 809.925C-21.1402 809.925 -26.8452 807.37 -30.9752 802.26C-35.0352 797.15 -37.0652 790.01 -37.0652 780.84C-37.0652 774.82 -36.1552 769.64 -34.3352 765.3C-32.4452 760.89 -29.7852 757.495 -26.3552 755.115C-22.9252 752.735 -18.7952 751.545 -13.9652 751.545ZM-12.7052 759.315C-15.8552 759.315 -18.5502 760.155 -20.7902 761.835C-22.9602 763.515 -24.6402 765.965 -25.8302 769.185C-26.9502 772.405 -27.5102 776.325 -27.5102 780.945C-27.5102 787.875 -26.2502 793.195 -23.7302 796.905C-21.1402 800.545 -17.3952 802.365 -12.4952 802.365C-9.62518 802.365 -7.17517 802.015 -5.14517 801.315C-3.11517 800.545 -1.43519 799.39 -0.105194 797.85C1.22481 796.24 2.20484 794.21 2.83484 791.76C3.46484 789.31 3.77982 786.405 3.77982 783.045V780.84C3.77982 775.73 3.18481 771.6 1.99481 768.45C0.874812 765.3 -0.910169 762.99 -3.36017 761.52C-5.81017 760.05 -8.92517 759.315 -12.7052 759.315Z" fill="#A0A0A0"/>
<path d="M79.2109 1005.33C79.2109 1002.74 79.841 1000.92 81.101 999.87C82.361 998.82 83.8659 998.295 85.6159 998.295C87.4359 998.295 88.9759 998.82 90.2359 999.87C91.5659 1000.92 92.2309 1002.74 92.2309 1005.33C92.2309 1007.85 91.5659 1009.67 90.2359 1010.79C88.9759 1011.91 87.4359 1012.47 85.6159 1012.47C83.8659 1012.47 82.361 1011.91 81.101 1010.79C79.841 1009.67 79.2109 1007.85 79.2109 1005.33Z" fill="#A0A0A0"/>
<path d="M53.2151 1005.33C53.2151 1002.74 53.8451 1000.92 55.1051 999.87C56.3651 998.82 57.8701 998.295 59.6201 998.295C61.4401 998.295 62.9801 998.82 64.2401 999.87C65.5701 1000.92 66.2351 1002.74 66.2351 1005.33C66.2351 1007.85 65.5701 1009.67 64.2401 1010.79C62.9801 1011.91 61.4401 1012.47 59.6201 1012.47C57.8701 1012.47 56.3651 1011.91 55.1051 1010.79C53.8451 1009.67 53.2151 1007.85 53.2151 1005.33Z" fill="#A0A0A0"/>
<path d="M27.2192 1005.33C27.2192 1002.74 27.8493 1000.92 29.1093 999.87C30.3693 998.82 31.8742 998.295 33.6242 998.295C35.4442 998.295 36.9842 998.82 38.2442 999.87C39.5742 1000.92 40.2392 1002.74 40.2392 1005.33C40.2392 1007.85 39.5742 1009.67 38.2442 1010.79C36.9842 1011.91 35.4442 1012.47 33.6242 1012.47C31.8742 1012.47 30.3693 1011.91 29.1093 1010.79C27.8493 1009.67 27.2192 1007.85 27.2192 1005.33Z" fill="#A0A0A0"/>
<path d="M-13.9652 953.67C-10.2552 953.67 -6.93017 954.37 -3.99017 955.77C-0.980172 957.17 1.57484 959.305 3.67484 962.175H4.19983L5.45981 954.72H12.8098V1011.94C12.8098 1017.26 11.8998 1021.71 10.0798 1025.28C8.25983 1028.92 5.49482 1031.65 1.78482 1033.47C-1.92518 1035.29 -6.65017 1036.2 -12.3902 1036.2C-16.4502 1036.2 -20.1952 1035.88 -23.6252 1035.25C-26.9852 1034.69 -29.9952 1033.82 -32.6552 1032.63V1024.12C-30.8352 1025.03 -28.8402 1025.8 -26.6702 1026.43C-24.5002 1027.13 -22.1552 1027.66 -19.6352 1028.01C-17.1152 1028.36 -14.5252 1028.53 -11.8652 1028.53C-7.03517 1028.53 -3.25518 1027.1 -0.525177 1024.23C2.27482 1021.43 3.67484 1017.58 3.67484 1012.68V1010.47C3.67484 1009.63 3.70981 1008.44 3.77982 1006.9C3.84981 1005.29 3.91981 1004.17 3.98981 1003.54H3.56982C1.60982 1006.41 -0.84018 1008.55 -3.78018 1009.95C-6.65018 1011.35 -10.0102 1012.05 -13.8602 1012.05C-21.1402 1012.05 -26.8452 1009.49 -30.9752 1004.38C-35.0352 999.275 -37.0652 992.135 -37.0652 982.965C-37.0652 976.945 -36.1552 971.765 -34.3352 967.425C-32.4452 963.015 -29.7852 959.62 -26.3552 957.24C-22.9252 954.86 -18.7952 953.67 -13.9652 953.67ZM-12.7052 961.44C-15.8552 961.44 -18.5502 962.28 -20.7902 963.96C-22.9602 965.64 -24.6402 968.09 -25.8302 971.31C-26.9502 974.53 -27.5102 978.45 -27.5102 983.07C-27.5102 990 -26.2502 995.32 -23.7302 999.03C-21.1402 1002.67 -17.3952 1004.49 -12.4952 1004.49C-9.62518 1004.49 -7.17517 1004.14 -5.14517 1003.44C-3.11517 1002.67 -1.43519 1001.51 -0.105194 999.975C1.22481 998.365 2.20484 996.335 2.83484 993.885C3.46484 991.435 3.77982 988.53 3.77982 985.17V982.965C3.77982 977.855 3.18481 973.725 1.99481 970.575C0.874812 967.425 -0.910169 965.115 -3.36017 963.645C-5.81017 962.175 -8.92517 961.44 -12.7052 961.44Z" fill="#A0A0A0"/>
</g>
<defs>
<clipPath id="clip0_2100_316">
<rect width="1920" height="1080" fill="white"/>
</clipPath>
</defs>
</svg>
