<svg width="50" height="50" viewBox="0 0 50 50" fill="none" xmlns="http://www.w3.org/2000/svg">
<path d="M44.1082 16.4956L25.14 6.23273L5.67387 16.4956V31.2339L19.7908 33.9716L25.1386 42.5535L44.1082 32.0439V16.4942V16.4956Z" fill="white"/>
<path fill-rule="evenodd" clip-rule="evenodd" d="M5.77694 15.5695C5.86403 15.5013 5.95694 15.4389 6.0542 15.3808L23.999 5.17161C24.1398 5.09266 24.2881 5.02798 24.4418 4.97854L24.4708 4.96838C24.6936 4.89964 24.9257 4.86538 25.1589 4.86677C25.5654 4.86557 25.9653 4.97066 26.3187 5.17161L44.2142 15.4694C44.6987 15.7505 45.0664 16.196 45.2507 16.725C45.3305 16.9587 45.374 17.2069 45.374 17.461L45.345 31.1381C45.3458 31.4649 45.2763 31.7882 45.141 32.0857C45.0057 32.3833 44.808 32.6483 44.5611 32.8626C44.4521 32.9575 44.3345 33.042 44.2098 33.1152L44.1852 33.1297L26.9661 42.9281C26.5204 43.1821 26.0277 43.3429 25.5179 43.4008C25.0081 43.4587 24.4919 43.4124 24.0005 43.2648C23.723 43.1811 23.4564 43.0646 23.2065 42.9179L17.956 39.8985L20.6966 35.7513L13.4385 30.6706L12.0203 36.4727L12.2192 36.5889C12.1397 36.5544 12.0622 36.5156 11.9869 36.4727L6.02516 33.044C5.67384 32.8431 5.38174 32.553 5.17835 32.203C4.97497 31.8531 4.86749 31.4557 4.86678 31.051L4.89581 17.3753C4.89515 16.8604 5.06914 16.3604 5.38936 15.9571L5.40387 15.9382C5.51399 15.8021 5.63914 15.6775 5.77694 15.5695ZM13.2586 36.7747C13.4365 36.767 13.6129 36.7382 13.784 36.689ZM7.38823 17.4784L13.3631 20.9013L24.5216 27.3334C24.8787 27.5453 25.1008 27.9184 25.1008 28.3306L25.0718 41.1339C25.304 41.1339 25.5363 41.0773 25.7395 40.9626L42.3489 31.5097C42.5517 31.3965 42.7205 31.2312 42.8379 31.0309C42.9554 30.8305 43.017 30.6024 43.0166 30.3702L43.0456 18.2158C43.046 17.9848 42.9854 17.7578 42.87 17.5577C42.7545 17.3576 42.5883 17.1915 42.3881 17.0763L25.8165 7.5479C25.6137 7.42997 25.3833 7.36785 25.1487 7.36785C24.9141 7.36785 24.6837 7.42997 24.481 7.5479L7.87307 17.0008C7.67167 17.114 7.50464 17.2795 7.38968 17.4798L7.38823 17.4784ZM30.4152 23.8858L19.1652 17.3971L24.4723 14.3763C24.6764 14.2632 24.9059 14.2038 25.1393 14.2038C25.3726 14.2038 25.6022 14.2632 25.8063 14.3763L36.406 20.4774C36.8226 20.7155 37.0737 21.1466 37.0636 21.6169L37.0534 27.1142C37.0524 27.2915 37.0046 27.4654 36.9149 27.6183C36.8252 27.7712 36.6967 27.8978 36.5424 27.9852L32.0961 30.5139C31.9913 30.5732 31.8729 30.6042 31.7525 30.6037C31.632 30.6033 31.5138 30.5715 31.4094 30.5114C31.3051 30.4513 31.2182 30.365 31.1574 30.2611C31.0965 30.1571 31.0639 30.0391 31.0626 29.9187L31.0727 25.0268C31.0734 24.7955 31.0129 24.5682 30.8974 24.3678C30.782 24.1675 30.6156 24.0012 30.4152 23.8858Z" fill="#0B0B0F"/>
<path fill-rule="evenodd" clip-rule="evenodd" d="M25.8005 4.95679L25.8266 4.96405C25.8179 4.96168 25.8092 4.95926 25.8005 4.95679Z" fill="white" fill-opacity="0.3"/>
<path d="M13.9306 36.6423C13.9348 36.6409 13.9278 36.6423 13.9306 36.6423Z" fill="#040404"/>
<path d="M3.02903 17.3737L3 31.0479C3 32.5518 3.81145 33.9206 5.09468 34.6595L11.0652 38.0926C11.161 38.1477 11.2684 38.2015 11.3685 38.2494L17.011 41.5068L17.0284 41.5169L22.2687 44.5305C23.1255 45.029 24.0994 45.291 25.0906 45.2897C26.0734 45.2897 27.0387 45.0327 27.8894 44.5464L45.1113 34.7481C45.7471 34.3837 46.2758 33.8584 46.6443 33.2249C47.0127 32.5915 47.2079 31.8722 47.2103 31.1394L47.2394 17.4623C47.2384 16.7293 47.0442 16.0095 46.6765 15.3755C46.3088 14.7414 45.7804 14.2155 45.1447 13.8506L27.2419 3.55145C26.6082 3.19231 25.8923 3.00318 25.1638 3.00241C24.4353 3.00165 23.719 3.18929 23.0845 3.5471L5.12806 13.7621C4.49221 14.1272 3.96356 14.653 3.59513 15.2869C3.22671 15.9209 3.03148 16.6405 3.02903 17.3737ZM17.9545 39.8969L12.2206 36.5873C12.1412 36.5527 12.0637 36.514 11.9884 36.4711L6.02516 33.0424C5.67378 32.8418 5.38153 32.552 5.17789 32.2023C4.97426 31.8526 4.86644 31.4554 4.86532 31.0508L4.89435 17.3737C4.8937 16.8587 5.06769 16.3588 5.3879 15.9555L5.40387 15.9366C5.58453 15.7132 5.80502 15.5252 6.05419 15.3821L23.999 5.1729C24.1398 5.09348 24.2881 5.02832 24.4418 4.97839L24.4708 4.96823C24.6936 4.89948 24.9257 4.86522 25.1589 4.86661C25.5654 4.86542 25.9653 4.9705 26.3187 5.17145L44.2142 15.4692C44.699 15.75 45.0668 16.1956 45.2506 16.7248C45.3305 16.9585 45.374 17.2068 45.374 17.4608L45.345 31.1379C45.3459 31.4648 45.2764 31.788 45.1411 32.0856C45.0058 32.3832 44.808 32.6482 44.5611 32.8624C44.4521 32.9573 44.3345 33.0419 44.2098 33.115L44.1852 33.1295L26.9647 42.9279C26.5192 43.1819 26.0267 43.3427 25.5172 43.4006C25.0076 43.4585 24.4916 43.4122 24.0005 43.2647C23.723 43.1808 23.4565 43.0643 23.2065 42.9177L17.9545 39.8984V39.8969Z" fill="white" fill-opacity="0.8"/>
<path d="M12.0203 36.4713L12.2192 36.5874L17.9545 39.8971L20.6966 35.7498L13.4386 30.6692L12.0203 36.4713Z" fill="#040404"/>
</svg>
