<svg width="1194" height="1215" viewBox="0 0 1194 1215" fill="none" xmlns="http://www.w3.org/2000/svg">
<path d="M958.437 779.284L884.995 774.301L925.069 833.976C936.02 850.271 936.853 871.075 927.232 887.739L854.48 1013.75C844.859 1030.41 826.428 1040.09 806.839 1038.76L392.743 1010.66C376.369 1009.55 361.338 1000.87 352.191 987.243L120.8 642.672C109.859 626.384 109.028 605.581 118.649 588.917L191.401 462.907C201.022 446.243 219.451 436.565 239.03 437.892L312.473 442.876L272.399 383.2C261.458 366.911 260.626 346.108 270.247 329.444L342.999 203.434C352.62 186.77 371.05 177.092 390.629 178.419L804.731 206.523C821.103 207.636 836.134 216.314 845.283 229.936L1076.67 574.504C1087.62 590.799 1088.45 611.602 1078.83 628.267L1006.08 754.276C996.458 770.941 978.027 780.618 958.437 779.284Z" stroke="white" stroke-width="184.687" stroke-linecap="round" stroke-linejoin="round"/>
<path d="M237.186 436.769L651.288 464.873C667.66 465.985 682.692 474.664 691.841 488.285L923.225 832.853C934.176 849.148 935.009 869.952 925.388 886.616L852.636 1012.63C843.015 1029.29 824.584 1038.97 804.994 1037.63L390.898 1009.53C374.525 1008.42 359.493 999.745 350.346 986.12L118.956 641.549C108.015 625.261 107.184 604.458 116.805 587.794L189.556 461.784C199.177 445.12 217.607 435.442 237.186 436.769Z" fill="#E8E8E8" stroke="#5C5E63" stroke-width="37.2011" stroke-linecap="round" stroke-linejoin="round"/>
<g opacity="0.6">
<path d="M217.941 446.607L467.97 829.216L924.334 854.443" stroke="#5C5E63" stroke-width="30.869" stroke-linecap="round" stroke-linejoin="round"/>
<path d="M370.22 998.526L467.936 829.276Z" fill="white"/>
<path d="M370.22 998.526L467.936 829.276" stroke="#5C5E63" stroke-width="30.869" stroke-linecap="round" stroke-linejoin="round"/>
</g>
<path d="M388.785 177.295L802.888 205.399C819.259 206.511 834.291 215.19 843.44 228.812L1074.82 573.38C1085.78 589.675 1086.61 610.478 1076.99 627.143L1004.24 753.152C994.614 769.816 976.184 779.494 956.594 778.16L542.497 750.06C526.126 748.948 511.094 740.269 501.945 726.647L270.555 382.076C259.615 365.787 258.783 344.984 268.404 328.32L341.156 202.31C350.777 185.646 369.207 175.968 388.785 177.295Z" fill="white" stroke="#5C5E63" stroke-width="37.2011" stroke-linecap="round" stroke-linejoin="round"/>
<g opacity="0.6">
<path d="M369.504 187.193L619.531 569.805L1075.9 595.029" stroke="#5C5E63" stroke-width="30.869" stroke-linecap="round" stroke-linejoin="round"/>
<path d="M521.782 739.112L619.499 569.862" stroke="#5C5E63" stroke-width="30.869" stroke-linecap="round" stroke-linejoin="round"/>
</g>
</svg>
