<svg width="114" height="31" viewBox="0 0 114 31" fill="none" xmlns="http://www.w3.org/2000/svg">
<g clip-path="url(#clip0_347_247)">
<path d="M30.319 10.297L17.252 3.22699L3.84201 10.297V20.45L13.567 22.336L17.251 28.248L30.319 21.008V10.296V10.297Z" fill="white"/>
<path fill-rule="evenodd" clip-rule="evenodd" d="M3.91301 9.65901C3.97301 9.61201 4.03701 9.56901 4.10401 9.52901L16.466 2.49601C16.563 2.44162 16.6652 2.39707 16.771 2.36301L16.791 2.35601C16.9445 2.30865 17.1044 2.28505 17.265 2.28601C17.5451 2.28518 17.8205 2.35758 18.064 2.49601L30.392 9.59001C30.7258 9.78371 30.9791 10.0906 31.106 10.455C31.161 10.616 31.191 10.787 31.191 10.962L31.171 20.384C31.1716 20.6092 31.1237 20.8319 31.0305 21.0369C30.9373 21.2419 30.801 21.4244 30.631 21.572C30.5559 21.6374 30.4749 21.6956 30.389 21.746L30.372 21.756L18.51 28.506C18.2029 28.681 17.8635 28.7918 17.5123 28.8317C17.1611 28.8715 16.8055 28.8397 16.467 28.738C16.2758 28.6803 16.0922 28.6001 15.92 28.499L12.303 26.419L14.191 23.562L9.19101 20.062L8.21401 24.059L8.35101 24.139C8.29627 24.1153 8.24286 24.0886 8.19101 24.059L4.08401 21.697C3.84199 21.5586 3.64076 21.3587 3.50065 21.1177C3.36054 20.8766 3.28651 20.6028 3.28601 20.324L3.30601 10.903C3.30556 10.5483 3.42542 10.2038 3.64601 9.92601L3.65601 9.91301C3.73187 9.81926 3.81808 9.73339 3.91301 9.65901ZM9.06701 24.267C9.18958 24.2617 9.31109 24.2419 9.42901 24.208ZM5.02301 10.974L9.13901 13.332L16.826 17.763C17.072 17.909 17.225 18.166 17.225 18.45L17.205 27.27C17.365 27.27 17.525 27.231 17.665 27.152L29.107 20.64C29.2467 20.5621 29.363 20.4482 29.4439 20.3102C29.5248 20.1721 29.5673 20.015 29.567 19.855L29.587 11.482C29.5873 11.3229 29.5455 11.1665 29.466 11.0286C29.3865 10.8908 29.2719 10.7764 29.134 10.697L17.718 4.13301C17.5783 4.05177 17.4196 4.00897 17.258 4.00897C17.0964 4.00897 16.9377 4.05177 16.798 4.13301L5.35701 10.645C5.21827 10.723 5.10321 10.837 5.02401 10.975L5.02301 10.974ZM20.886 15.388L13.136 10.918L16.792 8.83701C16.9326 8.75909 17.0907 8.7182 17.2515 8.7182C17.4123 8.7182 17.5704 8.75909 17.711 8.83701L25.013 13.04C25.3 13.204 25.473 13.501 25.466 13.825L25.459 17.612C25.4583 17.7341 25.4254 17.8539 25.3636 17.9593C25.3018 18.0646 25.2133 18.1518 25.107 18.212L22.044 19.954C21.9718 19.9949 21.8902 20.0162 21.8073 20.0159C21.7243 20.0156 21.6428 19.9937 21.571 19.9523C21.4991 19.9109 21.4392 19.8515 21.3973 19.7799C21.3554 19.7083 21.3329 19.627 21.332 19.544L21.339 16.174C21.3395 16.0147 21.2978 15.8581 21.2182 15.7201C21.1387 15.582 21.0241 15.4675 20.886 15.388Z" fill="#0B0B0F"/>
<path fill-rule="evenodd" clip-rule="evenodd" d="M17.707 2.34799L17.725 2.35299C17.719 2.35136 17.713 2.34969 17.707 2.34799Z" fill="white" fill-opacity="0.3"/>
<path d="M9.53 24.176C9.533 24.175 9.528 24.176 9.53 24.176Z" fill="#040404"/>
<path d="M2.02 10.902L2 20.322C2 21.358 2.559 22.301 3.443 22.81L7.556 25.175C7.622 25.213 7.696 25.25 7.765 25.283L11.652 27.527L11.664 27.534L15.274 29.61C15.8643 29.9534 16.5351 30.1339 17.218 30.133C17.895 30.133 18.56 29.956 19.146 29.621L31.01 22.871C31.448 22.62 31.8122 22.2581 32.0661 21.8217C32.3199 21.3853 32.4544 20.8898 32.456 20.385L32.476 10.963C32.4753 10.4581 32.3416 9.96222 32.0883 9.52543C31.8349 9.08863 31.4709 8.72632 31.033 8.475L18.7 1.38C18.2634 1.13259 17.7702 1.0023 17.2684 1.00177C16.7666 1.00125 16.2731 1.13051 15.836 1.377L3.466 8.414C3.02797 8.66549 2.66378 9.02776 2.40998 9.46445C2.15618 9.90115 2.02169 10.3969 2.02 10.902ZM12.302 26.418L8.352 24.138C8.29728 24.1142 8.24387 24.0875 8.192 24.058L4.084 21.696C3.84194 21.5578 3.64061 21.3581 3.50033 21.1173C3.36004 20.8764 3.28577 20.6028 3.285 20.324L3.305 10.902C3.30455 10.5472 3.42441 10.2028 3.645 9.925L3.656 9.912C3.78045 9.75808 3.93235 9.62856 4.104 9.53L16.466 2.497C16.5629 2.44228 16.6651 2.39739 16.771 2.363L16.791 2.356C16.9445 2.30864 17.1044 2.28504 17.265 2.286C17.5451 2.28517 17.8205 2.35757 18.064 2.496L30.392 9.59C30.726 9.78343 30.9794 10.0904 31.106 10.455C31.161 10.616 31.191 10.787 31.191 10.962L31.171 20.384C31.1716 20.6092 31.1237 20.8319 31.0306 21.0369C30.9374 21.2419 30.8011 21.4244 30.631 21.572C30.5559 21.6374 30.4749 21.6956 30.389 21.746L30.372 21.756L18.509 28.506C18.2021 28.681 17.8628 28.7917 17.5118 28.8316C17.1608 28.8715 16.8053 28.8396 16.467 28.738C16.2759 28.6802 16.0923 28.6 15.92 28.499L12.302 26.419V26.418Z" fill="white" fill-opacity="0.8"/>
<path d="M8.21399 24.058L8.35099 24.138L12.302 26.418L14.191 23.561L9.19099 20.061L8.21399 24.058Z" fill="#040404"/>
</g>
<path d="M100.944 22.456C99.5202 22.456 98.2722 22.072 97.2002 21.304C96.1282 20.536 95.2882 19.456 94.6802 18.064C94.0882 16.672 93.7922 15.056 93.7922 13.216C93.7922 11.36 94.0882 9.744 94.6802 8.368C95.2722 6.992 96.1042 5.92 97.1762 5.152C98.2482 4.384 99.4962 4 100.92 4C102.376 4 103.632 4.384 104.688 5.152C105.76 5.92 106.6 7 107.208 8.392C107.816 9.768 108.12 11.376 108.12 13.216C108.12 15.056 107.816 16.672 107.208 18.064C106.616 19.44 105.784 20.52 104.712 21.304C103.64 22.072 102.384 22.456 100.944 22.456ZM100.968 19.48C101.784 19.48 102.48 19.232 103.056 18.736C103.632 18.224 104.072 17.504 104.376 16.576C104.696 15.632 104.856 14.512 104.856 13.216C104.856 11.92 104.696 10.808 104.376 9.88C104.072 8.936 103.624 8.216 103.032 7.72C102.456 7.224 101.752 6.976 100.92 6.976C100.12 6.976 99.4322 7.224 98.8562 7.72C98.2802 8.216 97.8322 8.936 97.5122 9.88C97.2082 10.808 97.0562 11.92 97.0562 13.216C97.0562 14.496 97.2082 15.608 97.5122 16.552C97.8322 17.48 98.2802 18.2 98.8562 18.712C99.4482 19.224 100.152 19.48 100.968 19.48Z" fill="#292929"/>
<path d="M84.9289 22.456C83.5849 22.456 82.4089 22.152 81.4009 21.544C80.3929 20.936 79.6089 20.112 79.0489 19.072C78.4889 18.032 78.2089 16.88 78.2089 15.616C78.2089 14.304 78.4889 13.144 79.0489 12.136C79.6249 11.112 80.4009 10.304 81.3769 9.71201C82.3689 9.12001 83.4729 8.82401 84.6889 8.82401C85.7129 8.82401 86.6089 8.99201 87.3769 9.32801C88.1609 9.66401 88.8249 10.128 89.3689 10.72C89.9129 11.312 90.3289 11.992 90.6169 12.76C90.9049 13.512 91.0489 14.328 91.0489 15.208C91.0489 15.432 91.0329 15.664 91.0009 15.904C90.9849 16.144 90.9449 16.352 90.8809 16.528H80.8009V14.128H89.1049L87.6169 15.256C87.7609 14.52 87.7209 13.864 87.4969 13.288C87.2889 12.712 86.9369 12.256 86.4409 11.92C85.9609 11.584 85.3769 11.416 84.6889 11.416C84.0329 11.416 83.4489 11.584 82.9369 11.92C82.4249 12.24 82.0329 12.72 81.7609 13.36C81.5049 13.984 81.4089 14.744 81.4729 15.64C81.4089 16.44 81.5129 17.152 81.7849 17.776C82.0729 18.384 82.4889 18.856 83.0329 19.192C83.5929 19.528 84.2329 19.696 84.9529 19.696C85.6729 19.696 86.2809 19.544 86.7769 19.24C87.2889 18.936 87.6889 18.528 87.9769 18.016L90.5209 19.264C90.2649 19.888 89.8649 20.44 89.3209 20.92C88.7769 21.4 88.1289 21.776 87.3769 22.048C86.6409 22.32 85.8249 22.456 84.9289 22.456Z" fill="#292929"/>
<path d="M62.1319 26.968V9.11201H65.0839V11.704L64.7959 11.056C65.2439 10.352 65.8519 9.80801 66.6199 9.42401C67.3879 9.02401 68.2759 8.82401 69.2839 8.82401C70.5159 8.82401 71.6279 9.12801 72.6199 9.73601C73.6119 10.344 74.3959 11.16 74.9719 12.184C75.5639 13.208 75.8599 14.36 75.8599 15.64C75.8599 16.904 75.5719 18.056 74.9959 19.096C74.4199 20.136 73.6359 20.96 72.6439 21.568C71.6519 22.16 70.5239 22.456 69.2599 22.456C68.3159 22.456 67.4439 22.272 66.6439 21.904C65.8599 21.52 65.2359 20.976 64.7719 20.272L65.2759 19.648V26.968H62.1319ZM68.8999 19.576C69.6199 19.576 70.2599 19.408 70.8199 19.072C71.3799 18.736 71.8119 18.272 72.1159 17.68C72.4359 17.088 72.5959 16.408 72.5959 15.64C72.5959 14.872 72.4359 14.2 72.1159 13.624C71.8119 13.032 71.3799 12.568 70.8199 12.232C70.2599 11.88 69.6199 11.704 68.8999 11.704C68.2119 11.704 67.5879 11.872 67.0279 12.208C66.4839 12.544 66.0519 13.016 65.7319 13.624C65.4279 14.216 65.2759 14.888 65.2759 15.64C65.2759 16.408 65.4279 17.088 65.7319 17.68C66.0519 18.272 66.4839 18.736 67.0279 19.072C67.5879 19.408 68.2119 19.576 68.8999 19.576Z" fill="#292929"/>
<path d="M55.605 22.168V9.11199H58.749V22.168H55.605ZM55.605 7.64799V4.28799H58.749V7.64799H55.605Z" fill="#292929"/>
<path d="M39 26.968V9.11201H41.952V11.704L41.664 11.056C42.112 10.352 42.72 9.80801 43.488 9.42401C44.256 9.02401 45.144 8.82401 46.152 8.82401C47.384 8.82401 48.496 9.12801 49.488 9.73601C50.48 10.344 51.264 11.16 51.84 12.184C52.432 13.208 52.728 14.36 52.728 15.64C52.728 16.904 52.44 18.056 51.864 19.096C51.288 20.136 50.504 20.96 49.512 21.568C48.52 22.16 47.392 22.456 46.128 22.456C45.184 22.456 44.312 22.272 43.512 21.904C42.728 21.52 42.104 20.976 41.64 20.272L42.144 19.648V26.968H39ZM45.768 19.576C46.488 19.576 47.128 19.408 47.688 19.072C48.248 18.736 48.68 18.272 48.984 17.68C49.304 17.088 49.464 16.408 49.464 15.64C49.464 14.872 49.304 14.2 48.984 13.624C48.68 13.032 48.248 12.568 47.688 12.232C47.128 11.88 46.488 11.704 45.768 11.704C45.08 11.704 44.456 11.872 43.896 12.208C43.352 12.544 42.92 13.016 42.6 13.624C42.296 14.216 42.144 14.888 42.144 15.64C42.144 16.408 42.296 17.088 42.6 17.68C42.92 18.272 43.352 18.736 43.896 19.072C44.456 19.408 45.08 19.576 45.768 19.576Z" fill="#292929"/>
<defs>
<clipPath id="clip0_347_247">
<rect width="31" height="30" fill="white" transform="translate(2 1)"/>
</clipPath>
</defs>
</svg>
