<svg width="1100" height="400" viewBox="0 0 1100 400" fill="none" xmlns="http://www.w3.org/2000/svg">
<g clip-path="url(#clip0_584_44)">
<path d="M357.328 260.275L329.95 258.425L344.889 280.571C348.971 286.618 349.282 294.338 345.695 300.522L318.574 347.284C314.987 353.468 308.116 357.059 300.813 356.565L146.441 346.136C140.337 345.725 134.734 342.504 131.324 337.448L45.0631 209.578C40.9844 203.534 40.6745 195.814 44.2612 189.63L71.3825 142.868C74.9691 136.683 81.8396 133.092 89.1384 133.585L116.517 135.434L101.578 113.288C97.4993 107.244 97.1894 99.5238 100.776 93.3398L127.897 46.5777C131.484 40.3936 138.354 36.8022 145.653 37.2947L300.028 47.724C306.131 48.1368 311.735 51.3574 315.145 56.4124L401.404 184.281C405.486 190.328 405.797 198.048 402.21 204.232L375.089 250.994C371.502 257.178 364.631 260.77 357.328 260.275Z" stroke="white" stroke-width="70" stroke-linecap="round" stroke-linejoin="round"/>
<path d="M88.4515 137.084L242.826 147.513C248.929 147.926 254.533 151.147 257.944 156.202L344.202 284.07C348.284 290.117 348.595 297.838 345.008 304.022L317.887 350.784C314.3 356.968 307.429 360.559 300.127 360.064L145.754 349.636C139.651 349.224 134.047 346.004 130.637 340.947L44.3762 213.078C40.2975 207.033 39.9876 199.313 43.5743 193.129L70.6956 146.367C74.2822 140.183 81.1527 136.592 88.4515 137.084Z" fill="#E8E8E8" stroke="#5C5E63" stroke-width="14.1" stroke-linecap="round" stroke-linejoin="round"/>
<g opacity="0.6">
<path d="M81.3545 140.735L174.449 282.773L344.616 291.977" stroke="#5C5E63" stroke-width="11.7" stroke-linecap="round" stroke-linejoin="round"/>
<path d="M138.046 345.552L174.474 282.743Z" fill="white"/>
<path d="M138.046 345.552L174.474 282.743" stroke="#5C5E63" stroke-width="11.7" stroke-linecap="round" stroke-linejoin="round"/>
</g>
<path d="M144.967 40.794L299.342 51.2232C305.445 51.6361 311.048 54.8567 314.459 59.9117L400.717 187.78C404.8 193.827 405.11 201.548 401.524 207.732L374.402 254.494C370.816 260.678 363.945 264.269 356.642 263.774L202.27 253.346C196.167 252.933 190.563 249.713 187.152 244.658L100.892 116.788C96.8131 110.743 96.5032 103.023 100.09 96.839L127.211 50.077C130.798 43.893 137.668 40.3015 144.967 40.794Z" fill="white" stroke="#5C5E63" stroke-width="14.1" stroke-linecap="round" stroke-linejoin="round"/>
<g opacity="0.6">
<path d="M137.856 44.4673L230.95 186.506L401.118 195.709" stroke="#5C5E63" stroke-width="11.7" stroke-linecap="round" stroke-linejoin="round"/>
<path d="M194.548 249.283L230.976 186.475" stroke="#5C5E63" stroke-width="11.7" stroke-linecap="round" stroke-linejoin="round"/>
</g>
<path d="M1025.17 261.425C1012.5 261.425 1001.4 258.025 991.863 251.225C982.327 244.424 974.855 234.861 969.447 222.535C964.181 210.209 961.548 195.899 961.548 179.606C961.548 163.172 964.181 148.862 969.447 136.678C974.713 124.494 982.114 115.001 991.65 108.201C1001.19 101.4 1012.29 98 1024.95 98C1037.91 98 1049.08 101.4 1058.47 108.201C1068.01 115.001 1075.48 124.565 1080.89 136.891C1086.3 149.075 1089 163.313 1089 179.606C1089 195.899 1086.3 210.209 1080.89 222.535C1075.62 234.719 1068.22 244.282 1058.68 251.225C1049.15 258.025 1037.98 261.425 1025.17 261.425ZM1025.38 235.073C1032.64 235.073 1038.83 232.877 1043.95 228.485C1049.08 223.952 1052.99 217.576 1055.7 209.359C1058.54 201 1059.97 191.082 1059.97 179.606C1059.97 168.131 1058.54 158.284 1055.7 150.067C1052.99 141.708 1049.01 135.332 1043.74 130.94C1038.62 126.548 1032.35 124.352 1024.95 124.352C1017.84 124.352 1011.72 126.548 1006.59 130.94C1001.47 135.332 997.485 141.708 994.638 150.067C991.934 158.284 990.582 168.131 990.582 179.606C990.582 190.941 991.934 200.787 994.638 209.146C997.485 217.364 1001.47 223.739 1006.59 228.273C1011.86 232.806 1018.12 235.073 1025.38 235.073Z" fill="white"/>
<path d="M882.706 261.425C870.751 261.425 860.29 258.733 851.323 253.35C842.357 247.966 835.383 240.67 830.402 231.46C825.42 222.251 822.93 212.051 822.93 200.858C822.93 189.24 825.42 178.969 830.402 170.043C835.525 160.976 842.428 153.821 851.11 148.579C859.934 143.337 869.755 140.716 880.571 140.716C889.68 140.716 897.65 142.203 904.482 145.179C911.456 148.154 917.362 152.263 922.201 157.505C927.04 162.747 930.741 168.768 933.303 175.569C935.864 182.227 937.145 189.453 937.145 197.245C937.145 199.229 937.003 201.283 936.718 203.408C936.576 205.533 936.22 207.375 935.651 208.934H845.986V187.682H919.853L906.617 197.67C907.898 191.153 907.542 185.344 905.549 180.244C903.699 175.144 900.568 171.106 896.156 168.13C891.886 165.155 886.691 163.668 880.571 163.668C874.736 163.668 869.541 165.155 864.987 168.13C860.432 170.964 856.945 175.214 854.526 180.881C852.249 186.407 851.395 193.137 851.964 201.071C851.395 208.154 852.32 214.459 854.739 219.985C857.301 225.368 861.002 229.548 865.841 232.523C870.822 235.498 876.515 236.986 882.92 236.986C889.324 236.986 894.733 235.64 899.145 232.948C903.699 230.256 907.257 226.643 909.819 222.11L932.449 233.161C930.171 238.686 926.613 243.574 921.774 247.824C916.935 252.075 911.171 255.404 904.482 257.813C897.935 260.221 890.676 261.425 882.706 261.425Z" fill="white"/>
<path d="M679.92 301.378V143.266H706.179V166.218L703.617 160.48C707.602 154.246 713.01 149.429 719.842 146.029C726.674 142.487 734.573 140.716 743.539 140.716C754.498 140.716 764.39 143.408 773.214 148.791C782.038 154.175 789.012 161.401 794.136 170.468C799.402 179.536 802.035 189.736 802.035 201.071C802.035 212.263 799.473 222.464 794.349 231.673C789.225 240.882 782.251 248.178 773.427 253.562C764.603 258.804 754.569 261.425 743.326 261.425C734.928 261.425 727.172 259.796 720.055 256.537C713.082 253.137 707.531 248.32 703.403 242.086L707.887 236.561V301.378H679.92ZM740.123 235.923C746.528 235.923 752.221 234.436 757.202 231.46C762.184 228.485 766.026 224.377 768.731 219.134C771.577 213.892 773 207.871 773 201.071C773 194.27 771.577 188.32 768.731 183.219C766.026 177.977 762.184 173.868 757.202 170.893C752.221 167.776 746.528 166.218 740.123 166.218C734.003 166.218 728.453 167.705 723.471 170.681C718.632 173.656 714.789 177.835 711.943 183.219C709.239 188.461 707.887 194.412 707.887 201.071C707.887 207.871 709.239 213.892 711.943 219.134C714.789 224.377 718.632 228.485 723.471 231.46C728.453 234.436 734.003 235.923 740.123 235.923Z" fill="white"/>
<path d="M621.861 258.875V143.266H649.828V258.875H621.861ZM621.861 130.303V100.55H649.828V130.303H621.861Z" fill="white"/>
<path d="M474.155 301.378V143.266H500.414V166.218L497.852 160.48C501.837 154.246 507.246 149.429 514.077 146.029C520.909 142.487 528.808 140.716 537.774 140.716C548.733 140.716 558.625 143.408 567.449 148.791C576.273 154.175 583.247 161.401 588.371 170.468C593.637 179.536 596.27 189.736 596.27 201.071C596.27 212.263 593.708 222.464 588.584 231.673C583.461 240.882 576.487 248.178 567.663 253.562C558.838 258.804 548.805 261.425 537.561 261.425C529.164 261.425 521.407 259.796 514.291 256.537C507.317 253.137 501.766 248.32 497.639 242.086L502.122 236.561V301.378H474.155ZM534.359 235.923C540.763 235.923 546.456 234.436 551.438 231.46C556.419 228.485 560.262 224.377 562.966 219.134C565.812 213.892 567.236 207.871 567.236 201.071C567.236 194.27 565.812 188.32 562.966 183.219C560.262 177.977 556.419 173.868 551.438 170.893C546.456 167.776 540.763 166.218 534.359 166.218C528.239 166.218 522.688 167.705 517.707 170.681C512.868 173.656 509.025 177.835 506.178 183.219C503.474 188.461 502.122 194.412 502.122 201.071C502.122 207.871 503.474 213.892 506.178 219.134C509.025 224.377 512.868 228.485 517.707 231.46C522.688 234.436 528.239 235.923 534.359 235.923Z" fill="white"/>
</g>
<defs>
<clipPath id="clip0_584_44">
<rect width="1100" height="400" fill="white"/>
</clipPath>
</defs>
</svg>
